<svg class="main-svg" xmlns="http://www.w3.org/2000/svg" xmlns:xlink="http://www.w3.org/1999/xlink" width="1000" height="300" viewBox="0 0 1000 300"><rect x="0" y="0" width="1000" height="300" style="fill: rgb(255, 255, 255); fill-opacity: 1;"/><defs id="defs-129b28"><g class="clips"><clipPath id="clip129b28xyplot" class="plotclip"><rect width="114.28666666666668" height="120"/></clipPath><clipPath id="clip129b28x2y2plot" class="plotclip"><rect width="114.28666666666666" height="120"/></clipPath><clipPath class="axesclip" id="clip129b28x"><rect x="52" y="0" width="114.28666666666668" height="300"/></clipPath><clipPath class="axesclip" id="clip129b28y"><rect x="0" y="100" width="1000" height="120"/></clipPath><clipPath class="axesclip" id="clip129b28xy"><rect x="52" y="100" width="114.28666666666668" height="120"/></clipPath><clipPath class="axesclip" id="clip129b28y2"><rect x="0" y="100" width="1000" height="120"/></clipPath><clipPath class="axesclip" id="clip129b28xy2"><rect x="52" y="100" width="114.28666666666668" height="120"/></clipPath><clipPath class="axesclip" id="clip129b28x2"><rect x="202.74266666666668" y="0" width="114.28666666666666" height="300"/></clipPath><clipPath class="axesclip" id="clip129b28x2y"><rect x="202.74266666666668" y="100" width="114.28666666666666" height="120"/></clipPath><clipPath class="axesclip" id="clip129b28x2y2"><rect x="202.74266666666668" y="100" width="114.28666666666666" height="120"/></clipPath></g><g class="gradients"/></defs><g class="bglayer"/><g class="layer-below"><g class="imagelayer"/><g class="shapelayer"/></g><g class="cartesianlayer"><g class="subplot xy"><g class="layer-subplot"><g class="shapelayer"/><g class="imagelayer"/></g><g class="gridlayer"><g class="x"><path class="xgrid crisp" transform="translate(97.38,0)" d="M0,100v120" style="stroke: rgb(238, 238, 238); stroke-opacity: 1; stroke-width: 1px;"/><path class="xgrid crisp" transform="translate(146.6,0)" d="M0,100v120" style="stroke: rgb(238, 238, 238); stroke-opacity: 1; stroke-width: 1px;"/></g><g class="y"><path class="ygrid crisp" transform="translate(0,160)" d="M52,0h114.28666666666668" style="stroke: rgb(238, 238, 238); stroke-opacity: 1; stroke-width: 1px;"/></g></g><g class="zerolinelayer"/><path class="xlines-below"/><path class="ylines-below"/><g class="overlines-below"/><g class="xaxislayer-below"/><g class="yaxislayer-below"/><g class="overaxes-below"/><g class="plot" transform="translate(52, 100)" clip-path="url('#clip129b28xyplot')"><g class="scatterlayer mlayer"><g class="trace scatter tracec76a70" style="stroke-miterlimit: 2; opacity: 1;"><g class="fills"/><g class="errorbars"/><g class="lines"><path class="js-line" d="M0,9.63L11.52,10.56L15.36,12.73L26.88,19.88L30.72,21.37L46.09,25.11L49.93,25.91L84.49,33.16L88.33,34.29L92.17,35.6L96.02,37.72L107.54,43.95L111.38,51.16L115.22,120" style="vector-effect: non-scaling-stroke; fill: none; stroke: rgb(141, 196, 71); stroke-opacity: 1; stroke-width: 2px; opacity: 1;"/></g><g class="points"/><g class="text"/></g><g class="trace scatter traced5508e" style="stroke-miterlimit: 2; opacity: 1;"><g class="fills"/><g class="errorbars"/><g class="lines"><path class="js-line" d="M0,19.64L11.52,21.05L15.36,27.43L23.04,43.05L26.88,51.67L30.72,61.1L34.57,73.88L38.41,120" style="vector-effect: non-scaling-stroke; fill: none; stroke: rgb(255, 85, 85); stroke-opacity: 1; stroke-width: 2px; opacity: 1;"/></g><g class="points"/><g class="text"/></g><g class="trace scatter trace4d9010" style="stroke-miterlimit: 2; opacity: 1;"><g class="fills"/><g class="errorbars"/><g class="lines"><path class="js-line" d="M0,17.35L7.68,18.84L11.52,19.39L23.04,23.15L26.88,24.19L46.09,30.13L49.93,31.7L57.61,35.64L61.45,38.22L65.29,41.57L69.13,46.69L72.97,53.11L76.81,120" style="vector-effect: non-scaling-stroke; fill: none; stroke: rgb(118, 209, 244); stroke-opacity: 1; stroke-width: 2px; opacity: 1;"/></g><g class="points"/><g class="text"/></g></g></g><g class="overplot"/><path class="xlines-above crisp" d="M51,220.5H167.2866666666667M51,99.5H167.2866666666667" style="fill: none; stroke-width: 1px; stroke: rgb(0, 0, 0); stroke-opacity: 1;"/><path class="ylines-above crisp" d="M51.5,100V220M166.7866666666667,100V220" style="fill: none; stroke-width: 1px; stroke: rgb(0, 0, 0); stroke-opacity: 1;"/><g class="overlines-above"/><g class="xaxislayer-above"><path class="xtick ticks crisp" d="M0,221v5" transform="translate(97.38,0)" style="stroke: rgb(68, 68, 68); stroke-opacity: 1; stroke-width: 1px;"/><path class="xtick ticks crisp" d="M0,221v5" transform="translate(146.6,0)" style="stroke: rgb(68, 68, 68); stroke-opacity: 1; stroke-width: 1px;"/><g class="xtick"><text text-anchor="middle" x="0" y="242.8" transform="translate(97.38,0)" style="font-family: 'Open Sans', verdana, arial, sans-serif; font-size: 14px; fill: rgb(0, 0, 0); fill-opacity: 1; white-space: pre;">5</text></g><g class="xtick"><text text-anchor="middle" x="0" y="242.8" transform="translate(146.6,0)" style="font-family: 'Open Sans', verdana, arial, sans-serif; font-size: 14px; fill: rgb(0, 0, 0); fill-opacity: 1; white-space: pre;">10</text></g></g><g class="yaxislayer-above"><path class="ytick ticks crisp" d="M51,0h-5" transform="translate(0,220)" style="stroke: rgb(68, 68, 68); stroke-opacity: 1; stroke-width: 1px;"/><path class="ytick ticks crisp" d="M51,0h-5" transform="translate(0,160)" style="stroke: rgb(68, 68, 68); stroke-opacity: 1; stroke-width: 1px;"/><path class="ytick ticks crisp" d="M51,0h-5" transform="translate(0,100)" style="stroke: rgb(68, 68, 68); stroke-opacity: 1; stroke-width: 1px;"/><g class="ytick"><text text-anchor="end" x="43.2" y="4.8999999999999995" transform="translate(0,220)" style="font-family: 'Open Sans', verdana, arial, sans-serif; font-size: 14px; fill: rgb(0, 0, 0); fill-opacity: 1; white-space: pre;">0</text></g><g class="ytick"><text text-anchor="end" x="43.2" y="4.8999999999999995" transform="translate(0,160)" style="font-family: 'Open Sans', verdana, arial, sans-serif; font-size: 14px; fill: rgb(0, 0, 0); fill-opacity: 1; white-space: pre;">50</text></g><g class="ytick"><text text-anchor="end" x="43.2" y="4.8999999999999995" transform="translate(0,100)" style="font-family: 'Open Sans', verdana, arial, sans-serif; font-size: 14px; fill: rgb(0, 0, 0); fill-opacity: 1; white-space: pre;">100</text></g></g><g class="overaxes-above"/></g><g class="subplot x2y2"><g class="layer-subplot"><g class="shapelayer"/><g class="imagelayer"/></g><g class="gridlayer"><g class="x2"><path class="x2grid crisp" transform="translate(241.84266666666667,0)" d="M0,100v120" style="stroke: rgb(238, 238, 238); stroke-opacity: 1; stroke-width: 1px;"/><path class="x2grid crisp" transform="translate(284.8026666666667,0)" d="M0,100v120" style="stroke: rgb(238, 238, 238); stroke-opacity: 1; stroke-width: 1px;"/></g><g class="y2"><path class="y2grid crisp" transform="translate(0,160)" d="M202.74266666666668,0h114.28666666666666" style="stroke: rgb(238, 238, 238); stroke-opacity: 1; stroke-width: 1px;"/></g></g><g class="zerolinelayer"/><path class="xlines-below"/><path class="ylines-below"/><g class="overlines-below"/><g class="xaxislayer-below"/><g class="yaxislayer-below"/><g class="overaxes-below"/><g class="plot" transform="translate(202.74266666666668, 100)" clip-path="url('#clip129b28x2y2plot')"><g class="scatterlayer mlayer"><g class="trace scatter tracee23f4f" style="stroke-miterlimit: 2; opacity: 1;"><g class="fills"/><g class="errorbars"/><g class="lines"><path class="js-line" d="M0,11.72L11.61,13.02L15.48,16L27.09,24.19L30.96,25.83L42.58,28.98L46.45,29.83L77.41,36.27L81.28,38.78L85.15,38.42L89.02,40.99L92.89,42.25L96.76,44.32L100.63,46.34L104.5,52.08L108.37,120" style="vector-effect: non-scaling-stroke; fill: none; stroke: rgb(141, 196, 71); stroke-opacity: 1; stroke-width: 2px; opacity: 1;"/></g><g class="points"/><g class="text"/></g><g class="trace scatter traceaccd5b" style="stroke-miterlimit: 2; opacity: 1;"><g class="fills"/><g class="errorbars"/><g class="lines"><path class="js-line" d="M0,20.39L7.74,20.82L11.61,23.26L19.35,36.59L23.22,46.62L27.09,61.02L30.96,120" style="vector-effect: non-scaling-stroke; fill: none; stroke: rgb(255, 85, 85); stroke-opacity: 1; stroke-width: 2px; opacity: 1;"/></g><g class="points"/><g class="text"/></g><g class="trace scatter trace77e581" style="stroke-miterlimit: 2; opacity: 1;"><g class="fills"/><g class="errorbars"/><g class="lines"><path class="js-line" d="M0,21.01L15.48,25.44L19.35,26.73L46.45,35.36L50.32,37.1L58.06,41.61L61.93,44.8L65.8,49.63L69.67,56.3L73.54,120" style="vector-effect: non-scaling-stroke; fill: none; stroke: rgb(118, 209, 244); stroke-opacity: 1; stroke-width: 2px; opacity: 1;"/></g><g class="points"/><g class="text"/></g></g></g><g class="overplot"/><path class="xlines-above crisp" d="M201.74266666666668,220.5H318.02933333333334M201.74266666666668,99.5H318.02933333333334" style="fill: none; stroke-width: 1px; stroke: rgb(0, 0, 0); stroke-opacity: 1;"/><path class="ylines-above crisp" d="M202.24266666666668,100V220M317.52933333333334,100V220" style="fill: none; stroke-width: 1px; stroke: rgb(0, 0, 0); stroke-opacity: 1;"/><g class="overlines-above"/><g class="xaxislayer-above"><path class="x2tick ticks crisp" d="M0,221v5" transform="translate(241.84266666666667,0)" style="stroke: rgb(68, 68, 68); stroke-opacity: 1; stroke-width: 1px;"/><path class="x2tick ticks crisp" d="M0,221v5" transform="translate(284.8026666666667,0)" style="stroke: rgb(68, 68, 68); stroke-opacity: 1; stroke-width: 1px;"/><g class="x2tick"><text text-anchor="middle" x="0" y="242.8" transform="translate(241.84266666666667,0)" style="font-family: 'Open Sans', verdana, arial, sans-serif; font-size: 14px; fill: rgb(0, 0, 0); fill-opacity: 1; white-space: pre;">2</text></g><g class="x2tick"><text text-anchor="middle" x="0" y="242.8" transform="translate(284.8026666666667,0)" style="font-family: 'Open Sans', verdana, arial, sans-serif; font-size: 14px; fill: rgb(0, 0, 0); fill-opacity: 1; white-space: pre;">4</text></g></g><g class="yaxislayer-above"><path class="y2tick ticks crisp" d="M201.74266666666668,0h-5" transform="translate(0,220)" style="stroke: rgb(68, 68, 68); stroke-opacity: 1; stroke-width: 1px;"/><path class="y2tick ticks crisp" d="M201.74266666666668,0h-5" transform="translate(0,160)" style="stroke: rgb(68, 68, 68); stroke-opacity: 1; stroke-width: 1px;"/><path class="y2tick ticks crisp" d="M201.74266666666668,0h-5" transform="translate(0,100)" style="stroke: rgb(68, 68, 68); stroke-opacity: 1; stroke-width: 1px;"/><g class="y2tick"><text text-anchor="end" x="193.94266666666667" y="4.8999999999999995" transform="translate(0,220)" style="font-family: 'Open Sans', verdana, arial, sans-serif; font-size: 14px; fill: rgb(0, 0, 0); fill-opacity: 1; white-space: pre;">0</text></g><g class="y2tick"><text text-anchor="end" x="193.94266666666667" y="4.8999999999999995" transform="translate(0,160)" style="font-family: 'Open Sans', verdana, arial, sans-serif; font-size: 14px; fill: rgb(0, 0, 0); fill-opacity: 1; white-space: pre;">50</text></g><g class="y2tick"><text text-anchor="end" x="193.94266666666667" y="4.8999999999999995" transform="translate(0,100)" style="font-family: 'Open Sans', verdana, arial, sans-serif; font-size: 14px; fill: rgb(0, 0, 0); fill-opacity: 1; white-space: pre;">100</text></g></g><g class="overaxes-above"/></g></g><g class="polarlayer"/><g class="ternarylayer"/><g class="geolayer"/><g class="funnelarealayer"/><g class="pielayer"/><g class="treemaplayer"/><g class="sunburstlayer"/><g class="glimages"/><defs id="topdefs-129b28"><g class="clips"/></defs><g class="layer-above"><g class="imagelayer"/><g class="shapelayer"/></g><g class="infolayer"><g class="g-gtitle"/><g class="g-xtitle" transform="translate(0,3.5999999999999943)"><text class="xtitle" x="109.14333333333335" y="254.4" text-anchor="middle" style="font-family: 'Open Sans', verdana, arial, sans-serif; font-size: 12px; fill: rgb(0, 0, 0); opacity: 1; font-weight: normal; white-space: pre;">Min Rate (g/L.h)</text></g><g class="g-x2title" transform="translate(0,3.5999999999999943)"><text class="x2title" x="259.886" y="254.4" text-anchor="middle" style="font-family: 'Open Sans', verdana, arial, sans-serif; font-size: 12px; fill: rgb(0, 0, 0); opacity: 1; font-weight: normal; white-space: pre;">Min Rate (g/L.h)</text></g><g class="g-ytitle" transform="translate(3.916015625,0)"><text class="ytitle" transform="rotate(-90,8.084375000000001,160)" x="8.084375000000001" y="160" text-anchor="middle" style="font-family: 'Open Sans', verdana, arial, sans-serif; font-size: 12px; fill: rgb(0, 0, 0); opacity: 1; font-weight: normal; white-space: pre;">Max Yield (% Max)</text></g><g class="g-y2title"/><g class="annotation" data-index="0" style="opacity: 1;"><g class="annotation-text-g" transform="rotate(0,109.14333333333335,88.5)"><g class="cursor-pointer" transform="translate(74, 77)"><rect class="bg" x="0.5" y="0.5" width="69" height="22" style="stroke-width: 1px; stroke: rgb(0, 0, 0); stroke-opacity: 0; fill: rgb(0, 0, 0); fill-opacity: 0;"/><text class="annotation-text" text-anchor="middle" x="35.171875" y="18" style="font-family: 'Open Sans', verdana, arial, sans-serif; font-size: 16px; fill: rgb(0, 0, 0); fill-opacity: 1; white-space: pre;">Formate</text></g></g></g><g class="annotation" data-index="1" style="opacity: 1;"><g class="annotation-text-g" transform="rotate(0,259.886,88.5)"><g class="cursor-pointer" transform="translate(239, 77)"><rect class="bg" x="0.5" y="0.5" width="41" height="22" style="stroke-width: 1px; stroke: rgb(0, 0, 0); stroke-opacity: 0; fill: rgb(0, 0, 0); fill-opacity: 0;"/><text class="annotation-text" text-anchor="middle" x="20.828125" y="18" style="font-family: 'Open Sans', verdana, arial, sans-serif; font-size: 16px; fill: rgb(0, 0, 0); fill-opacity: 1; white-space: pre;">Urea</text></g></g></g></g></svg>