<svg class="main-svg" xmlns="http://www.w3.org/2000/svg" xmlns:xlink="http://www.w3.org/1999/xlink" width="1000" height="300" viewBox="0 0 1000 300"><rect x="0" y="0" width="1000" height="300" style="fill: rgb(255, 255, 255); fill-opacity: 1;"/><defs id="defs-939bbe"><g class="clips"><clipPath id="clip939bbexyplot" class="plotclip"><rect width="114.28666666666668" height="120"/></clipPath><clipPath id="clip939bbex2y2plot" class="plotclip"><rect width="114.28666666666666" height="120"/></clipPath><clipPath id="clip939bbex3y3plot" class="plotclip"><rect width="114.2866666666667" height="120"/></clipPath><clipPath id="clip939bbex4y4plot" class="plotclip"><rect width="114.2866666666667" height="120"/></clipPath><clipPath id="clip939bbex5y5plot" class="plotclip"><rect width="114.2866666666667" height="120"/></clipPath><clipPath id="clip939bbex6y6plot" class="plotclip"><rect width="114.2866666666666" height="120"/></clipPath><clipPath class="axesclip" id="clip939bbex"><rect x="52" y="0" width="114.28666666666668" height="300"/></clipPath><clipPath class="axesclip" id="clip939bbey"><rect x="0" y="100" width="1000" height="120"/></clipPath><clipPath class="axesclip" id="clip939bbexy"><rect x="52" y="100" width="114.28666666666668" height="120"/></clipPath><clipPath class="axesclip" id="clip939bbey2"><rect x="0" y="100" width="1000" height="120"/></clipPath><clipPath class="axesclip" id="clip939bbexy2"><rect x="52" y="100" width="114.28666666666668" height="120"/></clipPath><clipPath class="axesclip" id="clip939bbey3"><rect x="0" y="100" width="1000" height="120"/></clipPath><clipPath class="axesclip" id="clip939bbexy3"><rect x="52" y="100" width="114.28666666666668" height="120"/></clipPath><clipPath class="axesclip" id="clip939bbey4"><rect x="0" y="100" width="1000" height="120"/></clipPath><clipPath class="axesclip" id="clip939bbexy4"><rect x="52" y="100" width="114.28666666666668" height="120"/></clipPath><clipPath class="axesclip" id="clip939bbey5"><rect x="0" y="100" width="1000" height="120"/></clipPath><clipPath class="axesclip" id="clip939bbexy5"><rect x="52" y="100" width="114.28666666666668" height="120"/></clipPath><clipPath class="axesclip" id="clip939bbey6"><rect x="0" y="100" width="1000" height="120"/></clipPath><clipPath class="axesclip" id="clip939bbexy6"><rect x="52" y="100" width="114.28666666666668" height="120"/></clipPath><clipPath class="axesclip" id="clip939bbex2"><rect x="202.74266666666668" y="0" width="114.28666666666666" height="300"/></clipPath><clipPath class="axesclip" id="clip939bbex2y"><rect x="202.74266666666668" y="100" width="114.28666666666666" height="120"/></clipPath><clipPath class="axesclip" id="clip939bbex2y2"><rect x="202.74266666666668" y="100" width="114.28666666666666" height="120"/></clipPath><clipPath class="axesclip" id="clip939bbex2y3"><rect x="202.74266666666668" y="100" width="114.28666666666666" height="120"/></clipPath><clipPath class="axesclip" id="clip939bbex2y4"><rect x="202.74266666666668" y="100" width="114.28666666666666" height="120"/></clipPath><clipPath class="axesclip" id="clip939bbex2y5"><rect x="202.74266666666668" y="100" width="114.28666666666666" height="120"/></clipPath><clipPath class="axesclip" id="clip939bbex2y6"><rect x="202.74266666666668" y="100" width="114.28666666666666" height="120"/></clipPath><clipPath class="axesclip" id="clip939bbex3"><rect x="353.48533333333336" y="0" width="114.2866666666667" height="300"/></clipPath><clipPath class="axesclip" id="clip939bbex3y"><rect x="353.48533333333336" y="100" width="114.2866666666667" height="120"/></clipPath><clipPath class="axesclip" id="clip939bbex3y2"><rect x="353.48533333333336" y="100" width="114.2866666666667" height="120"/></clipPath><clipPath class="axesclip" id="clip939bbex3y3"><rect x="353.48533333333336" y="100" width="114.2866666666667" height="120"/></clipPath><clipPath class="axesclip" id="clip939bbex3y4"><rect x="353.48533333333336" y="100" width="114.2866666666667" height="120"/></clipPath><clipPath class="axesclip" id="clip939bbex3y5"><rect x="353.48533333333336" y="100" width="114.2866666666667" height="120"/></clipPath><clipPath class="axesclip" id="clip939bbex3y6"><rect x="353.48533333333336" y="100" width="114.2866666666667" height="120"/></clipPath><clipPath class="axesclip" id="clip939bbex4"><rect x="504.228" y="0" width="114.2866666666667" height="300"/></clipPath><clipPath class="axesclip" id="clip939bbex4y"><rect x="504.228" y="100" width="114.2866666666667" height="120"/></clipPath><clipPath class="axesclip" id="clip939bbex4y2"><rect x="504.228" y="100" width="114.2866666666667" height="120"/></clipPath><clipPath class="axesclip" id="clip939bbex4y3"><rect x="504.228" y="100" width="114.2866666666667" height="120"/></clipPath><clipPath class="axesclip" id="clip939bbex4y4"><rect x="504.228" y="100" width="114.2866666666667" height="120"/></clipPath><clipPath class="axesclip" id="clip939bbex4y5"><rect x="504.228" y="100" width="114.2866666666667" height="120"/></clipPath><clipPath class="axesclip" id="clip939bbex4y6"><rect x="504.228" y="100" width="114.2866666666667" height="120"/></clipPath><clipPath class="axesclip" id="clip939bbex5"><rect x="654.9706666666667" y="0" width="114.2866666666667" height="300"/></clipPath><clipPath class="axesclip" id="clip939bbex5y"><rect x="654.9706666666667" y="100" width="114.2866666666667" height="120"/></clipPath><clipPath class="axesclip" id="clip939bbex5y2"><rect x="654.9706666666667" y="100" width="114.2866666666667" height="120"/></clipPath><clipPath class="axesclip" id="clip939bbex5y3"><rect x="654.9706666666667" y="100" width="114.2866666666667" height="120"/></clipPath><clipPath class="axesclip" id="clip939bbex5y4"><rect x="654.9706666666667" y="100" width="114.2866666666667" height="120"/></clipPath><clipPath class="axesclip" id="clip939bbex5y5"><rect x="654.9706666666667" y="100" width="114.2866666666667" height="120"/></clipPath><clipPath class="axesclip" id="clip939bbex5y6"><rect x="654.9706666666667" y="100" width="114.2866666666667" height="120"/></clipPath><clipPath class="axesclip" id="clip939bbex6"><rect x="805.7133333333334" y="0" width="114.2866666666666" height="300"/></clipPath><clipPath class="axesclip" id="clip939bbex6y"><rect x="805.7133333333334" y="100" width="114.2866666666666" height="120"/></clipPath><clipPath class="axesclip" id="clip939bbex6y2"><rect x="805.7133333333334" y="100" width="114.2866666666666" height="120"/></clipPath><clipPath class="axesclip" id="clip939bbex6y3"><rect x="805.7133333333334" y="100" width="114.2866666666666" height="120"/></clipPath><clipPath class="axesclip" id="clip939bbex6y4"><rect x="805.7133333333334" y="100" width="114.2866666666666" height="120"/></clipPath><clipPath class="axesclip" id="clip939bbex6y5"><rect x="805.7133333333334" y="100" width="114.2866666666666" height="120"/></clipPath><clipPath class="axesclip" id="clip939bbex6y6"><rect x="805.7133333333334" y="100" width="114.2866666666666" height="120"/></clipPath></g><g class="gradients"/></defs><g class="bglayer"/><g class="layer-below"><g class="imagelayer"/><g class="shapelayer"/></g><g class="cartesianlayer"><g class="subplot xy"><g class="layer-subplot"><g class="shapelayer"/><g class="imagelayer"/></g><g class="gridlayer"><g class="x"><path class="xgrid crisp" transform="translate(87.39,0)" d="M0,100v120" style="stroke: rgb(238, 238, 238); stroke-opacity: 1; stroke-width: 1px;"/><path class="xgrid crisp" transform="translate(126.84,0)" d="M0,100v120" style="stroke: rgb(238, 238, 238); stroke-opacity: 1; stroke-width: 1px;"/></g><g class="y"><path class="ygrid crisp" transform="translate(0,160)" d="M52,0h114.28666666666668" style="stroke: rgb(238, 238, 238); stroke-opacity: 1; stroke-width: 1px;"/></g></g><g class="zerolinelayer"/><path class="xlines-below"/><path class="ylines-below"/><g class="overlines-below"/><g class="xaxislayer-below"/><g class="yaxislayer-below"/><g class="overaxes-below"/><g class="plot" transform="translate(52, 100)" clip-path="url('#clip939bbexyplot')"><g class="scatterlayer mlayer"><g class="trace scatter trace1f06c5" style="stroke-miterlimit: 2; opacity: 1;"><g class="fills"/><g class="errorbars"/><g class="lines"><path class="js-line" d="M0,11.14L12.16,12.97L16.22,17.07L32.44,24.64L36.49,25.84L60.82,31.32L64.88,32.12L81.09,36.34L85.15,37.73L89.2,39.27L93.26,41.66L97.31,44.06L101.37,49.54L105.42,50.89L109.48,120" style="vector-effect: non-scaling-stroke; fill: none; stroke: rgb(141, 196, 71); stroke-opacity: 1; stroke-width: 2px; opacity: 1;"/></g><g class="points"/><g class="text"/></g><g class="trace scatter trace833810" style="stroke-miterlimit: 2; opacity: 1;"><g class="fills"/><g class="errorbars"/><g class="lines"><path class="js-line" d="M0,20.41L8.11,20.81L12.16,25.16L20.27,38.35L24.33,49.66L28.38,61.5L32.44,120" style="vector-effect: non-scaling-stroke; fill: none; stroke: rgb(255, 85, 85); stroke-opacity: 1; stroke-width: 2px; opacity: 1;"/></g><g class="points"/><g class="text"/></g><g class="trace scatter trace298cfa" style="stroke-miterlimit: 2; opacity: 1;"><g class="fills"/><g class="errorbars"/><g class="lines"><path class="js-line" d="M0,19.29L12.16,22.32L16.22,23.92L44.6,33.19L48.66,35.01L56.77,39.75L60.82,43.59L64.88,50.23L68.93,120" style="vector-effect: non-scaling-stroke; fill: none; stroke: rgb(118, 209, 244); stroke-opacity: 1; stroke-width: 2px; opacity: 1;"/></g><g class="points"/><g class="text"/></g></g></g><g class="overplot"/><path class="xlines-above crisp" d="M51,220.5H167.2866666666667M51,99.5H167.2866666666667" style="fill: none; stroke-width: 1px; stroke: rgb(0, 0, 0); stroke-opacity: 1;"/><path class="ylines-above crisp" d="M51.5,100V220M166.7866666666667,100V220" style="fill: none; stroke-width: 1px; stroke: rgb(0, 0, 0); stroke-opacity: 1;"/><g class="overlines-above"/><g class="xaxislayer-above"><path class="xtick ticks crisp" d="M0,221v5" transform="translate(87.39,0)" style="stroke: rgb(68, 68, 68); stroke-opacity: 1; stroke-width: 1px;"/><path class="xtick ticks crisp" d="M0,221v5" transform="translate(126.84,0)" style="stroke: rgb(68, 68, 68); stroke-opacity: 1; stroke-width: 1px;"/><path class="xtick ticks crisp" d="M0,221v5" transform="translate(166.29000000000002,0)" style="stroke: rgb(68, 68, 68); stroke-opacity: 1; stroke-width: 1px;"/><g class="xtick"><text text-anchor="middle" x="0" y="242.8" transform="translate(87.39,0)" style="font-family: 'Open Sans', verdana, arial, sans-serif; font-size: 14px; fill: rgb(0, 0, 0); fill-opacity: 1; white-space: pre;">1</text></g><g class="xtick"><text text-anchor="middle" x="0" y="242.8" transform="translate(126.84,0)" style="font-family: 'Open Sans', verdana, arial, sans-serif; font-size: 14px; fill: rgb(0, 0, 0); fill-opacity: 1; white-space: pre;">2</text></g><g class="xtick"><text text-anchor="middle" x="0" y="242.8" transform="translate(166.29000000000002,0)" style="font-family: 'Open Sans', verdana, arial, sans-serif; font-size: 14px; fill: rgb(0, 0, 0); fill-opacity: 1; white-space: pre;">3</text></g></g><g class="yaxislayer-above"><path class="ytick ticks crisp" d="M51,0h-5" transform="translate(0,220)" style="stroke: rgb(68, 68, 68); stroke-opacity: 1; stroke-width: 1px;"/><path class="ytick ticks crisp" d="M51,0h-5" transform="translate(0,160)" style="stroke: rgb(68, 68, 68); stroke-opacity: 1; stroke-width: 1px;"/><path class="ytick ticks crisp" d="M51,0h-5" transform="translate(0,100)" style="stroke: rgb(68, 68, 68); stroke-opacity: 1; stroke-width: 1px;"/><g class="ytick"><text text-anchor="end" x="43.2" y="4.8999999999999995" transform="translate(0,220)" style="font-family: 'Open Sans', verdana, arial, sans-serif; font-size: 14px; fill: rgb(0, 0, 0); fill-opacity: 1; white-space: pre;">0</text></g><g class="ytick"><text text-anchor="end" x="43.2" y="4.8999999999999995" transform="translate(0,160)" style="font-family: 'Open Sans', verdana, arial, sans-serif; font-size: 14px; fill: rgb(0, 0, 0); fill-opacity: 1; white-space: pre;">50</text></g><g class="ytick"><text text-anchor="end" x="43.2" y="4.8999999999999995" transform="translate(0,100)" style="font-family: 'Open Sans', verdana, arial, sans-serif; font-size: 14px; fill: rgb(0, 0, 0); fill-opacity: 1; white-space: pre;">100</text></g></g><g class="overaxes-above"/></g><g class="subplot x2y2"><g class="layer-subplot"><g class="shapelayer"/><g class="imagelayer"/></g><g class="gridlayer"><g class="x2"><path class="x2grid crisp" transform="translate(222.62266666666667,0)" d="M0,100v120" style="stroke: rgb(238, 238, 238); stroke-opacity: 1; stroke-width: 1px;"/><path class="x2grid crisp" transform="translate(246.2326666666667,0)" d="M0,100v120" style="stroke: rgb(238, 238, 238); stroke-opacity: 1; stroke-width: 1px;"/><path class="x2grid crisp" transform="translate(269.8326666666667,0)" d="M0,100v120" style="stroke: rgb(238, 238, 238); stroke-opacity: 1; stroke-width: 1px;"/><path class="x2grid crisp" transform="translate(293.4326666666667,0)" d="M0,100v120" style="stroke: rgb(238, 238, 238); stroke-opacity: 1; stroke-width: 1px;"/></g><g class="y2"><path class="y2grid crisp" transform="translate(0,160)" d="M202.74266666666668,0h114.28666666666666" style="stroke: rgb(238, 238, 238); stroke-opacity: 1; stroke-width: 1px;"/></g></g><g class="zerolinelayer"/><path class="xlines-below"/><path class="ylines-below"/><g class="overlines-below"/><g class="xaxislayer-below"/><g class="yaxislayer-below"/><g class="overaxes-below"/><g class="plot" transform="translate(202.74266666666668, 100)" clip-path="url('#clip939bbex2y2plot')"><g class="scatterlayer mlayer"><g class="trace scatter trace0b1ff6" style="stroke-miterlimit: 2; opacity: 1;"><g class="fills"/><g class="errorbars"/><g class="lines"><path class="js-line" d="M0,11.67L11.15,12.55L14.86,14.83L22.3,20.56L26.01,23.11L33.44,26.47L37.16,27.51L63.17,33.14L66.89,33.92L81.75,37.73L85.47,38.8L89.18,41.16L92.9,42.24L96.61,43.81L100.33,47.1L104.05,53.58L107.76,120" style="vector-effect: non-scaling-stroke; fill: none; stroke: rgb(141, 196, 71); stroke-opacity: 1; stroke-width: 2px; opacity: 1;"/></g><g class="points"/><g class="text"/></g><g class="trace scatter trace9f91f9" style="stroke-miterlimit: 2; opacity: 1;"><g class="fills"/><g class="errorbars"/><g class="lines"><path class="js-line" d="M0,20.6L7.43,20.84L11.15,21.78L18.58,33.93L22.3,43.58L26.01,52.16L29.73,64.01L33.44,120" style="vector-effect: non-scaling-stroke; fill: none; stroke: rgb(255, 85, 85); stroke-opacity: 1; stroke-width: 2px; opacity: 1;"/></g><g class="points"/><g class="text"/></g><g class="trace scatter trace63b762" style="stroke-miterlimit: 2; opacity: 1;"><g class="fills"/><g class="errorbars"/><g class="lines"><path class="js-line" d="M0,20.9L40.88,32.93L44.59,34.27L52.02,37.54L55.74,39.67L63.17,45.71L66.89,51.12L70.6,57.59L74.32,120" style="vector-effect: non-scaling-stroke; fill: none; stroke: rgb(118, 209, 244); stroke-opacity: 1; stroke-width: 2px; opacity: 1;"/></g><g class="points"/><g class="text"/></g></g></g><g class="overplot"/><path class="xlines-above crisp" d="M201.74266666666668,220.5H318.02933333333334M201.74266666666668,99.5H318.02933333333334" style="fill: none; stroke-width: 1px; stroke: rgb(0, 0, 0); stroke-opacity: 1;"/><path class="ylines-above crisp" d="M202.24266666666668,100V220M317.52933333333334,100V220" style="fill: none; stroke-width: 1px; stroke: rgb(0, 0, 0); stroke-opacity: 1;"/><g class="overlines-above"/><g class="xaxislayer-above"><path class="x2tick ticks crisp" d="M0,221v5" transform="translate(222.62266666666667,0)" style="stroke: rgb(68, 68, 68); stroke-opacity: 1; stroke-width: 1px;"/><path class="x2tick ticks crisp" d="M0,221v5" transform="translate(246.2326666666667,0)" style="stroke: rgb(68, 68, 68); stroke-opacity: 1; stroke-width: 1px;"/><path class="x2tick ticks crisp" d="M0,221v5" transform="translate(269.8326666666667,0)" style="stroke: rgb(68, 68, 68); stroke-opacity: 1; stroke-width: 1px;"/><path class="x2tick ticks crisp" d="M0,221v5" transform="translate(293.4326666666667,0)" style="stroke: rgb(68, 68, 68); stroke-opacity: 1; stroke-width: 1px;"/><path class="x2tick ticks crisp" d="M0,221v5" transform="translate(317.03266666666667,0)" style="stroke: rgb(68, 68, 68); stroke-opacity: 1; stroke-width: 1px;"/><g class="x2tick"><text text-anchor="middle" x="0" y="242.8" transform="translate(222.62266666666667,0)" style="font-family: 'Open Sans', verdana, arial, sans-serif; font-size: 14px; fill: rgb(0, 0, 0); fill-opacity: 1; white-space: pre;">1</text></g><g class="x2tick"><text text-anchor="middle" x="0" y="242.8" transform="translate(246.2326666666667,0)" style="font-family: 'Open Sans', verdana, arial, sans-serif; font-size: 14px; fill: rgb(0, 0, 0); fill-opacity: 1; white-space: pre;">2</text></g><g class="x2tick"><text text-anchor="middle" x="0" y="242.8" transform="translate(269.8326666666667,0)" style="font-family: 'Open Sans', verdana, arial, sans-serif; font-size: 14px; fill: rgb(0, 0, 0); fill-opacity: 1; white-space: pre;">3</text></g><g class="x2tick"><text text-anchor="middle" x="0" y="242.8" transform="translate(293.4326666666667,0)" style="font-family: 'Open Sans', verdana, arial, sans-serif; font-size: 14px; fill: rgb(0, 0, 0); fill-opacity: 1; white-space: pre;">4</text></g><g class="x2tick"><text text-anchor="middle" x="0" y="242.8" transform="translate(317.03266666666667,0)" style="font-family: 'Open Sans', verdana, arial, sans-serif; font-size: 14px; fill: rgb(0, 0, 0); fill-opacity: 1; white-space: pre;">5</text></g></g><g class="yaxislayer-above"><path class="y2tick ticks crisp" d="M201.74266666666668,0h-5" transform="translate(0,220)" style="stroke: rgb(68, 68, 68); stroke-opacity: 1; stroke-width: 1px;"/><path class="y2tick ticks crisp" d="M201.74266666666668,0h-5" transform="translate(0,160)" style="stroke: rgb(68, 68, 68); stroke-opacity: 1; stroke-width: 1px;"/><path class="y2tick ticks crisp" d="M201.74266666666668,0h-5" transform="translate(0,100)" style="stroke: rgb(68, 68, 68); stroke-opacity: 1; stroke-width: 1px;"/><g class="y2tick"><text text-anchor="end" x="193.94266666666667" y="4.8999999999999995" transform="translate(0,220)" style="font-family: 'Open Sans', verdana, arial, sans-serif; font-size: 14px; fill: rgb(0, 0, 0); fill-opacity: 1; white-space: pre;">0</text></g><g class="y2tick"><text text-anchor="end" x="193.94266666666667" y="4.8999999999999995" transform="translate(0,160)" style="font-family: 'Open Sans', verdana, arial, sans-serif; font-size: 14px; fill: rgb(0, 0, 0); fill-opacity: 1; white-space: pre;">50</text></g><g class="y2tick"><text text-anchor="end" x="193.94266666666667" y="4.8999999999999995" transform="translate(0,100)" style="font-family: 'Open Sans', verdana, arial, sans-serif; font-size: 14px; fill: rgb(0, 0, 0); fill-opacity: 1; white-space: pre;">100</text></g></g><g class="overaxes-above"/></g><g class="subplot x3y3"><g class="layer-subplot"><g class="shapelayer"/><g class="imagelayer"/></g><g class="gridlayer"><g class="x3"><path class="x3grid crisp" transform="translate(389.16533333333336,0)" d="M0,100v120" style="stroke: rgb(238, 238, 238); stroke-opacity: 1; stroke-width: 1px;"/><path class="x3grid crisp" transform="translate(428.4653333333334,0)" d="M0,100v120" style="stroke: rgb(238, 238, 238); stroke-opacity: 1; stroke-width: 1px;"/></g><g class="y3"><path class="y3grid crisp" transform="translate(0,160)" d="M353.48533333333336,0h114.2866666666667" style="stroke: rgb(238, 238, 238); stroke-opacity: 1; stroke-width: 1px;"/></g></g><g class="zerolinelayer"/><path class="xlines-below"/><path class="ylines-below"/><g class="overlines-below"/><g class="xaxislayer-below"/><g class="yaxislayer-below"/><g class="overaxes-below"/><g class="plot" transform="translate(353.48533333333336, 100)" clip-path="url('#clip939bbex3y3plot')"><g class="scatterlayer mlayer"><g class="trace scatter trace38cf23" style="stroke-miterlimit: 2; opacity: 1;"><g class="fills"/><g class="errorbars"/><g class="lines"><path class="js-line" d="M0,9.39L10.86,11.3L14.48,14.11L21.73,19.03L25.35,20.62L36.21,23.83L39.83,24.75L72.42,33.48L76.05,36.13L79.67,38.74L83.29,40.13L86.91,41.99L90.53,48.38L94.15,120" style="vector-effect: non-scaling-stroke; fill: none; stroke: rgb(141, 196, 71); stroke-opacity: 1; stroke-width: 2px; opacity: 1;"/></g><g class="points"/><g class="text"/></g><g class="trace scatter trace41f79e" style="stroke-miterlimit: 2; opacity: 1;"><g class="fills"/><g class="errorbars"/><g class="lines"><path class="js-line" d="M0,19.81L7.24,20.19L10.86,24.91L14.48,32.6L18.11,43.07L21.73,51.14L25.35,67.4L28.97,120" style="vector-effect: non-scaling-stroke; fill: none; stroke: rgb(255, 85, 85); stroke-opacity: 1; stroke-width: 2px; opacity: 1;"/></g><g class="points"/><g class="text"/></g><g class="trace scatter tracee050e5" style="stroke-miterlimit: 2; opacity: 1;"><g class="fills"/><g class="errorbars"/><g class="lines"><path class="js-line" d="M0,16.62L10.86,19.29L14.48,20.75L36.21,28.64L39.83,30.42L47.08,34.99L50.7,38.16L54.32,42.59L57.94,52.44L61.56,120" style="vector-effect: non-scaling-stroke; fill: none; stroke: rgb(118, 209, 244); stroke-opacity: 1; stroke-width: 2px; opacity: 1;"/></g><g class="points"/><g class="text"/></g></g></g><g class="overplot"/><path class="xlines-above crisp" d="M352.48533333333336,220.5H468.77200000000005M352.48533333333336,99.5H468.77200000000005" style="fill: none; stroke-width: 1px; stroke: rgb(0, 0, 0); stroke-opacity: 1;"/><path class="ylines-above crisp" d="M352.98533333333336,100V220M468.27200000000005,100V220" style="fill: none; stroke-width: 1px; stroke: rgb(0, 0, 0); stroke-opacity: 1;"/><g class="overlines-above"/><g class="xaxislayer-above"><path class="x3tick ticks crisp" d="M0,221v5" transform="translate(389.16533333333336,0)" style="stroke: rgb(68, 68, 68); stroke-opacity: 1; stroke-width: 1px;"/><path class="x3tick ticks crisp" d="M0,221v5" transform="translate(428.4653333333334,0)" style="stroke: rgb(68, 68, 68); stroke-opacity: 1; stroke-width: 1px;"/><path class="x3tick ticks crisp" d="M0,221v5" transform="translate(467.7753333333334,0)" style="stroke: rgb(68, 68, 68); stroke-opacity: 1; stroke-width: 1px;"/><g class="x3tick"><text text-anchor="middle" x="0" y="242.8" transform="translate(389.16533333333336,0)" style="font-family: 'Open Sans', verdana, arial, sans-serif; font-size: 14px; fill: rgb(0, 0, 0); fill-opacity: 1; white-space: pre;">1</text></g><g class="x3tick"><text text-anchor="middle" x="0" y="242.8" transform="translate(428.4653333333334,0)" style="font-family: 'Open Sans', verdana, arial, sans-serif; font-size: 14px; fill: rgb(0, 0, 0); fill-opacity: 1; white-space: pre;">2</text></g><g class="x3tick"><text text-anchor="middle" x="0" y="242.8" transform="translate(467.7753333333334,0)" style="font-family: 'Open Sans', verdana, arial, sans-serif; font-size: 14px; fill: rgb(0, 0, 0); fill-opacity: 1; white-space: pre;">3</text></g></g><g class="yaxislayer-above"><path class="y3tick ticks crisp" d="M352.48533333333336,0h-5" transform="translate(0,220)" style="stroke: rgb(68, 68, 68); stroke-opacity: 1; stroke-width: 1px;"/><path class="y3tick ticks crisp" d="M352.48533333333336,0h-5" transform="translate(0,160)" style="stroke: rgb(68, 68, 68); stroke-opacity: 1; stroke-width: 1px;"/><path class="y3tick ticks crisp" d="M352.48533333333336,0h-5" transform="translate(0,100)" style="stroke: rgb(68, 68, 68); stroke-opacity: 1; stroke-width: 1px;"/><g class="y3tick"><text text-anchor="end" x="344.68533333333335" y="4.8999999999999995" transform="translate(0,220)" style="font-family: 'Open Sans', verdana, arial, sans-serif; font-size: 14px; fill: rgb(0, 0, 0); fill-opacity: 1; white-space: pre;">0</text></g><g class="y3tick"><text text-anchor="end" x="344.68533333333335" y="4.8999999999999995" transform="translate(0,160)" style="font-family: 'Open Sans', verdana, arial, sans-serif; font-size: 14px; fill: rgb(0, 0, 0); fill-opacity: 1; white-space: pre;">50</text></g><g class="y3tick"><text text-anchor="end" x="344.68533333333335" y="4.8999999999999995" transform="translate(0,100)" style="font-family: 'Open Sans', verdana, arial, sans-serif; font-size: 14px; fill: rgb(0, 0, 0); fill-opacity: 1; white-space: pre;">100</text></g></g><g class="overaxes-above"/></g><g class="subplot x4y4"><g class="layer-subplot"><g class="shapelayer"/><g class="imagelayer"/></g><g class="gridlayer"><g class="x4"><path class="x4grid crisp" transform="translate(523.958,0)" d="M0,100v120" style="stroke: rgb(238, 238, 238); stroke-opacity: 1; stroke-width: 1px;"/><path class="x4grid crisp" transform="translate(547.598,0)" d="M0,100v120" style="stroke: rgb(238, 238, 238); stroke-opacity: 1; stroke-width: 1px;"/><path class="x4grid crisp" transform="translate(571.238,0)" d="M0,100v120" style="stroke: rgb(238, 238, 238); stroke-opacity: 1; stroke-width: 1px;"/><path class="x4grid crisp" transform="translate(594.878,0)" d="M0,100v120" style="stroke: rgb(238, 238, 238); stroke-opacity: 1; stroke-width: 1px;"/></g><g class="y4"><path class="y4grid crisp" transform="translate(0,160)" d="M504.228,0h114.2866666666667" style="stroke: rgb(238, 238, 238); stroke-opacity: 1; stroke-width: 1px;"/></g></g><g class="zerolinelayer"/><path class="xlines-below"/><path class="ylines-below"/><g class="overlines-below"/><g class="xaxislayer-below"/><g class="yaxislayer-below"/><g class="overaxes-below"/><g class="plot" transform="translate(504.228, 100)" clip-path="url('#clip939bbex4y4plot')"><g class="scatterlayer mlayer"><g class="trace scatter trace7a0947" style="stroke-miterlimit: 2; opacity: 1;"><g class="fills"/><g class="errorbars"/><g class="lines"><path class="js-line" d="M0,9.7L11.74,11.64L15.66,14.54L23.49,19.94L27.4,21.52L39.14,24.73L43.06,25.65L74.37,33L78.28,34.32L82.2,35.74L86.11,39.84L90.03,41.08L93.94,43.33L97.86,48.11L101.77,120" style="vector-effect: non-scaling-stroke; fill: none; stroke: rgb(141, 196, 71); stroke-opacity: 1; stroke-width: 2px; opacity: 1;"/></g><g class="points"/><g class="text"/></g><g class="trace scatter trace39f1ea" style="stroke-miterlimit: 2; opacity: 1;"><g class="fills"/><g class="errorbars"/><g class="lines"><path class="js-line" d="M0,19.94L7.83,20.13L11.74,24.4L19.57,40.91L23.49,50.66L27.4,64.21L31.31,120" style="vector-effect: non-scaling-stroke; fill: none; stroke: rgb(255, 85, 85); stroke-opacity: 1; stroke-width: 2px; opacity: 1;"/></g><g class="points"/><g class="text"/></g><g class="trace scatter traced5dcc7" style="stroke-miterlimit: 2; opacity: 1;"><g class="fills"/><g class="errorbars"/><g class="lines"><path class="js-line" d="M0,17.45L11.74,20.17L15.66,21.64L39.14,29.57L43.06,31.35L50.89,35.95L54.8,39.17L58.71,43.73L62.63,54.1L66.54,120" style="vector-effect: non-scaling-stroke; fill: none; stroke: rgb(118, 209, 244); stroke-opacity: 1; stroke-width: 2px; opacity: 1;"/></g><g class="points"/><g class="text"/></g></g></g><g class="overplot"/><path class="xlines-above crisp" d="M503.228,220.5H619.5146666666667M503.228,99.5H619.5146666666667" style="fill: none; stroke-width: 1px; stroke: rgb(0, 0, 0); stroke-opacity: 1;"/><path class="ylines-above crisp" d="M503.728,100V220M619.0146666666667,100V220" style="fill: none; stroke-width: 1px; stroke: rgb(0, 0, 0); stroke-opacity: 1;"/><g class="overlines-above"/><g class="xaxislayer-above"><path class="x4tick ticks crisp" d="M0,221v5" transform="translate(523.958,0)" style="stroke: rgb(68, 68, 68); stroke-opacity: 1; stroke-width: 1px;"/><path class="x4tick ticks crisp" d="M0,221v5" transform="translate(547.598,0)" style="stroke: rgb(68, 68, 68); stroke-opacity: 1; stroke-width: 1px;"/><path class="x4tick ticks crisp" d="M0,221v5" transform="translate(571.238,0)" style="stroke: rgb(68, 68, 68); stroke-opacity: 1; stroke-width: 1px;"/><path class="x4tick ticks crisp" d="M0,221v5" transform="translate(594.878,0)" style="stroke: rgb(68, 68, 68); stroke-opacity: 1; stroke-width: 1px;"/><path class="x4tick ticks crisp" d="M0,221v5" transform="translate(618.518,0)" style="stroke: rgb(68, 68, 68); stroke-opacity: 1; stroke-width: 1px;"/><g class="x4tick"><text text-anchor="middle" x="0" y="242.8" transform="translate(523.958,0)" style="font-family: 'Open Sans', verdana, arial, sans-serif; font-size: 14px; fill: rgb(0, 0, 0); fill-opacity: 1; white-space: pre;">0.5</text></g><g class="x4tick"><text text-anchor="middle" x="0" y="242.8" transform="translate(547.598,0)" style="font-family: 'Open Sans', verdana, arial, sans-serif; font-size: 14px; fill: rgb(0, 0, 0); fill-opacity: 1; white-space: pre;">1</text></g><g class="x4tick"><text text-anchor="middle" x="0" y="242.8" transform="translate(571.238,0)" style="font-family: 'Open Sans', verdana, arial, sans-serif; font-size: 14px; fill: rgb(0, 0, 0); fill-opacity: 1; white-space: pre;">1.5</text></g><g class="x4tick"><text text-anchor="middle" x="0" y="242.8" transform="translate(594.878,0)" style="font-family: 'Open Sans', verdana, arial, sans-serif; font-size: 14px; fill: rgb(0, 0, 0); fill-opacity: 1; white-space: pre;">2</text></g><g class="x4tick"><text text-anchor="middle" x="0" y="242.8" transform="translate(618.518,0)" style="font-family: 'Open Sans', verdana, arial, sans-serif; font-size: 14px; fill: rgb(0, 0, 0); fill-opacity: 1; white-space: pre;">2.5</text></g></g><g class="yaxislayer-above"><path class="y4tick ticks crisp" d="M503.228,0h-5" transform="translate(0,220)" style="stroke: rgb(68, 68, 68); stroke-opacity: 1; stroke-width: 1px;"/><path class="y4tick ticks crisp" d="M503.228,0h-5" transform="translate(0,160)" style="stroke: rgb(68, 68, 68); stroke-opacity: 1; stroke-width: 1px;"/><path class="y4tick ticks crisp" d="M503.228,0h-5" transform="translate(0,100)" style="stroke: rgb(68, 68, 68); stroke-opacity: 1; stroke-width: 1px;"/><g class="y4tick"><text text-anchor="end" x="495.428" y="4.8999999999999995" transform="translate(0,220)" style="font-family: 'Open Sans', verdana, arial, sans-serif; font-size: 14px; fill: rgb(0, 0, 0); fill-opacity: 1; white-space: pre;">0</text></g><g class="y4tick"><text text-anchor="end" x="495.428" y="4.8999999999999995" transform="translate(0,160)" style="font-family: 'Open Sans', verdana, arial, sans-serif; font-size: 14px; fill: rgb(0, 0, 0); fill-opacity: 1; white-space: pre;">50</text></g><g class="y4tick"><text text-anchor="end" x="495.428" y="4.8999999999999995" transform="translate(0,100)" style="font-family: 'Open Sans', verdana, arial, sans-serif; font-size: 14px; fill: rgb(0, 0, 0); fill-opacity: 1; white-space: pre;">100</text></g></g><g class="overaxes-above"/></g><g class="subplot x5y5"><g class="layer-subplot"><g class="shapelayer"/><g class="imagelayer"/></g><g class="gridlayer"><g class="x5"><path class="x5grid crisp" transform="translate(690.4406666666667,0)" d="M0,100v120" style="stroke: rgb(238, 238, 238); stroke-opacity: 1; stroke-width: 1px;"/><path class="x5grid crisp" transform="translate(729.8506666666667,0)" d="M0,100v120" style="stroke: rgb(238, 238, 238); stroke-opacity: 1; stroke-width: 1px;"/></g><g class="y5"><path class="y5grid crisp" transform="translate(0,160)" d="M654.9706666666667,0h114.2866666666667" style="stroke: rgb(238, 238, 238); stroke-opacity: 1; stroke-width: 1px;"/></g></g><g class="zerolinelayer"/><path class="xlines-below"/><path class="ylines-below"/><g class="overlines-below"/><g class="xaxislayer-below"/><g class="yaxislayer-below"/><g class="overaxes-below"/><g class="plot" transform="translate(654.9706666666667, 100)" clip-path="url('#clip939bbex5y5plot')"><g class="scatterlayer mlayer"><g class="trace scatter tracee53939" style="stroke-miterlimit: 2; opacity: 1;"><g class="fills"/><g class="errorbars"/><g class="lines"><path class="js-line" d="M0,11.07L11.83,12.46L15.78,15.3L27.61,23.07L31.56,24.49L47.33,28.29L51.28,29.13L78.89,35.12L82.84,36.64L86.78,37.74L90.72,40.58L94.67,41.31L98.61,43.7L102.56,49.22L106.5,51.52L110.45,120" style="vector-effect: non-scaling-stroke; fill: none; stroke: rgb(141, 196, 71); stroke-opacity: 1; stroke-width: 2px; opacity: 1;"/></g><g class="points"/><g class="text"/></g><g class="trace scatter trace5984a6" style="stroke-miterlimit: 2; opacity: 1;"><g class="fills"/><g class="errorbars"/><g class="lines"><path class="js-line" d="M0,20.39L7.89,20.85L11.83,23.12L19.72,37.62L23.67,47.96L27.61,59.85L31.56,120" style="vector-effect: non-scaling-stroke; fill: none; stroke: rgb(255, 85, 85); stroke-opacity: 1; stroke-width: 2px; opacity: 1;"/></g><g class="points"/><g class="text"/></g><g class="trace scatter trace2e8a6e" style="stroke-miterlimit: 2; opacity: 1;"><g class="fills"/><g class="errorbars"/><g class="lines"><path class="js-line" d="M0,19.65L15.78,23.81L19.72,25.06L43.39,32.21L47.33,33.86L55.22,38.02L59.17,40.79L63.11,44.73L67.06,52.21L71,120" style="vector-effect: non-scaling-stroke; fill: none; stroke: rgb(118, 209, 244); stroke-opacity: 1; stroke-width: 2px; opacity: 1;"/></g><g class="points"/><g class="text"/></g></g></g><g class="overplot"/><path class="xlines-above crisp" d="M653.9706666666667,220.5H770.2573333333335M653.9706666666667,99.5H770.2573333333335" style="fill: none; stroke-width: 1px; stroke: rgb(0, 0, 0); stroke-opacity: 1;"/><path class="ylines-above crisp" d="M654.4706666666667,100V220M769.7573333333335,100V220" style="fill: none; stroke-width: 1px; stroke: rgb(0, 0, 0); stroke-opacity: 1;"/><g class="overlines-above"/><g class="xaxislayer-above"><path class="x5tick ticks crisp" d="M0,221v5" transform="translate(690.4406666666667,0)" style="stroke: rgb(68, 68, 68); stroke-opacity: 1; stroke-width: 1px;"/><path class="x5tick ticks crisp" d="M0,221v5" transform="translate(729.8506666666667,0)" style="stroke: rgb(68, 68, 68); stroke-opacity: 1; stroke-width: 1px;"/><path class="x5tick ticks crisp" d="M0,221v5" transform="translate(769.2606666666667,0)" style="stroke: rgb(68, 68, 68); stroke-opacity: 1; stroke-width: 1px;"/><g class="x5tick"><text text-anchor="middle" x="0" y="242.8" transform="translate(690.4406666666667,0)" style="font-family: 'Open Sans', verdana, arial, sans-serif; font-size: 14px; fill: rgb(0, 0, 0); fill-opacity: 1; white-space: pre;">2</text></g><g class="x5tick"><text text-anchor="middle" x="0" y="242.8" transform="translate(729.8506666666667,0)" style="font-family: 'Open Sans', verdana, arial, sans-serif; font-size: 14px; fill: rgb(0, 0, 0); fill-opacity: 1; white-space: pre;">4</text></g><g class="x5tick"><text text-anchor="middle" x="0" y="242.8" transform="translate(769.2606666666667,0)" style="font-family: 'Open Sans', verdana, arial, sans-serif; font-size: 14px; fill: rgb(0, 0, 0); fill-opacity: 1; white-space: pre;">6</text></g></g><g class="yaxislayer-above"><path class="y5tick ticks crisp" d="M653.9706666666667,0h-5" transform="translate(0,220)" style="stroke: rgb(68, 68, 68); stroke-opacity: 1; stroke-width: 1px;"/><path class="y5tick ticks crisp" d="M653.9706666666667,0h-5" transform="translate(0,160)" style="stroke: rgb(68, 68, 68); stroke-opacity: 1; stroke-width: 1px;"/><path class="y5tick ticks crisp" d="M653.9706666666667,0h-5" transform="translate(0,100)" style="stroke: rgb(68, 68, 68); stroke-opacity: 1; stroke-width: 1px;"/><g class="y5tick"><text text-anchor="end" x="646.1706666666668" y="4.8999999999999995" transform="translate(0,220)" style="font-family: 'Open Sans', verdana, arial, sans-serif; font-size: 14px; fill: rgb(0, 0, 0); fill-opacity: 1; white-space: pre;">0</text></g><g class="y5tick"><text text-anchor="end" x="646.1706666666668" y="4.8999999999999995" transform="translate(0,160)" style="font-family: 'Open Sans', verdana, arial, sans-serif; font-size: 14px; fill: rgb(0, 0, 0); fill-opacity: 1; white-space: pre;">50</text></g><g class="y5tick"><text text-anchor="end" x="646.1706666666668" y="4.8999999999999995" transform="translate(0,100)" style="font-family: 'Open Sans', verdana, arial, sans-serif; font-size: 14px; fill: rgb(0, 0, 0); fill-opacity: 1; white-space: pre;">100</text></g></g><g class="overaxes-above"/></g><g class="subplot x6y6"><g class="layer-subplot"><g class="shapelayer"/><g class="imagelayer"/></g><g class="gridlayer"><g class="x6"><path class="x6grid crisp" transform="translate(838.3633333333333,0)" d="M0,100v120" style="stroke: rgb(238, 238, 238); stroke-opacity: 1; stroke-width: 1px;"/><path class="x6grid crisp" transform="translate(874.6433333333334,0)" d="M0,100v120" style="stroke: rgb(238, 238, 238); stroke-opacity: 1; stroke-width: 1px;"/><path class="x6grid crisp" transform="translate(910.9333333333334,0)" d="M0,100v120" style="stroke: rgb(238, 238, 238); stroke-opacity: 1; stroke-width: 1px;"/></g><g class="y6"><path class="y6grid crisp" transform="translate(0,160)" d="M805.7133333333334,0h114.2866666666666" style="stroke: rgb(238, 238, 238); stroke-opacity: 1; stroke-width: 1px;"/></g></g><g class="zerolinelayer"/><path class="xlines-below"/><path class="ylines-below"/><g class="overlines-below"/><g class="xaxislayer-below"/><g class="yaxislayer-below"/><g class="overaxes-below"/><g class="plot" transform="translate(805.7133333333334, 100)" clip-path="url('#clip939bbex6y6plot')"><g class="scatterlayer mlayer"><g class="trace scatter trace8a931f" style="stroke-miterlimit: 2; opacity: 1;"><g class="fills"/><g class="errorbars"/><g class="lines"><path class="js-line" d="M0,11.67L10.89,12.57L14.52,15.21L25.41,23.22L29.04,25.11L39.93,28.42L43.56,29.26L79.87,37.6L83.5,38.84L90.76,42.75L94.39,44.51L98.02,46.98L101.65,51.54L105.28,120" style="vector-effect: non-scaling-stroke; fill: none; stroke: rgb(141, 196, 71); stroke-opacity: 1; stroke-width: 2px; opacity: 1;"/></g><g class="points"/><g class="text"/></g><g class="trace scatter trace1a65df" style="stroke-miterlimit: 2; opacity: 1;"><g class="fills"/><g class="errorbars"/><g class="lines"><path class="js-line" d="M0,20.35L10.89,21.78L14.52,29.15L21.78,43.58L25.41,52.16L29.04,63.99L32.67,120" style="vector-effect: non-scaling-stroke; fill: none; stroke: rgb(255, 85, 85); stroke-opacity: 1; stroke-width: 2px; opacity: 1;"/></g><g class="points"/><g class="text"/></g><g class="trace scatter trace94042b" style="stroke-miterlimit: 2; opacity: 1;"><g class="fills"/><g class="errorbars"/><g class="lines"><path class="js-line" d="M0,20.9L39.93,32.93L43.56,34.27L50.82,37.54L54.45,39.66L61.72,45.68L65.35,51.13L68.98,57.11L72.61,120" style="vector-effect: non-scaling-stroke; fill: none; stroke: rgb(118, 209, 244); stroke-opacity: 1; stroke-width: 2px; opacity: 1;"/></g><g class="points"/><g class="text"/></g></g></g><g class="overplot"/><path class="xlines-above crisp" d="M804.7133333333334,220.5H921M804.7133333333334,99.5H921" style="fill: none; stroke-width: 1px; stroke: rgb(0, 0, 0); stroke-opacity: 1;"/><path class="ylines-above crisp" d="M805.2133333333334,100V220M920.5,100V220" style="fill: none; stroke-width: 1px; stroke: rgb(0, 0, 0); stroke-opacity: 1;"/><g class="overlines-above"/><g class="xaxislayer-above"><path class="x6tick ticks crisp" d="M0,221v5" transform="translate(838.3633333333333,0)" style="stroke: rgb(68, 68, 68); stroke-opacity: 1; stroke-width: 1px;"/><path class="x6tick ticks crisp" d="M0,221v5" transform="translate(874.6433333333334,0)" style="stroke: rgb(68, 68, 68); stroke-opacity: 1; stroke-width: 1px;"/><path class="x6tick ticks crisp" d="M0,221v5" transform="translate(910.9333333333334,0)" style="stroke: rgb(68, 68, 68); stroke-opacity: 1; stroke-width: 1px;"/><g class="x6tick"><text text-anchor="middle" x="0" y="242.8" transform="translate(838.3633333333333,0)" style="font-family: 'Open Sans', verdana, arial, sans-serif; font-size: 14px; fill: rgb(0, 0, 0); fill-opacity: 1; white-space: pre;">2</text></g><g class="x6tick"><text text-anchor="middle" x="0" y="242.8" transform="translate(874.6433333333334,0)" style="font-family: 'Open Sans', verdana, arial, sans-serif; font-size: 14px; fill: rgb(0, 0, 0); fill-opacity: 1; white-space: pre;">4</text></g><g class="x6tick"><text text-anchor="middle" x="0" y="242.8" transform="translate(910.9333333333334,0)" style="font-family: 'Open Sans', verdana, arial, sans-serif; font-size: 14px; fill: rgb(0, 0, 0); fill-opacity: 1; white-space: pre;">6</text></g></g><g class="yaxislayer-above"><path class="y6tick ticks crisp" d="M804.7133333333334,0h-5" transform="translate(0,220)" style="stroke: rgb(68, 68, 68); stroke-opacity: 1; stroke-width: 1px;"/><path class="y6tick ticks crisp" d="M804.7133333333334,0h-5" transform="translate(0,160)" style="stroke: rgb(68, 68, 68); stroke-opacity: 1; stroke-width: 1px;"/><path class="y6tick ticks crisp" d="M804.7133333333334,0h-5" transform="translate(0,100)" style="stroke: rgb(68, 68, 68); stroke-opacity: 1; stroke-width: 1px;"/><g class="y6tick"><text text-anchor="end" x="796.9133333333334" y="4.8999999999999995" transform="translate(0,220)" style="font-family: 'Open Sans', verdana, arial, sans-serif; font-size: 14px; fill: rgb(0, 0, 0); fill-opacity: 1; white-space: pre;">0</text></g><g class="y6tick"><text text-anchor="end" x="796.9133333333334" y="4.8999999999999995" transform="translate(0,160)" style="font-family: 'Open Sans', verdana, arial, sans-serif; font-size: 14px; fill: rgb(0, 0, 0); fill-opacity: 1; white-space: pre;">50</text></g><g class="y6tick"><text text-anchor="end" x="796.9133333333334" y="4.8999999999999995" transform="translate(0,100)" style="font-family: 'Open Sans', verdana, arial, sans-serif; font-size: 14px; fill: rgb(0, 0, 0); fill-opacity: 1; white-space: pre;">100</text></g></g><g class="overaxes-above"/></g></g><g class="polarlayer"/><g class="ternarylayer"/><g class="geolayer"/><g class="funnelarealayer"/><g class="pielayer"/><g class="treemaplayer"/><g class="sunburstlayer"/><g class="glimages"/><defs id="topdefs-939bbe"><g class="clips"/></defs><g class="layer-above"><g class="imagelayer"/><g class="shapelayer"/></g><g class="infolayer"><g class="g-gtitle"/><g class="g-xtitle" transform="translate(0,3.5999999999999943)"><text class="xtitle" x="109.14333333333335" y="254.4" text-anchor="middle" style="font-family: 'Open Sans', verdana, arial, sans-serif; font-size: 12px; fill: rgb(0, 0, 0); opacity: 1; font-weight: normal; white-space: pre;">Min Rate (g/L.h)</text></g><g class="g-x2title" transform="translate(0,3.5999999999999943)"><text class="x2title" x="259.886" y="254.4" text-anchor="middle" style="font-family: 'Open Sans', verdana, arial, sans-serif; font-size: 12px; fill: rgb(0, 0, 0); opacity: 1; font-weight: normal; white-space: pre;">Min Rate (g/L.h)</text></g><g class="g-x3title" transform="translate(0,3.5999999999999943)"><text class="x3title" x="410.62866666666673" y="254.4" text-anchor="middle" style="font-family: 'Open Sans', verdana, arial, sans-serif; font-size: 12px; fill: rgb(0, 0, 0); opacity: 1; font-weight: normal; white-space: pre;">Min Rate (g/L.h)</text></g><g class="g-x4title" transform="translate(0,3.5999999999999943)"><text class="x4title" x="561.3713333333334" y="254.4" text-anchor="middle" style="font-family: 'Open Sans', verdana, arial, sans-serif; font-size: 12px; fill: rgb(0, 0, 0); opacity: 1; font-weight: normal; white-space: pre;">Min Rate (g/L.h)</text></g><g class="g-x5title" transform="translate(0,3.5999999999999943)"><text class="x5title" x="712.114" y="254.4" text-anchor="middle" style="font-family: 'Open Sans', verdana, arial, sans-serif; font-size: 12px; fill: rgb(0, 0, 0); opacity: 1; font-weight: normal; white-space: pre;">Min Rate (g/L.h)</text></g><g class="g-x6title" transform="translate(0,3.5999999999999943)"><text class="x6title" x="862.8566666666667" y="254.4" text-anchor="middle" style="font-family: 'Open Sans', verdana, arial, sans-serif; font-size: 12px; fill: rgb(0, 0, 0); opacity: 1; font-weight: normal; white-space: pre;">Min Rate (g/L.h)</text></g><g class="g-ytitle" transform="translate(3.916015625,0)"><text class="ytitle" transform="rotate(-90,8.084375000000001,160)" x="8.084375000000001" y="160" text-anchor="middle" style="font-family: 'Open Sans', verdana, arial, sans-serif; font-size: 12px; fill: rgb(0, 0, 0); opacity: 1; font-weight: normal; white-space: pre;">Max Yield (% Max)</text></g><g class="g-y2title"/><g class="g-y3title"/><g class="g-y4title"/><g class="g-y5title"/><g class="g-y6title"/><g class="annotation" data-index="0" style="opacity: 1;"><g class="annotation-text-g" transform="rotate(0,109.14333333333335,88.5)"><g class="cursor-pointer" transform="translate(53, 77)"><rect class="bg" x="0.5" y="0.5" width="111" height="22" style="stroke-width: 1px; stroke: rgb(0, 0, 0); stroke-opacity: 0; fill: rgb(0, 0, 0); fill-opacity: 0;"/><text class="annotation-text" text-anchor="middle" x="56.53125" y="18" style="font-family: 'Open Sans', verdana, arial, sans-serif; font-size: 16px; fill: rgb(0, 0, 0); fill-opacity: 1; white-space: pre;">Acetaldehyde</text></g></g></g><g class="annotation" data-index="1" style="opacity: 1;"><g class="annotation-text-g" transform="rotate(0,259.886,88.5)"><g class="cursor-pointer" transform="translate(227, 77)"><rect class="bg" x="0.5" y="0.5" width="64" height="22" style="stroke-width: 1px; stroke: rgb(0, 0, 0); stroke-opacity: 0; fill: rgb(0, 0, 0); fill-opacity: 0;"/><text class="annotation-text" text-anchor="middle" x="33.0625" y="18" style="font-family: 'Open Sans', verdana, arial, sans-serif; font-size: 16px; fill: rgb(0, 0, 0); fill-opacity: 1; white-space: pre;">Acetate</text></g></g></g><g class="annotation" data-index="2" style="opacity: 1;"><g class="annotation-text-g" transform="rotate(0,410.62866666666673,88.5)"><g class="cursor-pointer" transform="translate(379, 77)"><rect class="bg" x="0.5" y="0.5" width="63" height="22" style="stroke-width: 1px; stroke: rgb(0, 0, 0); stroke-opacity: 0; fill: rgb(0, 0, 0); fill-opacity: 0;"/><text class="annotation-text" text-anchor="middle" x="32.1875" y="18" style="font-family: 'Open Sans', verdana, arial, sans-serif; font-size: 16px; fill: rgb(0, 0, 0); fill-opacity: 1; white-space: pre;">Ethanol</text></g></g></g><g class="annotation" data-index="3" style="opacity: 1;"><g class="annotation-text-g" transform="rotate(0,561.3713333333333,88.5)"><g class="cursor-pointer" transform="translate(504, 77)"><rect class="bg" x="0.5" y="0.5" width="113" height="22" style="stroke-width: 1px; stroke: rgb(0, 0, 0); stroke-opacity: 0; fill: rgb(0, 0, 0); fill-opacity: 0;"/><text class="annotation-text" text-anchor="middle" x="56.796875" y="18" style="font-family: 'Open Sans', verdana, arial, sans-serif; font-size: 16px; fill: rgb(0, 0, 0); fill-opacity: 1; white-space: pre;">Ethanolamine</text></g></g></g><g class="annotation" data-index="4" style="opacity: 1;"><g class="annotation-text-g" transform="rotate(0,712.1140000000001,88.5)"><g class="cursor-pointer" transform="translate(681, 77)"><rect class="bg" x="0.5" y="0.5" width="62" height="22" style="stroke-width: 1px; stroke: rgb(0, 0, 0); stroke-opacity: 0; fill: rgb(0, 0, 0); fill-opacity: 0;"/><text class="annotation-text" text-anchor="middle" x="31.25" y="18" style="font-family: 'Open Sans', verdana, arial, sans-serif; font-size: 16px; fill: rgb(0, 0, 0); fill-opacity: 1; white-space: pre;">Glycine</text></g></g></g><g class="annotation" data-index="5" style="opacity: 1;"><g class="annotation-text-g" transform="rotate(0,862.8566666666667,88.5)"><g class="cursor-pointer" transform="translate(824, 77)"><rect class="bg" x="0.5" y="0.5" width="77" height="22" style="stroke-width: 1px; stroke: rgb(0, 0, 0); stroke-opacity: 0; fill: rgb(0, 0, 0); fill-opacity: 0;"/><text class="annotation-text" text-anchor="middle" x="39" y="18" style="font-family: 'Open Sans', verdana, arial, sans-serif; font-size: 16px; fill: rgb(0, 0, 0); fill-opacity: 1; white-space: pre;">Glycolate</text></g></g></g></g></svg>