<svg class="main-svg" xmlns="http://www.w3.org/2000/svg" xmlns:xlink="http://www.w3.org/1999/xlink" width="1000" height="300" viewBox="0 0 1000 300"><rect x="0" y="0" width="1000" height="300" style="fill: rgb(255, 255, 255); fill-opacity: 1;"/><defs id="defs-e17645"><g class="clips"><clipPath id="clipe17645xyplot" class="plotclip"><rect width="116.93333333333334" height="120"/></clipPath><clipPath id="clipe17645x2y2plot" class="plotclip"><rect width="116.93333333333331" height="120"/></clipPath><clipPath class="axesclip" id="clipe17645x"><rect x="43" y="0" width="116.93333333333334" height="300"/></clipPath><clipPath class="axesclip" id="clipe17645y"><rect x="0" y="100" width="1000" height="120"/></clipPath><clipPath class="axesclip" id="clipe17645xy"><rect x="43" y="100" width="116.93333333333334" height="120"/></clipPath><clipPath class="axesclip" id="clipe17645y2"><rect x="0" y="100" width="1000" height="120"/></clipPath><clipPath class="axesclip" id="clipe17645xy2"><rect x="43" y="100" width="116.93333333333334" height="120"/></clipPath><clipPath class="axesclip" id="clipe17645x2"><rect x="195.01333333333335" y="0" width="116.93333333333331" height="300"/></clipPath><clipPath class="axesclip" id="clipe17645x2y"><rect x="195.01333333333335" y="100" width="116.93333333333331" height="120"/></clipPath><clipPath class="axesclip" id="clipe17645x2y2"><rect x="195.01333333333335" y="100" width="116.93333333333331" height="120"/></clipPath></g><g class="gradients"/></defs><g class="bglayer"/><g class="layer-below"><g class="imagelayer"/><g class="shapelayer"/></g><g class="cartesianlayer"><g class="subplot xy"><g class="layer-subplot"><g class="shapelayer"/><g class="imagelayer"/></g><g class="gridlayer"><g class="x"><path class="xgrid crisp" transform="translate(101.47,0)" d="M0,100v120" style="stroke: rgb(238, 238, 238); stroke-opacity: 1; stroke-width: 1px;"/></g><g class="y"><path class="ygrid crisp" transform="translate(0,170)" d="M43,0h116.93333333333334" style="stroke: rgb(238, 238, 238); stroke-opacity: 1; stroke-width: 1px;"/><path class="ygrid crisp" transform="translate(0,120)" d="M43,0h116.93333333333334" style="stroke: rgb(238, 238, 238); stroke-opacity: 1; stroke-width: 1px;"/></g></g><g class="zerolinelayer"/><path class="xlines-below"/><path class="ylines-below"/><g class="overlines-below"/><g class="xaxislayer-below"/><g class="yaxislayer-below"/><g class="overaxes-below"/><g class="plot" transform="translate(43, 100)" clip-path="url('#clipe17645xyplot')"><g class="scatterlayer mlayer"><g class="trace scatter trace933850" style="stroke-miterlimit: 2; opacity: 1;"><g class="fills"/><g class="errorbars"/><g class="lines"><path class="js-line" d="M0,4.48L50.75,4.39L67.67,4.97L70.26,4.82L72.85,6.28L75.44,9.03L78.04,13.27L80.63,19.76L83.22,29.19L85.82,37.8L88.41,50.69L93.6,78.12L96.19,87.15L103.97,100.79L106.56,114.62L109.15,119.79L111.75,119.86L116.93,119.91" style="vector-effect: non-scaling-stroke; fill: none; stroke: rgb(141, 196, 71); stroke-opacity: 1; stroke-width: 2px; opacity: 1;"/></g><g class="points"/><g class="text"/></g><g class="trace scatter traceed64ee" style="stroke-miterlimit: 2; opacity: 1;"><g class="fills"/><g class="errorbars"/><g class="lines"><path class="js-line" d="M0,84.44L33.83,84.06L50.75,84.26L70.26,90.32L72.85,92.17L75.44,92.17L78.04,94.05L80.63,95.74L83.22,96.46L93.6,103.26L96.19,104.18L98.78,119.18L101.38,119.65L116.93,119.91" style="vector-effect: non-scaling-stroke; fill: none; stroke: rgb(255, 85, 85); stroke-opacity: 1; stroke-width: 2px; opacity: 1;"/></g><g class="points"/><g class="text"/></g><g class="trace scatter trace3abe2e" style="stroke-miterlimit: 2; opacity: 1;"><g class="fills"/><g class="errorbars"/><g class="lines"><path class="js-line" d="M0,43.64L50.75,43.64L67.67,44.44L72.85,47.12L75.44,49.36L80.63,55.92L83.22,60.56L88.41,73.48L91,82.27L96.19,101.29L98.78,114.34L101.38,118.69L103.97,119.46L116.93,119.91" style="vector-effect: non-scaling-stroke; fill: none; stroke: rgb(118, 209, 244); stroke-opacity: 1; stroke-width: 2px; opacity: 1;"/></g><g class="points"/><g class="text"/></g></g></g><g class="overplot"/><path class="xlines-above crisp" d="M42,220.5H160.93333333333334M42,99.5H160.93333333333334" style="fill: none; stroke-width: 1px; stroke: rgb(0, 0, 0); stroke-opacity: 1;"/><path class="ylines-above crisp" d="M42.5,100V220M160.43333333333334,100V220" style="fill: none; stroke-width: 1px; stroke: rgb(0, 0, 0); stroke-opacity: 1;"/><g class="overlines-above"/><g class="xaxislayer-above"><path class="xtick ticks crisp" d="M0,221v5" transform="translate(43,0)" style="stroke: rgb(68, 68, 68); stroke-opacity: 1; stroke-width: 1px;"/><path class="xtick ticks crisp" d="M0,221v5" transform="translate(101.47,0)" style="stroke: rgb(68, 68, 68); stroke-opacity: 1; stroke-width: 1px;"/><path class="xtick ticks crisp" d="M0,221v5" transform="translate(159.93,0)" style="stroke: rgb(68, 68, 68); stroke-opacity: 1; stroke-width: 1px;"/><g class="xtick"><text text-anchor="middle" x="0" y="242.8" transform="translate(43,0)" style="font-family: 'Open Sans', verdana, arial, sans-serif; font-size: 14px; fill: rgb(0, 0, 0); fill-opacity: 1; white-space: pre;">0</text></g><g class="xtick"><text text-anchor="middle" x="0" y="242.8" transform="translate(101.47,0)" style="font-family: 'Open Sans', verdana, arial, sans-serif; font-size: 14px; fill: rgb(0, 0, 0); fill-opacity: 1; white-space: pre;">50</text></g><g class="xtick"><text text-anchor="middle" x="0" y="242.8" transform="translate(159.93,0)" style="font-family: 'Open Sans', verdana, arial, sans-serif; font-size: 14px; fill: rgb(0, 0, 0); fill-opacity: 1; white-space: pre;">100</text></g></g><g class="yaxislayer-above"><path class="ytick ticks crisp" d="M42,0h-5" transform="translate(0,220)" style="stroke: rgb(68, 68, 68); stroke-opacity: 1; stroke-width: 1px;"/><path class="ytick ticks crisp" d="M42,0h-5" transform="translate(0,170)" style="stroke: rgb(68, 68, 68); stroke-opacity: 1; stroke-width: 1px;"/><path class="ytick ticks crisp" d="M42,0h-5" transform="translate(0,120)" style="stroke: rgb(68, 68, 68); stroke-opacity: 1; stroke-width: 1px;"/><g class="ytick"><text text-anchor="end" x="34.2" y="4.8999999999999995" transform="translate(0,220)" style="font-family: 'Open Sans', verdana, arial, sans-serif; font-size: 14px; fill: rgb(0, 0, 0); fill-opacity: 1; white-space: pre;">0</text></g><g class="ytick"><text text-anchor="end" x="34.2" y="4.8999999999999995" transform="translate(0,170)" style="font-family: 'Open Sans', verdana, arial, sans-serif; font-size: 14px; fill: rgb(0, 0, 0); fill-opacity: 1; white-space: pre;">5</text></g><g class="ytick"><text text-anchor="end" x="34.2" y="4.8999999999999995" transform="translate(0,120)" style="font-family: 'Open Sans', verdana, arial, sans-serif; font-size: 14px; fill: rgb(0, 0, 0); fill-opacity: 1; white-space: pre;">10</text></g></g><g class="overaxes-above"/></g><g class="subplot x2y2"><g class="layer-subplot"><g class="shapelayer"/><g class="imagelayer"/></g><g class="gridlayer"><g class="x2"><path class="x2grid crisp" transform="translate(253.48333333333335,0)" d="M0,100v120" style="stroke: rgb(238, 238, 238); stroke-opacity: 1; stroke-width: 1px;"/></g><g class="y2"><path class="y2grid crisp" transform="translate(0,176.36)" d="M195.01333333333335,0h116.93333333333331" style="stroke: rgb(238, 238, 238); stroke-opacity: 1; stroke-width: 1px;"/><path class="y2grid crisp" transform="translate(0,132.73)" d="M195.01333333333335,0h116.93333333333331" style="stroke: rgb(238, 238, 238); stroke-opacity: 1; stroke-width: 1px;"/></g></g><g class="zerolinelayer"/><path class="xlines-below"/><path class="ylines-below"/><g class="overlines-below"/><g class="xaxislayer-below"/><g class="yaxislayer-below"/><g class="overaxes-below"/><g class="plot" transform="translate(195.01333333333335, 100)" clip-path="url('#clipe17645x2y2plot')"><g class="scatterlayer mlayer"><g class="trace scatter trace62e94d" style="stroke-miterlimit: 2; opacity: 1;"><g class="fills"/><g class="errorbars"/><g class="lines"><path class="js-line" d="M0,11.48L67.27,11.62L69.88,12.14L75.11,19.83L77.72,27.58L80.34,32.71L82.95,44.39L90.79,81.52L93.41,88.63L103.86,103.78L106.48,118.68L109.09,119.68L111.71,119.83L116.93,119.91" style="vector-effect: non-scaling-stroke; fill: none; stroke: rgb(141, 196, 71); stroke-opacity: 1; stroke-width: 2px; opacity: 1;"/></g><g class="points"/><g class="text"/></g><g class="trace scatter trace76e665" style="stroke-miterlimit: 2; opacity: 1;"><g class="fills"/><g class="errorbars"/><g class="lines"><path class="js-line" d="M0,86.48L16.82,85.98L33.63,86.5L50.45,86.39L67.27,90.96L69.88,91.38L72.5,93.78L75.11,93.78L77.72,95.38L90.79,102.16L93.41,104L96.02,105.31L98.64,119.18L103.86,119.78L106.48,119.84L116.93,119.92" style="vector-effect: non-scaling-stroke; fill: none; stroke: rgb(255, 85, 85); stroke-opacity: 1; stroke-width: 2px; opacity: 1;"/></g><g class="points"/><g class="text"/></g><g class="trace scatter trace3f7730" style="stroke-miterlimit: 2; opacity: 1;"><g class="fills"/><g class="errorbars"/><g class="lines"><path class="js-line" d="M0,47.15L50.45,47.13L67.27,48.63L72.5,52.37L75.11,55.37L80.34,64.04L82.95,70.13L88.18,86.7L90.79,96.11L93.41,103.63L96.02,114.86L98.64,118.63L101.25,119.41L111.71,119.88L114.32,119.9L116.93,119.92" style="vector-effect: non-scaling-stroke; fill: none; stroke: rgb(118, 209, 244); stroke-opacity: 1; stroke-width: 2px; opacity: 1;"/></g><g class="points"/><g class="text"/></g></g></g><g class="overplot"/><path class="xlines-above crisp" d="M194.01333333333335,220.5H312.94666666666666M194.01333333333335,99.5H312.94666666666666" style="fill: none; stroke-width: 1px; stroke: rgb(0, 0, 0); stroke-opacity: 1;"/><path class="ylines-above crisp" d="M194.51333333333335,100V220M312.44666666666666,100V220" style="fill: none; stroke-width: 1px; stroke: rgb(0, 0, 0); stroke-opacity: 1;"/><g class="overlines-above"/><g class="xaxislayer-above"><path class="x2tick ticks crisp" d="M0,221v5" transform="translate(195.01333333333335,0)" style="stroke: rgb(68, 68, 68); stroke-opacity: 1; stroke-width: 1px;"/><path class="x2tick ticks crisp" d="M0,221v5" transform="translate(253.48333333333335,0)" style="stroke: rgb(68, 68, 68); stroke-opacity: 1; stroke-width: 1px;"/><path class="x2tick ticks crisp" d="M0,221v5" transform="translate(311.9433333333334,0)" style="stroke: rgb(68, 68, 68); stroke-opacity: 1; stroke-width: 1px;"/><g class="x2tick"><text text-anchor="middle" x="0" y="242.8" transform="translate(195.01333333333335,0)" style="font-family: 'Open Sans', verdana, arial, sans-serif; font-size: 14px; fill: rgb(0, 0, 0); fill-opacity: 1; white-space: pre;">0</text></g><g class="x2tick"><text text-anchor="middle" x="0" y="242.8" transform="translate(253.48333333333335,0)" style="font-family: 'Open Sans', verdana, arial, sans-serif; font-size: 14px; fill: rgb(0, 0, 0); fill-opacity: 1; white-space: pre;">50</text></g><g class="x2tick"><text text-anchor="middle" x="0" y="242.8" transform="translate(311.9433333333334,0)" style="font-family: 'Open Sans', verdana, arial, sans-serif; font-size: 14px; fill: rgb(0, 0, 0); fill-opacity: 1; white-space: pre;">100</text></g></g><g class="yaxislayer-above"><path class="y2tick ticks crisp" d="M194.01333333333335,0h-5" transform="translate(0,220)" style="stroke: rgb(68, 68, 68); stroke-opacity: 1; stroke-width: 1px;"/><path class="y2tick ticks crisp" d="M194.01333333333335,0h-5" transform="translate(0,176.36)" style="stroke: rgb(68, 68, 68); stroke-opacity: 1; stroke-width: 1px;"/><path class="y2tick ticks crisp" d="M194.01333333333335,0h-5" transform="translate(0,132.73)" style="stroke: rgb(68, 68, 68); stroke-opacity: 1; stroke-width: 1px;"/><g class="y2tick"><text text-anchor="end" x="186.21333333333334" y="4.8999999999999995" transform="translate(0,220)" style="font-family: 'Open Sans', verdana, arial, sans-serif; font-size: 14px; fill: rgb(0, 0, 0); fill-opacity: 1; white-space: pre;">0</text></g><g class="y2tick"><text text-anchor="end" x="186.21333333333334" y="4.8999999999999995" transform="translate(0,176.36)" style="font-family: 'Open Sans', verdana, arial, sans-serif; font-size: 14px; fill: rgb(0, 0, 0); fill-opacity: 1; white-space: pre;">2</text></g><g class="y2tick"><text text-anchor="end" x="186.21333333333334" y="4.8999999999999995" transform="translate(0,132.73)" style="font-family: 'Open Sans', verdana, arial, sans-serif; font-size: 14px; fill: rgb(0, 0, 0); fill-opacity: 1; white-space: pre;">4</text></g></g><g class="overaxes-above"/></g></g><g class="polarlayer"/><g class="ternarylayer"/><g class="geolayer"/><g class="funnelarealayer"/><g class="pielayer"/><g class="treemaplayer"/><g class="sunburstlayer"/><g class="glimages"/><defs id="topdefs-e17645"><g class="clips"/></defs><g class="layer-above"><g class="imagelayer"/><g class="shapelayer"/></g><g class="infolayer"><g class="g-gtitle"/><g class="g-xtitle" transform="translate(0,3.5999999999999943)"><text class="xtitle" x="101.46666666666667" y="254.4" text-anchor="middle" style="font-family: 'Open Sans', verdana, arial, sans-serif; font-size: 12px; fill: rgb(0, 0, 0); opacity: 1; font-weight: normal; white-space: pre;">Min Yield (% Max)</text></g><g class="g-x2title" transform="translate(0,3.5999999999999943)"><text class="x2title" x="253.48000000000002" y="254.4" text-anchor="middle" style="font-family: 'Open Sans', verdana, arial, sans-serif; font-size: 12px; fill: rgb(0, 0, 0); opacity: 1; font-weight: normal; white-space: pre;">Min Yield (% Max)</text></g><g class="g-ytitle" transform="translate(4.009765625,0)"><text class="ytitle" transform="rotate(-90,7.990625000000001,160)" x="7.990625000000001" y="160" text-anchor="middle" style="font-family: 'Open Sans', verdana, arial, sans-serif; font-size: 12px; fill: rgb(0, 0, 0); opacity: 1; font-weight: normal; white-space: pre;">Max Rate(g/L.h)</text></g><g class="g-y2title"/><g class="annotation" data-index="0" style="opacity: 1;"><g class="annotation-text-g" transform="rotate(0,101.46666666666667,88.5)"><g class="cursor-pointer" transform="translate(66, 77)"><rect class="bg" x="0.5" y="0.5" width="69" height="22" style="stroke-width: 1px; stroke: rgb(0, 0, 0); stroke-opacity: 0; fill: rgb(0, 0, 0); fill-opacity: 0;"/><text class="annotation-text" text-anchor="middle" x="35.171875" y="18" style="font-family: 'Open Sans', verdana, arial, sans-serif; font-size: 16px; fill: rgb(0, 0, 0); fill-opacity: 1; white-space: pre;">Formate</text></g></g></g><g class="annotation" data-index="1" style="opacity: 1;"><g class="annotation-text-g" transform="rotate(0,253.48,88.5)"><g class="cursor-pointer" transform="translate(232, 77)"><rect class="bg" x="0.5" y="0.5" width="41" height="22" style="stroke-width: 1px; stroke: rgb(0, 0, 0); stroke-opacity: 0; fill: rgb(0, 0, 0); fill-opacity: 0;"/><text class="annotation-text" text-anchor="middle" x="20.828125" y="18" style="font-family: 'Open Sans', verdana, arial, sans-serif; font-size: 16px; fill: rgb(0, 0, 0); fill-opacity: 1; white-space: pre;">Urea</text></g></g></g></g></svg>