<svg class="main-svg" xmlns="http://www.w3.org/2000/svg" xmlns:xlink="http://www.w3.org/1999/xlink" width="1000" height="300" viewBox="0 0 1000 300"><rect x="0" y="0" width="1000" height="300" style="fill: rgb(255, 255, 255); fill-opacity: 1;"/><defs id="defs-2a144c"><g class="clips"><clipPath id="clip2a144cxyplot" class="plotclip"><rect width="118.13333333333333" height="120"/></clipPath><clipPath id="clip2a144cx2y2plot" class="plotclip"><rect width="118.13333333333331" height="120"/></clipPath><clipPath id="clip2a144cx3y3plot" class="plotclip"><rect width="118.13333333333331" height="120"/></clipPath><clipPath id="clip2a144cx4y4plot" class="plotclip"><rect width="118.13333333333331" height="120"/></clipPath><clipPath id="clip2a144cx5y5plot" class="plotclip"><rect width="118.13333333333331" height="120"/></clipPath><clipPath id="clip2a144cx6y6plot" class="plotclip"><rect width="118.13333333333331" height="120"/></clipPath><clipPath class="axesclip" id="clip2a144cx"><rect x="34" y="0" width="118.13333333333333" height="300"/></clipPath><clipPath class="axesclip" id="clip2a144cy"><rect x="0" y="100" width="1000" height="120"/></clipPath><clipPath class="axesclip" id="clip2a144cxy"><rect x="34" y="100" width="118.13333333333333" height="120"/></clipPath><clipPath class="axesclip" id="clip2a144cy2"><rect x="0" y="100" width="1000" height="120"/></clipPath><clipPath class="axesclip" id="clip2a144cxy2"><rect x="34" y="100" width="118.13333333333333" height="120"/></clipPath><clipPath class="axesclip" id="clip2a144cy3"><rect x="0" y="100" width="1000" height="120"/></clipPath><clipPath class="axesclip" id="clip2a144cxy3"><rect x="34" y="100" width="118.13333333333333" height="120"/></clipPath><clipPath class="axesclip" id="clip2a144cy4"><rect x="0" y="100" width="1000" height="120"/></clipPath><clipPath class="axesclip" id="clip2a144cxy4"><rect x="34" y="100" width="118.13333333333333" height="120"/></clipPath><clipPath class="axesclip" id="clip2a144cy5"><rect x="0" y="100" width="1000" height="120"/></clipPath><clipPath class="axesclip" id="clip2a144cxy5"><rect x="34" y="100" width="118.13333333333333" height="120"/></clipPath><clipPath class="axesclip" id="clip2a144cy6"><rect x="0" y="100" width="1000" height="120"/></clipPath><clipPath class="axesclip" id="clip2a144cxy6"><rect x="34" y="100" width="118.13333333333333" height="120"/></clipPath><clipPath class="axesclip" id="clip2a144cx2"><rect x="187.57333333333335" y="0" width="118.13333333333331" height="300"/></clipPath><clipPath class="axesclip" id="clip2a144cx2y"><rect x="187.57333333333335" y="100" width="118.13333333333331" height="120"/></clipPath><clipPath class="axesclip" id="clip2a144cx2y2"><rect x="187.57333333333335" y="100" width="118.13333333333331" height="120"/></clipPath><clipPath class="axesclip" id="clip2a144cx2y3"><rect x="187.57333333333335" y="100" width="118.13333333333331" height="120"/></clipPath><clipPath class="axesclip" id="clip2a144cx2y4"><rect x="187.57333333333335" y="100" width="118.13333333333331" height="120"/></clipPath><clipPath class="axesclip" id="clip2a144cx2y5"><rect x="187.57333333333335" y="100" width="118.13333333333331" height="120"/></clipPath><clipPath class="axesclip" id="clip2a144cx2y6"><rect x="187.57333333333335" y="100" width="118.13333333333331" height="120"/></clipPath><clipPath class="axesclip" id="clip2a144cx3"><rect x="341.1466666666667" y="0" width="118.13333333333331" height="300"/></clipPath><clipPath class="axesclip" id="clip2a144cx3y"><rect x="341.1466666666667" y="100" width="118.13333333333331" height="120"/></clipPath><clipPath class="axesclip" id="clip2a144cx3y2"><rect x="341.1466666666667" y="100" width="118.13333333333331" height="120"/></clipPath><clipPath class="axesclip" id="clip2a144cx3y3"><rect x="341.1466666666667" y="100" width="118.13333333333331" height="120"/></clipPath><clipPath class="axesclip" id="clip2a144cx3y4"><rect x="341.1466666666667" y="100" width="118.13333333333331" height="120"/></clipPath><clipPath class="axesclip" id="clip2a144cx3y5"><rect x="341.1466666666667" y="100" width="118.13333333333331" height="120"/></clipPath><clipPath class="axesclip" id="clip2a144cx3y6"><rect x="341.1466666666667" y="100" width="118.13333333333331" height="120"/></clipPath><clipPath class="axesclip" id="clip2a144cx4"><rect x="494.72" y="0" width="118.13333333333331" height="300"/></clipPath><clipPath class="axesclip" id="clip2a144cx4y"><rect x="494.72" y="100" width="118.13333333333331" height="120"/></clipPath><clipPath class="axesclip" id="clip2a144cx4y2"><rect x="494.72" y="100" width="118.13333333333331" height="120"/></clipPath><clipPath class="axesclip" id="clip2a144cx4y3"><rect x="494.72" y="100" width="118.13333333333331" height="120"/></clipPath><clipPath class="axesclip" id="clip2a144cx4y4"><rect x="494.72" y="100" width="118.13333333333331" height="120"/></clipPath><clipPath class="axesclip" id="clip2a144cx4y5"><rect x="494.72" y="100" width="118.13333333333331" height="120"/></clipPath><clipPath class="axesclip" id="clip2a144cx4y6"><rect x="494.72" y="100" width="118.13333333333331" height="120"/></clipPath><clipPath class="axesclip" id="clip2a144cx5"><rect x="648.2933333333334" y="0" width="118.13333333333331" height="300"/></clipPath><clipPath class="axesclip" id="clip2a144cx5y"><rect x="648.2933333333334" y="100" width="118.13333333333331" height="120"/></clipPath><clipPath class="axesclip" id="clip2a144cx5y2"><rect x="648.2933333333334" y="100" width="118.13333333333331" height="120"/></clipPath><clipPath class="axesclip" id="clip2a144cx5y3"><rect x="648.2933333333334" y="100" width="118.13333333333331" height="120"/></clipPath><clipPath class="axesclip" id="clip2a144cx5y4"><rect x="648.2933333333334" y="100" width="118.13333333333331" height="120"/></clipPath><clipPath class="axesclip" id="clip2a144cx5y5"><rect x="648.2933333333334" y="100" width="118.13333333333331" height="120"/></clipPath><clipPath class="axesclip" id="clip2a144cx5y6"><rect x="648.2933333333334" y="100" width="118.13333333333331" height="120"/></clipPath><clipPath class="axesclip" id="clip2a144cx6"><rect x="801.8666666666667" y="0" width="118.13333333333331" height="300"/></clipPath><clipPath class="axesclip" id="clip2a144cx6y"><rect x="801.8666666666667" y="100" width="118.13333333333331" height="120"/></clipPath><clipPath class="axesclip" id="clip2a144cx6y2"><rect x="801.8666666666667" y="100" width="118.13333333333331" height="120"/></clipPath><clipPath class="axesclip" id="clip2a144cx6y3"><rect x="801.8666666666667" y="100" width="118.13333333333331" height="120"/></clipPath><clipPath class="axesclip" id="clip2a144cx6y4"><rect x="801.8666666666667" y="100" width="118.13333333333331" height="120"/></clipPath><clipPath class="axesclip" id="clip2a144cx6y5"><rect x="801.8666666666667" y="100" width="118.13333333333331" height="120"/></clipPath><clipPath class="axesclip" id="clip2a144cx6y6"><rect x="801.8666666666667" y="100" width="118.13333333333331" height="120"/></clipPath></g><g class="gradients"/></defs><g class="bglayer"/><g class="layer-below"><g class="imagelayer"/><g class="shapelayer"/></g><g class="cartesianlayer"><g class="subplot xy"><g class="layer-subplot"><g class="shapelayer"/><g class="imagelayer"/></g><g class="gridlayer"><g class="x"><path class="xgrid crisp" transform="translate(93.07,0)" d="M0,100v120" style="stroke: rgb(238, 238, 238); stroke-opacity: 1; stroke-width: 1px;"/></g><g class="y"><path class="ygrid crisp" transform="translate(0,180)" d="M34,0h118.13333333333333" style="stroke: rgb(238, 238, 238); stroke-opacity: 1; stroke-width: 1px;"/><path class="ygrid crisp" transform="translate(0,140)" d="M34,0h118.13333333333333" style="stroke: rgb(238, 238, 238); stroke-opacity: 1; stroke-width: 1px;"/></g></g><g class="zerolinelayer"/><path class="xlines-below"/><path class="ylines-below"/><g class="overlines-below"/><g class="xaxislayer-below"/><g class="yaxislayer-below"/><g class="overaxes-below"/><g class="plot" transform="translate(34, 100)" clip-path="url('#clip2a144cxyplot')"><g class="scatterlayer mlayer"><g class="trace scatter tracebd8cbb" style="stroke-miterlimit: 2; opacity: 1;"><g class="fills"/><g class="errorbars"/><g class="lines"><path class="js-line" d="M0,13.04L70.31,13.53L72.97,15.24L75.62,18.26L78.28,22.83L80.94,29.28L83.59,37.91L88.91,62.13L91.56,74.35L94.22,84.24L96.88,90.31L102.19,101.23L104.85,104.34L107.51,117.35L110.16,119.6L118.13,119.91" style="vector-effect: non-scaling-stroke; fill: none; stroke: rgb(141, 196, 71); stroke-opacity: 1; stroke-width: 2px; opacity: 1;"/></g><g class="points"/><g class="text"/></g><g class="trace scatter trace383c39" style="stroke-miterlimit: 2; opacity: 1;"><g class="fills"/><g class="errorbars"/><g class="lines"><path class="js-line" d="M0,86.4L33.83,86.13L50.74,86.3L72.97,92.61L75.62,93.91L94.22,104.04L96.88,105.83L99.53,119.13L102.19,119.65L118.13,119.92" style="vector-effect: non-scaling-stroke; fill: none; stroke: rgb(255, 85, 85); stroke-opacity: 1; stroke-width: 2px; opacity: 1;"/></g><g class="points"/><g class="text"/></g><g class="trace scatter trace47fae9" style="stroke-miterlimit: 2; opacity: 1;"><g class="fills"/><g class="errorbars"/><g class="lines"><path class="js-line" d="M0,48.95L50.74,48.93L67.65,49.78L72.97,52.42L75.62,54.59L80.94,61.36L83.59,66.39L88.91,80.4L91.56,89.44L96.88,105.11L99.53,116.71L102.19,118.96L104.85,119.51L118.13,119.92" style="vector-effect: non-scaling-stroke; fill: none; stroke: rgb(118, 209, 244); stroke-opacity: 1; stroke-width: 2px; opacity: 1;"/></g><g class="points"/><g class="text"/></g></g></g><g class="overplot"/><path class="xlines-above crisp" d="M33,220.5H153.13333333333333M33,99.5H153.13333333333333" style="fill: none; stroke-width: 1px; stroke: rgb(0, 0, 0); stroke-opacity: 1;"/><path class="ylines-above crisp" d="M33.5,100V220M152.63333333333333,100V220" style="fill: none; stroke-width: 1px; stroke: rgb(0, 0, 0); stroke-opacity: 1;"/><g class="overlines-above"/><g class="xaxislayer-above"><path class="xtick ticks crisp" d="M0,221v5" transform="translate(34,0)" style="stroke: rgb(68, 68, 68); stroke-opacity: 1; stroke-width: 1px;"/><path class="xtick ticks crisp" d="M0,221v5" transform="translate(93.07,0)" style="stroke: rgb(68, 68, 68); stroke-opacity: 1; stroke-width: 1px;"/><path class="xtick ticks crisp" d="M0,221v5" transform="translate(152.13,0)" style="stroke: rgb(68, 68, 68); stroke-opacity: 1; stroke-width: 1px;"/><g class="xtick"><text text-anchor="middle" x="0" y="242.8" transform="translate(34,0)" style="font-family: 'Open Sans', verdana, arial, sans-serif; font-size: 14px; fill: rgb(0, 0, 0); fill-opacity: 1; white-space: pre;">0</text></g><g class="xtick"><text text-anchor="middle" x="0" y="242.8" transform="translate(93.07,0)" style="font-family: 'Open Sans', verdana, arial, sans-serif; font-size: 14px; fill: rgb(0, 0, 0); fill-opacity: 1; white-space: pre;">50</text></g><g class="xtick"><text text-anchor="middle" x="0" y="242.8" transform="translate(152.13,0)" style="font-family: 'Open Sans', verdana, arial, sans-serif; font-size: 14px; fill: rgb(0, 0, 0); fill-opacity: 1; white-space: pre;">100</text></g></g><g class="yaxislayer-above"><path class="ytick ticks crisp" d="M33,0h-5" transform="translate(0,220)" style="stroke: rgb(68, 68, 68); stroke-opacity: 1; stroke-width: 1px;"/><path class="ytick ticks crisp" d="M33,0h-5" transform="translate(0,180)" style="stroke: rgb(68, 68, 68); stroke-opacity: 1; stroke-width: 1px;"/><path class="ytick ticks crisp" d="M33,0h-5" transform="translate(0,140)" style="stroke: rgb(68, 68, 68); stroke-opacity: 1; stroke-width: 1px;"/><path class="ytick ticks crisp" d="M33,0h-5" transform="translate(0,100)" style="stroke: rgb(68, 68, 68); stroke-opacity: 1; stroke-width: 1px;"/><g class="ytick"><text text-anchor="end" x="25.2" y="4.8999999999999995" transform="translate(0,220)" style="font-family: 'Open Sans', verdana, arial, sans-serif; font-size: 14px; fill: rgb(0, 0, 0); fill-opacity: 1; white-space: pre;">0</text></g><g class="ytick"><text text-anchor="end" x="25.2" y="4.8999999999999995" transform="translate(0,180)" style="font-family: 'Open Sans', verdana, arial, sans-serif; font-size: 14px; fill: rgb(0, 0, 0); fill-opacity: 1; white-space: pre;">1</text></g><g class="ytick"><text text-anchor="end" x="25.2" y="4.8999999999999995" transform="translate(0,140)" style="font-family: 'Open Sans', verdana, arial, sans-serif; font-size: 14px; fill: rgb(0, 0, 0); fill-opacity: 1; white-space: pre;">2</text></g><g class="ytick"><text text-anchor="end" x="25.2" y="4.8999999999999995" transform="translate(0,100)" style="font-family: 'Open Sans', verdana, arial, sans-serif; font-size: 14px; fill: rgb(0, 0, 0); fill-opacity: 1; white-space: pre;">3</text></g></g><g class="overaxes-above"/></g><g class="subplot x2y2"><g class="layer-subplot"><g class="shapelayer"/><g class="imagelayer"/></g><g class="gridlayer"><g class="x2"><path class="x2grid crisp" transform="translate(246.64333333333335,0)" d="M0,100v120" style="stroke: rgb(238, 238, 238); stroke-opacity: 1; stroke-width: 1px;"/></g><g class="y2"><path class="y2grid crisp" transform="translate(0,172)" d="M187.57333333333335,0h118.13333333333331" style="stroke: rgb(238, 238, 238); stroke-opacity: 1; stroke-width: 1px;"/><path class="y2grid crisp" transform="translate(0,124)" d="M187.57333333333335,0h118.13333333333331" style="stroke: rgb(238, 238, 238); stroke-opacity: 1; stroke-width: 1px;"/></g></g><g class="zerolinelayer"/><path class="xlines-below"/><path class="ylines-below"/><g class="overlines-below"/><g class="xaxislayer-below"/><g class="yaxislayer-below"/><g class="overaxes-below"/><g class="plot" transform="translate(187.57333333333335, 100)" clip-path="url('#clip2a144cx2y2plot')"><g class="scatterlayer mlayer"><g class="trace scatter trace28c292" style="stroke-miterlimit: 2; opacity: 1;"><g class="fills"/><g class="errorbars"/><g class="lines"><path class="js-line" d="M0,12.13L67.58,12.2L70.24,13.03L72.9,15.32L75.56,18.92L78.22,24.57L80.88,32.4L86.2,55.55L88.86,68.74L91.53,80.34L94.19,87.65L102.17,99.73L104.83,103.38L107.49,118.54L110.15,119.67L118.13,119.91" style="vector-effect: non-scaling-stroke; fill: none; stroke: rgb(141, 196, 71); stroke-opacity: 1; stroke-width: 2px; opacity: 1;"/></g><g class="points"/><g class="text"/></g><g class="trace scatter trace9fdebe" style="stroke-miterlimit: 2; opacity: 1;"><g class="fills"/><g class="errorbars"/><g class="lines"><path class="js-line" d="M0,85.98L33.79,85.56L50.68,85.75L75.56,92.66L78.22,94.84L80.88,96.28L83.54,96.85L96.85,105.39L99.51,119.1L104.83,119.77L107.49,119.83L118.13,119.91" style="vector-effect: non-scaling-stroke; fill: none; stroke: rgb(255, 85, 85); stroke-opacity: 1; stroke-width: 2px; opacity: 1;"/></g><g class="points"/><g class="text"/></g><g class="trace scatter trace5bed20" style="stroke-miterlimit: 2; opacity: 1;"><g class="fills"/><g class="errorbars"/><g class="lines"><path class="js-line" d="M0,46.59L50.68,46.56L67.58,48.15L72.9,51.76L75.56,54.59L80.88,62.75L83.54,68.65L88.86,85.25L91.53,94.94L94.19,102.88L96.85,114.14L99.51,118.52L102.17,119.38L112.81,119.87L115.47,119.9L118.13,119.91" style="vector-effect: non-scaling-stroke; fill: none; stroke: rgb(118, 209, 244); stroke-opacity: 1; stroke-width: 2px; opacity: 1;"/></g><g class="points"/><g class="text"/></g></g></g><g class="overplot"/><path class="xlines-above crisp" d="M186.57333333333335,220.5H306.70666666666665M186.57333333333335,99.5H306.70666666666665" style="fill: none; stroke-width: 1px; stroke: rgb(0, 0, 0); stroke-opacity: 1;"/><path class="ylines-above crisp" d="M187.07333333333335,100V220M306.20666666666665,100V220" style="fill: none; stroke-width: 1px; stroke: rgb(0, 0, 0); stroke-opacity: 1;"/><g class="overlines-above"/><g class="xaxislayer-above"><path class="x2tick ticks crisp" d="M0,221v5" transform="translate(187.57333333333335,0)" style="stroke: rgb(68, 68, 68); stroke-opacity: 1; stroke-width: 1px;"/><path class="x2tick ticks crisp" d="M0,221v5" transform="translate(246.64333333333335,0)" style="stroke: rgb(68, 68, 68); stroke-opacity: 1; stroke-width: 1px;"/><path class="x2tick ticks crisp" d="M0,221v5" transform="translate(305.7033333333334,0)" style="stroke: rgb(68, 68, 68); stroke-opacity: 1; stroke-width: 1px;"/><g class="x2tick"><text text-anchor="middle" x="0" y="242.8" transform="translate(187.57333333333335,0)" style="font-family: 'Open Sans', verdana, arial, sans-serif; font-size: 14px; fill: rgb(0, 0, 0); fill-opacity: 1; white-space: pre;">0</text></g><g class="x2tick"><text text-anchor="middle" x="0" y="242.8" transform="translate(246.64333333333335,0)" style="font-family: 'Open Sans', verdana, arial, sans-serif; font-size: 14px; fill: rgb(0, 0, 0); fill-opacity: 1; white-space: pre;">50</text></g><g class="x2tick"><text text-anchor="middle" x="0" y="242.8" transform="translate(305.7033333333334,0)" style="font-family: 'Open Sans', verdana, arial, sans-serif; font-size: 14px; fill: rgb(0, 0, 0); fill-opacity: 1; white-space: pre;">100</text></g></g><g class="yaxislayer-above"><path class="y2tick ticks crisp" d="M186.57333333333335,0h-5" transform="translate(0,220)" style="stroke: rgb(68, 68, 68); stroke-opacity: 1; stroke-width: 1px;"/><path class="y2tick ticks crisp" d="M186.57333333333335,0h-5" transform="translate(0,172)" style="stroke: rgb(68, 68, 68); stroke-opacity: 1; stroke-width: 1px;"/><path class="y2tick ticks crisp" d="M186.57333333333335,0h-5" transform="translate(0,124)" style="stroke: rgb(68, 68, 68); stroke-opacity: 1; stroke-width: 1px;"/><g class="y2tick"><text text-anchor="end" x="178.77333333333334" y="4.8999999999999995" transform="translate(0,220)" style="font-family: 'Open Sans', verdana, arial, sans-serif; font-size: 14px; fill: rgb(0, 0, 0); fill-opacity: 1; white-space: pre;">0</text></g><g class="y2tick"><text text-anchor="end" x="178.77333333333334" y="4.8999999999999995" transform="translate(0,172)" style="font-family: 'Open Sans', verdana, arial, sans-serif; font-size: 14px; fill: rgb(0, 0, 0); fill-opacity: 1; white-space: pre;">2</text></g><g class="y2tick"><text text-anchor="end" x="178.77333333333334" y="4.8999999999999995" transform="translate(0,124)" style="font-family: 'Open Sans', verdana, arial, sans-serif; font-size: 14px; fill: rgb(0, 0, 0); fill-opacity: 1; white-space: pre;">4</text></g></g><g class="overaxes-above"/></g><g class="subplot x3y3"><g class="layer-subplot"><g class="shapelayer"/><g class="imagelayer"/></g><g class="gridlayer"><g class="x3"><path class="x3grid crisp" transform="translate(400.2166666666667,0)" d="M0,100v120" style="stroke: rgb(238, 238, 238); stroke-opacity: 1; stroke-width: 1px;"/></g><g class="y3"><path class="y3grid crisp" transform="translate(0,172)" d="M341.1466666666667,0h118.13333333333331" style="stroke: rgb(238, 238, 238); stroke-opacity: 1; stroke-width: 1px;"/><path class="y3grid crisp" transform="translate(0,124)" d="M341.1466666666667,0h118.13333333333331" style="stroke: rgb(238, 238, 238); stroke-opacity: 1; stroke-width: 1px;"/></g></g><g class="zerolinelayer"/><path class="xlines-below"/><path class="ylines-below"/><g class="overlines-below"/><g class="xaxislayer-below"/><g class="yaxislayer-below"/><g class="overaxes-below"/><g class="plot" transform="translate(341.1466666666667, 100)" clip-path="url('#clip2a144cx3y3plot')"><g class="scatterlayer mlayer"><g class="trace scatter trace978d2d" style="stroke-miterlimit: 2; opacity: 1;"><g class="fills"/><g class="errorbars"/><g class="lines"><path class="js-line" d="M0,5.64L72.48,6.29L75.02,8.15L77.55,10.98L80.09,15.32L82.63,21.24L85.16,29.07L87.7,39.06L90.23,52.39L95.31,77.39L97.84,86.75L100.38,92.78L102.92,96.85L105.45,103.66L107.99,114.26L110.52,119.47L113.06,119.85L118.13,119.91" style="vector-effect: non-scaling-stroke; fill: none; stroke: rgb(141, 196, 71); stroke-opacity: 1; stroke-width: 2px; opacity: 1;"/></g><g class="points"/><g class="text"/></g><g class="trace scatter trace058c06" style="stroke-miterlimit: 2; opacity: 1;"><g class="fills"/><g class="errorbars"/><g class="lines"><path class="js-line" d="M0,84.96L52.46,85.07L69.94,90.8L75.02,92.03L77.55,93.61L82.63,95.97L85.16,98.19L95.31,103.7L97.84,113.3L100.38,119.37L102.92,119.67L118.13,119.91" style="vector-effect: non-scaling-stroke; fill: none; stroke: rgb(255, 85, 85); stroke-opacity: 1; stroke-width: 2px; opacity: 1;"/></g><g class="points"/><g class="text"/></g><g class="trace scatter trace7d3121" style="stroke-miterlimit: 2; opacity: 1;"><g class="fills"/><g class="errorbars"/><g class="lines"><path class="js-line" d="M0,44.74L52.46,44.72L69.94,45.87L75.02,48.69L77.55,50.9L82.63,57.28L85.16,61.69L90.23,73.88L92.77,82.08L100.38,112.48L102.92,118.42L107.99,119.68L110.52,119.8L118.13,119.91" style="vector-effect: non-scaling-stroke; fill: none; stroke: rgb(118, 209, 244); stroke-opacity: 1; stroke-width: 2px; opacity: 1;"/></g><g class="points"/><g class="text"/></g></g></g><g class="overplot"/><path class="xlines-above crisp" d="M340.1466666666667,220.5H460.28000000000003M340.1466666666667,99.5H460.28000000000003" style="fill: none; stroke-width: 1px; stroke: rgb(0, 0, 0); stroke-opacity: 1;"/><path class="ylines-above crisp" d="M340.6466666666667,100V220M459.78000000000003,100V220" style="fill: none; stroke-width: 1px; stroke: rgb(0, 0, 0); stroke-opacity: 1;"/><g class="overlines-above"/><g class="xaxislayer-above"><path class="x3tick ticks crisp" d="M0,221v5" transform="translate(341.1466666666667,0)" style="stroke: rgb(68, 68, 68); stroke-opacity: 1; stroke-width: 1px;"/><path class="x3tick ticks crisp" d="M0,221v5" transform="translate(400.2166666666667,0)" style="stroke: rgb(68, 68, 68); stroke-opacity: 1; stroke-width: 1px;"/><path class="x3tick ticks crisp" d="M0,221v5" transform="translate(459.2766666666667,0)" style="stroke: rgb(68, 68, 68); stroke-opacity: 1; stroke-width: 1px;"/><g class="x3tick"><text text-anchor="middle" x="0" y="242.8" transform="translate(341.1466666666667,0)" style="font-family: 'Open Sans', verdana, arial, sans-serif; font-size: 14px; fill: rgb(0, 0, 0); fill-opacity: 1; white-space: pre;">0</text></g><g class="x3tick"><text text-anchor="middle" x="0" y="242.8" transform="translate(400.2166666666667,0)" style="font-family: 'Open Sans', verdana, arial, sans-serif; font-size: 14px; fill: rgb(0, 0, 0); fill-opacity: 1; white-space: pre;">50</text></g><g class="x3tick"><text text-anchor="middle" x="0" y="242.8" transform="translate(459.2766666666667,0)" style="font-family: 'Open Sans', verdana, arial, sans-serif; font-size: 14px; fill: rgb(0, 0, 0); fill-opacity: 1; white-space: pre;">100</text></g></g><g class="yaxislayer-above"><path class="y3tick ticks crisp" d="M340.1466666666667,0h-5" transform="translate(0,220)" style="stroke: rgb(68, 68, 68); stroke-opacity: 1; stroke-width: 1px;"/><path class="y3tick ticks crisp" d="M340.1466666666667,0h-5" transform="translate(0,172)" style="stroke: rgb(68, 68, 68); stroke-opacity: 1; stroke-width: 1px;"/><path class="y3tick ticks crisp" d="M340.1466666666667,0h-5" transform="translate(0,124)" style="stroke: rgb(68, 68, 68); stroke-opacity: 1; stroke-width: 1px;"/><g class="y3tick"><text text-anchor="end" x="332.3466666666667" y="4.8999999999999995" transform="translate(0,220)" style="font-family: 'Open Sans', verdana, arial, sans-serif; font-size: 14px; fill: rgb(0, 0, 0); fill-opacity: 1; white-space: pre;">0</text></g><g class="y3tick"><text text-anchor="end" x="332.3466666666667" y="4.8999999999999995" transform="translate(0,172)" style="font-family: 'Open Sans', verdana, arial, sans-serif; font-size: 14px; fill: rgb(0, 0, 0); fill-opacity: 1; white-space: pre;">1</text></g><g class="y3tick"><text text-anchor="end" x="332.3466666666667" y="4.8999999999999995" transform="translate(0,124)" style="font-family: 'Open Sans', verdana, arial, sans-serif; font-size: 14px; fill: rgb(0, 0, 0); fill-opacity: 1; white-space: pre;">2</text></g></g><g class="overaxes-above"/></g><g class="subplot x4y4"><g class="layer-subplot"><g class="shapelayer"/><g class="imagelayer"/></g><g class="gridlayer"><g class="x4"><path class="x4grid crisp" transform="translate(553.7900000000001,0)" d="M0,100v120" style="stroke: rgb(238, 238, 238); stroke-opacity: 1; stroke-width: 1px;"/></g><g class="y4"><path class="y4grid crisp" transform="translate(0,172)" d="M494.72,0h118.13333333333331" style="stroke: rgb(238, 238, 238); stroke-opacity: 1; stroke-width: 1px;"/><path class="y4grid crisp" transform="translate(0,124)" d="M494.72,0h118.13333333333331" style="stroke: rgb(238, 238, 238); stroke-opacity: 1; stroke-width: 1px;"/></g></g><g class="zerolinelayer"/><path class="xlines-below"/><path class="ylines-below"/><g class="overlines-below"/><g class="xaxislayer-below"/><g class="yaxislayer-below"/><g class="overaxes-below"/><g class="plot" transform="translate(494.72, 100)" clip-path="url('#clip2a144cx4y4plot')"><g class="scatterlayer mlayer"><g class="trace scatter tracea46c8e" style="stroke-miterlimit: 2; opacity: 1;"><g class="fills"/><g class="errorbars"/><g class="lines"><path class="js-line" d="M0,17.33L70.2,17.44L72.87,18.43L75.53,20.55L78.19,24.06L80.85,28.97L83.52,35.76L88.84,55.71L91.5,68.88L96.83,90L99.49,94.85L102.16,98.8L104.82,105.57L107.48,119.63L110.14,119.82L118.13,119.91" style="vector-effect: non-scaling-stroke; fill: none; stroke: rgb(141, 196, 71); stroke-opacity: 1; stroke-width: 2px; opacity: 1;"/></g><g class="points"/><g class="text"/></g><g class="trace scatter trace1650f1" style="stroke-miterlimit: 2; opacity: 1;"><g class="fills"/><g class="errorbars"/><g class="lines"><path class="js-line" d="M0,88.22L33.77,87.87L50.65,88.03L72.87,93.76L75.53,95.26L80.85,97.66L83.52,99.19L86.18,100.14L88.84,102.29L91.5,102.83L94.17,104.19L96.83,106.48L99.49,119.13L104.82,119.79L107.48,119.84L118.13,119.92" style="vector-effect: non-scaling-stroke; fill: none; stroke: rgb(255, 85, 85); stroke-opacity: 1; stroke-width: 2px; opacity: 1;"/></g><g class="points"/><g class="text"/></g><g class="trace scatter trace14f375" style="stroke-miterlimit: 2; opacity: 1;"><g class="fills"/><g class="errorbars"/><g class="lines"><path class="js-line" d="M0,52.67L67.54,53.21L70.2,54.05L75.53,57.18L78.19,59.55L83.52,66.51L86.18,71.35L91.5,84.89L94.17,93.67L96.83,102.12L99.49,113.15L102.16,118.63L104.82,119.48L115.47,119.9L118.13,119.92" style="vector-effect: non-scaling-stroke; fill: none; stroke: rgb(118, 209, 244); stroke-opacity: 1; stroke-width: 2px; opacity: 1;"/></g><g class="points"/><g class="text"/></g></g></g><g class="overplot"/><path class="xlines-above crisp" d="M493.72,220.5H613.8533333333334M493.72,99.5H613.8533333333334" style="fill: none; stroke-width: 1px; stroke: rgb(0, 0, 0); stroke-opacity: 1;"/><path class="ylines-above crisp" d="M494.22,100V220M613.3533333333334,100V220" style="fill: none; stroke-width: 1px; stroke: rgb(0, 0, 0); stroke-opacity: 1;"/><g class="overlines-above"/><g class="xaxislayer-above"><path class="x4tick ticks crisp" d="M0,221v5" transform="translate(494.72,0)" style="stroke: rgb(68, 68, 68); stroke-opacity: 1; stroke-width: 1px;"/><path class="x4tick ticks crisp" d="M0,221v5" transform="translate(553.7900000000001,0)" style="stroke: rgb(68, 68, 68); stroke-opacity: 1; stroke-width: 1px;"/><path class="x4tick ticks crisp" d="M0,221v5" transform="translate(612.85,0)" style="stroke: rgb(68, 68, 68); stroke-opacity: 1; stroke-width: 1px;"/><g class="x4tick"><text text-anchor="middle" x="0" y="242.8" transform="translate(494.72,0)" style="font-family: 'Open Sans', verdana, arial, sans-serif; font-size: 14px; fill: rgb(0, 0, 0); fill-opacity: 1; white-space: pre;">0</text></g><g class="x4tick"><text text-anchor="middle" x="0" y="242.8" transform="translate(553.7900000000001,0)" style="font-family: 'Open Sans', verdana, arial, sans-serif; font-size: 14px; fill: rgb(0, 0, 0); fill-opacity: 1; white-space: pre;">50</text></g><g class="x4tick"><text text-anchor="middle" x="0" y="242.8" transform="translate(612.85,0)" style="font-family: 'Open Sans', verdana, arial, sans-serif; font-size: 14px; fill: rgb(0, 0, 0); fill-opacity: 1; white-space: pre;">100</text></g></g><g class="yaxislayer-above"><path class="y4tick ticks crisp" d="M493.72,0h-5" transform="translate(0,220)" style="stroke: rgb(68, 68, 68); stroke-opacity: 1; stroke-width: 1px;"/><path class="y4tick ticks crisp" d="M493.72,0h-5" transform="translate(0,172)" style="stroke: rgb(68, 68, 68); stroke-opacity: 1; stroke-width: 1px;"/><path class="y4tick ticks crisp" d="M493.72,0h-5" transform="translate(0,124)" style="stroke: rgb(68, 68, 68); stroke-opacity: 1; stroke-width: 1px;"/><g class="y4tick"><text text-anchor="end" x="485.92" y="4.8999999999999995" transform="translate(0,220)" style="font-family: 'Open Sans', verdana, arial, sans-serif; font-size: 14px; fill: rgb(0, 0, 0); fill-opacity: 1; white-space: pre;">0</text></g><g class="y4tick"><text text-anchor="end" x="485.92" y="4.8999999999999995" transform="translate(0,172)" style="font-family: 'Open Sans', verdana, arial, sans-serif; font-size: 14px; fill: rgb(0, 0, 0); fill-opacity: 1; white-space: pre;">1</text></g><g class="y4tick"><text text-anchor="end" x="485.92" y="4.8999999999999995" transform="translate(0,124)" style="font-family: 'Open Sans', verdana, arial, sans-serif; font-size: 14px; fill: rgb(0, 0, 0); fill-opacity: 1; white-space: pre;">2</text></g></g><g class="overaxes-above"/></g><g class="subplot x5y5"><g class="layer-subplot"><g class="shapelayer"/><g class="imagelayer"/></g><g class="gridlayer"><g class="x5"><path class="x5grid crisp" transform="translate(707.3633333333335,0)" d="M0,100v120" style="stroke: rgb(238, 238, 238); stroke-opacity: 1; stroke-width: 1px;"/></g><g class="y5"><path class="y5grid crisp" transform="translate(0,180)" d="M648.2933333333334,0h118.13333333333331" style="stroke: rgb(238, 238, 238); stroke-opacity: 1; stroke-width: 1px;"/><path class="y5grid crisp" transform="translate(0,140)" d="M648.2933333333334,0h118.13333333333331" style="stroke: rgb(238, 238, 238); stroke-opacity: 1; stroke-width: 1px;"/></g></g><g class="zerolinelayer"/><path class="xlines-below"/><path class="ylines-below"/><g class="overlines-below"/><g class="xaxislayer-below"/><g class="yaxislayer-below"/><g class="overaxes-below"/><g class="plot" transform="translate(648.2933333333334, 100)" clip-path="url('#clip2a144cx5y5plot')"><g class="scatterlayer mlayer"><g class="trace scatter trace636c68" style="stroke-miterlimit: 2; opacity: 1;"><g class="fills"/><g class="errorbars"/><g class="lines"><path class="js-line" d="M0,11.72L69.02,11.73L71.61,12.79L74.19,14.85L76.78,18.39L81.95,30.45L84.53,39.84L94.87,86.55L97.46,91.46L105.21,103.05L107.79,118.02L110.38,119.64L112.96,119.82L118.13,119.91" style="vector-effect: non-scaling-stroke; fill: none; stroke: rgb(141, 196, 71); stroke-opacity: 1; stroke-width: 2px; opacity: 1;"/></g><g class="points"/><g class="text"/></g><g class="trace scatter tracea85da2" style="stroke-miterlimit: 2; opacity: 1;"><g class="fills"/><g class="errorbars"/><g class="lines"><path class="js-line" d="M0,85.84L17.26,86.21L34.51,85.73L51.77,86.41L69.02,91.23L71.61,91.28L74.19,93.08L76.78,93.68L79.36,95.73L92.29,102.62L94.87,104.35L97.46,106.02L100.04,119.33L107.79,119.84L110.38,119.87L118.13,119.92" style="vector-effect: non-scaling-stroke; fill: none; stroke: rgb(255, 85, 85); stroke-opacity: 1; stroke-width: 2px; opacity: 1;"/></g><g class="points"/><g class="text"/></g><g class="trace scatter trace1b17ef" style="stroke-miterlimit: 2; opacity: 1;"><g class="fills"/><g class="errorbars"/><g class="lines"><path class="js-line" d="M0,47.38L51.77,47.33L69.02,48.8L74.19,52.07L76.78,54.6L81.95,62.13L84.53,67.35L89.7,82.17L92.29,91.7L100.04,117.98L102.63,119.26L110.38,119.83L112.96,119.87L118.13,119.92" style="vector-effect: non-scaling-stroke; fill: none; stroke: rgb(118, 209, 244); stroke-opacity: 1; stroke-width: 2px; opacity: 1;"/></g><g class="points"/><g class="text"/></g></g></g><g class="overplot"/><path class="xlines-above crisp" d="M647.2933333333334,220.5H767.4266666666667M647.2933333333334,99.5H767.4266666666667" style="fill: none; stroke-width: 1px; stroke: rgb(0, 0, 0); stroke-opacity: 1;"/><path class="ylines-above crisp" d="M647.7933333333334,100V220M766.9266666666667,100V220" style="fill: none; stroke-width: 1px; stroke: rgb(0, 0, 0); stroke-opacity: 1;"/><g class="overlines-above"/><g class="xaxislayer-above"><path class="x5tick ticks crisp" d="M0,221v5" transform="translate(648.2933333333334,0)" style="stroke: rgb(68, 68, 68); stroke-opacity: 1; stroke-width: 1px;"/><path class="x5tick ticks crisp" d="M0,221v5" transform="translate(707.3633333333335,0)" style="stroke: rgb(68, 68, 68); stroke-opacity: 1; stroke-width: 1px;"/><path class="x5tick ticks crisp" d="M0,221v5" transform="translate(766.4233333333334,0)" style="stroke: rgb(68, 68, 68); stroke-opacity: 1; stroke-width: 1px;"/><g class="x5tick"><text text-anchor="middle" x="0" y="242.8" transform="translate(648.2933333333334,0)" style="font-family: 'Open Sans', verdana, arial, sans-serif; font-size: 14px; fill: rgb(0, 0, 0); fill-opacity: 1; white-space: pre;">0</text></g><g class="x5tick"><text text-anchor="middle" x="0" y="242.8" transform="translate(707.3633333333335,0)" style="font-family: 'Open Sans', verdana, arial, sans-serif; font-size: 14px; fill: rgb(0, 0, 0); fill-opacity: 1; white-space: pre;">50</text></g><g class="x5tick"><text text-anchor="middle" x="0" y="242.8" transform="translate(766.4233333333334,0)" style="font-family: 'Open Sans', verdana, arial, sans-serif; font-size: 14px; fill: rgb(0, 0, 0); fill-opacity: 1; white-space: pre;">100</text></g></g><g class="yaxislayer-above"><path class="y5tick ticks crisp" d="M647.2933333333334,0h-5" transform="translate(0,220)" style="stroke: rgb(68, 68, 68); stroke-opacity: 1; stroke-width: 1px;"/><path class="y5tick ticks crisp" d="M647.2933333333334,0h-5" transform="translate(0,180)" style="stroke: rgb(68, 68, 68); stroke-opacity: 1; stroke-width: 1px;"/><path class="y5tick ticks crisp" d="M647.2933333333334,0h-5" transform="translate(0,140)" style="stroke: rgb(68, 68, 68); stroke-opacity: 1; stroke-width: 1px;"/><path class="y5tick ticks crisp" d="M647.2933333333334,0h-5" transform="translate(0,100)" style="stroke: rgb(68, 68, 68); stroke-opacity: 1; stroke-width: 1px;"/><g class="y5tick"><text text-anchor="end" x="639.4933333333335" y="4.8999999999999995" transform="translate(0,220)" style="font-family: 'Open Sans', verdana, arial, sans-serif; font-size: 14px; fill: rgb(0, 0, 0); fill-opacity: 1; white-space: pre;">0</text></g><g class="y5tick"><text text-anchor="end" x="639.4933333333335" y="4.8999999999999995" transform="translate(0,180)" style="font-family: 'Open Sans', verdana, arial, sans-serif; font-size: 14px; fill: rgb(0, 0, 0); fill-opacity: 1; white-space: pre;">2</text></g><g class="y5tick"><text text-anchor="end" x="639.4933333333335" y="4.8999999999999995" transform="translate(0,140)" style="font-family: 'Open Sans', verdana, arial, sans-serif; font-size: 14px; fill: rgb(0, 0, 0); fill-opacity: 1; white-space: pre;">4</text></g><g class="y5tick"><text text-anchor="end" x="639.4933333333335" y="4.8999999999999995" transform="translate(0,100)" style="font-family: 'Open Sans', verdana, arial, sans-serif; font-size: 14px; fill: rgb(0, 0, 0); fill-opacity: 1; white-space: pre;">6</text></g></g><g class="overaxes-above"/></g><g class="subplot x6y6"><g class="layer-subplot"><g class="shapelayer"/><g class="imagelayer"/></g><g class="gridlayer"><g class="x6"><path class="x6grid crisp" transform="translate(860.9366666666667,0)" d="M0,100v120" style="stroke: rgb(238, 238, 238); stroke-opacity: 1; stroke-width: 1px;"/></g><g class="y6"><path class="y6grid crisp" transform="translate(0,180)" d="M801.8666666666667,0h118.13333333333331" style="stroke: rgb(238, 238, 238); stroke-opacity: 1; stroke-width: 1px;"/><path class="y6grid crisp" transform="translate(0,140)" d="M801.8666666666667,0h118.13333333333331" style="stroke: rgb(238, 238, 238); stroke-opacity: 1; stroke-width: 1px;"/></g></g><g class="zerolinelayer"/><path class="xlines-below"/><path class="ylines-below"/><g class="overlines-below"/><g class="xaxislayer-below"/><g class="yaxislayer-below"/><g class="overaxes-below"/><g class="plot" transform="translate(801.8666666666667, 100)" clip-path="url('#clip2a144cx6y6plot')"><g class="scatterlayer mlayer"><g class="trace scatter trace45127c" style="stroke-miterlimit: 2; opacity: 1;"><g class="fills"/><g class="errorbars"/><g class="lines"><path class="js-line" d="M0,5.55L49.96,5.81L66.61,5.62L69.32,6.16L72.04,8.05L74.75,11.43L77.46,16.86L80.17,24.67L82.88,36.19L93.73,84.88L96.44,89.64L104.58,102.04L107.29,118.12L110,119.63L112.71,119.81L118.13,119.91" style="vector-effect: non-scaling-stroke; fill: none; stroke: rgb(141, 196, 71); stroke-opacity: 1; stroke-width: 2px; opacity: 1;"/></g><g class="points"/><g class="text"/></g><g class="trace scatter traceed5e57" style="stroke-miterlimit: 2; opacity: 1;"><g class="fills"/><g class="errorbars"/><g class="lines"><path class="js-line" d="M0,83.42L49.96,83.43L66.61,87.85L74.75,91.79L77.46,91.81L88.31,99.13L91.02,100.87L96.44,103.79L99.15,118.81L104.58,119.75L107.29,119.81L118.13,119.91" style="vector-effect: non-scaling-stroke; fill: none; stroke: rgb(255, 85, 85); stroke-opacity: 1; stroke-width: 2px; opacity: 1;"/></g><g class="points"/><g class="text"/></g><g class="trace scatter trace37c14f" style="stroke-miterlimit: 2; opacity: 1;"><g class="fills"/><g class="errorbars"/><g class="lines"><path class="js-line" d="M0,42.24L49.96,42.22L66.61,43.47L72.04,46.93L74.75,49.72L80.17,57.99L82.88,63.88L88.31,81.07L91.02,91.56L96.44,111.8L99.15,118.18L104.58,119.62L107.29,119.76L118.13,119.91" style="vector-effect: non-scaling-stroke; fill: none; stroke: rgb(118, 209, 244); stroke-opacity: 1; stroke-width: 2px; opacity: 1;"/></g><g class="points"/><g class="text"/></g></g></g><g class="overplot"/><path class="xlines-above crisp" d="M800.8666666666667,220.5H921M800.8666666666667,99.5H921" style="fill: none; stroke-width: 1px; stroke: rgb(0, 0, 0); stroke-opacity: 1;"/><path class="ylines-above crisp" d="M801.3666666666667,100V220M920.5,100V220" style="fill: none; stroke-width: 1px; stroke: rgb(0, 0, 0); stroke-opacity: 1;"/><g class="overlines-above"/><g class="xaxislayer-above"><path class="x6tick ticks crisp" d="M0,221v5" transform="translate(801.8666666666667,0)" style="stroke: rgb(68, 68, 68); stroke-opacity: 1; stroke-width: 1px;"/><path class="x6tick ticks crisp" d="M0,221v5" transform="translate(860.9366666666667,0)" style="stroke: rgb(68, 68, 68); stroke-opacity: 1; stroke-width: 1px;"/><path class="x6tick ticks crisp" d="M0,221v5" transform="translate(919.9966666666667,0)" style="stroke: rgb(68, 68, 68); stroke-opacity: 1; stroke-width: 1px;"/><g class="x6tick"><text text-anchor="middle" x="0" y="242.8" transform="translate(801.8666666666667,0)" style="font-family: 'Open Sans', verdana, arial, sans-serif; font-size: 14px; fill: rgb(0, 0, 0); fill-opacity: 1; white-space: pre;">0</text></g><g class="x6tick"><text text-anchor="middle" x="0" y="242.8" transform="translate(860.9366666666667,0)" style="font-family: 'Open Sans', verdana, arial, sans-serif; font-size: 14px; fill: rgb(0, 0, 0); fill-opacity: 1; white-space: pre;">50</text></g><g class="x6tick"><text text-anchor="middle" x="0" y="242.8" transform="translate(919.9966666666667,0)" style="font-family: 'Open Sans', verdana, arial, sans-serif; font-size: 14px; fill: rgb(0, 0, 0); fill-opacity: 1; white-space: pre;">100</text></g></g><g class="yaxislayer-above"><path class="y6tick ticks crisp" d="M800.8666666666667,0h-5" transform="translate(0,220)" style="stroke: rgb(68, 68, 68); stroke-opacity: 1; stroke-width: 1px;"/><path class="y6tick ticks crisp" d="M800.8666666666667,0h-5" transform="translate(0,180)" style="stroke: rgb(68, 68, 68); stroke-opacity: 1; stroke-width: 1px;"/><path class="y6tick ticks crisp" d="M800.8666666666667,0h-5" transform="translate(0,140)" style="stroke: rgb(68, 68, 68); stroke-opacity: 1; stroke-width: 1px;"/><path class="y6tick ticks crisp" d="M800.8666666666667,0h-5" transform="translate(0,100)" style="stroke: rgb(68, 68, 68); stroke-opacity: 1; stroke-width: 1px;"/><g class="y6tick"><text text-anchor="end" x="793.0666666666667" y="4.8999999999999995" transform="translate(0,220)" style="font-family: 'Open Sans', verdana, arial, sans-serif; font-size: 14px; fill: rgb(0, 0, 0); fill-opacity: 1; white-space: pre;">0</text></g><g class="y6tick"><text text-anchor="end" x="793.0666666666667" y="4.8999999999999995" transform="translate(0,180)" style="font-family: 'Open Sans', verdana, arial, sans-serif; font-size: 14px; fill: rgb(0, 0, 0); fill-opacity: 1; white-space: pre;">2</text></g><g class="y6tick"><text text-anchor="end" x="793.0666666666667" y="4.8999999999999995" transform="translate(0,140)" style="font-family: 'Open Sans', verdana, arial, sans-serif; font-size: 14px; fill: rgb(0, 0, 0); fill-opacity: 1; white-space: pre;">4</text></g><g class="y6tick"><text text-anchor="end" x="793.0666666666667" y="4.8999999999999995" transform="translate(0,100)" style="font-family: 'Open Sans', verdana, arial, sans-serif; font-size: 14px; fill: rgb(0, 0, 0); fill-opacity: 1; white-space: pre;">6</text></g></g><g class="overaxes-above"/></g></g><g class="polarlayer"/><g class="ternarylayer"/><g class="geolayer"/><g class="funnelarealayer"/><g class="pielayer"/><g class="treemaplayer"/><g class="sunburstlayer"/><g class="glimages"/><defs id="topdefs-2a144c"><g class="clips"/></defs><g class="layer-above"><g class="imagelayer"/><g class="shapelayer"/></g><g class="infolayer"><g class="g-gtitle"/><g class="g-xtitle" transform="translate(0,3.5999999999999943)"><text class="xtitle" x="93.06666666666666" y="254.4" text-anchor="middle" style="font-family: 'Open Sans', verdana, arial, sans-serif; font-size: 12px; fill: rgb(0, 0, 0); opacity: 1; font-weight: normal; white-space: pre;">Min Yield (% Max)</text></g><g class="g-x2title" transform="translate(0,3.5999999999999943)"><text class="x2title" x="246.64000000000001" y="254.4" text-anchor="middle" style="font-family: 'Open Sans', verdana, arial, sans-serif; font-size: 12px; fill: rgb(0, 0, 0); opacity: 1; font-weight: normal; white-space: pre;">Min Yield (% Max)</text></g><g class="g-x3title" transform="translate(0,3.5999999999999943)"><text class="x3title" x="400.21333333333337" y="254.4" text-anchor="middle" style="font-family: 'Open Sans', verdana, arial, sans-serif; font-size: 12px; fill: rgb(0, 0, 0); opacity: 1; font-weight: normal; white-space: pre;">Min Yield (% Max)</text></g><g class="g-x4title" transform="translate(0,3.5999999999999943)"><text class="x4title" x="553.7866666666666" y="254.4" text-anchor="middle" style="font-family: 'Open Sans', verdana, arial, sans-serif; font-size: 12px; fill: rgb(0, 0, 0); opacity: 1; font-weight: normal; white-space: pre;">Min Yield (% Max)</text></g><g class="g-x5title" transform="translate(0,3.5999999999999943)"><text class="x5title" x="707.36" y="254.4" text-anchor="middle" style="font-family: 'Open Sans', verdana, arial, sans-serif; font-size: 12px; fill: rgb(0, 0, 0); opacity: 1; font-weight: normal; white-space: pre;">Min Yield (% Max)</text></g><g class="g-x6title" transform="translate(0,3.5999999999999943)"><text class="x6title" x="860.9333333333333" y="254.4" text-anchor="middle" style="font-family: 'Open Sans', verdana, arial, sans-serif; font-size: 12px; fill: rgb(0, 0, 0); opacity: 1; font-weight: normal; white-space: pre;">Min Yield (% Max)</text></g><g class="g-ytitle" transform="translate(4.103515625,0)"><text class="ytitle" transform="rotate(-90,7.896875000000001,160)" x="7.896875000000001" y="160" text-anchor="middle" style="font-family: 'Open Sans', verdana, arial, sans-serif; font-size: 12px; fill: rgb(0, 0, 0); opacity: 1; font-weight: normal; white-space: pre;">Max Rate(g/L.h)</text></g><g class="g-y2title"/><g class="g-y3title"/><g class="g-y4title"/><g class="g-y5title"/><g class="g-y6title"/><g class="annotation" data-index="0" style="opacity: 1;"><g class="annotation-text-g" transform="rotate(0,93.06666666666666,88.5)"><g class="cursor-pointer" transform="translate(37, 77)"><rect class="bg" x="0.5" y="0.5" width="111" height="22" style="stroke-width: 1px; stroke: rgb(0, 0, 0); stroke-opacity: 0; fill: rgb(0, 0, 0); fill-opacity: 0;"/><text class="annotation-text" text-anchor="middle" x="56.53125" y="18" style="font-family: 'Open Sans', verdana, arial, sans-serif; font-size: 16px; fill: rgb(0, 0, 0); fill-opacity: 1; white-space: pre;">Acetaldehyde</text></g></g></g><g class="annotation" data-index="1" style="opacity: 1;"><g class="annotation-text-g" transform="rotate(0,246.64,88.5)"><g class="cursor-pointer" transform="translate(214, 77)"><rect class="bg" x="0.5" y="0.5" width="64" height="22" style="stroke-width: 1px; stroke: rgb(0, 0, 0); stroke-opacity: 0; fill: rgb(0, 0, 0); fill-opacity: 0;"/><text class="annotation-text" text-anchor="middle" x="33.0625" y="18" style="font-family: 'Open Sans', verdana, arial, sans-serif; font-size: 16px; fill: rgb(0, 0, 0); fill-opacity: 1; white-space: pre;">Acetate</text></g></g></g><g class="annotation" data-index="2" style="opacity: 1;"><g class="annotation-text-g" transform="rotate(0,400.2133333333333,88.5)"><g class="cursor-pointer" transform="translate(368, 77)"><rect class="bg" x="0.5" y="0.5" width="63" height="22" style="stroke-width: 1px; stroke: rgb(0, 0, 0); stroke-opacity: 0; fill: rgb(0, 0, 0); fill-opacity: 0;"/><text class="annotation-text" text-anchor="middle" x="32.1875" y="18" style="font-family: 'Open Sans', verdana, arial, sans-serif; font-size: 16px; fill: rgb(0, 0, 0); fill-opacity: 1; white-space: pre;">Ethanol</text></g></g></g><g class="annotation" data-index="3" style="opacity: 1;"><g class="annotation-text-g" transform="rotate(0,553.7866666666666,88.5)"><g class="cursor-pointer" transform="translate(497, 77)"><rect class="bg" x="0.5" y="0.5" width="113" height="22" style="stroke-width: 1px; stroke: rgb(0, 0, 0); stroke-opacity: 0; fill: rgb(0, 0, 0); fill-opacity: 0;"/><text class="annotation-text" text-anchor="middle" x="56.796875" y="18" style="font-family: 'Open Sans', verdana, arial, sans-serif; font-size: 16px; fill: rgb(0, 0, 0); fill-opacity: 1; white-space: pre;">Ethanolamine</text></g></g></g><g class="annotation" data-index="4" style="opacity: 1;"><g class="annotation-text-g" transform="rotate(0,707.36,88.5)"><g class="cursor-pointer" transform="translate(676, 77)"><rect class="bg" x="0.5" y="0.5" width="62" height="22" style="stroke-width: 1px; stroke: rgb(0, 0, 0); stroke-opacity: 0; fill: rgb(0, 0, 0); fill-opacity: 0;"/><text class="annotation-text" text-anchor="middle" x="31.25" y="18" style="font-family: 'Open Sans', verdana, arial, sans-serif; font-size: 16px; fill: rgb(0, 0, 0); fill-opacity: 1; white-space: pre;">Glycine</text></g></g></g><g class="annotation" data-index="5" style="opacity: 1;"><g class="annotation-text-g" transform="rotate(0,860.9333333333334,88.5)"><g class="cursor-pointer" transform="translate(822, 77)"><rect class="bg" x="0.5" y="0.5" width="77" height="22" style="stroke-width: 1px; stroke: rgb(0, 0, 0); stroke-opacity: 0; fill: rgb(0, 0, 0); fill-opacity: 0;"/><text class="annotation-text" text-anchor="middle" x="39" y="18" style="font-family: 'Open Sans', verdana, arial, sans-serif; font-size: 16px; fill: rgb(0, 0, 0); fill-opacity: 1; white-space: pre;">Glycolate</text></g></g></g></g></svg>