<svg class="main-svg" xmlns="http://www.w3.org/2000/svg" xmlns:xlink="http://www.w3.org/1999/xlink" width="625" height="450" viewBox="0 0 625 450"><rect x="0" y="0" width="625" height="450" style="fill: rgb(255, 255, 255); fill-opacity: 1;"/><defs id="defs-ecdddc"><g class="clips"><clipPath id="clipecdddcxyplot" class="plotclip"><rect width="254" height="270"/></clipPath><clipPath class="axesclip" id="clipecdddcx"><rect x="80" y="0" width="254" height="450"/></clipPath><clipPath class="axesclip" id="clipecdddcy"><rect x="0" y="100" width="625" height="270"/></clipPath><clipPath class="axesclip" id="clipecdddcxy"><rect x="80" y="100" width="254" height="270"/></clipPath></g><g class="gradients"/></defs><g class="bglayer"/><g class="layer-below"><g class="imagelayer"/><g class="shapelayer"/></g><g class="cartesianlayer"><g class="subplot xy"><g class="layer-subplot"><g class="shapelayer"/><g class="imagelayer"/></g><g class="gridlayer"><g class="x"/><g class="y"/></g><g class="zerolinelayer"><path class="xzl zl crisp" transform="translate(80,0)" d="M0,100v270" style="stroke: rgb(68, 68, 68); stroke-opacity: 1; stroke-width: 1px;"/><path class="yzl zl crisp" transform="translate(0,370)" d="M80,0h254" style="stroke: rgb(68, 68, 68); stroke-opacity: 1; stroke-width: 1px;"/></g><path class="xlines-below"/><path class="ylines-below"/><g class="overlines-below"/><g class="xaxislayer-below"/><g class="yaxislayer-below"/><g class="overaxes-below"/><g class="plot" transform="translate(80, 100)" clip-path="url('#clipecdddcxyplot')"><g class="scatterlayer mlayer"><g class="trace scatter traceb5cb9a" style="stroke-miterlimit: 2; opacity: 1;"><g class="fills"/><g class="errorbars"/><g class="lines"/><g class="points"><path class="point" transform="translate(180.34,67.05)" d="M3.75,0A3.75,3.75 0 1,1 0,-3.75A3.75,3.75 0 0,1 3.75,0Z" style="opacity: 1; stroke-width: 0px; fill: rgb(174, 107, 181); fill-opacity: 1;"/><path class="point" transform="translate(175.26,54.9)" d="M3.75,0A3.75,3.75 0 1,1 0,-3.75A3.75,3.75 0 0,1 3.75,0Z" style="opacity: 1; stroke-width: 0px; fill: rgb(174, 107, 181); fill-opacity: 1;"/><path class="point" transform="translate(160.02,81.45)" d="M3.75,0A3.75,3.75 0 1,1 0,-3.75A3.75,3.75 0 0,1 3.75,0Z" style="opacity: 1; stroke-width: 0px; fill: rgb(174, 107, 181); fill-opacity: 1;"/><path class="point" transform="translate(165.1,60.98)" d="M3.75,0A3.75,3.75 0 1,1 0,-3.75A3.75,3.75 0 0,1 3.75,0Z" style="opacity: 1; stroke-width: 0px; fill: rgb(174, 107, 181); fill-opacity: 1;"/><path class="point" transform="translate(162.56,79.88)" d="M3.75,0A3.75,3.75 0 1,1 0,-3.75A3.75,3.75 0 0,1 3.75,0Z" style="opacity: 1; stroke-width: 0px; fill: rgb(174, 107, 181); fill-opacity: 1;"/><path class="point" transform="translate(162.56,54)" d="M3.75,0A3.75,3.75 0 1,1 0,-3.75A3.75,3.75 0 0,1 3.75,0Z" style="opacity: 1; stroke-width: 0px; fill: rgb(174, 107, 181); fill-opacity: 1;"/><path class="point" transform="translate(182.88,61.2)" d="M3.75,0A3.75,3.75 0 1,1 0,-3.75A3.75,3.75 0 0,1 3.75,0Z" style="opacity: 1; stroke-width: 0px; fill: rgb(174, 107, 181); fill-opacity: 1;"/></g><g class="text"/></g><g class="trace scatter trace1350ae" style="stroke-miterlimit: 2; opacity: 1;"><g class="fills"/><g class="errorbars"/><g class="lines"/><g class="points"><path class="point" transform="translate(208.28,22.5)" d="M3.75,0A3.75,3.75 0 1,1 0,-3.75A3.75,3.75 0 0,1 3.75,0Z" style="opacity: 1; stroke-width: 0px; fill: rgb(75, 73, 170); fill-opacity: 1;"/><path class="point" transform="translate(165.1,110.25)" d="M3.75,0A3.75,3.75 0 1,1 0,-3.75A3.75,3.75 0 0,1 3.75,0Z" style="opacity: 1; stroke-width: 0px; fill: rgb(75, 73, 170); fill-opacity: 1;"/><path class="point" transform="translate(154.94,90)" d="M3.75,0A3.75,3.75 0 1,1 0,-3.75A3.75,3.75 0 0,1 3.75,0Z" style="opacity: 1; stroke-width: 0px; fill: rgb(75, 73, 170); fill-opacity: 1;"/></g><g class="text"/></g><g class="trace scatter trace791431" style="stroke-miterlimit: 2; opacity: 1;"><g class="fills"/><g class="errorbars"/><g class="lines"/><g class="points"><path class="point" transform="translate(160.02,72)" d="M3.75,0A3.75,3.75 0 1,1 0,-3.75A3.75,3.75 0 0,1 3.75,0Z" style="opacity: 1; stroke-width: 0px; fill: rgb(35, 142, 142); fill-opacity: 1;"/><path class="point" transform="translate(43.18,218.25)" d="M3.75,0A3.75,3.75 0 1,1 0,-3.75A3.75,3.75 0 0,1 3.75,0Z" style="opacity: 1; stroke-width: 0px; fill: rgb(35, 142, 142); fill-opacity: 1;"/><path class="point" transform="translate(86.36,139.5)" d="M3.75,0A3.75,3.75 0 1,1 0,-3.75A3.75,3.75 0 0,1 3.75,0Z" style="opacity: 1; stroke-width: 0px; fill: rgb(35, 142, 142); fill-opacity: 1;"/><path class="point" transform="translate(134.62,144)" d="M3.75,0A3.75,3.75 0 1,1 0,-3.75A3.75,3.75 0 0,1 3.75,0Z" style="opacity: 1; stroke-width: 0px; fill: rgb(35, 142, 142); fill-opacity: 1;"/><path class="point" transform="translate(55.88,202.5)" d="M3.75,0A3.75,3.75 0 1,1 0,-3.75A3.75,3.75 0 0,1 3.75,0Z" style="opacity: 1; stroke-width: 0px; fill: rgb(35, 142, 142); fill-opacity: 1;"/><path class="point" transform="translate(139.7,87.75)" d="M3.75,0A3.75,3.75 0 1,1 0,-3.75A3.75,3.75 0 0,1 3.75,0Z" style="opacity: 1; stroke-width: 0px; fill: rgb(35, 142, 142); fill-opacity: 1;"/><path class="point" transform="translate(142.24,94.5)" d="M3.75,0A3.75,3.75 0 1,1 0,-3.75A3.75,3.75 0 0,1 3.75,0Z" style="opacity: 1; stroke-width: 0px; fill: rgb(35, 142, 142); fill-opacity: 1;"/><path class="point" transform="translate(147.32,65.25)" d="M3.75,0A3.75,3.75 0 1,1 0,-3.75A3.75,3.75 0 0,1 3.75,0Z" style="opacity: 1; stroke-width: 0px; fill: rgb(35, 142, 142); fill-opacity: 1;"/><path class="point" transform="translate(162.56,38.25)" d="M3.75,0A3.75,3.75 0 1,1 0,-3.75A3.75,3.75 0 0,1 3.75,0Z" style="opacity: 1; stroke-width: 0px; fill: rgb(35, 142, 142); fill-opacity: 1;"/><path class="point" transform="translate(167.64,76.5)" d="M3.75,0A3.75,3.75 0 1,1 0,-3.75A3.75,3.75 0 0,1 3.75,0Z" style="opacity: 1; stroke-width: 0px; fill: rgb(35, 142, 142); fill-opacity: 1;"/><path class="point" transform="translate(45.72,209.25)" d="M3.75,0A3.75,3.75 0 1,1 0,-3.75A3.75,3.75 0 0,1 3.75,0Z" style="opacity: 1; stroke-width: 0px; fill: rgb(35, 142, 142); fill-opacity: 1;"/><path class="point" transform="translate(129.54,94.5)" d="M3.75,0A3.75,3.75 0 1,1 0,-3.75A3.75,3.75 0 0,1 3.75,0Z" style="opacity: 1; stroke-width: 0px; fill: rgb(35, 142, 142); fill-opacity: 1;"/><path class="point" transform="translate(124.46,105.75)" d="M3.75,0A3.75,3.75 0 1,1 0,-3.75A3.75,3.75 0 0,1 3.75,0Z" style="opacity: 1; stroke-width: 0px; fill: rgb(35, 142, 142); fill-opacity: 1;"/></g><g class="text"/></g><g class="trace scatter tracefe3a79" style="stroke-miterlimit: 2; opacity: 1;"><g class="fills"/><g class="errorbars"/><g class="lines"/><g class="points"><path class="point" transform="translate(170.18,101.25)" d="M3.75,0A3.75,3.75 0 1,1 0,-3.75A3.75,3.75 0 0,1 3.75,0Z" style="opacity: 1; stroke-width: 0px; fill: rgb(96, 163, 0); fill-opacity: 1;"/><path class="point" transform="translate(132.08,81)" d="M3.75,0A3.75,3.75 0 1,1 0,-3.75A3.75,3.75 0 0,1 3.75,0Z" style="opacity: 1; stroke-width: 0px; fill: rgb(96, 163, 0); fill-opacity: 1;"/><path class="point" transform="translate(132.08,74.25)" d="M3.75,0A3.75,3.75 0 1,1 0,-3.75A3.75,3.75 0 0,1 3.75,0Z" style="opacity: 1; stroke-width: 0px; fill: rgb(96, 163, 0); fill-opacity: 1;"/><path class="point" transform="translate(45.72,204.75)" d="M3.75,0A3.75,3.75 0 1,1 0,-3.75A3.75,3.75 0 0,1 3.75,0Z" style="opacity: 1; stroke-width: 0px; fill: rgb(96, 163, 0); fill-opacity: 1;"/></g><g class="text"/></g><g class="trace scatter tracea9a080" style="stroke-miterlimit: 2; opacity: 1;"><g class="fills"/><g class="errorbars"/><g class="lines"><path class="js-line" d="M0,251.98L249.52,-22.63" style="vector-effect: non-scaling-stroke; fill: none; stroke: rgb(135, 83, 0); stroke-opacity: 1; stroke-width: 2px; opacity: 1; stroke-dasharray: 9px, 3px, 3px, 3px;"/></g><g class="points"/><g class="text"/></g><g class="trace scatter trace44fa1d" style="stroke-miterlimit: 2; opacity: 1;"><g class="fills"/><g class="errorbars"/><g class="lines"><path class="js-line" d="M0,266.98L118.46,161.63L120.98,159.39L249.52,45" style="vector-effect: non-scaling-stroke; fill: none; stroke: rgb(0, 0, 0); stroke-opacity: 1; stroke-width: 2px; opacity: 1; stroke-dasharray: 9px, 9px;"/></g><g class="points"/><g class="text"/></g><g class="trace scatter tracee06f13" style="stroke-miterlimit: 2; opacity: 1;"><g class="fills"/><g class="errorbars"/><g class="lines"><path class="js-line" d="M0,258.75L27.72,201.83L30.25,196.93L45.37,169.18L47.89,164.85L63.01,140.92L65.53,137.28L78.13,120.59L80.65,117.55L93.26,103.8L95.78,101.33L108.38,90.27L110.9,88.3L123.5,79.55L126.02,78.01L138.62,71.2L141.14,70.01L156.27,63.85L158.79,62.98L176.43,57.86L178.95,57.26L199.11,53.32L201.63,52.93L226.84,49.86L229.36,49.63L249.52,48.12" style="vector-effect: non-scaling-stroke; fill: none; stroke: rgb(135, 83, 0); stroke-opacity: 1; stroke-width: 2px; opacity: 1; stroke-dasharray: 9px, 3px, 3px, 3px;"/></g><g class="points"/><g class="text"/></g></g></g><g class="overplot"/><path class="xlines-above crisp" d="" style="fill: none; stroke-width: 1px; stroke: rgb(0, 0, 0); stroke-opacity: 0;"/><path class="ylines-above crisp" d="" style="fill: none; stroke-width: 1px; stroke: rgb(0, 0, 0); stroke-opacity: 0;"/><g class="overlines-above"/><g class="xaxislayer-above"><path class="xtick ticks crisp" d="M0,371v5" transform="translate(80,0)" style="stroke: rgb(68, 68, 68); stroke-opacity: 1; stroke-width: 1px;"/><path class="xtick ticks crisp" d="M0,371v5" transform="translate(207,0)" style="stroke: rgb(68, 68, 68); stroke-opacity: 1; stroke-width: 1px;"/><path class="xtick ticks crisp" d="M0,371v5" transform="translate(334,0)" style="stroke: rgb(68, 68, 68); stroke-opacity: 1; stroke-width: 1px;"/><g class="xtick"><text text-anchor="middle" x="0" y="395.2" transform="translate(80,0)" style="font-family: 'Open Sans', verdana, arial, sans-serif; font-size: 16px; fill: rgb(0, 0, 0); fill-opacity: 1; white-space: pre;">0</text></g><g class="xtick"><text text-anchor="middle" x="0" y="395.2" transform="translate(207,0)" style="font-family: 'Open Sans', verdana, arial, sans-serif; font-size: 16px; fill: rgb(0, 0, 0); fill-opacity: 1; white-space: pre;">0.5</text></g><g class="xtick"><text text-anchor="middle" x="0" y="395.2" transform="translate(334,0)" style="font-family: 'Open Sans', verdana, arial, sans-serif; font-size: 16px; fill: rgb(0, 0, 0); fill-opacity: 1; white-space: pre;">1</text></g></g><g class="yaxislayer-above"><path class="ytick ticks crisp" d="M79,0h-5" transform="translate(0,370)" style="stroke: rgb(68, 68, 68); stroke-opacity: 1; stroke-width: 1px;"/><path class="ytick ticks crisp" d="M79,0h-5" transform="translate(0,325)" style="stroke: rgb(68, 68, 68); stroke-opacity: 1; stroke-width: 1px;"/><path class="ytick ticks crisp" d="M79,0h-5" transform="translate(0,280)" style="stroke: rgb(68, 68, 68); stroke-opacity: 1; stroke-width: 1px;"/><path class="ytick ticks crisp" d="M79,0h-5" transform="translate(0,235)" style="stroke: rgb(68, 68, 68); stroke-opacity: 1; stroke-width: 1px;"/><path class="ytick ticks crisp" d="M79,0h-5" transform="translate(0,190)" style="stroke: rgb(68, 68, 68); stroke-opacity: 1; stroke-width: 1px;"/><path class="ytick ticks crisp" d="M79,0h-5" transform="translate(0,145)" style="stroke: rgb(68, 68, 68); stroke-opacity: 1; stroke-width: 1px;"/><path class="ytick ticks crisp" d="M79,0h-5" transform="translate(0,100)" style="stroke: rgb(68, 68, 68); stroke-opacity: 1; stroke-width: 1px;"/><g class="ytick"><text text-anchor="end" x="70.8" y="5.6" transform="translate(0,370)" style="font-family: 'Open Sans', verdana, arial, sans-serif; font-size: 16px; fill: rgb(0, 0, 0); fill-opacity: 1; white-space: pre;">0</text></g><g class="ytick"><text text-anchor="end" x="70.8" y="5.6" transform="translate(0,325)" style="font-family: 'Open Sans', verdana, arial, sans-serif; font-size: 16px; fill: rgb(0, 0, 0); fill-opacity: 1; white-space: pre;">2</text></g><g class="ytick"><text text-anchor="end" x="70.8" y="5.6" transform="translate(0,280)" style="font-family: 'Open Sans', verdana, arial, sans-serif; font-size: 16px; fill: rgb(0, 0, 0); fill-opacity: 1; white-space: pre;">4</text></g><g class="ytick"><text text-anchor="end" x="70.8" y="5.6" transform="translate(0,235)" style="font-family: 'Open Sans', verdana, arial, sans-serif; font-size: 16px; fill: rgb(0, 0, 0); fill-opacity: 1; white-space: pre;">6</text></g><g class="ytick"><text text-anchor="end" x="70.8" y="5.6" transform="translate(0,190)" style="font-family: 'Open Sans', verdana, arial, sans-serif; font-size: 16px; fill: rgb(0, 0, 0); fill-opacity: 1; white-space: pre;">8</text></g><g class="ytick"><text text-anchor="end" x="70.8" y="5.6" transform="translate(0,145)" style="font-family: 'Open Sans', verdana, arial, sans-serif; font-size: 16px; fill: rgb(0, 0, 0); fill-opacity: 1; white-space: pre;">10</text></g><g class="ytick"><text text-anchor="end" x="70.8" y="5.6" transform="translate(0,100)" style="font-family: 'Open Sans', verdana, arial, sans-serif; font-size: 16px; fill: rgb(0, 0, 0); fill-opacity: 1; white-space: pre;">12</text></g></g><g class="overaxes-above"/></g></g><g class="polarlayer"/><g class="ternarylayer"/><g class="geolayer"/><g class="funnelarealayer"/><g class="pielayer"/><g class="treemaplayer"/><g class="sunburstlayer"/><g class="glimages"/><defs id="topdefs-ecdddc"><g class="clips"/><clipPath id="legendecdddc"><rect width="274" height="159" x="0" y="0"/></clipPath></defs><g class="layer-above"><g class="imagelayer"/><g class="shapelayer"/></g><g class="infolayer"><g class="legend" pointer-events="all" transform="translate(339.08, 100)"><rect class="bg" shape-rendering="crispEdges" style="stroke: rgb(68, 68, 68); stroke-opacity: 1; fill: rgb(255, 255, 255); fill-opacity: 1; stroke-width: 0px;" width="274" height="159" x="0" y="0"/><g class="scrollbox" transform="translate(0, 0)" clip-path="url('#legendecdddc')"><g class="groups"><g class="traces" transform="translate(0, 15.6)" style="opacity: 1;"><text class="legendtext user-select-none" text-anchor="start" x="40" y="5.46" style="font-family: 'Open Sans', verdana, arial, sans-serif; font-size: 14px; fill: rgb(0, 0, 0); fill-opacity: 1; white-space: pre;">Covert et al. (2004)</text><g class="layers" style="opacity: 1;"><g class="legendfill"/><g class="legendlines"/><g class="legendsymbols"><g class="legendpoints"><path class="scatterpts" transform="translate(20,0)" d="M3.75,0A3.75,3.75 0 1,1 0,-3.75A3.75,3.75 0 0,1 3.75,0Z" style="opacity: 1; stroke-width: 0px; fill: rgb(174, 107, 181); fill-opacity: 1;"/></g></g></g><rect class="legendtoggle" pointer-events="all" x="0" y="-10.6" width="268.71875" height="21.2" style="cursor: pointer; fill: rgb(0, 0, 0); fill-opacity: 0;"/></g><g class="traces" transform="translate(0, 36.8)" style="opacity: 1;"><text class="legendtext user-select-none" text-anchor="start" x="40" y="5.46" style="font-family: 'Open Sans', verdana, arial, sans-serif; font-size: 14px; fill: rgb(0, 0, 0); fill-opacity: 1; white-space: pre;">Fisher et al. (2004)</text><g class="layers" style="opacity: 1;"><g class="legendfill"/><g class="legendlines"/><g class="legendsymbols"><g class="legendpoints"><path class="scatterpts" transform="translate(20,0)" d="M3.75,0A3.75,3.75 0 1,1 0,-3.75A3.75,3.75 0 0,1 3.75,0Z" style="opacity: 1; stroke-width: 0px; fill: rgb(75, 73, 170); fill-opacity: 1;"/></g></g></g><rect class="legendtoggle" pointer-events="all" x="0" y="-10.6" width="268.71875" height="21.2" style="cursor: pointer; fill: rgb(0, 0, 0); fill-opacity: 0;"/></g><g class="traces" transform="translate(0, 58)" style="opacity: 1;"><text class="legendtext user-select-none" text-anchor="start" x="40" y="5.46" style="font-family: 'Open Sans', verdana, arial, sans-serif; font-size: 14px; fill: rgb(0, 0, 0); fill-opacity: 1; white-space: pre;">Fong et al. (2006)</text><g class="layers" style="opacity: 1;"><g class="legendfill"/><g class="legendlines"/><g class="legendsymbols"><g class="legendpoints"><path class="scatterpts" transform="translate(20,0)" d="M3.75,0A3.75,3.75 0 1,1 0,-3.75A3.75,3.75 0 0,1 3.75,0Z" style="opacity: 1; stroke-width: 0px; fill: rgb(35, 142, 142); fill-opacity: 1;"/></g></g></g><rect class="legendtoggle" pointer-events="all" x="0" y="-10.6" width="268.71875" height="21.2" style="cursor: pointer; fill: rgb(0, 0, 0); fill-opacity: 0;"/></g><g class="traces" transform="translate(0, 79.19999999999999)" style="opacity: 1;"><text class="legendtext user-select-none" text-anchor="start" x="40" y="5.46" style="font-family: 'Open Sans', verdana, arial, sans-serif; font-size: 14px; fill: rgb(0, 0, 0); fill-opacity: 1; white-space: pre;">Sauer et al. (2004)</text><g class="layers" style="opacity: 1;"><g class="legendfill"/><g class="legendlines"/><g class="legendsymbols"><g class="legendpoints"><path class="scatterpts" transform="translate(20,0)" d="M3.75,0A3.75,3.75 0 1,1 0,-3.75A3.75,3.75 0 0,1 3.75,0Z" style="opacity: 1; stroke-width: 0px; fill: rgb(96, 163, 0); fill-opacity: 1;"/></g></g></g><rect class="legendtoggle" pointer-events="all" x="0" y="-10.6" width="268.71875" height="21.2" style="cursor: pointer; fill: rgb(0, 0, 0); fill-opacity: 0;"/></g><g class="traces" transform="translate(0, 100.39999999999999)" style="opacity: 1;"><text class="legendtext user-select-none" text-anchor="start" x="40" y="5.46" style="font-family: 'Open Sans', verdana, arial, sans-serif; font-size: 14px; fill: rgb(0, 0, 0); fill-opacity: 1; white-space: pre;">Linear Model</text><g class="layers" style="opacity: 1;"><g class="legendfill"/><g class="legendlines"><path class="js-line" d="M5,0h30" style="fill: none; stroke: rgb(135, 83, 0); stroke-opacity: 1; stroke-dasharray: 9px, 3px, 3px, 3px; stroke-width: 2px;"/></g><g class="legendsymbols"><g class="legendpoints"/></g></g><rect class="legendtoggle" pointer-events="all" x="0" y="-10.6" width="268.71875" height="21.2" style="cursor: pointer; fill: rgb(0, 0, 0); fill-opacity: 0;"/></g><g class="traces" transform="translate(0, 121.6)" style="opacity: 1;"><text class="legendtext user-select-none" text-anchor="start" x="40" y="5.46" style="font-family: 'Open Sans', verdana, arial, sans-serif; font-size: 14px; fill: rgb(0, 0, 0); fill-opacity: 1; white-space: pre;">Minimum Substrate Uptake Rate</text><g class="layers" style="opacity: 1;"><g class="legendfill"/><g class="legendlines"><path class="js-line" d="M5,0h30" style="fill: none; stroke: rgb(0, 0, 0); stroke-opacity: 1; stroke-dasharray: 9px, 9px; stroke-width: 2px;"/></g><g class="legendsymbols"><g class="legendpoints"/></g></g><rect class="legendtoggle" pointer-events="all" x="0" y="-10.6" width="268.71875" height="21.2" style="cursor: pointer; fill: rgb(0, 0, 0); fill-opacity: 0;"/></g><g class="traces" transform="translate(0, 142.8)" style="opacity: 1;"><text class="legendtext user-select-none" text-anchor="start" x="40" y="5.46" style="font-family: 'Open Sans', verdana, arial, sans-serif; font-size: 14px; fill: rgb(0, 0, 0); fill-opacity: 1; white-space: pre;">Logistic Model</text><g class="layers" style="opacity: 1;"><g class="legendfill"/><g class="legendlines"><path class="js-line" d="M5,0h30" style="fill: none; stroke: rgb(135, 83, 0); stroke-opacity: 1; stroke-dasharray: 9px, 3px, 3px, 3px; stroke-width: 2px;"/></g><g class="legendsymbols"><g class="legendpoints"/></g></g><rect class="legendtoggle" pointer-events="all" x="0" y="-10.6" width="268.71875" height="21.2" style="cursor: pointer; fill: rgb(0, 0, 0); fill-opacity: 0;"/></g></g></g><rect class="scrollbar" rx="20" ry="3" width="0" height="0" style="fill: rgb(128, 139, 164); fill-opacity: 1;" x="0" y="0"/></g><g class="g-gtitle"/><g class="g-xtitle" transform="translate(0,6.290624999999977)"><text class="xtitle" x="207" y="410.475" text-anchor="middle" style="font-family: 'Open Sans', verdana, arial, sans-serif; font-size: 18px; fill: rgb(0, 0, 0); opacity: 1; font-weight: normal; white-space: pre;">Growth Rate (1/h)</text></g><g class="g-ytitle" transform="translate(3.4375,0)"><text class="ytitle" transform="rotate(-90,14.953125,235)" x="14.953125" y="235" text-anchor="middle" style="font-family: 'Open Sans', verdana, arial, sans-serif; font-size: 18px; fill: rgb(0, 0, 0); opacity: 1; font-weight: normal; white-space: pre;"><tspan class="line" dy="0em" x="14.953125" y="235">Substrate Uptake</tspan><tspan class="line" dy="1.3em" x="14.953125" y="235">(mmol/gdw.h)</tspan></text></g></g></svg>