<svg class="main-svg" xmlns="http://www.w3.org/2000/svg" xmlns:xlink="http://www.w3.org/1999/xlink" width="950" height="325" viewBox="0 0 950 325"><rect x="0" y="0" width="950" height="325" style="fill: rgb(255, 255, 255); fill-opacity: 1;"/><defs id="defs-ae55af"><g class="clips"><clipPath id="clipae55afxyplot" class="plotclip"><rect width="130.24" height="145"/></clipPath><clipPath id="clipae55afx2y2plot" class="plotclip"><rect width="130.23999999999998" height="145"/></clipPath><clipPath id="clipae55afx3y3plot" class="plotclip"><rect width="130.24000000000004" height="145"/></clipPath><clipPath id="clipae55afx4y4plot" class="plotclip"><rect width="130.24000000000004" height="145"/></clipPath><clipPath id="clipae55afx5y5plot" class="plotclip"><rect width="130.23999999999992" height="145"/></clipPath><clipPath class="axesclip" id="clipae55afx"><rect x="56" y="0" width="130.24" height="325"/></clipPath><clipPath class="axesclip" id="clipae55afy"><rect x="0" y="100" width="950" height="145"/></clipPath><clipPath class="axesclip" id="clipae55afxy"><rect x="56" y="100" width="130.24" height="145"/></clipPath><clipPath class="axesclip" id="clipae55afy2"><rect x="0" y="100" width="950" height="145"/></clipPath><clipPath class="axesclip" id="clipae55afxy2"><rect x="56" y="100" width="130.24" height="145"/></clipPath><clipPath class="axesclip" id="clipae55afy3"><rect x="0" y="100" width="950" height="145"/></clipPath><clipPath class="axesclip" id="clipae55afxy3"><rect x="56" y="100" width="130.24" height="145"/></clipPath><clipPath class="axesclip" id="clipae55afy4"><rect x="0" y="100" width="950" height="145"/></clipPath><clipPath class="axesclip" id="clipae55afxy4"><rect x="56" y="100" width="130.24" height="145"/></clipPath><clipPath class="axesclip" id="clipae55afy5"><rect x="0" y="100" width="950" height="145"/></clipPath><clipPath class="axesclip" id="clipae55afxy5"><rect x="56" y="100" width="130.24" height="145"/></clipPath><clipPath class="axesclip" id="clipae55afx2"><rect x="226.94000000000003" y="0" width="130.23999999999998" height="325"/></clipPath><clipPath class="axesclip" id="clipae55afx2y"><rect x="226.94000000000003" y="100" width="130.23999999999998" height="145"/></clipPath><clipPath class="axesclip" id="clipae55afx2y2"><rect x="226.94000000000003" y="100" width="130.23999999999998" height="145"/></clipPath><clipPath class="axesclip" id="clipae55afx2y3"><rect x="226.94000000000003" y="100" width="130.23999999999998" height="145"/></clipPath><clipPath class="axesclip" id="clipae55afx2y4"><rect x="226.94000000000003" y="100" width="130.23999999999998" height="145"/></clipPath><clipPath class="axesclip" id="clipae55afx2y5"><rect x="226.94000000000003" y="100" width="130.23999999999998" height="145"/></clipPath><clipPath class="axesclip" id="clipae55afx3"><rect x="397.88000000000005" y="0" width="130.24000000000004" height="325"/></clipPath><clipPath class="axesclip" id="clipae55afx3y"><rect x="397.88000000000005" y="100" width="130.24000000000004" height="145"/></clipPath><clipPath class="axesclip" id="clipae55afx3y2"><rect x="397.88000000000005" y="100" width="130.24000000000004" height="145"/></clipPath><clipPath class="axesclip" id="clipae55afx3y3"><rect x="397.88000000000005" y="100" width="130.24000000000004" height="145"/></clipPath><clipPath class="axesclip" id="clipae55afx3y4"><rect x="397.88000000000005" y="100" width="130.24000000000004" height="145"/></clipPath><clipPath class="axesclip" id="clipae55afx3y5"><rect x="397.88000000000005" y="100" width="130.24000000000004" height="145"/></clipPath><clipPath class="axesclip" id="clipae55afx4"><rect x="568.82" y="0" width="130.24000000000004" height="325"/></clipPath><clipPath class="axesclip" id="clipae55afx4y"><rect x="568.82" y="100" width="130.24000000000004" height="145"/></clipPath><clipPath class="axesclip" id="clipae55afx4y2"><rect x="568.82" y="100" width="130.24000000000004" height="145"/></clipPath><clipPath class="axesclip" id="clipae55afx4y3"><rect x="568.82" y="100" width="130.24000000000004" height="145"/></clipPath><clipPath class="axesclip" id="clipae55afx4y4"><rect x="568.82" y="100" width="130.24000000000004" height="145"/></clipPath><clipPath class="axesclip" id="clipae55afx4y5"><rect x="568.82" y="100" width="130.24000000000004" height="145"/></clipPath><clipPath class="axesclip" id="clipae55afx5"><rect x="739.7600000000001" y="0" width="130.23999999999992" height="325"/></clipPath><clipPath class="axesclip" id="clipae55afx5y"><rect x="739.7600000000001" y="100" width="130.23999999999992" height="145"/></clipPath><clipPath class="axesclip" id="clipae55afx5y2"><rect x="739.7600000000001" y="100" width="130.23999999999992" height="145"/></clipPath><clipPath class="axesclip" id="clipae55afx5y3"><rect x="739.7600000000001" y="100" width="130.23999999999992" height="145"/></clipPath><clipPath class="axesclip" id="clipae55afx5y4"><rect x="739.7600000000001" y="100" width="130.23999999999992" height="145"/></clipPath><clipPath class="axesclip" id="clipae55afx5y5"><rect x="739.7600000000001" y="100" width="130.23999999999992" height="145"/></clipPath></g><g class="gradients"/></defs><g class="bglayer"/><g class="layer-below"><g class="imagelayer"/><g class="shapelayer"/></g><g class="cartesianlayer"><g class="subplot xy"><g class="layer-subplot"><g class="shapelayer"/><g class="imagelayer"/></g><g class="gridlayer"><g class="x"/><g class="y"/></g><g class="zerolinelayer"/><path class="xlines-below"/><path class="ylines-below"/><g class="overlines-below"/><g class="xaxislayer-below"/><g class="yaxislayer-below"/><g class="overaxes-below"/><g class="plot" transform="translate(56, 100)" clip-path="url('#clipae55afxyplot')"><g class="scatterlayer mlayer"><g class="trace scatter trace5d4a6f" style="stroke-miterlimit: 2; opacity: 1;"><g class="fills"/><g class="errorbars"/><g class="lines"><path class="js-line" d="M0,120.02L31.01,117.08L33.08,116.14L45.48,114.21L47.55,114.46L49.62,113.65L51.68,113.94L53.75,112.96L55.82,113.19L59.95,111.98L62.02,111.47L70.29,110.85L72.36,109.38L84.76,106.23L86.83,106.56L95.1,102.6L97.16,101.46L99.23,100.91L101.3,99.11L111.63,85.63L113.7,81.79L117.84,72.82L119.9,70.19L124.04,51.7L126.11,43.31L130.24,14.29" style="vector-effect: non-scaling-stroke; fill: none; stroke: rgb(141, 196, 71); stroke-opacity: 1; stroke-width: 2px; opacity: 1;"/></g><g class="points"/><g class="text"/></g><g class="trace scatter trace447cc2" style="stroke-miterlimit: 2; opacity: 1;"><g class="fills"/><g class="errorbars"/><g class="lines"><path class="js-line" d="M0,136.2L35.14,135.76L37.21,135.6L47.55,135.56L49.62,135.54L57.88,135.45L59.95,135.39L68.22,135.2L70.29,135.37L76.49,135L78.56,135.16L82.69,134.85L84.76,134.99L99.23,134.44L101.3,134.62L113.7,133.16L115.77,132.21L119.9,131.92L121.97,130.71L126.11,128.62L128.17,126.93L130.24,125.17" style="vector-effect: non-scaling-stroke; fill: none; stroke: rgb(255, 85, 85); stroke-opacity: 1; stroke-width: 2px; opacity: 1;"/></g><g class="points"/><g class="text"/></g><g class="trace scatter trace97d139" style="stroke-miterlimit: 2; opacity: 1;"><g class="fills"/><g class="errorbars"/><g class="lines"><path class="js-line" d="M0,134.69L33.08,131.42L35.14,131.14L55.82,127.64L57.88,127.19L70.29,123.87L72.36,123.23L84.76,118.11L86.83,116.99L95.1,111.54L97.16,109.98L103.37,103.86L105.43,101.22L111.63,91.21L113.7,86.89L117.84,76.48L119.9,69.98L124.04,53.27L126.11,42.35L130.24,13.18" style="vector-effect: non-scaling-stroke; fill: none; stroke: rgb(118, 209, 244); stroke-opacity: 1; stroke-width: 2px; opacity: 1;"/></g><g class="points"/><g class="text"/></g></g></g><g class="overplot"/><path class="xlines-above crisp" d="M55,245.5H187.24M55,99.5H187.24" style="fill: none; stroke-width: 1px; stroke: rgb(0, 0, 0); stroke-opacity: 1;"/><path class="ylines-above crisp" d="M55.5,100V245M186.74,100V245" style="fill: none; stroke-width: 1px; stroke: rgb(0, 0, 0); stroke-opacity: 1;"/><g class="overlines-above"/><g class="xaxislayer-above"><path class="xtick ticks crisp" d="M0,246v5" transform="translate(56,0)" style="stroke: rgb(68, 68, 68); stroke-opacity: 1; stroke-width: 1px;"/><path class="xtick ticks crisp" d="M0,246v5" transform="translate(99.41,0)" style="stroke: rgb(68, 68, 68); stroke-opacity: 1; stroke-width: 1px;"/><path class="xtick ticks crisp" d="M0,246v5" transform="translate(142.82999999999998,0)" style="stroke: rgb(68, 68, 68); stroke-opacity: 1; stroke-width: 1px;"/><path class="xtick ticks crisp" d="M0,246v5" transform="translate(186.24,0)" style="stroke: rgb(68, 68, 68); stroke-opacity: 1; stroke-width: 1px;"/><g class="xtick"><text text-anchor="middle" x="0" y="265.5" transform="translate(56,0)" style="font-family: 'Open Sans', verdana, arial, sans-serif; font-size: 12.5px; fill: rgb(0, 0, 0); fill-opacity: 1; white-space: pre;">10​<tspan style="font-size:70%" dy="-0.6em">−6</tspan><tspan dy="0.42em">​</tspan></text></g><g class="xtick"><text text-anchor="middle" x="0" y="265.5" transform="translate(99.41,0)" style="font-family: 'Open Sans', verdana, arial, sans-serif; font-size: 12.5px; fill: rgb(0, 0, 0); fill-opacity: 1; white-space: pre;">10​<tspan style="font-size:70%" dy="-0.6em">−4</tspan><tspan dy="0.42em">​</tspan></text></g><g class="xtick"><text text-anchor="middle" x="0" y="265.5" transform="translate(142.82999999999998,0)" style="font-family: 'Open Sans', verdana, arial, sans-serif; font-size: 12.5px; fill: rgb(0, 0, 0); fill-opacity: 1; white-space: pre;">10​<tspan style="font-size:70%" dy="-0.6em">−2</tspan><tspan dy="0.42em">​</tspan></text></g><g class="xtick"><text text-anchor="middle" x="0" y="265.5" transform="translate(186.24,0)" style="font-family: 'Open Sans', verdana, arial, sans-serif; font-size: 12.5px; fill: rgb(0, 0, 0); fill-opacity: 1; white-space: pre;">1</text></g></g><g class="yaxislayer-above"><path class="ytick ticks crisp" d="M55,0h-5" transform="translate(0,245)" style="stroke: rgb(68, 68, 68); stroke-opacity: 1; stroke-width: 1px;"/><path class="ytick ticks crisp" d="M55,0h-5" transform="translate(0,190.76)" style="stroke: rgb(68, 68, 68); stroke-opacity: 1; stroke-width: 1px;"/><path class="ytick ticks crisp" d="M55,0h-5" transform="translate(0,136.52)" style="stroke: rgb(68, 68, 68); stroke-opacity: 1; stroke-width: 1px;"/><g class="ytick"><text text-anchor="end" x="47.6" y="4.199999999999999" transform="translate(0,245)" style="font-family: 'Open Sans', verdana, arial, sans-serif; font-size: 12px; fill: rgb(0, 0, 0); fill-opacity: 1; white-space: pre;">0</text></g><g class="ytick"><text text-anchor="end" x="47.6" y="4.199999999999999" transform="translate(0,190.76)" style="font-family: 'Open Sans', verdana, arial, sans-serif; font-size: 12px; fill: rgb(0, 0, 0); fill-opacity: 1; white-space: pre;">5</text></g><g class="ytick"><text text-anchor="end" x="47.6" y="4.199999999999999" transform="translate(0,136.52)" style="font-family: 'Open Sans', verdana, arial, sans-serif; font-size: 12px; fill: rgb(0, 0, 0); fill-opacity: 1; white-space: pre;">10</text></g></g><g class="overaxes-above"/></g><g class="subplot x2y2"><g class="layer-subplot"><g class="shapelayer"/><g class="imagelayer"/></g><g class="gridlayer"><g class="x2"/><g class="y2"/></g><g class="zerolinelayer"/><path class="xlines-below"/><path class="ylines-below"/><g class="overlines-below"/><g class="xaxislayer-below"/><g class="yaxislayer-below"/><g class="overaxes-below"/><g class="plot" transform="translate(226.94000000000003, 100)" clip-path="url('#clipae55afx2y2plot')"><g class="scatterlayer mlayer"><g class="trace scatter trace6f922f" style="stroke-miterlimit: 2; opacity: 1;"><g class="fills"/><g class="errorbars"/><g class="lines"><path class="js-line" d="M0,110.26L2.07,110.17L4.13,109.05L16.54,107.86L18.61,106.78L20.67,106.84L22.74,106.1L24.81,107.51L26.87,105.41L31.01,105.44L33.08,104.37L51.68,100.38L53.75,100.91L55.82,99.39L57.88,99.18L59.95,99.48L62.02,97.95L66.15,96.92L68.22,97.69L70.29,95.6L72.36,95.05L76.49,94.73L78.56,93.63L90.96,89.12L93.03,89.64L97.16,86.45L99.23,84.93L105.43,81L107.5,77.35L109.57,74.4L111.63,74.94L113.7,68.09L115.77,63.84L117.84,60.09L119.9,54.23L124.04,40.33L126.11,37.48L130.24,15.25" style="vector-effect: non-scaling-stroke; fill: none; stroke: rgb(141, 196, 71); stroke-opacity: 1; stroke-width: 2px; opacity: 1;"/></g><g class="points"/><g class="text"/></g><g class="trace scatter trace3f87bb" style="stroke-miterlimit: 2; opacity: 1;"><g class="fills"/><g class="errorbars"/><g class="lines"><path class="js-line" d="M0,132.29L26.87,131.64L28.94,131.89L37.21,131.44L39.28,131.28L70.29,130.75L72.36,130.45L95.1,129.95L97.16,129.58L101.3,129.7L103.37,129.78L113.7,129.12L115.77,128.34L126.11,126.21L128.17,124.35L130.24,123.4" style="vector-effect: non-scaling-stroke; fill: none; stroke: rgb(255, 85, 85); stroke-opacity: 1; stroke-width: 2px; opacity: 1;"/></g><g class="points"/><g class="text"/></g><g class="trace scatter trace3b7d9c" style="stroke-miterlimit: 2; opacity: 1;"><g class="fills"/><g class="errorbars"/><g class="lines"><path class="js-line" d="M0,130.69L28.94,127.09L31.01,126.76L49.62,123.24L51.68,122.68L64.09,119.23L66.15,118.58L80.62,112.53L82.69,111.46L93.03,104.52L95.1,102.87L101.3,96.84L103.37,94.32L109.57,85.49L111.63,81.76L115.77,73.75L117.84,67.85L121.97,54.75L124.04,46.74L128.17,27.86L130.24,13.18" style="vector-effect: non-scaling-stroke; fill: none; stroke: rgb(118, 209, 244); stroke-opacity: 1; stroke-width: 2px; opacity: 1;"/></g><g class="points"/><g class="text"/></g></g></g><g class="overplot"/><path class="xlines-above crisp" d="M225.94000000000003,245.5H358.18M225.94000000000003,99.5H358.18" style="fill: none; stroke-width: 1px; stroke: rgb(0, 0, 0); stroke-opacity: 1;"/><path class="ylines-above crisp" d="M226.44000000000003,100V245M357.68,100V245" style="fill: none; stroke-width: 1px; stroke: rgb(0, 0, 0); stroke-opacity: 1;"/><g class="overlines-above"/><g class="xaxislayer-above"><path class="x2tick ticks crisp" d="M0,246v5" transform="translate(226.94000000000003,0)" style="stroke: rgb(68, 68, 68); stroke-opacity: 1; stroke-width: 1px;"/><path class="x2tick ticks crisp" d="M0,246v5" transform="translate(270.35,0)" style="stroke: rgb(68, 68, 68); stroke-opacity: 1; stroke-width: 1px;"/><path class="x2tick ticks crisp" d="M0,246v5" transform="translate(313.77000000000004,0)" style="stroke: rgb(68, 68, 68); stroke-opacity: 1; stroke-width: 1px;"/><path class="x2tick ticks crisp" d="M0,246v5" transform="translate(357.18000000000006,0)" style="stroke: rgb(68, 68, 68); stroke-opacity: 1; stroke-width: 1px;"/><g class="x2tick"><text text-anchor="middle" x="0" y="265.5" transform="translate(226.94000000000003,0)" style="font-family: 'Open Sans', verdana, arial, sans-serif; font-size: 12.5px; fill: rgb(0, 0, 0); fill-opacity: 1; white-space: pre;">10​<tspan style="font-size:70%" dy="-0.6em">−6</tspan><tspan dy="0.42em">​</tspan></text></g><g class="x2tick"><text text-anchor="middle" x="0" y="265.5" transform="translate(270.35,0)" style="font-family: 'Open Sans', verdana, arial, sans-serif; font-size: 12.5px; fill: rgb(0, 0, 0); fill-opacity: 1; white-space: pre;">10​<tspan style="font-size:70%" dy="-0.6em">−4</tspan><tspan dy="0.42em">​</tspan></text></g><g class="x2tick"><text text-anchor="middle" x="0" y="265.5" transform="translate(313.77000000000004,0)" style="font-family: 'Open Sans', verdana, arial, sans-serif; font-size: 12.5px; fill: rgb(0, 0, 0); fill-opacity: 1; white-space: pre;">10​<tspan style="font-size:70%" dy="-0.6em">−2</tspan><tspan dy="0.42em">​</tspan></text></g><g class="x2tick"><text text-anchor="middle" x="0" y="265.5" transform="translate(357.18000000000006,0)" style="font-family: 'Open Sans', verdana, arial, sans-serif; font-size: 12.5px; fill: rgb(0, 0, 0); fill-opacity: 1; white-space: pre;">1</text></g></g><g class="yaxislayer-above"><path class="y2tick ticks crisp" d="M225.94000000000003,0h-5" transform="translate(0,245)" style="stroke: rgb(68, 68, 68); stroke-opacity: 1; stroke-width: 1px;"/><path class="y2tick ticks crisp" d="M225.94000000000003,0h-5" transform="translate(0,205.57999999999998)" style="stroke: rgb(68, 68, 68); stroke-opacity: 1; stroke-width: 1px;"/><path class="y2tick ticks crisp" d="M225.94000000000003,0h-5" transform="translate(0,166.15)" style="stroke: rgb(68, 68, 68); stroke-opacity: 1; stroke-width: 1px;"/><path class="y2tick ticks crisp" d="M225.94000000000003,0h-5" transform="translate(0,126.73)" style="stroke: rgb(68, 68, 68); stroke-opacity: 1; stroke-width: 1px;"/><g class="y2tick"><text text-anchor="end" x="218.54000000000002" y="4.199999999999999" transform="translate(0,245)" style="font-family: 'Open Sans', verdana, arial, sans-serif; font-size: 12px; fill: rgb(0, 0, 0); fill-opacity: 1; white-space: pre;">0</text></g><g class="y2tick"><text text-anchor="end" x="218.54000000000002" y="4.199999999999999" transform="translate(0,205.57999999999998)" style="font-family: 'Open Sans', verdana, arial, sans-serif; font-size: 12px; fill: rgb(0, 0, 0); fill-opacity: 1; white-space: pre;">5</text></g><g class="y2tick"><text text-anchor="end" x="218.54000000000002" y="4.199999999999999" transform="translate(0,166.15)" style="font-family: 'Open Sans', verdana, arial, sans-serif; font-size: 12px; fill: rgb(0, 0, 0); fill-opacity: 1; white-space: pre;">10</text></g><g class="y2tick"><text text-anchor="end" x="218.54000000000002" y="4.199999999999999" transform="translate(0,126.73)" style="font-family: 'Open Sans', verdana, arial, sans-serif; font-size: 12px; fill: rgb(0, 0, 0); fill-opacity: 1; white-space: pre;">15</text></g></g><g class="overaxes-above"/></g><g class="subplot x3y3"><g class="layer-subplot"><g class="shapelayer"/><g class="imagelayer"/></g><g class="gridlayer"><g class="x3"/><g class="y3"/></g><g class="zerolinelayer"/><path class="xlines-below"/><path class="ylines-below"/><g class="overlines-below"/><g class="xaxislayer-below"/><g class="yaxislayer-below"/><g class="overaxes-below"/><g class="plot" transform="translate(397.88000000000005, 100)" clip-path="url('#clipae55afx3y3plot')"><g class="scatterlayer mlayer"><g class="trace scatter trace2cd645" style="stroke-miterlimit: 2; opacity: 1;"><g class="fills"/><g class="errorbars"/><g class="lines"><path class="js-line" d="M0,100.86L2.07,98L4.13,97.36L6.2,98.07L8.27,96.71L14.47,95.48L16.54,95.07L18.61,96L20.67,94.2L22.74,93.73L24.81,94.38L26.87,92.81L28.94,93.35L33.08,92.2L35.14,91.04L37.21,90.45L39.28,91.36L41.35,89.26L43.41,89.07L49.62,86.98L51.68,86.37L59.95,83.85L62.02,85.66L64.09,83.02L66.15,82L68.22,81.39L70.29,81.6L72.36,79.66L74.42,78.96L82.69,76.46L84.76,75.17L86.83,75.48L88.89,73.67L90.96,74.11L93.03,71.58L97.16,68.97L99.23,68.66L101.3,66.92L103.37,66.16L107.5,62.75L109.57,64.1L111.63,59.51L113.7,57.12L115.77,56.32L117.84,48.67L119.9,48.69L121.97,40.08L126.11,28.44L128.17,22.04L130.24,13.18" style="vector-effect: non-scaling-stroke; fill: none; stroke: rgb(141, 196, 71); stroke-opacity: 1; stroke-width: 2px; opacity: 1;"/></g><g class="points"/><g class="text"/></g><g class="trace scatter trace6b12c5" style="stroke-miterlimit: 2; opacity: 1;"><g class="fills"/><g class="errorbars"/><g class="lines"><path class="js-line" d="M0,127.92L2.07,128.11L4.13,127.5L16.54,127.44L18.61,128L22.74,127L24.81,126.99L28.94,127.35L31.01,127.01L37.21,127.13L39.28,126.37L47.55,126.57L49.62,126.38L57.88,126.69L59.95,126.35L62.02,126.64L64.09,125.81L66.15,126.33L68.22,125.59L70.29,126.29L72.36,125.96L74.42,125.4L76.49,126.14L78.56,125.35L80.62,125.9L88.89,125.38L90.96,125.52L103.37,124.61L105.43,123.99L107.5,124.53L109.57,123.82L111.63,123.36L113.7,124.46L117.84,124.16L119.9,124.06L126.11,121.9L128.17,121.99L130.24,121.25" style="vector-effect: non-scaling-stroke; fill: none; stroke: rgb(255, 85, 85); stroke-opacity: 1; stroke-width: 2px; opacity: 1;"/></g><g class="points"/><g class="text"/></g><g class="trace scatter trace733b92" style="stroke-miterlimit: 2; opacity: 1;"><g class="fills"/><g class="errorbars"/><g class="lines"><path class="js-line" d="M0,126.49L28.94,122.16L31.01,121.78L51.68,117L53.75,116.42L68.22,111.53L70.29,110.68L82.69,104.7L84.76,103.34L93.03,97.65L95.1,95.85L101.3,90.17L103.37,87.69L111.63,76.51L113.7,72.53L119.9,59.4L121.97,53.65L126.11,40.23L128.17,32.25L130.24,23.75" style="vector-effect: non-scaling-stroke; fill: none; stroke: rgb(118, 209, 244); stroke-opacity: 1; stroke-width: 2px; opacity: 1;"/></g><g class="points"/><g class="text"/></g></g></g><g class="overplot"/><path class="xlines-above crisp" d="M396.88000000000005,245.5H529.1200000000001M396.88000000000005,99.5H529.1200000000001" style="fill: none; stroke-width: 1px; stroke: rgb(0, 0, 0); stroke-opacity: 1;"/><path class="ylines-above crisp" d="M397.38000000000005,100V245M528.6200000000001,100V245" style="fill: none; stroke-width: 1px; stroke: rgb(0, 0, 0); stroke-opacity: 1;"/><g class="overlines-above"/><g class="xaxislayer-above"><path class="x3tick ticks crisp" d="M0,246v5" transform="translate(397.88000000000005,0)" style="stroke: rgb(68, 68, 68); stroke-opacity: 1; stroke-width: 1px;"/><path class="x3tick ticks crisp" d="M0,246v5" transform="translate(441.2900000000001,0)" style="stroke: rgb(68, 68, 68); stroke-opacity: 1; stroke-width: 1px;"/><path class="x3tick ticks crisp" d="M0,246v5" transform="translate(484.71000000000004,0)" style="stroke: rgb(68, 68, 68); stroke-opacity: 1; stroke-width: 1px;"/><path class="x3tick ticks crisp" d="M0,246v5" transform="translate(528.1200000000001,0)" style="stroke: rgb(68, 68, 68); stroke-opacity: 1; stroke-width: 1px;"/><g class="x3tick"><text text-anchor="middle" x="0" y="265.5" transform="translate(397.88000000000005,0)" style="font-family: 'Open Sans', verdana, arial, sans-serif; font-size: 12.5px; fill: rgb(0, 0, 0); fill-opacity: 1; white-space: pre;">10​<tspan style="font-size:70%" dy="-0.6em">−6</tspan><tspan dy="0.42em">​</tspan></text></g><g class="x3tick"><text text-anchor="middle" x="0" y="265.5" transform="translate(441.2900000000001,0)" style="font-family: 'Open Sans', verdana, arial, sans-serif; font-size: 12.5px; fill: rgb(0, 0, 0); fill-opacity: 1; white-space: pre;">10​<tspan style="font-size:70%" dy="-0.6em">−4</tspan><tspan dy="0.42em">​</tspan></text></g><g class="x3tick"><text text-anchor="middle" x="0" y="265.5" transform="translate(484.71000000000004,0)" style="font-family: 'Open Sans', verdana, arial, sans-serif; font-size: 12.5px; fill: rgb(0, 0, 0); fill-opacity: 1; white-space: pre;">10​<tspan style="font-size:70%" dy="-0.6em">−2</tspan><tspan dy="0.42em">​</tspan></text></g><g class="x3tick"><text text-anchor="middle" x="0" y="265.5" transform="translate(528.1200000000001,0)" style="font-family: 'Open Sans', verdana, arial, sans-serif; font-size: 12.5px; fill: rgb(0, 0, 0); fill-opacity: 1; white-space: pre;">1</text></g></g><g class="yaxislayer-above"><path class="y3tick ticks crisp" d="M396.88000000000005,0h-5" transform="translate(0,245)" style="stroke: rgb(68, 68, 68); stroke-opacity: 1; stroke-width: 1px;"/><path class="y3tick ticks crisp" d="M396.88000000000005,0h-5" transform="translate(0,201.76)" style="stroke: rgb(68, 68, 68); stroke-opacity: 1; stroke-width: 1px;"/><path class="y3tick ticks crisp" d="M396.88000000000005,0h-5" transform="translate(0,158.53)" style="stroke: rgb(68, 68, 68); stroke-opacity: 1; stroke-width: 1px;"/><path class="y3tick ticks crisp" d="M396.88000000000005,0h-5" transform="translate(0,115.28999999999999)" style="stroke: rgb(68, 68, 68); stroke-opacity: 1; stroke-width: 1px;"/><g class="y3tick"><text text-anchor="end" x="389.4800000000001" y="4.199999999999999" transform="translate(0,245)" style="font-family: 'Open Sans', verdana, arial, sans-serif; font-size: 12px; fill: rgb(0, 0, 0); fill-opacity: 1; white-space: pre;">0</text></g><g class="y3tick"><text text-anchor="end" x="389.4800000000001" y="4.199999999999999" transform="translate(0,201.76)" style="font-family: 'Open Sans', verdana, arial, sans-serif; font-size: 12px; fill: rgb(0, 0, 0); fill-opacity: 1; white-space: pre;">10</text></g><g class="y3tick"><text text-anchor="end" x="389.4800000000001" y="4.199999999999999" transform="translate(0,158.53)" style="font-family: 'Open Sans', verdana, arial, sans-serif; font-size: 12px; fill: rgb(0, 0, 0); fill-opacity: 1; white-space: pre;">20</text></g><g class="y3tick"><text text-anchor="end" x="389.4800000000001" y="4.199999999999999" transform="translate(0,115.28999999999999)" style="font-family: 'Open Sans', verdana, arial, sans-serif; font-size: 12px; fill: rgb(0, 0, 0); fill-opacity: 1; white-space: pre;">30</text></g></g><g class="overaxes-above"/></g><g class="subplot x4y4"><g class="layer-subplot"><g class="shapelayer"/><g class="imagelayer"/></g><g class="gridlayer"><g class="x4"/><g class="y4"/></g><g class="zerolinelayer"/><path class="xlines-below"/><path class="ylines-below"/><g class="overlines-below"/><g class="xaxislayer-below"/><g class="yaxislayer-below"/><g class="overaxes-below"/><g class="plot" transform="translate(568.82, 100)" clip-path="url('#clipae55afx4y4plot')"><g class="scatterlayer mlayer"><g class="trace scatter traceb1d988" style="stroke-miterlimit: 2; opacity: 1;"><g class="fills"/><g class="errorbars"/><g class="lines"><path class="js-line" d="M0,90.06L24.81,84.51L26.87,84.98L28.94,83.27L31.01,83.26L33.08,82.36L35.14,82.39L39.28,80.6L41.35,79.82L43.41,79.34L45.48,82.53L47.55,77.89L49.62,79.74L51.68,76.83L53.75,76.04L59.95,73.9L62.02,75.42L64.09,72.63L66.15,71.85L72.36,69.58L74.42,70.89L76.49,67.65L78.56,67.48L82.69,64.8L84.76,64.16L86.83,63.65L88.89,65.96L90.96,61.15L93.03,60L97.16,57.84L99.23,56.71L105.43,52.84L107.5,52.57L117.84,42.98L119.9,43.63L126.11,25.73L128.17,25.88L130.24,13.18" style="vector-effect: non-scaling-stroke; fill: none; stroke: rgb(141, 196, 71); stroke-opacity: 1; stroke-width: 2px; opacity: 1;"/></g><g class="points"/><g class="text"/></g><g class="trace scatter tracee8e325" style="stroke-miterlimit: 2; opacity: 1;"><g class="fills"/><g class="errorbars"/><g class="lines"><path class="js-line" d="M0,124.68L16.54,124.28L18.61,124.46L22.74,123.43L24.81,123.95L35.14,123.73L37.21,122.87L41.35,123.17L43.41,122.57L45.48,123.52L47.55,122.68L53.75,123.14L55.82,122.21L59.95,122.8L62.02,122.6L64.09,122.79L66.15,122.05L72.36,122.46L74.42,121.68L78.56,122.12L80.62,121.31L82.69,122.11L84.76,121.4L90.96,121.75L93.03,120.86L99.23,121.1L101.3,120.83L105.43,120.26L107.5,121.55L111.63,119.84L113.7,120.36L117.84,119.19L119.9,119.72L126.11,119.16L128.17,117.64L130.24,117.82" style="vector-effect: non-scaling-stroke; fill: none; stroke: rgb(255, 85, 85); stroke-opacity: 1; stroke-width: 2px; opacity: 1;"/></g><g class="points"/><g class="text"/></g><g class="trace scatter trace016f4b" style="stroke-miterlimit: 2; opacity: 1;"><g class="fills"/><g class="errorbars"/><g class="lines"><path class="js-line" d="M0,123.64L26.87,119.31L28.94,118.89L49.62,113.98L51.68,113.35L64.09,109.25L66.15,108.43L78.56,102.84L80.62,101.72L88.89,96.61L90.96,95.22L99.23,88.35L101.3,86.19L107.5,79.42L109.57,76.51L115.77,66.84L117.84,62.78L121.97,54.02L124.04,48.59L128.17,37.24L130.24,28.82" style="vector-effect: non-scaling-stroke; fill: none; stroke: rgb(118, 209, 244); stroke-opacity: 1; stroke-width: 2px; opacity: 1;"/></g><g class="points"/><g class="text"/></g></g></g><g class="overplot"/><path class="xlines-above crisp" d="M567.82,245.5H700.0600000000001M567.82,99.5H700.0600000000001" style="fill: none; stroke-width: 1px; stroke: rgb(0, 0, 0); stroke-opacity: 1;"/><path class="ylines-above crisp" d="M568.32,100V245M699.5600000000001,100V245" style="fill: none; stroke-width: 1px; stroke: rgb(0, 0, 0); stroke-opacity: 1;"/><g class="overlines-above"/><g class="xaxislayer-above"><path class="x4tick ticks crisp" d="M0,246v5" transform="translate(568.82,0)" style="stroke: rgb(68, 68, 68); stroke-opacity: 1; stroke-width: 1px;"/><path class="x4tick ticks crisp" d="M0,246v5" transform="translate(612.23,0)" style="stroke: rgb(68, 68, 68); stroke-opacity: 1; stroke-width: 1px;"/><path class="x4tick ticks crisp" d="M0,246v5" transform="translate(655.6500000000001,0)" style="stroke: rgb(68, 68, 68); stroke-opacity: 1; stroke-width: 1px;"/><path class="x4tick ticks crisp" d="M0,246v5" transform="translate(699.0600000000001,0)" style="stroke: rgb(68, 68, 68); stroke-opacity: 1; stroke-width: 1px;"/><g class="x4tick"><text text-anchor="middle" x="0" y="265.5" transform="translate(568.82,0)" style="font-family: 'Open Sans', verdana, arial, sans-serif; font-size: 12.5px; fill: rgb(0, 0, 0); fill-opacity: 1; white-space: pre;">10​<tspan style="font-size:70%" dy="-0.6em">−6</tspan><tspan dy="0.42em">​</tspan></text></g><g class="x4tick"><text text-anchor="middle" x="0" y="265.5" transform="translate(612.23,0)" style="font-family: 'Open Sans', verdana, arial, sans-serif; font-size: 12.5px; fill: rgb(0, 0, 0); fill-opacity: 1; white-space: pre;">10​<tspan style="font-size:70%" dy="-0.6em">−4</tspan><tspan dy="0.42em">​</tspan></text></g><g class="x4tick"><text text-anchor="middle" x="0" y="265.5" transform="translate(655.6500000000001,0)" style="font-family: 'Open Sans', verdana, arial, sans-serif; font-size: 12.5px; fill: rgb(0, 0, 0); fill-opacity: 1; white-space: pre;">10​<tspan style="font-size:70%" dy="-0.6em">−2</tspan><tspan dy="0.42em">​</tspan></text></g><g class="x4tick"><text text-anchor="middle" x="0" y="265.5" transform="translate(699.0600000000001,0)" style="font-family: 'Open Sans', verdana, arial, sans-serif; font-size: 12.5px; fill: rgb(0, 0, 0); fill-opacity: 1; white-space: pre;">1</text></g></g><g class="yaxislayer-above"><path class="y4tick ticks crisp" d="M567.82,0h-5" transform="translate(0,245)" style="stroke: rgb(68, 68, 68); stroke-opacity: 1; stroke-width: 1px;"/><path class="y4tick ticks crisp" d="M567.82,0h-5" transform="translate(0,192.98000000000002)" style="stroke: rgb(68, 68, 68); stroke-opacity: 1; stroke-width: 1px;"/><path class="y4tick ticks crisp" d="M567.82,0h-5" transform="translate(0,140.96)" style="stroke: rgb(68, 68, 68); stroke-opacity: 1; stroke-width: 1px;"/><g class="y4tick"><text text-anchor="end" x="560.4200000000001" y="4.199999999999999" transform="translate(0,245)" style="font-family: 'Open Sans', verdana, arial, sans-serif; font-size: 12px; fill: rgb(0, 0, 0); fill-opacity: 1; white-space: pre;">0</text></g><g class="y4tick"><text text-anchor="end" x="560.4200000000001" y="4.199999999999999" transform="translate(0,192.98000000000002)" style="font-family: 'Open Sans', verdana, arial, sans-serif; font-size: 12px; fill: rgb(0, 0, 0); fill-opacity: 1; white-space: pre;">20</text></g><g class="y4tick"><text text-anchor="end" x="560.4200000000001" y="4.199999999999999" transform="translate(0,140.96)" style="font-family: 'Open Sans', verdana, arial, sans-serif; font-size: 12px; fill: rgb(0, 0, 0); fill-opacity: 1; white-space: pre;">40</text></g></g><g class="overaxes-above"/></g><g class="subplot x5y5"><g class="layer-subplot"><g class="shapelayer"/><g class="imagelayer"/></g><g class="gridlayer"><g class="x5"/><g class="y5"/></g><g class="zerolinelayer"/><path class="xlines-below"/><path class="ylines-below"/><g class="overlines-below"/><g class="xaxislayer-below"/><g class="yaxislayer-below"/><g class="overaxes-below"/><g class="plot" transform="translate(739.7600000000001, 100)" clip-path="url('#clipae55afx5y5plot')"><g class="scatterlayer mlayer"><g class="trace scatter tracecb026c" style="stroke-miterlimit: 2; opacity: 1;"><g class="fills"/><g class="errorbars"/><g class="lines"><path class="js-line" d="M0,83.19L2.07,82.73L4.13,84.35L6.2,81.84L8.27,84.71L10.34,80.89L12.4,81.25L14.47,83.05L16.54,78.95L22.74,78.09L24.81,77.1L33.08,74.63L35.14,77.21L37.21,76.03L39.28,72.91L45.48,70.88L47.55,70.84L49.62,71.61L51.68,70.66L53.75,68.04L55.82,68.54L57.88,66.51L59.95,65.57L68.22,62.53L70.29,61.51L74.42,59.64L76.49,59.87L80.62,57.14L82.69,56.3L88.89,52.76L90.96,52.02L93.03,51.07L95.1,51.14L97.16,49.97L99.23,47.3L101.3,46.5L103.37,44.28L109.57,40.79L111.63,38.78L113.7,37.51L115.77,38.64L117.84,33.58L119.9,33.47L121.97,29.1L124.04,29.31L126.11,23.56L128.17,21.59L130.24,13.18" style="vector-effect: non-scaling-stroke; fill: none; stroke: rgb(141, 196, 71); stroke-opacity: 1; stroke-width: 2px; opacity: 1;"/></g><g class="points"/><g class="text"/></g><g class="trace scatter trace7d0693" style="stroke-miterlimit: 2; opacity: 1;"><g class="fills"/><g class="errorbars"/><g class="lines"><path class="js-line" d="M0,121.66L4.13,121.55L6.2,120.83L10.34,121.68L12.4,121.02L22.74,120.95L24.81,120.29L28.94,120.39L31.01,120.56L35.14,120.57L37.21,120.33L41.35,120.46L43.41,119.99L51.68,120.18L53.75,119.26L59.95,120.18L62.02,119.69L64.09,118.79L66.15,119.1L68.22,118.78L70.29,119.52L74.42,118.3L76.49,118.04L78.56,119.01L80.62,117.91L84.76,118.6L86.83,117.74L88.89,118.5L90.96,117.63L97.16,118.22L99.23,117.09L103.37,117.98L105.43,116.7L107.5,117.88L109.57,116.71L113.7,117.16L115.77,116.41L119.9,115.36L121.97,116.26L124.04,115.54L126.11,115.93L130.24,115.06" style="vector-effect: non-scaling-stroke; fill: none; stroke: rgb(255, 85, 85); stroke-opacity: 1; stroke-width: 2px; opacity: 1;"/></g><g class="points"/><g class="text"/></g><g class="trace scatter trace6af2c3" style="stroke-miterlimit: 2; opacity: 1;"><g class="fills"/><g class="errorbars"/><g class="lines"><path class="js-line" d="M0,121.36L26.87,116.78L28.94,116.35L49.62,111.35L51.68,110.64L66.15,105.65L68.22,104.82L82.69,97.79L84.76,96.55L95.1,89.61L97.16,87.91L107.5,77.64L109.57,75.15L113.7,69.58L115.77,66.5L121.97,55.92L124.04,51.01L130.24,35.31" style="vector-effect: non-scaling-stroke; fill: none; stroke: rgb(118, 209, 244); stroke-opacity: 1; stroke-width: 2px; opacity: 1;"/></g><g class="points"/><g class="text"/></g></g></g><g class="overplot"/><path class="xlines-above crisp" d="M738.7600000000001,245.5H871M738.7600000000001,99.5H871" style="fill: none; stroke-width: 1px; stroke: rgb(0, 0, 0); stroke-opacity: 1;"/><path class="ylines-above crisp" d="M739.2600000000001,100V245M870.5,100V245" style="fill: none; stroke-width: 1px; stroke: rgb(0, 0, 0); stroke-opacity: 1;"/><g class="overlines-above"/><g class="xaxislayer-above"><path class="x5tick ticks crisp" d="M0,246v5" transform="translate(739.7600000000001,0)" style="stroke: rgb(68, 68, 68); stroke-opacity: 1; stroke-width: 1px;"/><path class="x5tick ticks crisp" d="M0,246v5" transform="translate(783.1700000000001,0)" style="stroke: rgb(68, 68, 68); stroke-opacity: 1; stroke-width: 1px;"/><path class="x5tick ticks crisp" d="M0,246v5" transform="translate(826.5900000000001,0)" style="stroke: rgb(68, 68, 68); stroke-opacity: 1; stroke-width: 1px;"/><path class="x5tick ticks crisp" d="M0,246v5" transform="translate(870.0000000000001,0)" style="stroke: rgb(68, 68, 68); stroke-opacity: 1; stroke-width: 1px;"/><g class="x5tick"><text text-anchor="middle" x="0" y="265.5" transform="translate(739.7600000000001,0)" style="font-family: 'Open Sans', verdana, arial, sans-serif; font-size: 12.5px; fill: rgb(0, 0, 0); fill-opacity: 1; white-space: pre;">10​<tspan style="font-size:70%" dy="-0.6em">−6</tspan><tspan dy="0.42em">​</tspan></text></g><g class="x5tick"><text text-anchor="middle" x="0" y="265.5" transform="translate(783.1700000000001,0)" style="font-family: 'Open Sans', verdana, arial, sans-serif; font-size: 12.5px; fill: rgb(0, 0, 0); fill-opacity: 1; white-space: pre;">10​<tspan style="font-size:70%" dy="-0.6em">−4</tspan><tspan dy="0.42em">​</tspan></text></g><g class="x5tick"><text text-anchor="middle" x="0" y="265.5" transform="translate(826.5900000000001,0)" style="font-family: 'Open Sans', verdana, arial, sans-serif; font-size: 12.5px; fill: rgb(0, 0, 0); fill-opacity: 1; white-space: pre;">10​<tspan style="font-size:70%" dy="-0.6em">−2</tspan><tspan dy="0.42em">​</tspan></text></g><g class="x5tick"><text text-anchor="middle" x="0" y="265.5" transform="translate(870.0000000000001,0)" style="font-family: 'Open Sans', verdana, arial, sans-serif; font-size: 12.5px; fill: rgb(0, 0, 0); fill-opacity: 1; white-space: pre;">1</text></g></g><g class="yaxislayer-above"><path class="y5tick ticks crisp" d="M738.7600000000001,0h-5" transform="translate(0,245)" style="stroke: rgb(68, 68, 68); stroke-opacity: 1; stroke-width: 1px;"/><path class="y5tick ticks crisp" d="M738.7600000000001,0h-5" transform="translate(0,215.03)" style="stroke: rgb(68, 68, 68); stroke-opacity: 1; stroke-width: 1px;"/><path class="y5tick ticks crisp" d="M738.7600000000001,0h-5" transform="translate(0,185.05)" style="stroke: rgb(68, 68, 68); stroke-opacity: 1; stroke-width: 1px;"/><path class="y5tick ticks crisp" d="M738.7600000000001,0h-5" transform="translate(0,155.07999999999998)" style="stroke: rgb(68, 68, 68); stroke-opacity: 1; stroke-width: 1px;"/><path class="y5tick ticks crisp" d="M738.7600000000001,0h-5" transform="translate(0,125.1)" style="stroke: rgb(68, 68, 68); stroke-opacity: 1; stroke-width: 1px;"/><g class="y5tick"><text text-anchor="end" x="731.3600000000001" y="4.199999999999999" transform="translate(0,245)" style="font-family: 'Open Sans', verdana, arial, sans-serif; font-size: 12px; fill: rgb(0, 0, 0); fill-opacity: 1; white-space: pre;">0</text></g><g class="y5tick"><text text-anchor="end" x="731.3600000000001" y="4.199999999999999" transform="translate(0,215.03)" style="font-family: 'Open Sans', verdana, arial, sans-serif; font-size: 12px; fill: rgb(0, 0, 0); fill-opacity: 1; white-space: pre;">20</text></g><g class="y5tick"><text text-anchor="end" x="731.3600000000001" y="4.199999999999999" transform="translate(0,185.05)" style="font-family: 'Open Sans', verdana, arial, sans-serif; font-size: 12px; fill: rgb(0, 0, 0); fill-opacity: 1; white-space: pre;">40</text></g><g class="y5tick"><text text-anchor="end" x="731.3600000000001" y="4.199999999999999" transform="translate(0,155.07999999999998)" style="font-family: 'Open Sans', verdana, arial, sans-serif; font-size: 12px; fill: rgb(0, 0, 0); fill-opacity: 1; white-space: pre;">60</text></g><g class="y5tick"><text text-anchor="end" x="731.3600000000001" y="4.199999999999999" transform="translate(0,125.1)" style="font-family: 'Open Sans', verdana, arial, sans-serif; font-size: 12px; fill: rgb(0, 0, 0); fill-opacity: 1; white-space: pre;">80</text></g></g><g class="overaxes-above"/></g></g><g class="polarlayer"/><g class="ternarylayer"/><g class="geolayer"/><g class="funnelarealayer"/><g class="pielayer"/><g class="treemaplayer"/><g class="sunburstlayer"/><g class="glimages"/><defs id="topdefs-ae55af"><g class="clips"/></defs><g class="layer-above"><g class="imagelayer"/><g class="shapelayer"/></g><g class="infolayer"><g class="g-gtitle"/><g class="g-xtitle"><text class="xtitle" x="121.12" y="291.390625" text-anchor="middle" style="font-family: 'Open Sans', verdana, arial, sans-serif; font-size: 12px; fill: rgb(0, 0, 0); opacity: 1; font-weight: normal; white-space: pre;"><tspan class="line" dy="0em" x="121.12" y="291.390625">Initial Biomass</tspan><tspan class="line" dy="1.3em" x="121.12" y="291.390625">Concentration (g/L)</tspan></text></g><g class="g-x2title"><text class="x2title" x="292.06" y="291.390625" text-anchor="middle" style="font-family: 'Open Sans', verdana, arial, sans-serif; font-size: 12px; fill: rgb(0, 0, 0); opacity: 1; font-weight: normal; white-space: pre;"><tspan class="line" dy="0em" x="292.06" y="291.390625">Initial Biomass</tspan><tspan class="line" dy="1.3em" x="292.06" y="291.390625">Concentration (g/L)</tspan></text></g><g class="g-x3title"><text class="x3title" x="463.00000000000006" y="291.390625" text-anchor="middle" style="font-family: 'Open Sans', verdana, arial, sans-serif; font-size: 12px; fill: rgb(0, 0, 0); opacity: 1; font-weight: normal; white-space: pre;"><tspan class="line" dy="0em" x="463.00000000000006" y="291.390625">Initial Biomass</tspan><tspan class="line" dy="1.3em" x="463.00000000000006" y="291.390625">Concentration (g/L)</tspan></text></g><g class="g-x4title"><text class="x4title" x="633.94" y="291.390625" text-anchor="middle" style="font-family: 'Open Sans', verdana, arial, sans-serif; font-size: 12px; fill: rgb(0, 0, 0); opacity: 1; font-weight: normal; white-space: pre;"><tspan class="line" dy="0em" x="633.94" y="291.390625">Initial Biomass</tspan><tspan class="line" dy="1.3em" x="633.94" y="291.390625">Concentration (g/L)</tspan></text></g><g class="g-x5title"><text class="x5title" x="804.8800000000001" y="291.390625" text-anchor="middle" style="font-family: 'Open Sans', verdana, arial, sans-serif; font-size: 12px; fill: rgb(0, 0, 0); opacity: 1; font-weight: normal; white-space: pre;"><tspan class="line" dy="0em" x="804.8800000000001" y="291.390625">Initial Biomass</tspan><tspan class="line" dy="1.3em" x="804.8800000000001" y="291.390625">Concentration (g/L)</tspan></text></g><g class="g-ytitle" transform="translate(3.671875,0)"><text class="ytitle" transform="rotate(-90,8.328125,172.5)" x="8.328125" y="172.5" text-anchor="middle" style="font-family: 'Open Sans', verdana, arial, sans-serif; font-size: 12px; fill: rgb(0, 0, 0); opacity: 1; font-weight: normal; white-space: pre;"><tspan class="line" dy="0em" x="8.328125" y="172.5">Productivity</tspan><tspan class="line" dy="1.3em" x="8.328125" y="172.5">(mmol/L.h)</tspan></text></g><g class="g-y2title"/><g class="g-y3title"/><g class="g-y4title"/><g class="g-y5title"/><g class="annotation" data-index="0" style="opacity: 1;"><g class="annotation-text-g" transform="rotate(0,121.12,78)"><g class="cursor-pointer" transform="translate(48, 56)"><rect class="bg" x="0.5" y="0.5" width="145" height="43" style="stroke-width: 1px; stroke: rgb(0, 0, 0); stroke-opacity: 0; fill: rgb(0, 0, 0); fill-opacity: 0;"/><text class="annotation-text" text-anchor="middle" x="73.0625" y="18" style="font-family: 'Open Sans', verdana, arial, sans-serif; font-size: 16px; fill: rgb(68, 68, 68); fill-opacity: 1; white-space: pre;"><tspan class="line" dy="0em" x="73.0625" y="18">Initial Substrate: </tspan><tspan class="line" dy="1.3em" x="73.0625" y="18">50 (mM)</tspan></text></g></g></g><g class="annotation" data-index="1" style="opacity: 1;"><g class="annotation-text-g" transform="rotate(0,292.06000000000006,78)"><g class="cursor-pointer" transform="translate(219, 56)"><rect class="bg" x="0.5" y="0.5" width="145" height="43" style="stroke-width: 1px; stroke: rgb(0, 0, 0); stroke-opacity: 0; fill: rgb(0, 0, 0); fill-opacity: 0;"/><text class="annotation-text" text-anchor="middle" x="73.0625" y="18" style="font-family: 'Open Sans', verdana, arial, sans-serif; font-size: 16px; fill: rgb(68, 68, 68); fill-opacity: 1; white-space: pre;"><tspan class="line" dy="0em" x="73.0625" y="18">Initial Substrate: </tspan><tspan class="line" dy="1.3em" x="73.0625" y="18">100 (mM)</tspan></text></g></g></g><g class="annotation" data-index="2" style="opacity: 1;"><g class="annotation-text-g" transform="rotate(0,463,78)"><g class="cursor-pointer" transform="translate(390, 56)"><rect class="bg" x="0.5" y="0.5" width="145" height="43" style="stroke-width: 1px; stroke: rgb(0, 0, 0); stroke-opacity: 0; fill: rgb(0, 0, 0); fill-opacity: 0;"/><text class="annotation-text" text-anchor="middle" x="73.0625" y="18" style="font-family: 'Open Sans', verdana, arial, sans-serif; font-size: 16px; fill: rgb(68, 68, 68); fill-opacity: 1; white-space: pre;"><tspan class="line" dy="0em" x="73.0625" y="18">Initial Substrate: </tspan><tspan class="line" dy="1.3em" x="73.0625" y="18">250 (mM)</tspan></text></g></g></g><g class="annotation" data-index="3" style="opacity: 1;"><g class="annotation-text-g" transform="rotate(0,633.9399999999999,78)"><g class="cursor-pointer" transform="translate(561, 56)"><rect class="bg" x="0.5" y="0.5" width="145" height="43" style="stroke-width: 1px; stroke: rgb(0, 0, 0); stroke-opacity: 0; fill: rgb(0, 0, 0); fill-opacity: 0;"/><text class="annotation-text" text-anchor="middle" x="73.0625" y="18" style="font-family: 'Open Sans', verdana, arial, sans-serif; font-size: 16px; fill: rgb(68, 68, 68); fill-opacity: 1; white-space: pre;"><tspan class="line" dy="0em" x="73.0625" y="18">Initial Substrate: </tspan><tspan class="line" dy="1.3em" x="73.0625" y="18">500 (mM)</tspan></text></g></g></g><g class="annotation" data-index="4" style="opacity: 1;"><g class="annotation-text-g" transform="rotate(0,804.88,78)"><g class="cursor-pointer" transform="translate(732, 56)"><rect class="bg" x="0.5" y="0.5" width="145" height="43" style="stroke-width: 1px; stroke: rgb(0, 0, 0); stroke-opacity: 0; fill: rgb(0, 0, 0); fill-opacity: 0;"/><text class="annotation-text" text-anchor="middle" x="73.0625" y="18" style="font-family: 'Open Sans', verdana, arial, sans-serif; font-size: 16px; fill: rgb(68, 68, 68); fill-opacity: 1; white-space: pre;"><tspan class="line" dy="0em" x="73.0625" y="18">Initial Substrate: </tspan><tspan class="line" dy="1.3em" x="73.0625" y="18">1000 (mM)</tspan></text></g></g></g></g></svg>