<svg class="main-svg" xmlns="http://www.w3.org/2000/svg" xmlns:xlink="http://www.w3.org/1999/xlink" width="950" height="325" viewBox="0 0 950 325"><rect x="0" y="0" width="950" height="325" style="fill: rgb(255, 255, 255); fill-opacity: 1;"/><defs id="defs-109545"><g class="clips"><clipPath id="clip109545xyplot" class="plotclip"><rect width="130.24" height="145"/></clipPath><clipPath id="clip109545x2y2plot" class="plotclip"><rect width="130.23999999999998" height="145"/></clipPath><clipPath id="clip109545x3y3plot" class="plotclip"><rect width="130.24000000000004" height="145"/></clipPath><clipPath id="clip109545x4y4plot" class="plotclip"><rect width="130.24000000000004" height="145"/></clipPath><clipPath id="clip109545x5y5plot" class="plotclip"><rect width="130.23999999999992" height="145"/></clipPath><clipPath class="axesclip" id="clip109545x"><rect x="56" y="0" width="130.24" height="325"/></clipPath><clipPath class="axesclip" id="clip109545y"><rect x="0" y="100" width="950" height="145"/></clipPath><clipPath class="axesclip" id="clip109545xy"><rect x="56" y="100" width="130.24" height="145"/></clipPath><clipPath class="axesclip" id="clip109545y2"><rect x="0" y="100" width="950" height="145"/></clipPath><clipPath class="axesclip" id="clip109545xy2"><rect x="56" y="100" width="130.24" height="145"/></clipPath><clipPath class="axesclip" id="clip109545y3"><rect x="0" y="100" width="950" height="145"/></clipPath><clipPath class="axesclip" id="clip109545xy3"><rect x="56" y="100" width="130.24" height="145"/></clipPath><clipPath class="axesclip" id="clip109545y4"><rect x="0" y="100" width="950" height="145"/></clipPath><clipPath class="axesclip" id="clip109545xy4"><rect x="56" y="100" width="130.24" height="145"/></clipPath><clipPath class="axesclip" id="clip109545y5"><rect x="0" y="100" width="950" height="145"/></clipPath><clipPath class="axesclip" id="clip109545xy5"><rect x="56" y="100" width="130.24" height="145"/></clipPath><clipPath class="axesclip" id="clip109545x2"><rect x="226.94000000000003" y="0" width="130.23999999999998" height="325"/></clipPath><clipPath class="axesclip" id="clip109545x2y"><rect x="226.94000000000003" y="100" width="130.23999999999998" height="145"/></clipPath><clipPath class="axesclip" id="clip109545x2y2"><rect x="226.94000000000003" y="100" width="130.23999999999998" height="145"/></clipPath><clipPath class="axesclip" id="clip109545x2y3"><rect x="226.94000000000003" y="100" width="130.23999999999998" height="145"/></clipPath><clipPath class="axesclip" id="clip109545x2y4"><rect x="226.94000000000003" y="100" width="130.23999999999998" height="145"/></clipPath><clipPath class="axesclip" id="clip109545x2y5"><rect x="226.94000000000003" y="100" width="130.23999999999998" height="145"/></clipPath><clipPath class="axesclip" id="clip109545x3"><rect x="397.88000000000005" y="0" width="130.24000000000004" height="325"/></clipPath><clipPath class="axesclip" id="clip109545x3y"><rect x="397.88000000000005" y="100" width="130.24000000000004" height="145"/></clipPath><clipPath class="axesclip" id="clip109545x3y2"><rect x="397.88000000000005" y="100" width="130.24000000000004" height="145"/></clipPath><clipPath class="axesclip" id="clip109545x3y3"><rect x="397.88000000000005" y="100" width="130.24000000000004" height="145"/></clipPath><clipPath class="axesclip" id="clip109545x3y4"><rect x="397.88000000000005" y="100" width="130.24000000000004" height="145"/></clipPath><clipPath class="axesclip" id="clip109545x3y5"><rect x="397.88000000000005" y="100" width="130.24000000000004" height="145"/></clipPath><clipPath class="axesclip" id="clip109545x4"><rect x="568.82" y="0" width="130.24000000000004" height="325"/></clipPath><clipPath class="axesclip" id="clip109545x4y"><rect x="568.82" y="100" width="130.24000000000004" height="145"/></clipPath><clipPath class="axesclip" id="clip109545x4y2"><rect x="568.82" y="100" width="130.24000000000004" height="145"/></clipPath><clipPath class="axesclip" id="clip109545x4y3"><rect x="568.82" y="100" width="130.24000000000004" height="145"/></clipPath><clipPath class="axesclip" id="clip109545x4y4"><rect x="568.82" y="100" width="130.24000000000004" height="145"/></clipPath><clipPath class="axesclip" id="clip109545x4y5"><rect x="568.82" y="100" width="130.24000000000004" height="145"/></clipPath><clipPath class="axesclip" id="clip109545x5"><rect x="739.7600000000001" y="0" width="130.23999999999992" height="325"/></clipPath><clipPath class="axesclip" id="clip109545x5y"><rect x="739.7600000000001" y="100" width="130.23999999999992" height="145"/></clipPath><clipPath class="axesclip" id="clip109545x5y2"><rect x="739.7600000000001" y="100" width="130.23999999999992" height="145"/></clipPath><clipPath class="axesclip" id="clip109545x5y3"><rect x="739.7600000000001" y="100" width="130.23999999999992" height="145"/></clipPath><clipPath class="axesclip" id="clip109545x5y4"><rect x="739.7600000000001" y="100" width="130.23999999999992" height="145"/></clipPath><clipPath class="axesclip" id="clip109545x5y5"><rect x="739.7600000000001" y="100" width="130.23999999999992" height="145"/></clipPath></g><g class="gradients"/></defs><g class="bglayer"/><g class="layer-below"><g class="imagelayer"/><g class="shapelayer"/></g><g class="cartesianlayer"><g class="subplot xy"><g class="layer-subplot"><g class="shapelayer"/><g class="imagelayer"/></g><g class="gridlayer"><g class="x"/><g class="y"/></g><g class="zerolinelayer"/><path class="xlines-below"/><path class="ylines-below"/><g class="overlines-below"/><g class="xaxislayer-below"/><g class="yaxislayer-below"/><g class="overaxes-below"/><g class="plot" transform="translate(56, 100)" clip-path="url('#clip109545xyplot')"><g class="scatterlayer mlayer"><g class="trace scatter tracec9dbe8" style="stroke-miterlimit: 2; opacity: 1;"><g class="fills"/><g class="errorbars"/><g class="lines"><path class="js-line" d="M0,125.32L8.27,124.72L11.03,124.01L16.54,123.39L19.29,122.98L24.81,122.53L27.56,121.77L35.83,120.4L38.59,119.81L71.67,111.09L74.42,109.93L85.45,105.02L88.2,103.35L96.47,98.44L99.23,96.42L110.26,85.02L113.01,80.55L121.28,64.86L124.04,55.22L129.55,36.05L132.31,14.98" style="vector-effect: non-scaling-stroke; fill: none; stroke: rgb(141, 196, 71); stroke-opacity: 1; stroke-width: 2px; opacity: 1;"/></g><g class="points"/><g class="text"/></g><g class="trace scatter trace6d0d38" style="stroke-miterlimit: 2; opacity: 1;"><g class="fills"/><g class="errorbars"/><g class="lines"><path class="js-line" d="M0,136.71L46.86,135.18L49.62,135.02L66.15,134.25L68.91,133.96L93.72,132.21L96.47,131.93L104.74,131.82L107.5,130.76L110.26,131.35L113.01,130.13L121.28,129.23L124.04,126.75L129.55,124.71L132.31,122.26" style="vector-effect: non-scaling-stroke; fill: none; stroke: rgb(255, 85, 85); stroke-opacity: 1; stroke-width: 2px; opacity: 1;"/></g><g class="points"/><g class="text"/></g><g class="trace scatter tracecf5131" style="stroke-miterlimit: 2; opacity: 1;"><g class="fills"/><g class="errorbars"/><g class="lines"><path class="js-line" d="M0,134.4L30.32,131.49L33.08,131.12L52.37,128.16L55.13,127.62L71.67,123.33L74.42,122.42L82.69,119.21L85.45,117.93L93.72,113.13L96.47,111.14L101.99,106.54L104.74,103.52L107.5,100.38L110.26,96.06L115.77,86.17L118.53,79.35L124.04,63.18L126.79,50.98L129.55,36.41L132.31,13.18" style="vector-effect: non-scaling-stroke; fill: none; stroke: rgb(118, 209, 244); stroke-opacity: 1; stroke-width: 2px; opacity: 1;"/></g><g class="points"/><g class="text"/></g></g></g><g class="overplot"/><path class="xlines-above crisp" d="M55,245.5H187.24M55,99.5H187.24" style="fill: none; stroke-width: 1px; stroke: rgb(0, 0, 0); stroke-opacity: 1;"/><path class="ylines-above crisp" d="M55.5,100V245M186.74,100V245" style="fill: none; stroke-width: 1px; stroke: rgb(0, 0, 0); stroke-opacity: 1;"/><g class="overlines-above"/><g class="xaxislayer-above"><path class="xtick ticks crisp" d="M0,246v5" transform="translate(56,0)" style="stroke: rgb(68, 68, 68); stroke-opacity: 1; stroke-width: 1px;"/><path class="xtick ticks crisp" d="M0,246v5" transform="translate(99.41,0)" style="stroke: rgb(68, 68, 68); stroke-opacity: 1; stroke-width: 1px;"/><path class="xtick ticks crisp" d="M0,246v5" transform="translate(142.82999999999998,0)" style="stroke: rgb(68, 68, 68); stroke-opacity: 1; stroke-width: 1px;"/><path class="xtick ticks crisp" d="M0,246v5" transform="translate(186.24,0)" style="stroke: rgb(68, 68, 68); stroke-opacity: 1; stroke-width: 1px;"/><g class="xtick"><text text-anchor="middle" x="0" y="265.5" transform="translate(56,0)" style="font-family: 'Open Sans', verdana, arial, sans-serif; font-size: 12.5px; fill: rgb(0, 0, 0); fill-opacity: 1; white-space: pre;">10​<tspan style="font-size:70%" dy="-0.6em">−6</tspan><tspan dy="0.42em">​</tspan></text></g><g class="xtick"><text text-anchor="middle" x="0" y="265.5" transform="translate(99.41,0)" style="font-family: 'Open Sans', verdana, arial, sans-serif; font-size: 12.5px; fill: rgb(0, 0, 0); fill-opacity: 1; white-space: pre;">10​<tspan style="font-size:70%" dy="-0.6em">−4</tspan><tspan dy="0.42em">​</tspan></text></g><g class="xtick"><text text-anchor="middle" x="0" y="265.5" transform="translate(142.82999999999998,0)" style="font-family: 'Open Sans', verdana, arial, sans-serif; font-size: 12.5px; fill: rgb(0, 0, 0); fill-opacity: 1; white-space: pre;">10​<tspan style="font-size:70%" dy="-0.6em">−2</tspan><tspan dy="0.42em">​</tspan></text></g><g class="xtick"><text text-anchor="middle" x="0" y="265.5" transform="translate(186.24,0)" style="font-family: 'Open Sans', verdana, arial, sans-serif; font-size: 12.5px; fill: rgb(0, 0, 0); fill-opacity: 1; white-space: pre;">1</text></g></g><g class="yaxislayer-above"><path class="ytick ticks crisp" d="M55,0h-5" transform="translate(0,245)" style="stroke: rgb(68, 68, 68); stroke-opacity: 1; stroke-width: 1px;"/><path class="ytick ticks crisp" d="M55,0h-5" transform="translate(0,208.57)" style="stroke: rgb(68, 68, 68); stroke-opacity: 1; stroke-width: 1px;"/><path class="ytick ticks crisp" d="M55,0h-5" transform="translate(0,172.14)" style="stroke: rgb(68, 68, 68); stroke-opacity: 1; stroke-width: 1px;"/><path class="ytick ticks crisp" d="M55,0h-5" transform="translate(0,135.7)" style="stroke: rgb(68, 68, 68); stroke-opacity: 1; stroke-width: 1px;"/><g class="ytick"><text text-anchor="end" x="47.6" y="4.199999999999999" transform="translate(0,245)" style="font-family: 'Open Sans', verdana, arial, sans-serif; font-size: 12px; fill: rgb(0, 0, 0); fill-opacity: 1; white-space: pre;">0</text></g><g class="ytick"><text text-anchor="end" x="47.6" y="4.199999999999999" transform="translate(0,208.57)" style="font-family: 'Open Sans', verdana, arial, sans-serif; font-size: 12px; fill: rgb(0, 0, 0); fill-opacity: 1; white-space: pre;">5</text></g><g class="ytick"><text text-anchor="end" x="47.6" y="4.199999999999999" transform="translate(0,172.14)" style="font-family: 'Open Sans', verdana, arial, sans-serif; font-size: 12px; fill: rgb(0, 0, 0); fill-opacity: 1; white-space: pre;">10</text></g><g class="ytick"><text text-anchor="end" x="47.6" y="4.199999999999999" transform="translate(0,135.7)" style="font-family: 'Open Sans', verdana, arial, sans-serif; font-size: 12px; fill: rgb(0, 0, 0); fill-opacity: 1; white-space: pre;">15</text></g></g><g class="overaxes-above"/></g><g class="subplot x2y2"><g class="layer-subplot"><g class="shapelayer"/><g class="imagelayer"/></g><g class="gridlayer"><g class="x2"/><g class="y2"/></g><g class="zerolinelayer"/><path class="xlines-below"/><path class="ylines-below"/><g class="overlines-below"/><g class="xaxislayer-below"/><g class="yaxislayer-below"/><g class="overaxes-below"/><g class="plot" transform="translate(226.94000000000003, 100)" clip-path="url('#clip109545x2y2plot')"><g class="scatterlayer mlayer"><g class="trace scatter trace1f0a5a" style="stroke-miterlimit: 2; opacity: 1;"><g class="fills"/><g class="errorbars"/><g class="lines"><path class="js-line" d="M0,118.17L24.81,113.87L27.56,113.46L38.59,111.23L41.35,110.29L49.62,108.09L52.37,107.11L60.64,104.71L63.4,103.48L79.94,96.58L82.69,94.66L96.47,85.18L99.23,82.64L101.99,81.01L104.74,77.2L110.26,70.45L113.01,66.28L118.53,56.93L121.28,49.6L126.79,35.12L129.55,25.88L132.31,13.18" style="vector-effect: non-scaling-stroke; fill: none; stroke: rgb(141, 196, 71); stroke-opacity: 1; stroke-width: 2px; opacity: 1;"/></g><g class="points"/><g class="text"/></g><g class="trace scatter trace523a94" style="stroke-miterlimit: 2; opacity: 1;"><g class="fills"/><g class="errorbars"/><g class="lines"><path class="js-line" d="M0,133.6L13.78,133.16L16.54,133.05L30.32,132.17L33.08,132.11L49.62,131.24L52.37,131.05L63.4,130.33L66.15,131.09L68.91,129.98L71.67,129.92L79.94,129.49L82.69,128.79L85.45,129.02L88.2,128.49L101.99,127.35L104.74,126.22L118.53,125.18L121.28,123.59L126.79,121.11L129.55,120.84L132.31,125.75" style="vector-effect: non-scaling-stroke; fill: none; stroke: rgb(255, 85, 85); stroke-opacity: 1; stroke-width: 2px; opacity: 1;"/></g><g class="points"/><g class="text"/></g><g class="trace scatter trace3bd00b" style="stroke-miterlimit: 2; opacity: 1;"><g class="fills"/><g class="errorbars"/><g class="lines"><path class="js-line" d="M0,130.7L35.83,126.09L38.59,125.61L60.64,120.65L63.4,119.81L74.42,115.98L77.18,114.85L85.45,110.78L88.2,109.21L99.23,101.19L101.99,98.57L110.26,87.78L113.01,83.31L115.77,78.88L118.53,71.87L121.28,65.46L124.04,55.85L126.79,47.74L129.55,32.58L132.31,17.78" style="vector-effect: non-scaling-stroke; fill: none; stroke: rgb(118, 209, 244); stroke-opacity: 1; stroke-width: 2px; opacity: 1;"/></g><g class="points"/><g class="text"/></g></g></g><g class="overplot"/><path class="xlines-above crisp" d="M225.94000000000003,245.5H358.18M225.94000000000003,99.5H358.18" style="fill: none; stroke-width: 1px; stroke: rgb(0, 0, 0); stroke-opacity: 1;"/><path class="ylines-above crisp" d="M226.44000000000003,100V245M357.68,100V245" style="fill: none; stroke-width: 1px; stroke: rgb(0, 0, 0); stroke-opacity: 1;"/><g class="overlines-above"/><g class="xaxislayer-above"><path class="x2tick ticks crisp" d="M0,246v5" transform="translate(226.94000000000003,0)" style="stroke: rgb(68, 68, 68); stroke-opacity: 1; stroke-width: 1px;"/><path class="x2tick ticks crisp" d="M0,246v5" transform="translate(270.35,0)" style="stroke: rgb(68, 68, 68); stroke-opacity: 1; stroke-width: 1px;"/><path class="x2tick ticks crisp" d="M0,246v5" transform="translate(313.77000000000004,0)" style="stroke: rgb(68, 68, 68); stroke-opacity: 1; stroke-width: 1px;"/><path class="x2tick ticks crisp" d="M0,246v5" transform="translate(357.18000000000006,0)" style="stroke: rgb(68, 68, 68); stroke-opacity: 1; stroke-width: 1px;"/><g class="x2tick"><text text-anchor="middle" x="0" y="265.5" transform="translate(226.94000000000003,0)" style="font-family: 'Open Sans', verdana, arial, sans-serif; font-size: 12.5px; fill: rgb(0, 0, 0); fill-opacity: 1; white-space: pre;">10​<tspan style="font-size:70%" dy="-0.6em">−6</tspan><tspan dy="0.42em">​</tspan></text></g><g class="x2tick"><text text-anchor="middle" x="0" y="265.5" transform="translate(270.35,0)" style="font-family: 'Open Sans', verdana, arial, sans-serif; font-size: 12.5px; fill: rgb(0, 0, 0); fill-opacity: 1; white-space: pre;">10​<tspan style="font-size:70%" dy="-0.6em">−4</tspan><tspan dy="0.42em">​</tspan></text></g><g class="x2tick"><text text-anchor="middle" x="0" y="265.5" transform="translate(313.77000000000004,0)" style="font-family: 'Open Sans', verdana, arial, sans-serif; font-size: 12.5px; fill: rgb(0, 0, 0); fill-opacity: 1; white-space: pre;">10​<tspan style="font-size:70%" dy="-0.6em">−2</tspan><tspan dy="0.42em">​</tspan></text></g><g class="x2tick"><text text-anchor="middle" x="0" y="265.5" transform="translate(357.18000000000006,0)" style="font-family: 'Open Sans', verdana, arial, sans-serif; font-size: 12.5px; fill: rgb(0, 0, 0); fill-opacity: 1; white-space: pre;">1</text></g></g><g class="yaxislayer-above"><path class="y2tick ticks crisp" d="M225.94000000000003,0h-5" transform="translate(0,245)" style="stroke: rgb(68, 68, 68); stroke-opacity: 1; stroke-width: 1px;"/><path class="y2tick ticks crisp" d="M225.94000000000003,0h-5" transform="translate(0,193.51999999999998)" style="stroke: rgb(68, 68, 68); stroke-opacity: 1; stroke-width: 1px;"/><path class="y2tick ticks crisp" d="M225.94000000000003,0h-5" transform="translate(0,142.03)" style="stroke: rgb(68, 68, 68); stroke-opacity: 1; stroke-width: 1px;"/><g class="y2tick"><text text-anchor="end" x="218.54000000000002" y="4.199999999999999" transform="translate(0,245)" style="font-family: 'Open Sans', verdana, arial, sans-serif; font-size: 12px; fill: rgb(0, 0, 0); fill-opacity: 1; white-space: pre;">0</text></g><g class="y2tick"><text text-anchor="end" x="218.54000000000002" y="4.199999999999999" transform="translate(0,193.51999999999998)" style="font-family: 'Open Sans', verdana, arial, sans-serif; font-size: 12px; fill: rgb(0, 0, 0); fill-opacity: 1; white-space: pre;">10</text></g><g class="y2tick"><text text-anchor="end" x="218.54000000000002" y="4.199999999999999" transform="translate(0,142.03)" style="font-family: 'Open Sans', verdana, arial, sans-serif; font-size: 12px; fill: rgb(0, 0, 0); fill-opacity: 1; white-space: pre;">20</text></g></g><g class="overaxes-above"/></g><g class="subplot x3y3"><g class="layer-subplot"><g class="shapelayer"/><g class="imagelayer"/></g><g class="gridlayer"><g class="x3"/><g class="y3"/></g><g class="zerolinelayer"/><path class="xlines-below"/><path class="ylines-below"/><g class="overlines-below"/><g class="xaxislayer-below"/><g class="yaxislayer-below"/><g class="overaxes-below"/><g class="plot" transform="translate(397.88000000000005, 100)" clip-path="url('#clip109545x3y3plot')"><g class="scatterlayer mlayer"><g class="trace scatter trace73723e" style="stroke-miterlimit: 2; opacity: 1;"><g class="fills"/><g class="errorbars"/><g class="lines"><path class="js-line" d="M0,112.38L2.76,112.31L5.51,111.37L13.78,109.56L16.54,108.68L24.81,107.41L27.56,106.78L35.83,104.31L38.59,103.59L57.88,97.29L60.64,95.98L77.18,88.53L79.94,86.81L82.69,85.64L85.45,83.47L93.72,77.83L96.47,75.4L101.99,70.61L104.74,68.02L118.53,48.91L121.28,43.55L124.04,38.41L126.79,30.33L132.31,13.18" style="vector-effect: non-scaling-stroke; fill: none; stroke: rgb(141, 196, 71); stroke-opacity: 1; stroke-width: 2px; opacity: 1;"/></g><g class="points"/><g class="text"/></g><g class="trace scatter tracefd2694" style="stroke-miterlimit: 2; opacity: 1;"><g class="fills"/><g class="errorbars"/><g class="lines"><path class="js-line" d="M0,130.56L13.78,129.81L16.54,129.88L27.56,129.84L30.32,128.92L44.1,128.18L46.86,127.87L68.91,126.42L71.67,126.03L93.72,123.87L96.47,123.29L110.26,122.54L113.01,120.93L115.77,121.48L118.53,120.24L124.04,119.22L126.79,117.21L132.31,117.36" style="vector-effect: non-scaling-stroke; fill: none; stroke: rgb(255, 85, 85); stroke-opacity: 1; stroke-width: 2px; opacity: 1;"/></g><g class="points"/><g class="text"/></g><g class="trace scatter trace92c7ed" style="stroke-miterlimit: 2; opacity: 1;"><g class="fills"/><g class="errorbars"/><g class="lines"><path class="js-line" d="M0,127.45L24.81,124.1L27.56,123.62L46.86,119.89L49.62,119.17L63.4,115.49L66.15,114.46L79.94,108.88L82.69,107.51L93.72,101.06L96.47,98.78L101.99,94.07L104.74,91.25L113.01,81.26L115.77,77.13L124.04,59.63L126.79,51.34L132.31,31.47" style="vector-effect: non-scaling-stroke; fill: none; stroke: rgb(118, 209, 244); stroke-opacity: 1; stroke-width: 2px; opacity: 1;"/></g><g class="points"/><g class="text"/></g></g></g><g class="overplot"/><path class="xlines-above crisp" d="M396.88000000000005,245.5H529.1200000000001M396.88000000000005,99.5H529.1200000000001" style="fill: none; stroke-width: 1px; stroke: rgb(0, 0, 0); stroke-opacity: 1;"/><path class="ylines-above crisp" d="M397.38000000000005,100V245M528.6200000000001,100V245" style="fill: none; stroke-width: 1px; stroke: rgb(0, 0, 0); stroke-opacity: 1;"/><g class="overlines-above"/><g class="xaxislayer-above"><path class="x3tick ticks crisp" d="M0,246v5" transform="translate(397.88000000000005,0)" style="stroke: rgb(68, 68, 68); stroke-opacity: 1; stroke-width: 1px;"/><path class="x3tick ticks crisp" d="M0,246v5" transform="translate(441.2900000000001,0)" style="stroke: rgb(68, 68, 68); stroke-opacity: 1; stroke-width: 1px;"/><path class="x3tick ticks crisp" d="M0,246v5" transform="translate(484.71000000000004,0)" style="stroke: rgb(68, 68, 68); stroke-opacity: 1; stroke-width: 1px;"/><path class="x3tick ticks crisp" d="M0,246v5" transform="translate(528.1200000000001,0)" style="stroke: rgb(68, 68, 68); stroke-opacity: 1; stroke-width: 1px;"/><g class="x3tick"><text text-anchor="middle" x="0" y="265.5" transform="translate(397.88000000000005,0)" style="font-family: 'Open Sans', verdana, arial, sans-serif; font-size: 12.5px; fill: rgb(0, 0, 0); fill-opacity: 1; white-space: pre;">10​<tspan style="font-size:70%" dy="-0.6em">−6</tspan><tspan dy="0.42em">​</tspan></text></g><g class="x3tick"><text text-anchor="middle" x="0" y="265.5" transform="translate(441.2900000000001,0)" style="font-family: 'Open Sans', verdana, arial, sans-serif; font-size: 12.5px; fill: rgb(0, 0, 0); fill-opacity: 1; white-space: pre;">10​<tspan style="font-size:70%" dy="-0.6em">−4</tspan><tspan dy="0.42em">​</tspan></text></g><g class="x3tick"><text text-anchor="middle" x="0" y="265.5" transform="translate(484.71000000000004,0)" style="font-family: 'Open Sans', verdana, arial, sans-serif; font-size: 12.5px; fill: rgb(0, 0, 0); fill-opacity: 1; white-space: pre;">10​<tspan style="font-size:70%" dy="-0.6em">−2</tspan><tspan dy="0.42em">​</tspan></text></g><g class="x3tick"><text text-anchor="middle" x="0" y="265.5" transform="translate(528.1200000000001,0)" style="font-family: 'Open Sans', verdana, arial, sans-serif; font-size: 12.5px; fill: rgb(0, 0, 0); fill-opacity: 1; white-space: pre;">1</text></g></g><g class="yaxislayer-above"><path class="y3tick ticks crisp" d="M396.88000000000005,0h-5" transform="translate(0,245)" style="stroke: rgb(68, 68, 68); stroke-opacity: 1; stroke-width: 1px;"/><path class="y3tick ticks crisp" d="M396.88000000000005,0h-5" transform="translate(0,191.51999999999998)" style="stroke: rgb(68, 68, 68); stroke-opacity: 1; stroke-width: 1px;"/><path class="y3tick ticks crisp" d="M396.88000000000005,0h-5" transform="translate(0,138.05)" style="stroke: rgb(68, 68, 68); stroke-opacity: 1; stroke-width: 1px;"/><g class="y3tick"><text text-anchor="end" x="389.4800000000001" y="4.199999999999999" transform="translate(0,245)" style="font-family: 'Open Sans', verdana, arial, sans-serif; font-size: 12px; fill: rgb(0, 0, 0); fill-opacity: 1; white-space: pre;">0</text></g><g class="y3tick"><text text-anchor="end" x="389.4800000000001" y="4.199999999999999" transform="translate(0,191.51999999999998)" style="font-family: 'Open Sans', verdana, arial, sans-serif; font-size: 12px; fill: rgb(0, 0, 0); fill-opacity: 1; white-space: pre;">20</text></g><g class="y3tick"><text text-anchor="end" x="389.4800000000001" y="4.199999999999999" transform="translate(0,138.05)" style="font-family: 'Open Sans', verdana, arial, sans-serif; font-size: 12px; fill: rgb(0, 0, 0); fill-opacity: 1; white-space: pre;">40</text></g></g><g class="overaxes-above"/></g><g class="subplot x4y4"><g class="layer-subplot"><g class="shapelayer"/><g class="imagelayer"/></g><g class="gridlayer"><g class="x4"/><g class="y4"/></g><g class="zerolinelayer"/><path class="xlines-below"/><path class="ylines-below"/><g class="overlines-below"/><g class="xaxislayer-below"/><g class="yaxislayer-below"/><g class="overaxes-below"/><g class="plot" transform="translate(568.82, 100)" clip-path="url('#clip109545x4y4plot')"><g class="scatterlayer mlayer"><g class="trace scatter trace1a13d9" style="stroke-miterlimit: 2; opacity: 1;"><g class="fills"/><g class="errorbars"/><g class="lines"><path class="js-line" d="M0,106.89L8.27,105.89L11.03,105.19L13.78,106.2L16.54,103.57L22.05,102.27L24.81,101.52L27.56,100.65L30.32,100.93L35.83,98.77L38.59,97.73L57.88,91.06L60.64,89.63L66.15,88.18L68.91,86.14L90.96,72.86L93.72,70.48L101.99,63.4L104.74,60.66L113.01,50.79L115.77,47.27L121.28,37.78L124.04,31.94L126.79,27.18L129.55,19.16L132.31,13.18" style="vector-effect: non-scaling-stroke; fill: none; stroke: rgb(141, 196, 71); stroke-opacity: 1; stroke-width: 2px; opacity: 1;"/></g><g class="points"/><g class="text"/></g><g class="trace scatter trace72390f" style="stroke-miterlimit: 2; opacity: 1;"><g class="fills"/><g class="errorbars"/><g class="lines"><path class="js-line" d="M0,128.09L33.08,126.25L35.83,126.19L52.37,124.79L55.13,124.58L63.4,123.98L66.15,124.01L68.91,124.14L71.67,123L74.42,123.9L77.18,122.81L85.45,121.67L88.2,121.78L93.72,120.5L96.47,120.5L101.99,119.37L104.74,121.06L107.5,118.38L110.26,117.96L129.55,115.84L132.31,114.38" style="vector-effect: non-scaling-stroke; fill: none; stroke: rgb(255, 85, 85); stroke-opacity: 1; stroke-width: 2px; opacity: 1;"/></g><g class="points"/><g class="text"/></g><g class="trace scatter trace1a278f" style="stroke-miterlimit: 2; opacity: 1;"><g class="fills"/><g class="errorbars"/><g class="lines"><path class="js-line" d="M0,124.94L33.08,119.89L35.83,119.27L60.64,113.01L63.4,112.14L77.18,106.81L79.94,105.39L90.96,99.35L93.72,97.49L101.99,91.18L104.74,88.29L113.01,79.24L115.77,75.33L121.28,66.19L124.04,60.1L129.55,46.04L132.31,36.99" style="vector-effect: non-scaling-stroke; fill: none; stroke: rgb(118, 209, 244); stroke-opacity: 1; stroke-width: 2px; opacity: 1;"/></g><g class="points"/><g class="text"/></g></g></g><g class="overplot"/><path class="xlines-above crisp" d="M567.82,245.5H700.0600000000001M567.82,99.5H700.0600000000001" style="fill: none; stroke-width: 1px; stroke: rgb(0, 0, 0); stroke-opacity: 1;"/><path class="ylines-above crisp" d="M568.32,100V245M699.5600000000001,100V245" style="fill: none; stroke-width: 1px; stroke: rgb(0, 0, 0); stroke-opacity: 1;"/><g class="overlines-above"/><g class="xaxislayer-above"><path class="x4tick ticks crisp" d="M0,246v5" transform="translate(568.82,0)" style="stroke: rgb(68, 68, 68); stroke-opacity: 1; stroke-width: 1px;"/><path class="x4tick ticks crisp" d="M0,246v5" transform="translate(612.23,0)" style="stroke: rgb(68, 68, 68); stroke-opacity: 1; stroke-width: 1px;"/><path class="x4tick ticks crisp" d="M0,246v5" transform="translate(655.6500000000001,0)" style="stroke: rgb(68, 68, 68); stroke-opacity: 1; stroke-width: 1px;"/><path class="x4tick ticks crisp" d="M0,246v5" transform="translate(699.0600000000001,0)" style="stroke: rgb(68, 68, 68); stroke-opacity: 1; stroke-width: 1px;"/><g class="x4tick"><text text-anchor="middle" x="0" y="265.5" transform="translate(568.82,0)" style="font-family: 'Open Sans', verdana, arial, sans-serif; font-size: 12.5px; fill: rgb(0, 0, 0); fill-opacity: 1; white-space: pre;">10​<tspan style="font-size:70%" dy="-0.6em">−6</tspan><tspan dy="0.42em">​</tspan></text></g><g class="x4tick"><text text-anchor="middle" x="0" y="265.5" transform="translate(612.23,0)" style="font-family: 'Open Sans', verdana, arial, sans-serif; font-size: 12.5px; fill: rgb(0, 0, 0); fill-opacity: 1; white-space: pre;">10​<tspan style="font-size:70%" dy="-0.6em">−4</tspan><tspan dy="0.42em">​</tspan></text></g><g class="x4tick"><text text-anchor="middle" x="0" y="265.5" transform="translate(655.6500000000001,0)" style="font-family: 'Open Sans', verdana, arial, sans-serif; font-size: 12.5px; fill: rgb(0, 0, 0); fill-opacity: 1; white-space: pre;">10​<tspan style="font-size:70%" dy="-0.6em">−2</tspan><tspan dy="0.42em">​</tspan></text></g><g class="x4tick"><text text-anchor="middle" x="0" y="265.5" transform="translate(699.0600000000001,0)" style="font-family: 'Open Sans', verdana, arial, sans-serif; font-size: 12.5px; fill: rgb(0, 0, 0); fill-opacity: 1; white-space: pre;">1</text></g></g><g class="yaxislayer-above"><path class="y4tick ticks crisp" d="M567.82,0h-5" transform="translate(0,245)" style="stroke: rgb(68, 68, 68); stroke-opacity: 1; stroke-width: 1px;"/><path class="y4tick ticks crisp" d="M567.82,0h-5" transform="translate(0,213.15)" style="stroke: rgb(68, 68, 68); stroke-opacity: 1; stroke-width: 1px;"/><path class="y4tick ticks crisp" d="M567.82,0h-5" transform="translate(0,181.3)" style="stroke: rgb(68, 68, 68); stroke-opacity: 1; stroke-width: 1px;"/><path class="y4tick ticks crisp" d="M567.82,0h-5" transform="translate(0,149.44)" style="stroke: rgb(68, 68, 68); stroke-opacity: 1; stroke-width: 1px;"/><path class="y4tick ticks crisp" d="M567.82,0h-5" transform="translate(0,117.59)" style="stroke: rgb(68, 68, 68); stroke-opacity: 1; stroke-width: 1px;"/><g class="y4tick"><text text-anchor="end" x="560.4200000000001" y="4.199999999999999" transform="translate(0,245)" style="font-family: 'Open Sans', verdana, arial, sans-serif; font-size: 12px; fill: rgb(0, 0, 0); fill-opacity: 1; white-space: pre;">0</text></g><g class="y4tick"><text text-anchor="end" x="560.4200000000001" y="4.199999999999999" transform="translate(0,213.15)" style="font-family: 'Open Sans', verdana, arial, sans-serif; font-size: 12px; fill: rgb(0, 0, 0); fill-opacity: 1; white-space: pre;">20</text></g><g class="y4tick"><text text-anchor="end" x="560.4200000000001" y="4.199999999999999" transform="translate(0,181.3)" style="font-family: 'Open Sans', verdana, arial, sans-serif; font-size: 12px; fill: rgb(0, 0, 0); fill-opacity: 1; white-space: pre;">40</text></g><g class="y4tick"><text text-anchor="end" x="560.4200000000001" y="4.199999999999999" transform="translate(0,149.44)" style="font-family: 'Open Sans', verdana, arial, sans-serif; font-size: 12px; fill: rgb(0, 0, 0); fill-opacity: 1; white-space: pre;">60</text></g><g class="y4tick"><text text-anchor="end" x="560.4200000000001" y="4.199999999999999" transform="translate(0,117.59)" style="font-family: 'Open Sans', verdana, arial, sans-serif; font-size: 12px; fill: rgb(0, 0, 0); fill-opacity: 1; white-space: pre;">80</text></g></g><g class="overaxes-above"/></g><g class="subplot x5y5"><g class="layer-subplot"><g class="shapelayer"/><g class="imagelayer"/></g><g class="gridlayer"><g class="x5"/><g class="y5"/></g><g class="zerolinelayer"/><path class="xlines-below"/><path class="ylines-below"/><g class="overlines-below"/><g class="xaxislayer-below"/><g class="yaxislayer-below"/><g class="overaxes-below"/><g class="plot" transform="translate(739.7600000000001, 100)" clip-path="url('#clip109545x5y5plot')"><g class="scatterlayer mlayer"><g class="trace scatter tracea6ad82" style="stroke-miterlimit: 2; opacity: 1;"><g class="fills"/><g class="errorbars"/><g class="lines"><path class="js-line" d="M0,103.86L22.05,97.83L24.81,97.47L30.32,95.82L33.08,95.03L44.1,92.01L46.86,90.75L55.13,87.84L57.88,86.46L60.64,85.99L63.4,83.66L71.67,80.11L74.42,78.72L93.72,66.2L96.47,64.11L101.99,58.96L104.74,56.39L118.53,40.23L121.28,35.15L126.79,26.08L129.55,19.62L132.31,13.18" style="vector-effect: non-scaling-stroke; fill: none; stroke: rgb(141, 196, 71); stroke-opacity: 1; stroke-width: 2px; opacity: 1;"/></g><g class="points"/><g class="text"/></g><g class="trace scatter trace8c92b4" style="stroke-miterlimit: 2; opacity: 1;"><g class="fills"/><g class="errorbars"/><g class="lines"><path class="js-line" d="M0,126.4L8.27,125.51L11.03,125.66L22.05,125.13L24.81,124.66L30.32,124.62L33.08,124.83L38.59,123.74L41.35,123.58L63.4,122.26L66.15,121.37L71.67,121.33L74.42,123.38L77.18,120.84L79.94,120.49L85.45,119.31L88.2,119.56L90.96,118.65L93.72,118.59L101.99,116.81L104.74,116.87L107.5,116.16L110.26,116.89L113.01,115.13L115.77,115.42L118.53,115.37L121.28,113.4L124.04,113.56L126.79,112.9L132.31,110.81" style="vector-effect: non-scaling-stroke; fill: none; stroke: rgb(255, 85, 85); stroke-opacity: 1; stroke-width: 2px; opacity: 1;"/></g><g class="points"/><g class="text"/></g><g class="trace scatter traceb616a3" style="stroke-miterlimit: 2; opacity: 1;"><g class="fills"/><g class="errorbars"/><g class="lines"><path class="js-line" d="M0,123.17L35.83,117.27L38.59,116.64L60.64,110.9L63.4,110.06L77.18,104.68L79.94,103.61L88.2,99.28L90.96,97.61L99.23,92.07L101.99,89.72L113.01,79.16L115.77,75.67L121.28,67.15L124.04,62.41L129.55,51.82L132.31,44.51" style="vector-effect: non-scaling-stroke; fill: none; stroke: rgb(118, 209, 244); stroke-opacity: 1; stroke-width: 2px; opacity: 1;"/></g><g class="points"/><g class="text"/></g></g></g><g class="overplot"/><path class="xlines-above crisp" d="M738.7600000000001,245.5H871M738.7600000000001,99.5H871" style="fill: none; stroke-width: 1px; stroke: rgb(0, 0, 0); stroke-opacity: 1;"/><path class="ylines-above crisp" d="M739.2600000000001,100V245M870.5,100V245" style="fill: none; stroke-width: 1px; stroke: rgb(0, 0, 0); stroke-opacity: 1;"/><g class="overlines-above"/><g class="xaxislayer-above"><path class="x5tick ticks crisp" d="M0,246v5" transform="translate(739.7600000000001,0)" style="stroke: rgb(68, 68, 68); stroke-opacity: 1; stroke-width: 1px;"/><path class="x5tick ticks crisp" d="M0,246v5" transform="translate(783.1700000000001,0)" style="stroke: rgb(68, 68, 68); stroke-opacity: 1; stroke-width: 1px;"/><path class="x5tick ticks crisp" d="M0,246v5" transform="translate(826.5900000000001,0)" style="stroke: rgb(68, 68, 68); stroke-opacity: 1; stroke-width: 1px;"/><path class="x5tick ticks crisp" d="M0,246v5" transform="translate(870.0000000000001,0)" style="stroke: rgb(68, 68, 68); stroke-opacity: 1; stroke-width: 1px;"/><g class="x5tick"><text text-anchor="middle" x="0" y="265.5" transform="translate(739.7600000000001,0)" style="font-family: 'Open Sans', verdana, arial, sans-serif; font-size: 12.5px; fill: rgb(0, 0, 0); fill-opacity: 1; white-space: pre;">10​<tspan style="font-size:70%" dy="-0.6em">−6</tspan><tspan dy="0.42em">​</tspan></text></g><g class="x5tick"><text text-anchor="middle" x="0" y="265.5" transform="translate(783.1700000000001,0)" style="font-family: 'Open Sans', verdana, arial, sans-serif; font-size: 12.5px; fill: rgb(0, 0, 0); fill-opacity: 1; white-space: pre;">10​<tspan style="font-size:70%" dy="-0.6em">−4</tspan><tspan dy="0.42em">​</tspan></text></g><g class="x5tick"><text text-anchor="middle" x="0" y="265.5" transform="translate(826.5900000000001,0)" style="font-family: 'Open Sans', verdana, arial, sans-serif; font-size: 12.5px; fill: rgb(0, 0, 0); fill-opacity: 1; white-space: pre;">10​<tspan style="font-size:70%" dy="-0.6em">−2</tspan><tspan dy="0.42em">​</tspan></text></g><g class="x5tick"><text text-anchor="middle" x="0" y="265.5" transform="translate(870.0000000000001,0)" style="font-family: 'Open Sans', verdana, arial, sans-serif; font-size: 12.5px; fill: rgb(0, 0, 0); fill-opacity: 1; white-space: pre;">1</text></g></g><g class="yaxislayer-above"><path class="y5tick ticks crisp" d="M738.7600000000001,0h-5" transform="translate(0,245)" style="stroke: rgb(68, 68, 68); stroke-opacity: 1; stroke-width: 1px;"/><path class="y5tick ticks crisp" d="M738.7600000000001,0h-5" transform="translate(0,199.92000000000002)" style="stroke: rgb(68, 68, 68); stroke-opacity: 1; stroke-width: 1px;"/><path class="y5tick ticks crisp" d="M738.7600000000001,0h-5" transform="translate(0,154.82999999999998)" style="stroke: rgb(68, 68, 68); stroke-opacity: 1; stroke-width: 1px;"/><path class="y5tick ticks crisp" d="M738.7600000000001,0h-5" transform="translate(0,109.75)" style="stroke: rgb(68, 68, 68); stroke-opacity: 1; stroke-width: 1px;"/><g class="y5tick"><text text-anchor="end" x="731.3600000000001" y="4.199999999999999" transform="translate(0,245)" style="font-family: 'Open Sans', verdana, arial, sans-serif; font-size: 12px; fill: rgb(0, 0, 0); fill-opacity: 1; white-space: pre;">0</text></g><g class="y5tick"><text text-anchor="end" x="731.3600000000001" y="4.199999999999999" transform="translate(0,199.92000000000002)" style="font-family: 'Open Sans', verdana, arial, sans-serif; font-size: 12px; fill: rgb(0, 0, 0); fill-opacity: 1; white-space: pre;">50</text></g><g class="y5tick"><text text-anchor="end" x="731.3600000000001" y="4.199999999999999" transform="translate(0,154.82999999999998)" style="font-family: 'Open Sans', verdana, arial, sans-serif; font-size: 12px; fill: rgb(0, 0, 0); fill-opacity: 1; white-space: pre;">100</text></g><g class="y5tick"><text text-anchor="end" x="731.3600000000001" y="4.199999999999999" transform="translate(0,109.75)" style="font-family: 'Open Sans', verdana, arial, sans-serif; font-size: 12px; fill: rgb(0, 0, 0); fill-opacity: 1; white-space: pre;">150</text></g></g><g class="overaxes-above"/></g></g><g class="polarlayer"/><g class="ternarylayer"/><g class="geolayer"/><g class="funnelarealayer"/><g class="pielayer"/><g class="treemaplayer"/><g class="sunburstlayer"/><g class="glimages"/><defs id="topdefs-109545"><g class="clips"/></defs><g class="layer-above"><g class="imagelayer"/><g class="shapelayer"/></g><g class="infolayer"><g class="g-gtitle"/><g class="g-xtitle"><text class="xtitle" x="121.12" y="291.390625" text-anchor="middle" style="font-family: 'Open Sans', verdana, arial, sans-serif; font-size: 12px; fill: rgb(0, 0, 0); opacity: 1; font-weight: normal; white-space: pre;"><tspan class="line" dy="0em" x="121.12" y="291.390625">Initial Biomass</tspan><tspan class="line" dy="1.3em" x="121.12" y="291.390625">Concentration (g/L)</tspan></text></g><g class="g-x2title"><text class="x2title" x="292.06" y="291.390625" text-anchor="middle" style="font-family: 'Open Sans', verdana, arial, sans-serif; font-size: 12px; fill: rgb(0, 0, 0); opacity: 1; font-weight: normal; white-space: pre;"><tspan class="line" dy="0em" x="292.06" y="291.390625">Initial Biomass</tspan><tspan class="line" dy="1.3em" x="292.06" y="291.390625">Concentration (g/L)</tspan></text></g><g class="g-x3title"><text class="x3title" x="463.00000000000006" y="291.390625" text-anchor="middle" style="font-family: 'Open Sans', verdana, arial, sans-serif; font-size: 12px; fill: rgb(0, 0, 0); opacity: 1; font-weight: normal; white-space: pre;"><tspan class="line" dy="0em" x="463.00000000000006" y="291.390625">Initial Biomass</tspan><tspan class="line" dy="1.3em" x="463.00000000000006" y="291.390625">Concentration (g/L)</tspan></text></g><g class="g-x4title"><text class="x4title" x="633.94" y="291.390625" text-anchor="middle" style="font-family: 'Open Sans', verdana, arial, sans-serif; font-size: 12px; fill: rgb(0, 0, 0); opacity: 1; font-weight: normal; white-space: pre;"><tspan class="line" dy="0em" x="633.94" y="291.390625">Initial Biomass</tspan><tspan class="line" dy="1.3em" x="633.94" y="291.390625">Concentration (g/L)</tspan></text></g><g class="g-x5title"><text class="x5title" x="804.8800000000001" y="291.390625" text-anchor="middle" style="font-family: 'Open Sans', verdana, arial, sans-serif; font-size: 12px; fill: rgb(0, 0, 0); opacity: 1; font-weight: normal; white-space: pre;"><tspan class="line" dy="0em" x="804.8800000000001" y="291.390625">Initial Biomass</tspan><tspan class="line" dy="1.3em" x="804.8800000000001" y="291.390625">Concentration (g/L)</tspan></text></g><g class="g-ytitle" transform="translate(3.671875,0)"><text class="ytitle" transform="rotate(-90,8.328125,172.5)" x="8.328125" y="172.5" text-anchor="middle" style="font-family: 'Open Sans', verdana, arial, sans-serif; font-size: 12px; fill: rgb(0, 0, 0); opacity: 1; font-weight: normal; white-space: pre;"><tspan class="line" dy="0em" x="8.328125" y="172.5">Productivity</tspan><tspan class="line" dy="1.3em" x="8.328125" y="172.5">(mmol/L.h)</tspan></text></g><g class="g-y2title"/><g class="g-y3title"/><g class="g-y4title"/><g class="g-y5title"/><g class="annotation" data-index="0" style="opacity: 1;"><g class="annotation-text-g" transform="rotate(0,121.12,78)"><g class="cursor-pointer" transform="translate(48, 56)"><rect class="bg" x="0.5" y="0.5" width="145" height="43" style="stroke-width: 1px; stroke: rgb(0, 0, 0); stroke-opacity: 0; fill: rgb(0, 0, 0); fill-opacity: 0;"/><text class="annotation-text" text-anchor="middle" x="73.0625" y="18" style="font-family: 'Open Sans', verdana, arial, sans-serif; font-size: 16px; fill: rgb(68, 68, 68); fill-opacity: 1; white-space: pre;"><tspan class="line" dy="0em" x="73.0625" y="18">Initial Substrate: </tspan><tspan class="line" dy="1.3em" x="73.0625" y="18">50 (mM)</tspan></text></g></g></g><g class="annotation" data-index="1" style="opacity: 1;"><g class="annotation-text-g" transform="rotate(0,292.06000000000006,78)"><g class="cursor-pointer" transform="translate(219, 56)"><rect class="bg" x="0.5" y="0.5" width="145" height="43" style="stroke-width: 1px; stroke: rgb(0, 0, 0); stroke-opacity: 0; fill: rgb(0, 0, 0); fill-opacity: 0;"/><text class="annotation-text" text-anchor="middle" x="73.0625" y="18" style="font-family: 'Open Sans', verdana, arial, sans-serif; font-size: 16px; fill: rgb(68, 68, 68); fill-opacity: 1; white-space: pre;"><tspan class="line" dy="0em" x="73.0625" y="18">Initial Substrate: </tspan><tspan class="line" dy="1.3em" x="73.0625" y="18">100 (mM)</tspan></text></g></g></g><g class="annotation" data-index="2" style="opacity: 1;"><g class="annotation-text-g" transform="rotate(0,463,78)"><g class="cursor-pointer" transform="translate(390, 56)"><rect class="bg" x="0.5" y="0.5" width="145" height="43" style="stroke-width: 1px; stroke: rgb(0, 0, 0); stroke-opacity: 0; fill: rgb(0, 0, 0); fill-opacity: 0;"/><text class="annotation-text" text-anchor="middle" x="73.0625" y="18" style="font-family: 'Open Sans', verdana, arial, sans-serif; font-size: 16px; fill: rgb(68, 68, 68); fill-opacity: 1; white-space: pre;"><tspan class="line" dy="0em" x="73.0625" y="18">Initial Substrate: </tspan><tspan class="line" dy="1.3em" x="73.0625" y="18">250 (mM)</tspan></text></g></g></g><g class="annotation" data-index="3" style="opacity: 1;"><g class="annotation-text-g" transform="rotate(0,633.9399999999999,78)"><g class="cursor-pointer" transform="translate(561, 56)"><rect class="bg" x="0.5" y="0.5" width="145" height="43" style="stroke-width: 1px; stroke: rgb(0, 0, 0); stroke-opacity: 0; fill: rgb(0, 0, 0); fill-opacity: 0;"/><text class="annotation-text" text-anchor="middle" x="73.0625" y="18" style="font-family: 'Open Sans', verdana, arial, sans-serif; font-size: 16px; fill: rgb(68, 68, 68); fill-opacity: 1; white-space: pre;"><tspan class="line" dy="0em" x="73.0625" y="18">Initial Substrate: </tspan><tspan class="line" dy="1.3em" x="73.0625" y="18">500 (mM)</tspan></text></g></g></g><g class="annotation" data-index="4" style="opacity: 1;"><g class="annotation-text-g" transform="rotate(0,804.88,78)"><g class="cursor-pointer" transform="translate(732, 56)"><rect class="bg" x="0.5" y="0.5" width="145" height="43" style="stroke-width: 1px; stroke: rgb(0, 0, 0); stroke-opacity: 0; fill: rgb(0, 0, 0); fill-opacity: 0;"/><text class="annotation-text" text-anchor="middle" x="73.0625" y="18" style="font-family: 'Open Sans', verdana, arial, sans-serif; font-size: 16px; fill: rgb(68, 68, 68); fill-opacity: 1; white-space: pre;"><tspan class="line" dy="0em" x="73.0625" y="18">Initial Substrate: </tspan><tspan class="line" dy="1.3em" x="73.0625" y="18">1000 (mM)</tspan></text></g></g></g></g></svg>