<svg class="main-svg" xmlns="http://www.w3.org/2000/svg" xmlns:xlink="http://www.w3.org/1999/xlink" width="950" height="325" viewBox="0 0 950 325"><rect x="0" y="0" width="950" height="325" style="fill: rgb(255, 255, 255); fill-opacity: 1;"/><defs id="defs-01ac05"><g class="clips"><clipPath id="clip01ac05xyplot" class="plotclip"><rect width="130.24" height="145"/></clipPath><clipPath id="clip01ac05x2y2plot" class="plotclip"><rect width="130.23999999999998" height="145"/></clipPath><clipPath id="clip01ac05x3y3plot" class="plotclip"><rect width="130.24000000000004" height="145"/></clipPath><clipPath id="clip01ac05x4y4plot" class="plotclip"><rect width="130.24000000000004" height="145"/></clipPath><clipPath id="clip01ac05x5y5plot" class="plotclip"><rect width="130.23999999999992" height="145"/></clipPath><clipPath class="axesclip" id="clip01ac05x"><rect x="56" y="0" width="130.24" height="325"/></clipPath><clipPath class="axesclip" id="clip01ac05y"><rect x="0" y="100" width="950" height="145"/></clipPath><clipPath class="axesclip" id="clip01ac05xy"><rect x="56" y="100" width="130.24" height="145"/></clipPath><clipPath class="axesclip" id="clip01ac05y2"><rect x="0" y="100" width="950" height="145"/></clipPath><clipPath class="axesclip" id="clip01ac05xy2"><rect x="56" y="100" width="130.24" height="145"/></clipPath><clipPath class="axesclip" id="clip01ac05y3"><rect x="0" y="100" width="950" height="145"/></clipPath><clipPath class="axesclip" id="clip01ac05xy3"><rect x="56" y="100" width="130.24" height="145"/></clipPath><clipPath class="axesclip" id="clip01ac05y4"><rect x="0" y="100" width="950" height="145"/></clipPath><clipPath class="axesclip" id="clip01ac05xy4"><rect x="56" y="100" width="130.24" height="145"/></clipPath><clipPath class="axesclip" id="clip01ac05y5"><rect x="0" y="100" width="950" height="145"/></clipPath><clipPath class="axesclip" id="clip01ac05xy5"><rect x="56" y="100" width="130.24" height="145"/></clipPath><clipPath class="axesclip" id="clip01ac05x2"><rect x="226.94000000000003" y="0" width="130.23999999999998" height="325"/></clipPath><clipPath class="axesclip" id="clip01ac05x2y"><rect x="226.94000000000003" y="100" width="130.23999999999998" height="145"/></clipPath><clipPath class="axesclip" id="clip01ac05x2y2"><rect x="226.94000000000003" y="100" width="130.23999999999998" height="145"/></clipPath><clipPath class="axesclip" id="clip01ac05x2y3"><rect x="226.94000000000003" y="100" width="130.23999999999998" height="145"/></clipPath><clipPath class="axesclip" id="clip01ac05x2y4"><rect x="226.94000000000003" y="100" width="130.23999999999998" height="145"/></clipPath><clipPath class="axesclip" id="clip01ac05x2y5"><rect x="226.94000000000003" y="100" width="130.23999999999998" height="145"/></clipPath><clipPath class="axesclip" id="clip01ac05x3"><rect x="397.88000000000005" y="0" width="130.24000000000004" height="325"/></clipPath><clipPath class="axesclip" id="clip01ac05x3y"><rect x="397.88000000000005" y="100" width="130.24000000000004" height="145"/></clipPath><clipPath class="axesclip" id="clip01ac05x3y2"><rect x="397.88000000000005" y="100" width="130.24000000000004" height="145"/></clipPath><clipPath class="axesclip" id="clip01ac05x3y3"><rect x="397.88000000000005" y="100" width="130.24000000000004" height="145"/></clipPath><clipPath class="axesclip" id="clip01ac05x3y4"><rect x="397.88000000000005" y="100" width="130.24000000000004" height="145"/></clipPath><clipPath class="axesclip" id="clip01ac05x3y5"><rect x="397.88000000000005" y="100" width="130.24000000000004" height="145"/></clipPath><clipPath class="axesclip" id="clip01ac05x4"><rect x="568.82" y="0" width="130.24000000000004" height="325"/></clipPath><clipPath class="axesclip" id="clip01ac05x4y"><rect x="568.82" y="100" width="130.24000000000004" height="145"/></clipPath><clipPath class="axesclip" id="clip01ac05x4y2"><rect x="568.82" y="100" width="130.24000000000004" height="145"/></clipPath><clipPath class="axesclip" id="clip01ac05x4y3"><rect x="568.82" y="100" width="130.24000000000004" height="145"/></clipPath><clipPath class="axesclip" id="clip01ac05x4y4"><rect x="568.82" y="100" width="130.24000000000004" height="145"/></clipPath><clipPath class="axesclip" id="clip01ac05x4y5"><rect x="568.82" y="100" width="130.24000000000004" height="145"/></clipPath><clipPath class="axesclip" id="clip01ac05x5"><rect x="739.7600000000001" y="0" width="130.23999999999992" height="325"/></clipPath><clipPath class="axesclip" id="clip01ac05x5y"><rect x="739.7600000000001" y="100" width="130.23999999999992" height="145"/></clipPath><clipPath class="axesclip" id="clip01ac05x5y2"><rect x="739.7600000000001" y="100" width="130.23999999999992" height="145"/></clipPath><clipPath class="axesclip" id="clip01ac05x5y3"><rect x="739.7600000000001" y="100" width="130.23999999999992" height="145"/></clipPath><clipPath class="axesclip" id="clip01ac05x5y4"><rect x="739.7600000000001" y="100" width="130.23999999999992" height="145"/></clipPath><clipPath class="axesclip" id="clip01ac05x5y5"><rect x="739.7600000000001" y="100" width="130.23999999999992" height="145"/></clipPath></g><g class="gradients"/></defs><g class="bglayer"/><g class="layer-below"><g class="imagelayer"/><g class="shapelayer"/></g><g class="cartesianlayer"><g class="subplot xy"><g class="layer-subplot"><g class="shapelayer"/><g class="imagelayer"/></g><g class="gridlayer"><g class="x"/><g class="y"/></g><g class="zerolinelayer"/><path class="xlines-below"/><path class="ylines-below"/><g class="overlines-below"/><g class="xaxislayer-below"/><g class="yaxislayer-below"/><g class="overaxes-below"/><g class="plot" transform="translate(56, 100)" clip-path="url('#clip01ac05xyplot')"><g class="scatterlayer mlayer"><g class="trace scatter trace0dbb90" style="stroke-miterlimit: 2; opacity: 1;"><g class="fills"/><g class="errorbars"/><g class="lines"><path class="js-line" d="M1.3,143.02L10.42,132.09L11.72,130.69L35.16,105.62L36.47,104.28L53.4,87.41L54.7,85.97L56,85.22L57.31,83.38L61.21,79.61L62.52,78.26L76.84,64.54L78.14,63.39L79.45,62.69L80.75,60.9L84.66,56.76L85.96,55.83L91.17,50.74L92.47,49.85L95.08,46.97L96.38,45.63L97.68,43.97L98.98,43.96L101.59,40.47L102.89,39.04L104.19,38.42L105.49,36.96L108.1,33.69L109.4,34.16L110.7,31.7L112.01,31.08L113.31,28.9L114.61,28.88L121.12,22.1L122.43,21.34L123.73,21.49L125.03,18.25L127.64,15.92L128.94,14.16L130.24,13.18" style="vector-effect: non-scaling-stroke; fill: none; stroke: rgb(141, 196, 71); stroke-opacity: 1; stroke-width: 2px; opacity: 1;"/></g><g class="points"/><g class="text"/></g><g class="trace scatter traceee66fa" style="stroke-miterlimit: 2; opacity: 1;"><g class="fills"/><g class="errorbars"/><g class="lines"><path class="js-line" d="M1.3,144.41L16.93,137.89L18.23,137.61L23.44,135.33L24.75,134.9L39.07,129.44L40.37,129.21L48.19,125.62L49.49,125.33L53.4,123.82L54.7,123.72L56,122.66L57.31,122.77L62.52,120.41L63.82,120.86L66.42,118.73L67.72,118.25L74.24,115.54L75.54,115.75L79.45,113.9L80.75,113.26L88.56,110.32L89.87,110.19L95.08,108.03L96.38,107.87L100.28,105.75L101.59,106.31L104.19,104.42L105.49,104.34L108.1,103.53L109.4,102.41L112.01,101.34L113.31,102.48L114.61,100.5L115.91,100.88L119.82,98.71L121.12,99.46L125.03,96.82L126.33,96.66L127.64,98.43L128.94,95.19L130.24,96.09" style="vector-effect: non-scaling-stroke; fill: none; stroke: rgb(255, 85, 85); stroke-opacity: 1; stroke-width: 2px; opacity: 1;"/></g><g class="points"/><g class="text"/></g><g class="trace scatter tracea73d26" style="stroke-miterlimit: 2; opacity: 1;"><g class="fills"/><g class="errorbars"/><g class="lines"><path class="js-line" d="M1.3,143.69L11.72,136.21L13.02,135.39L37.77,120.14L39.07,119.47L46.89,114.77L48.19,114.12L91.17,90L92.47,89.35L98.98,85.59L100.28,85.14L114.61,77.18L115.91,76.69L130.24,68.87" style="vector-effect: non-scaling-stroke; fill: none; stroke: rgb(118, 209, 244); stroke-opacity: 1; stroke-width: 2px; opacity: 1;"/></g><g class="points"/><g class="text"/></g></g></g><g class="overplot"/><path class="xlines-above crisp" d="M55,245.5H187.24M55,99.5H187.24" style="fill: none; stroke-width: 1px; stroke: rgb(0, 0, 0); stroke-opacity: 1;"/><path class="ylines-above crisp" d="M55.5,100V245M186.74,100V245" style="fill: none; stroke-width: 1px; stroke: rgb(0, 0, 0); stroke-opacity: 1;"/><g class="overlines-above"/><g class="xaxislayer-above"><path class="xtick ticks crisp" d="M0,246v5" transform="translate(56,0)" style="stroke: rgb(68, 68, 68); stroke-opacity: 1; stroke-width: 1px;"/><path class="xtick ticks crisp" d="M0,246v5" transform="translate(121.12,0)" style="stroke: rgb(68, 68, 68); stroke-opacity: 1; stroke-width: 1px;"/><path class="xtick ticks crisp" d="M0,246v5" transform="translate(186.24,0)" style="stroke: rgb(68, 68, 68); stroke-opacity: 1; stroke-width: 1px;"/><g class="xtick"><text text-anchor="middle" x="0" y="263" transform="translate(56,0)" style="font-family: 'Open Sans', verdana, arial, sans-serif; font-size: 10px; fill: rgb(0, 0, 0); fill-opacity: 1; white-space: pre;">0</text></g><g class="xtick"><text text-anchor="middle" x="0" y="263" transform="translate(121.12,0)" style="font-family: 'Open Sans', verdana, arial, sans-serif; font-size: 10px; fill: rgb(0, 0, 0); fill-opacity: 1; white-space: pre;">500</text></g><g class="xtick"><text text-anchor="middle" x="0" y="263" transform="translate(186.24,0)" style="font-family: 'Open Sans', verdana, arial, sans-serif; font-size: 10px; fill: rgb(0, 0, 0); fill-opacity: 1; white-space: pre;">1000</text></g></g><g class="yaxislayer-above"><path class="ytick ticks crisp" d="M55,0h-5" transform="translate(0,245)" style="stroke: rgb(68, 68, 68); stroke-opacity: 1; stroke-width: 1px;"/><path class="ytick ticks crisp" d="M55,0h-5" transform="translate(0,206.44)" style="stroke: rgb(68, 68, 68); stroke-opacity: 1; stroke-width: 1px;"/><path class="ytick ticks crisp" d="M55,0h-5" transform="translate(0,167.88)" style="stroke: rgb(68, 68, 68); stroke-opacity: 1; stroke-width: 1px;"/><path class="ytick ticks crisp" d="M55,0h-5" transform="translate(0,129.32)" style="stroke: rgb(68, 68, 68); stroke-opacity: 1; stroke-width: 1px;"/><g class="ytick"><text text-anchor="end" x="47.6" y="4.199999999999999" transform="translate(0,245)" style="font-family: 'Open Sans', verdana, arial, sans-serif; font-size: 12px; fill: rgb(0, 0, 0); fill-opacity: 1; white-space: pre;">0</text></g><g class="ytick"><text text-anchor="end" x="47.6" y="4.199999999999999" transform="translate(0,206.44)" style="font-family: 'Open Sans', verdana, arial, sans-serif; font-size: 12px; fill: rgb(0, 0, 0); fill-opacity: 1; white-space: pre;">20</text></g><g class="ytick"><text text-anchor="end" x="47.6" y="4.199999999999999" transform="translate(0,167.88)" style="font-family: 'Open Sans', verdana, arial, sans-serif; font-size: 12px; fill: rgb(0, 0, 0); fill-opacity: 1; white-space: pre;">40</text></g><g class="ytick"><text text-anchor="end" x="47.6" y="4.199999999999999" transform="translate(0,129.32)" style="font-family: 'Open Sans', verdana, arial, sans-serif; font-size: 12px; fill: rgb(0, 0, 0); fill-opacity: 1; white-space: pre;">60</text></g></g><g class="overaxes-above"/></g><g class="subplot x2y2"><g class="layer-subplot"><g class="shapelayer"/><g class="imagelayer"/></g><g class="gridlayer"><g class="x2"/><g class="y2"/></g><g class="zerolinelayer"/><path class="xlines-below"/><path class="ylines-below"/><g class="overlines-below"/><g class="xaxislayer-below"/><g class="yaxislayer-below"/><g class="overaxes-below"/><g class="plot" transform="translate(226.94000000000003, 100)" clip-path="url('#clip01ac05x2y2plot')"><g class="scatterlayer mlayer"><g class="trace scatter traceb010fd" style="stroke-miterlimit: 2; opacity: 1;"><g class="fills"/><g class="errorbars"/><g class="lines"><path class="js-line" d="M1.3,142.72L10.42,131.32L11.72,129.91L31.26,108.75L32.56,107.39L40.37,99.3L41.68,98.1L65.12,74.69L66.42,72.97L87.26,52.98L88.56,52.6L91.17,49.3L92.47,48.83L95.08,45.34L96.38,44.08L97.68,42.75L98.98,42.66L108.1,33.15L109.4,32.8L110.7,30.39L112.01,30.02L115.91,26.05L117.22,25.1L121.12,20.41L122.43,19.9L123.73,19.43L125.03,18.14L126.33,16.17L127.64,16.24L130.24,13.18" style="vector-effect: non-scaling-stroke; fill: none; stroke: rgb(141, 196, 71); stroke-opacity: 1; stroke-width: 2px; opacity: 1;"/></g><g class="points"/><g class="text"/></g><g class="trace scatter trace782b54" style="stroke-miterlimit: 2; opacity: 1;"><g class="fills"/><g class="errorbars"/><g class="lines"><path class="js-line" d="M1.3,144.41L20.84,136.93L22.14,136.61L39.07,130.38L40.37,130.04L44.28,128.56L45.58,128.25L50.79,126.13L52.1,125.62L53.4,125.98L54.7,124.72L57.31,124.92L58.61,123.89L59.91,122.89L61.21,122.88L63.82,121.91L65.12,120.98L70.33,119.39L71.63,118.88L82.05,115.37L83.35,114.64L85.96,114.38L87.26,113.53L89.87,112.44L91.17,112L95.08,110.57L96.38,110.96L98.98,109.21L100.28,109.47L104.19,107.49L105.49,108.81L106.8,106.73L108.1,106.91L112.01,104.91L113.31,104.49L114.61,105.34L115.91,103.59L117.22,102.8L118.52,103.37L121.12,101.71L122.43,102.06L125.03,100.3L126.33,100.22L127.64,100.92L128.94,99.2L130.24,99.37" style="vector-effect: non-scaling-stroke; fill: none; stroke: rgb(255, 85, 85); stroke-opacity: 1; stroke-width: 2px; opacity: 1;"/></g><g class="points"/><g class="text"/></g><g class="trace scatter tracec91bf5" style="stroke-miterlimit: 2; opacity: 1;"><g class="fills"/><g class="errorbars"/><g class="lines"><path class="js-line" d="M1.3,143.3L9.12,136.87L10.42,135.93L28.65,123.47L29.96,122.73L70.33,98.06L71.63,97.46L87.26,88.24L88.56,87.57L108.1,76.74L109.4,76.01L114.61,73.11L115.91,72.45L118.52,70.93L119.82,70.41L126.33,66.4L127.64,66.01L130.24,64.33" style="vector-effect: non-scaling-stroke; fill: none; stroke: rgb(118, 209, 244); stroke-opacity: 1; stroke-width: 2px; opacity: 1;"/></g><g class="points"/><g class="text"/></g></g></g><g class="overplot"/><path class="xlines-above crisp" d="M225.94000000000003,245.5H358.18M225.94000000000003,99.5H358.18" style="fill: none; stroke-width: 1px; stroke: rgb(0, 0, 0); stroke-opacity: 1;"/><path class="ylines-above crisp" d="M226.44000000000003,100V245M357.68,100V245" style="fill: none; stroke-width: 1px; stroke: rgb(0, 0, 0); stroke-opacity: 1;"/><g class="overlines-above"/><g class="xaxislayer-above"><path class="x2tick ticks crisp" d="M0,246v5" transform="translate(226.94000000000003,0)" style="stroke: rgb(68, 68, 68); stroke-opacity: 1; stroke-width: 1px;"/><path class="x2tick ticks crisp" d="M0,246v5" transform="translate(292.06000000000006,0)" style="stroke: rgb(68, 68, 68); stroke-opacity: 1; stroke-width: 1px;"/><path class="x2tick ticks crisp" d="M0,246v5" transform="translate(357.18000000000006,0)" style="stroke: rgb(68, 68, 68); stroke-opacity: 1; stroke-width: 1px;"/><g class="x2tick"><text text-anchor="middle" x="0" y="263" transform="translate(226.94000000000003,0)" style="font-family: 'Open Sans', verdana, arial, sans-serif; font-size: 10px; fill: rgb(0, 0, 0); fill-opacity: 1; white-space: pre;">0</text></g><g class="x2tick"><text text-anchor="middle" x="0" y="263" transform="translate(292.06000000000006,0)" style="font-family: 'Open Sans', verdana, arial, sans-serif; font-size: 10px; fill: rgb(0, 0, 0); fill-opacity: 1; white-space: pre;">500</text></g><g class="x2tick"><text text-anchor="middle" x="0" y="263" transform="translate(357.18000000000006,0)" style="font-family: 'Open Sans', verdana, arial, sans-serif; font-size: 10px; fill: rgb(0, 0, 0); fill-opacity: 1; white-space: pre;">1000</text></g></g><g class="yaxislayer-above"><path class="y2tick ticks crisp" d="M225.94000000000003,0h-5" transform="translate(0,245)" style="stroke: rgb(68, 68, 68); stroke-opacity: 1; stroke-width: 1px;"/><path class="y2tick ticks crisp" d="M225.94000000000003,0h-5" transform="translate(0,212.67000000000002)" style="stroke: rgb(68, 68, 68); stroke-opacity: 1; stroke-width: 1px;"/><path class="y2tick ticks crisp" d="M225.94000000000003,0h-5" transform="translate(0,180.34)" style="stroke: rgb(68, 68, 68); stroke-opacity: 1; stroke-width: 1px;"/><path class="y2tick ticks crisp" d="M225.94000000000003,0h-5" transform="translate(0,148.01)" style="stroke: rgb(68, 68, 68); stroke-opacity: 1; stroke-width: 1px;"/><path class="y2tick ticks crisp" d="M225.94000000000003,0h-5" transform="translate(0,115.68)" style="stroke: rgb(68, 68, 68); stroke-opacity: 1; stroke-width: 1px;"/><g class="y2tick"><text text-anchor="end" x="218.54000000000002" y="4.199999999999999" transform="translate(0,245)" style="font-family: 'Open Sans', verdana, arial, sans-serif; font-size: 12px; fill: rgb(0, 0, 0); fill-opacity: 1; white-space: pre;">0</text></g><g class="y2tick"><text text-anchor="end" x="218.54000000000002" y="4.199999999999999" transform="translate(0,212.67000000000002)" style="font-family: 'Open Sans', verdana, arial, sans-serif; font-size: 12px; fill: rgb(0, 0, 0); fill-opacity: 1; white-space: pre;">20</text></g><g class="y2tick"><text text-anchor="end" x="218.54000000000002" y="4.199999999999999" transform="translate(0,180.34)" style="font-family: 'Open Sans', verdana, arial, sans-serif; font-size: 12px; fill: rgb(0, 0, 0); fill-opacity: 1; white-space: pre;">40</text></g><g class="y2tick"><text text-anchor="end" x="218.54000000000002" y="4.199999999999999" transform="translate(0,148.01)" style="font-family: 'Open Sans', verdana, arial, sans-serif; font-size: 12px; fill: rgb(0, 0, 0); fill-opacity: 1; white-space: pre;">60</text></g><g class="y2tick"><text text-anchor="end" x="218.54000000000002" y="4.199999999999999" transform="translate(0,115.68)" style="font-family: 'Open Sans', verdana, arial, sans-serif; font-size: 12px; fill: rgb(0, 0, 0); fill-opacity: 1; white-space: pre;">80</text></g></g><g class="overaxes-above"/></g><g class="subplot x3y3"><g class="layer-subplot"><g class="shapelayer"/><g class="imagelayer"/></g><g class="gridlayer"><g class="x3"/><g class="y3"/></g><g class="zerolinelayer"/><path class="xlines-below"/><path class="ylines-below"/><g class="overlines-below"/><g class="xaxislayer-below"/><g class="yaxislayer-below"/><g class="overaxes-below"/><g class="plot" transform="translate(397.88000000000005, 100)" clip-path="url('#clip01ac05x3y3plot')"><g class="scatterlayer mlayer"><g class="trace scatter traceb8abd6" style="stroke-miterlimit: 2; opacity: 1;"><g class="fills"/><g class="errorbars"/><g class="lines"><path class="js-line" d="M1.3,142.32L7.81,133.65L9.12,132.11L27.35,111.94L28.65,110.49L56,82.27L57.31,81.63L62.52,76.38L63.82,75.06L69.03,69.98L70.33,69.02L74.24,65.05L75.54,63.67L85.96,54.01L87.26,52.94L88.56,50.86L89.87,50.22L92.47,47.38L93.77,46L102.89,38L104.19,37.48L108.1,33.02L109.4,32.46L115.91,26.32L117.22,25.27L122.43,19.76L123.73,19.49L126.33,15.96L127.64,15.18L130.24,13.18" style="vector-effect: non-scaling-stroke; fill: none; stroke: rgb(141, 196, 71); stroke-opacity: 1; stroke-width: 2px; opacity: 1;"/></g><g class="points"/><g class="text"/></g><g class="trace scatter tracecf1d17" style="stroke-miterlimit: 2; opacity: 1;"><g class="fills"/><g class="errorbars"/><g class="lines"><path class="js-line" d="M1.3,144.4L20.84,137.33L22.14,137.22L26.05,135.6L27.35,135.15L35.16,132.55L36.47,133.69L37.77,131.69L39.07,131.18L46.89,128.77L48.19,128.36L50.79,127.5L52.1,127.28L54.7,126.26L56,126.6L59.91,124.26L61.21,124.18L83.35,117.21L84.66,117.53L85.96,116.03L87.26,115.7L91.17,114.96L92.47,114.41L101.59,111.19L102.89,110.44L105.49,109.73L106.8,109.34L108.1,109.44L109.4,108.6L110.7,111.95L112.01,107.84L113.31,107.18L114.61,108.86L115.91,106.49L117.22,106.47L118.52,106.57L119.82,105.36L121.12,105.26L122.43,104.31L123.73,104.05L125.03,104.9L126.33,103.94L127.64,104.02L130.24,102.04" style="vector-effect: non-scaling-stroke; fill: none; stroke: rgb(255, 85, 85); stroke-opacity: 1; stroke-width: 2px; opacity: 1;"/></g><g class="points"/><g class="text"/></g><g class="trace scatter traced93f65" style="stroke-miterlimit: 2; opacity: 1;"><g class="fills"/><g class="errorbars"/><g class="lines"><path class="js-line" d="M1.3,142.64L7.81,136.57L9.12,135.57L24.75,124.02L26.05,123.11L50.79,106.79L52.1,106.09L57.31,102.87L58.61,102.05L80.75,88.72L82.05,87.66L96.38,79.35L97.68,78.46L121.12,65.18L122.43,64.7L126.33,62.48L127.64,61.56L130.24,59.96" style="vector-effect: non-scaling-stroke; fill: none; stroke: rgb(118, 209, 244); stroke-opacity: 1; stroke-width: 2px; opacity: 1;"/></g><g class="points"/><g class="text"/></g></g></g><g class="overplot"/><path class="xlines-above crisp" d="M396.88000000000005,245.5H529.1200000000001M396.88000000000005,99.5H529.1200000000001" style="fill: none; stroke-width: 1px; stroke: rgb(0, 0, 0); stroke-opacity: 1;"/><path class="ylines-above crisp" d="M397.38000000000005,100V245M528.6200000000001,100V245" style="fill: none; stroke-width: 1px; stroke: rgb(0, 0, 0); stroke-opacity: 1;"/><g class="overlines-above"/><g class="xaxislayer-above"><path class="x3tick ticks crisp" d="M0,246v5" transform="translate(397.88000000000005,0)" style="stroke: rgb(68, 68, 68); stroke-opacity: 1; stroke-width: 1px;"/><path class="x3tick ticks crisp" d="M0,246v5" transform="translate(463.00000000000006,0)" style="stroke: rgb(68, 68, 68); stroke-opacity: 1; stroke-width: 1px;"/><path class="x3tick ticks crisp" d="M0,246v5" transform="translate(528.1200000000001,0)" style="stroke: rgb(68, 68, 68); stroke-opacity: 1; stroke-width: 1px;"/><g class="x3tick"><text text-anchor="middle" x="0" y="263" transform="translate(397.88000000000005,0)" style="font-family: 'Open Sans', verdana, arial, sans-serif; font-size: 10px; fill: rgb(0, 0, 0); fill-opacity: 1; white-space: pre;">0</text></g><g class="x3tick"><text text-anchor="middle" x="0" y="263" transform="translate(463.00000000000006,0)" style="font-family: 'Open Sans', verdana, arial, sans-serif; font-size: 10px; fill: rgb(0, 0, 0); fill-opacity: 1; white-space: pre;">500</text></g><g class="x3tick"><text text-anchor="middle" x="0" y="263" transform="translate(528.1200000000001,0)" style="font-family: 'Open Sans', verdana, arial, sans-serif; font-size: 10px; fill: rgb(0, 0, 0); fill-opacity: 1; white-space: pre;">1000</text></g></g><g class="yaxislayer-above"><path class="y3tick ticks crisp" d="M396.88000000000005,0h-5" transform="translate(0,245)" style="stroke: rgb(68, 68, 68); stroke-opacity: 1; stroke-width: 1px;"/><path class="y3tick ticks crisp" d="M396.88000000000005,0h-5" transform="translate(0,175.65)" style="stroke: rgb(68, 68, 68); stroke-opacity: 1; stroke-width: 1px;"/><path class="y3tick ticks crisp" d="M396.88000000000005,0h-5" transform="translate(0,106.3)" style="stroke: rgb(68, 68, 68); stroke-opacity: 1; stroke-width: 1px;"/><g class="y3tick"><text text-anchor="end" x="389.4800000000001" y="4.199999999999999" transform="translate(0,245)" style="font-family: 'Open Sans', verdana, arial, sans-serif; font-size: 12px; fill: rgb(0, 0, 0); fill-opacity: 1; white-space: pre;">0</text></g><g class="y3tick"><text text-anchor="end" x="389.4800000000001" y="4.199999999999999" transform="translate(0,175.65)" style="font-family: 'Open Sans', verdana, arial, sans-serif; font-size: 12px; fill: rgb(0, 0, 0); fill-opacity: 1; white-space: pre;">50</text></g><g class="y3tick"><text text-anchor="end" x="389.4800000000001" y="4.199999999999999" transform="translate(0,106.3)" style="font-family: 'Open Sans', verdana, arial, sans-serif; font-size: 12px; fill: rgb(0, 0, 0); fill-opacity: 1; white-space: pre;">100</text></g></g><g class="overaxes-above"/></g><g class="subplot x4y4"><g class="layer-subplot"><g class="shapelayer"/><g class="imagelayer"/></g><g class="gridlayer"><g class="x4"/><g class="y4"/></g><g class="zerolinelayer"/><path class="xlines-below"/><path class="ylines-below"/><g class="overlines-below"/><g class="xaxislayer-below"/><g class="yaxislayer-below"/><g class="overaxes-below"/><g class="plot" transform="translate(568.82, 100)" clip-path="url('#clip01ac05x4y4plot')"><g class="scatterlayer mlayer"><g class="trace scatter trace87eddd" style="stroke-miterlimit: 2; opacity: 1;"><g class="fills"/><g class="errorbars"/><g class="lines"><path class="js-line" d="M1.3,141.92L10.42,129.97L11.72,128.35L36.47,101.44L37.77,100.31L42.98,94.96L44.28,93.42L45.58,92.85L46.89,91.25L52.1,86.89L53.4,84.41L58.61,79.7L59.91,78.35L65.12,73.29L66.42,71.96L71.63,67.08L72.93,66.21L75.54,62.93L76.84,62.09L79.45,60.29L80.75,58.14L84.66,55.78L85.96,53.54L97.68,42.44L98.98,41.62L104.19,36.11L105.49,35.51L110.7,30.62L112.01,28.75L114.61,26.72L115.91,25.15L118.52,23.39L119.82,22.04L123.73,19.15L125.03,18.13L126.33,17.14L127.64,14.89L128.94,13.28L130.24,13.18" style="vector-effect: non-scaling-stroke; fill: none; stroke: rgb(141, 196, 71); stroke-opacity: 1; stroke-width: 2px; opacity: 1;"/></g><g class="points"/><g class="text"/></g><g class="trace scatter trace982f3a" style="stroke-miterlimit: 2; opacity: 1;"><g class="fills"/><g class="errorbars"/><g class="lines"><path class="js-line" d="M1.3,144.38L11.72,140.63L13.02,141.12L14.33,139.73L15.63,139.45L24.75,136.31L26.05,137.4L27.35,135.39L28.65,134.99L48.19,128.87L49.49,130.22L50.79,127.97L52.1,127.53L63.82,123.78L65.12,124.62L66.42,123.05L67.72,123.03L71.63,121.56L72.93,121.29L75.54,120.2L76.84,120.02L79.45,119.03L80.75,119.4L82.05,119.4L83.35,118.21L85.96,117.37L87.26,117.08L88.56,116.2L89.87,116.46L91.17,118.23L92.47,115.17L96.38,113.81L97.68,114.53L98.98,114.96L100.28,113.72L101.59,112.33L102.89,112.22L108.1,111.43L109.4,110.37L112.01,108.92L113.31,109.25L115.91,107.88L117.22,109.31L118.52,107.32L119.82,111.81L121.12,106.41L122.43,107.34L123.73,105.4L125.03,106.04L126.33,106.94L127.64,104.31L130.24,103.64" style="vector-effect: non-scaling-stroke; fill: none; stroke: rgb(255, 85, 85); stroke-opacity: 1; stroke-width: 2px; opacity: 1;"/></g><g class="points"/><g class="text"/></g><g class="trace scatter trace7f9dd9" style="stroke-miterlimit: 2; opacity: 1;"><g class="fills"/><g class="errorbars"/><g class="lines"><path class="js-line" d="M1.3,142.16L6.51,136.92L7.81,135.78L19.54,126.33L20.84,125.6L27.35,120.84L28.65,119.99L36.47,114.4L37.77,113.68L44.28,109.33L45.58,108.52L56,101.99L57.31,101.12L65.12,95.86L66.42,95.31L70.33,92.98L71.63,92.31L75.54,89.55L76.84,89.11L82.05,85.59L83.35,85.28L93.77,78.99L95.08,78.26L97.68,76.28L98.98,75.86L102.89,73.2L104.19,72.82L108.1,70.17L109.4,69.81L121.12,62.58L122.43,62.5L125.03,60.67L126.33,60.14L128.94,58.28L130.24,57.61" style="vector-effect: non-scaling-stroke; fill: none; stroke: rgb(118, 209, 244); stroke-opacity: 1; stroke-width: 2px; opacity: 1;"/></g><g class="points"/><g class="text"/></g></g></g><g class="overplot"/><path class="xlines-above crisp" d="M567.82,245.5H700.0600000000001M567.82,99.5H700.0600000000001" style="fill: none; stroke-width: 1px; stroke: rgb(0, 0, 0); stroke-opacity: 1;"/><path class="ylines-above crisp" d="M568.32,100V245M699.5600000000001,100V245" style="fill: none; stroke-width: 1px; stroke: rgb(0, 0, 0); stroke-opacity: 1;"/><g class="overlines-above"/><g class="xaxislayer-above"><path class="x4tick ticks crisp" d="M0,246v5" transform="translate(568.82,0)" style="stroke: rgb(68, 68, 68); stroke-opacity: 1; stroke-width: 1px;"/><path class="x4tick ticks crisp" d="M0,246v5" transform="translate(633.94,0)" style="stroke: rgb(68, 68, 68); stroke-opacity: 1; stroke-width: 1px;"/><path class="x4tick ticks crisp" d="M0,246v5" transform="translate(699.0600000000001,0)" style="stroke: rgb(68, 68, 68); stroke-opacity: 1; stroke-width: 1px;"/><g class="x4tick"><text text-anchor="middle" x="0" y="263" transform="translate(568.82,0)" style="font-family: 'Open Sans', verdana, arial, sans-serif; font-size: 10px; fill: rgb(0, 0, 0); fill-opacity: 1; white-space: pre;">0</text></g><g class="x4tick"><text text-anchor="middle" x="0" y="263" transform="translate(633.94,0)" style="font-family: 'Open Sans', verdana, arial, sans-serif; font-size: 10px; fill: rgb(0, 0, 0); fill-opacity: 1; white-space: pre;">500</text></g><g class="x4tick"><text text-anchor="middle" x="0" y="263" transform="translate(699.0600000000001,0)" style="font-family: 'Open Sans', verdana, arial, sans-serif; font-size: 10px; fill: rgb(0, 0, 0); fill-opacity: 1; white-space: pre;">1000</text></g></g><g class="yaxislayer-above"><path class="y4tick ticks crisp" d="M567.82,0h-5" transform="translate(0,245)" style="stroke: rgb(68, 68, 68); stroke-opacity: 1; stroke-width: 1px;"/><path class="y4tick ticks crisp" d="M567.82,0h-5" transform="translate(0,180.67000000000002)" style="stroke: rgb(68, 68, 68); stroke-opacity: 1; stroke-width: 1px;"/><path class="y4tick ticks crisp" d="M567.82,0h-5" transform="translate(0,116.34)" style="stroke: rgb(68, 68, 68); stroke-opacity: 1; stroke-width: 1px;"/><g class="y4tick"><text text-anchor="end" x="560.4200000000001" y="4.199999999999999" transform="translate(0,245)" style="font-family: 'Open Sans', verdana, arial, sans-serif; font-size: 12px; fill: rgb(0, 0, 0); fill-opacity: 1; white-space: pre;">0</text></g><g class="y4tick"><text text-anchor="end" x="560.4200000000001" y="4.199999999999999" transform="translate(0,180.67000000000002)" style="font-family: 'Open Sans', verdana, arial, sans-serif; font-size: 12px; fill: rgb(0, 0, 0); fill-opacity: 1; white-space: pre;">50</text></g><g class="y4tick"><text text-anchor="end" x="560.4200000000001" y="4.199999999999999" transform="translate(0,116.34)" style="font-family: 'Open Sans', verdana, arial, sans-serif; font-size: 12px; fill: rgb(0, 0, 0); fill-opacity: 1; white-space: pre;">100</text></g></g><g class="overaxes-above"/></g><g class="subplot x5y5"><g class="layer-subplot"><g class="shapelayer"/><g class="imagelayer"/></g><g class="gridlayer"><g class="x5"/><g class="y5"/></g><g class="zerolinelayer"/><path class="xlines-below"/><path class="ylines-below"/><g class="overlines-below"/><g class="xaxislayer-below"/><g class="yaxislayer-below"/><g class="overaxes-below"/><g class="plot" transform="translate(739.7600000000001, 100)" clip-path="url('#clip01ac05x5y5plot')"><g class="scatterlayer mlayer"><g class="trace scatter trace4b4666" style="stroke-miterlimit: 2; opacity: 1;"><g class="fills"/><g class="errorbars"/><g class="lines"><path class="js-line" d="M1.3,135.89L3.91,132.9L5.21,131.71L14.33,120.93L15.63,119.53L22.14,112.11L23.44,111.18L29.96,103.79L31.26,103.05L36.47,97.38L37.77,96.56L40.37,93.51L41.68,92.17L46.89,86.83L48.19,86.32L50.79,83.15L52.1,82.32L54.7,78.95L56,79.2L59.91,74.77L61.21,73.8L67.72,68.21L69.03,65.59L70.33,66L71.63,63.85L76.84,59.63L78.14,58.6L79.45,58.77L80.75,55.69L84.66,53.16L85.96,51.8L87.26,49.55L88.56,49L91.17,46.03L92.47,45.48L93.77,44.24L95.08,44.45L96.38,42.09L97.68,42.04L100.28,37.88L101.59,37.27L106.8,33.07L108.1,31.85L109.4,30.14L110.7,29.93L113.31,27.13L114.61,26.37L118.52,21.61L119.82,21.25L121.12,20.83L122.43,18.61L123.73,18.3L125.03,17.08L128.94,14.02L130.24,13.18" style="vector-effect: non-scaling-stroke; fill: none; stroke: rgb(141, 196, 71); stroke-opacity: 1; stroke-width: 2px; opacity: 1;"/></g><g class="points"/><g class="text"/></g><g class="trace scatter traceaf467a" style="stroke-miterlimit: 2; opacity: 1;"><g class="fills"/><g class="errorbars"/><g class="lines"><path class="js-line" d="M1.3,143.95L9.12,141.71L10.42,142.29L13.02,140.31L14.33,139.98L15.63,140.11L16.93,139.24L24.75,137.02L26.05,137.2L28.65,136.22L29.96,136.6L31.26,135.13L32.56,134.84L37.77,134.14L39.07,137L40.37,132.91L41.68,134.6L42.98,132.99L44.28,132.7L49.49,130.68L50.79,130.05L52.1,130.54L53.4,129.54L54.7,129.97L56,128.55L57.31,128.56L58.61,130.21L59.91,127.65L61.21,127.64L62.52,126.86L63.82,127.34L67.72,125.52L69.03,125.69L70.33,127.91L71.63,124.68L78.14,122.86L79.45,123.49L82.05,122.11L83.35,121.66L84.66,122.2L85.96,120.98L88.56,120.55L89.87,119.98L92.47,120.62L93.77,119L95.08,119.18L96.38,118.59L97.68,119.41L98.98,118.22L100.28,119.55L101.59,116.91L105.49,116.2L106.8,117.17L108.1,115.82L109.4,115.66L110.7,115.36L112.01,120.53L113.31,113.96L114.61,114.26L117.22,113L118.52,112.74L122.43,111.61L123.73,113.03L125.03,110.92L126.33,110.61L127.64,111.66L128.94,109.9L130.24,112.31" style="vector-effect: non-scaling-stroke; fill: none; stroke: rgb(255, 85, 85); stroke-opacity: 1; stroke-width: 2px; opacity: 1;"/></g><g class="points"/><g class="text"/></g><g class="trace scatter traced2174b" style="stroke-miterlimit: 2; opacity: 1;"><g class="fills"/><g class="errorbars"/><g class="lines"><path class="js-line" d="M1.3,136.07L5.21,131.78L6.51,129.95L10.42,126.44L11.72,125.36L20.84,117L22.14,116.21L27.35,112.06L28.65,111.44L37.77,104.19L39.07,103.54L41.68,101.31L42.98,100.32L45.58,98.37L46.89,98.03L54.7,92.66L56,91.06L57.31,90.97L58.61,90.05L61.21,87.94L62.52,86.78L63.82,86.68L65.12,85.79L67.72,83.67L69.03,83.27L70.33,81.67L71.63,81.52L76.84,77.91L78.14,77.45L80.75,75.01L82.05,74.1L83.35,73.81L84.66,72.45L93.77,67.43L95.08,66.03L96.38,66L97.68,65.18L101.59,62.78L102.89,62.17L106.8,59.3L108.1,58.75L112.01,56.25L113.31,56.03L114.61,54.3L115.91,53.89L118.52,53.03L119.82,51.54L122.43,50.45L123.73,49.69L126.33,47.2L127.64,47.43L130.24,45.87" style="vector-effect: non-scaling-stroke; fill: none; stroke: rgb(118, 209, 244); stroke-opacity: 1; stroke-width: 2px; opacity: 1;"/></g><g class="points"/><g class="text"/></g></g></g><g class="overplot"/><path class="xlines-above crisp" d="M738.7600000000001,245.5H871M738.7600000000001,99.5H871" style="fill: none; stroke-width: 1px; stroke: rgb(0, 0, 0); stroke-opacity: 1;"/><path class="ylines-above crisp" d="M739.2600000000001,100V245M870.5,100V245" style="fill: none; stroke-width: 1px; stroke: rgb(0, 0, 0); stroke-opacity: 1;"/><g class="overlines-above"/><g class="xaxislayer-above"><path class="x5tick ticks crisp" d="M0,246v5" transform="translate(739.7600000000001,0)" style="stroke: rgb(68, 68, 68); stroke-opacity: 1; stroke-width: 1px;"/><path class="x5tick ticks crisp" d="M0,246v5" transform="translate(804.8800000000001,0)" style="stroke: rgb(68, 68, 68); stroke-opacity: 1; stroke-width: 1px;"/><path class="x5tick ticks crisp" d="M0,246v5" transform="translate(870.0000000000001,0)" style="stroke: rgb(68, 68, 68); stroke-opacity: 1; stroke-width: 1px;"/><g class="x5tick"><text text-anchor="middle" x="0" y="263" transform="translate(739.7600000000001,0)" style="font-family: 'Open Sans', verdana, arial, sans-serif; font-size: 10px; fill: rgb(0, 0, 0); fill-opacity: 1; white-space: pre;">0</text></g><g class="x5tick"><text text-anchor="middle" x="0" y="263" transform="translate(804.8800000000001,0)" style="font-family: 'Open Sans', verdana, arial, sans-serif; font-size: 10px; fill: rgb(0, 0, 0); fill-opacity: 1; white-space: pre;">500</text></g><g class="x5tick"><text text-anchor="middle" x="0" y="263" transform="translate(870.0000000000001,0)" style="font-family: 'Open Sans', verdana, arial, sans-serif; font-size: 10px; fill: rgb(0, 0, 0); fill-opacity: 1; white-space: pre;">1000</text></g></g><g class="yaxislayer-above"><path class="y5tick ticks crisp" d="M738.7600000000001,0h-5" transform="translate(0,245)" style="stroke: rgb(68, 68, 68); stroke-opacity: 1; stroke-width: 1px;"/><path class="y5tick ticks crisp" d="M738.7600000000001,0h-5" transform="translate(0,197.89)" style="stroke: rgb(68, 68, 68); stroke-opacity: 1; stroke-width: 1px;"/><path class="y5tick ticks crisp" d="M738.7600000000001,0h-5" transform="translate(0,150.78)" style="stroke: rgb(68, 68, 68); stroke-opacity: 1; stroke-width: 1px;"/><path class="y5tick ticks crisp" d="M738.7600000000001,0h-5" transform="translate(0,103.67)" style="stroke: rgb(68, 68, 68); stroke-opacity: 1; stroke-width: 1px;"/><g class="y5tick"><text text-anchor="end" x="731.3600000000001" y="4.199999999999999" transform="translate(0,245)" style="font-family: 'Open Sans', verdana, arial, sans-serif; font-size: 12px; fill: rgb(0, 0, 0); fill-opacity: 1; white-space: pre;">0</text></g><g class="y5tick"><text text-anchor="end" x="731.3600000000001" y="4.199999999999999" transform="translate(0,197.89)" style="font-family: 'Open Sans', verdana, arial, sans-serif; font-size: 12px; fill: rgb(0, 0, 0); fill-opacity: 1; white-space: pre;">50</text></g><g class="y5tick"><text text-anchor="end" x="731.3600000000001" y="4.199999999999999" transform="translate(0,150.78)" style="font-family: 'Open Sans', verdana, arial, sans-serif; font-size: 12px; fill: rgb(0, 0, 0); fill-opacity: 1; white-space: pre;">100</text></g><g class="y5tick"><text text-anchor="end" x="731.3600000000001" y="4.199999999999999" transform="translate(0,103.67)" style="font-family: 'Open Sans', verdana, arial, sans-serif; font-size: 12px; fill: rgb(0, 0, 0); fill-opacity: 1; white-space: pre;">150</text></g></g><g class="overaxes-above"/></g></g><g class="polarlayer"/><g class="ternarylayer"/><g class="geolayer"/><g class="funnelarealayer"/><g class="pielayer"/><g class="treemaplayer"/><g class="sunburstlayer"/><g class="glimages"/><defs id="topdefs-01ac05"><g class="clips"/></defs><g class="layer-above"><g class="imagelayer"/><g class="shapelayer"/></g><g class="infolayer"><g class="g-gtitle"/><g class="g-xtitle"><text class="xtitle" x="121.12" y="288.90625" text-anchor="middle" style="font-family: 'Open Sans', verdana, arial, sans-serif; font-size: 12px; fill: rgb(0, 0, 0); opacity: 1; font-weight: normal; white-space: pre;"><tspan class="line" dy="0em" x="121.12" y="288.90625">Initial Substrate</tspan><tspan class="line" dy="1.3em" x="121.12" y="288.90625">Concentration (mmol/L)</tspan></text></g><g class="g-x2title"><text class="x2title" x="292.06" y="288.90625" text-anchor="middle" style="font-family: 'Open Sans', verdana, arial, sans-serif; font-size: 12px; fill: rgb(0, 0, 0); opacity: 1; font-weight: normal; white-space: pre;"><tspan class="line" dy="0em" x="292.06" y="288.90625">Initial Substrate</tspan><tspan class="line" dy="1.3em" x="292.06" y="288.90625">Concentration (mmol/L)</tspan></text></g><g class="g-x3title"><text class="x3title" x="463.00000000000006" y="288.90625" text-anchor="middle" style="font-family: 'Open Sans', verdana, arial, sans-serif; font-size: 12px; fill: rgb(0, 0, 0); opacity: 1; font-weight: normal; white-space: pre;"><tspan class="line" dy="0em" x="463.00000000000006" y="288.90625">Initial Substrate</tspan><tspan class="line" dy="1.3em" x="463.00000000000006" y="288.90625">Concentration (mmol/L)</tspan></text></g><g class="g-x4title"><text class="x4title" x="633.94" y="288.90625" text-anchor="middle" style="font-family: 'Open Sans', verdana, arial, sans-serif; font-size: 12px; fill: rgb(0, 0, 0); opacity: 1; font-weight: normal; white-space: pre;"><tspan class="line" dy="0em" x="633.94" y="288.90625">Initial Substrate</tspan><tspan class="line" dy="1.3em" x="633.94" y="288.90625">Concentration (mmol/L)</tspan></text></g><g class="g-x5title"><text class="x5title" x="804.8800000000001" y="288.90625" text-anchor="middle" style="font-family: 'Open Sans', verdana, arial, sans-serif; font-size: 12px; fill: rgb(0, 0, 0); opacity: 1; font-weight: normal; white-space: pre;"><tspan class="line" dy="0em" x="804.8800000000001" y="288.90625">Initial Substrate</tspan><tspan class="line" dy="1.3em" x="804.8800000000001" y="288.90625">Concentration (mmol/L)</tspan></text></g><g class="g-ytitle" transform="translate(3.671875,0)"><text class="ytitle" transform="rotate(-90,8.328125,172.5)" x="8.328125" y="172.5" text-anchor="middle" style="font-family: 'Open Sans', verdana, arial, sans-serif; font-size: 12px; fill: rgb(0, 0, 0); opacity: 1; font-weight: normal; white-space: pre;"><tspan class="line" dy="0em" x="8.328125" y="172.5">Productivity</tspan><tspan class="line" dy="1.3em" x="8.328125" y="172.5">(mmol/L.h)</tspan></text></g><g class="g-y2title"/><g class="g-y3title"/><g class="g-y4title"/><g class="g-y5title"/><g class="annotation" data-index="0" style="opacity: 1;"><g class="annotation-text-g" transform="rotate(0,121.12,78)"><g class="cursor-pointer" transform="translate(54, 56)"><rect class="bg" x="0.5" y="0.5" width="134" height="43" style="stroke-width: 1px; stroke: rgb(0, 0, 0); stroke-opacity: 0; fill: rgb(0, 0, 0); fill-opacity: 0;"/><text class="annotation-text" text-anchor="middle" x="67.6875" y="18" style="font-family: 'Open Sans', verdana, arial, sans-serif; font-size: 16px; fill: rgb(68, 68, 68); fill-opacity: 1; white-space: pre;"><tspan class="line" dy="0em" x="67.6875" y="18">Initial Biomass: </tspan><tspan class="line" dy="1.3em" x="67.6875" y="18">0.001 (mM)</tspan></text></g></g></g><g class="annotation" data-index="1" style="opacity: 1;"><g class="annotation-text-g" transform="rotate(0,292.06000000000006,78)"><g class="cursor-pointer" transform="translate(225, 56)"><rect class="bg" x="0.5" y="0.5" width="134" height="43" style="stroke-width: 1px; stroke: rgb(0, 0, 0); stroke-opacity: 0; fill: rgb(0, 0, 0); fill-opacity: 0;"/><text class="annotation-text" text-anchor="middle" x="67.6875" y="18" style="font-family: 'Open Sans', verdana, arial, sans-serif; font-size: 16px; fill: rgb(68, 68, 68); fill-opacity: 1; white-space: pre;"><tspan class="line" dy="0em" x="67.6875" y="18">Initial Biomass: </tspan><tspan class="line" dy="1.3em" x="67.6875" y="18">0.01 (mM)</tspan></text></g></g></g><g class="annotation" data-index="2" style="opacity: 1;"><g class="annotation-text-g" transform="rotate(0,463,78)"><g class="cursor-pointer" transform="translate(396, 56)"><rect class="bg" x="0.5" y="0.5" width="134" height="43" style="stroke-width: 1px; stroke: rgb(0, 0, 0); stroke-opacity: 0; fill: rgb(0, 0, 0); fill-opacity: 0;"/><text class="annotation-text" text-anchor="middle" x="67.6875" y="18" style="font-family: 'Open Sans', verdana, arial, sans-serif; font-size: 16px; fill: rgb(68, 68, 68); fill-opacity: 1; white-space: pre;"><tspan class="line" dy="0em" x="67.6875" y="18">Initial Biomass: </tspan><tspan class="line" dy="1.3em" x="67.6875" y="18">0.05 (mM)</tspan></text></g></g></g><g class="annotation" data-index="3" style="opacity: 1;"><g class="annotation-text-g" transform="rotate(0,633.9399999999999,78)"><g class="cursor-pointer" transform="translate(566, 56)"><rect class="bg" x="0.5" y="0.5" width="134" height="43" style="stroke-width: 1px; stroke: rgb(0, 0, 0); stroke-opacity: 0; fill: rgb(0, 0, 0); fill-opacity: 0;"/><text class="annotation-text" text-anchor="middle" x="67.6875" y="18" style="font-family: 'Open Sans', verdana, arial, sans-serif; font-size: 16px; fill: rgb(68, 68, 68); fill-opacity: 1; white-space: pre;"><tspan class="line" dy="0em" x="67.6875" y="18">Initial Biomass: </tspan><tspan class="line" dy="1.3em" x="67.6875" y="18">0.1 (mM)</tspan></text></g></g></g><g class="annotation" data-index="4" style="opacity: 1;"><g class="annotation-text-g" transform="rotate(0,804.88,78)"><g class="cursor-pointer" transform="translate(737, 56)"><rect class="bg" x="0.5" y="0.5" width="134" height="43" style="stroke-width: 1px; stroke: rgb(0, 0, 0); stroke-opacity: 0; fill: rgb(0, 0, 0); fill-opacity: 0;"/><text class="annotation-text" text-anchor="middle" x="67.6875" y="18" style="font-family: 'Open Sans', verdana, arial, sans-serif; font-size: 16px; fill: rgb(68, 68, 68); fill-opacity: 1; white-space: pre;"><tspan class="line" dy="0em" x="67.6875" y="18">Initial Biomass: </tspan><tspan class="line" dy="1.3em" x="67.6875" y="18">1 (mM)</tspan></text></g></g></g></g></svg>