<svg class="main-svg" xmlns="http://www.w3.org/2000/svg" xmlns:xlink="http://www.w3.org/1999/xlink" width="950" height="325" viewBox="0 0 950 325"><rect x="0" y="0" width="950" height="325" style="fill: rgb(255, 255, 255); fill-opacity: 1;"/><defs id="defs-5375f0"><g class="clips"><clipPath id="clip5375f0xyplot" class="plotclip"><rect width="129.6" height="145"/></clipPath><clipPath id="clip5375f0x2y2plot" class="plotclip"><rect width="129.6" height="145"/></clipPath><clipPath id="clip5375f0x3y3plot" class="plotclip"><rect width="129.60000000000002" height="145"/></clipPath><clipPath id="clip5375f0x4y4plot" class="plotclip"><rect width="129.60000000000002" height="145"/></clipPath><clipPath id="clip5375f0x5y5plot" class="plotclip"><rect width="129.59999999999994" height="145"/></clipPath><clipPath class="axesclip" id="clip5375f0x"><rect x="60" y="0" width="129.6" height="325"/></clipPath><clipPath class="axesclip" id="clip5375f0y"><rect x="0" y="100" width="950" height="145"/></clipPath><clipPath class="axesclip" id="clip5375f0xy"><rect x="60" y="100" width="129.6" height="145"/></clipPath><clipPath class="axesclip" id="clip5375f0y2"><rect x="0" y="100" width="950" height="145"/></clipPath><clipPath class="axesclip" id="clip5375f0xy2"><rect x="60" y="100" width="129.6" height="145"/></clipPath><clipPath class="axesclip" id="clip5375f0y3"><rect x="0" y="100" width="950" height="145"/></clipPath><clipPath class="axesclip" id="clip5375f0xy3"><rect x="60" y="100" width="129.6" height="145"/></clipPath><clipPath class="axesclip" id="clip5375f0y4"><rect x="0" y="100" width="950" height="145"/></clipPath><clipPath class="axesclip" id="clip5375f0xy4"><rect x="60" y="100" width="129.6" height="145"/></clipPath><clipPath class="axesclip" id="clip5375f0y5"><rect x="0" y="100" width="950" height="145"/></clipPath><clipPath class="axesclip" id="clip5375f0xy5"><rect x="60" y="100" width="129.6" height="145"/></clipPath><clipPath class="axesclip" id="clip5375f0x2"><rect x="230.10000000000002" y="0" width="129.6" height="325"/></clipPath><clipPath class="axesclip" id="clip5375f0x2y"><rect x="230.10000000000002" y="100" width="129.6" height="145"/></clipPath><clipPath class="axesclip" id="clip5375f0x2y2"><rect x="230.10000000000002" y="100" width="129.6" height="145"/></clipPath><clipPath class="axesclip" id="clip5375f0x2y3"><rect x="230.10000000000002" y="100" width="129.6" height="145"/></clipPath><clipPath class="axesclip" id="clip5375f0x2y4"><rect x="230.10000000000002" y="100" width="129.6" height="145"/></clipPath><clipPath class="axesclip" id="clip5375f0x2y5"><rect x="230.10000000000002" y="100" width="129.6" height="145"/></clipPath><clipPath class="axesclip" id="clip5375f0x3"><rect x="400.20000000000005" y="0" width="129.60000000000002" height="325"/></clipPath><clipPath class="axesclip" id="clip5375f0x3y"><rect x="400.20000000000005" y="100" width="129.60000000000002" height="145"/></clipPath><clipPath class="axesclip" id="clip5375f0x3y2"><rect x="400.20000000000005" y="100" width="129.60000000000002" height="145"/></clipPath><clipPath class="axesclip" id="clip5375f0x3y3"><rect x="400.20000000000005" y="100" width="129.60000000000002" height="145"/></clipPath><clipPath class="axesclip" id="clip5375f0x3y4"><rect x="400.20000000000005" y="100" width="129.60000000000002" height="145"/></clipPath><clipPath class="axesclip" id="clip5375f0x3y5"><rect x="400.20000000000005" y="100" width="129.60000000000002" height="145"/></clipPath><clipPath class="axesclip" id="clip5375f0x4"><rect x="570.3" y="0" width="129.60000000000002" height="325"/></clipPath><clipPath class="axesclip" id="clip5375f0x4y"><rect x="570.3" y="100" width="129.60000000000002" height="145"/></clipPath><clipPath class="axesclip" id="clip5375f0x4y2"><rect x="570.3" y="100" width="129.60000000000002" height="145"/></clipPath><clipPath class="axesclip" id="clip5375f0x4y3"><rect x="570.3" y="100" width="129.60000000000002" height="145"/></clipPath><clipPath class="axesclip" id="clip5375f0x4y4"><rect x="570.3" y="100" width="129.60000000000002" height="145"/></clipPath><clipPath class="axesclip" id="clip5375f0x4y5"><rect x="570.3" y="100" width="129.60000000000002" height="145"/></clipPath><clipPath class="axesclip" id="clip5375f0x5"><rect x="740.4000000000001" y="0" width="129.59999999999994" height="325"/></clipPath><clipPath class="axesclip" id="clip5375f0x5y"><rect x="740.4000000000001" y="100" width="129.59999999999994" height="145"/></clipPath><clipPath class="axesclip" id="clip5375f0x5y2"><rect x="740.4000000000001" y="100" width="129.59999999999994" height="145"/></clipPath><clipPath class="axesclip" id="clip5375f0x5y3"><rect x="740.4000000000001" y="100" width="129.59999999999994" height="145"/></clipPath><clipPath class="axesclip" id="clip5375f0x5y4"><rect x="740.4000000000001" y="100" width="129.59999999999994" height="145"/></clipPath><clipPath class="axesclip" id="clip5375f0x5y5"><rect x="740.4000000000001" y="100" width="129.59999999999994" height="145"/></clipPath></g><g class="gradients"/></defs><g class="bglayer"/><g class="layer-below"><g class="imagelayer"/><g class="shapelayer"/></g><g class="cartesianlayer"><g class="subplot xy"><g class="layer-subplot"><g class="shapelayer"/><g class="imagelayer"/></g><g class="gridlayer"><g class="x"/><g class="y"/></g><g class="zerolinelayer"/><path class="xlines-below"/><path class="ylines-below"/><g class="overlines-below"/><g class="xaxislayer-below"/><g class="yaxislayer-below"/><g class="overaxes-below"/><g class="plot" transform="translate(60, 100)" clip-path="url('#clip5375f0xyplot')"><g class="scatterlayer mlayer"><g class="trace scatter trace2a3d69" style="stroke-miterlimit: 2; opacity: 1;"><g class="fills"/><g class="errorbars"/><g class="lines"><path class="js-line" d="M1.3,145L36.29,145L37.58,46.23L38.88,44.99L40.18,40.11L41.47,38.82L42.77,33.56L45.36,34.63L46.66,28.74L47.95,35.28L49.25,29.97L50.54,26.17L51.84,26.17L54.43,24.37L55.73,23.79L60.91,22.14L62.21,24.06L63.5,21.79L64.8,21.18L66.1,20.84L67.39,21.45L69.98,20.04L71.28,19.76L98.5,16.03L99.79,15.89L101.09,16.45L102.38,15.63L129.6,13.18" style="vector-effect: non-scaling-stroke; fill: none; stroke: rgb(141, 196, 71); stroke-opacity: 1; stroke-width: 2px; opacity: 1;"/></g><g class="points"/><g class="text"/></g><g class="trace scatter tracee60d37" style="stroke-miterlimit: 2; opacity: 1;"><g class="fills"/><g class="errorbars"/><g class="lines"><path class="js-line" d="M1.3,145L104.98,145L115.34,56.75L125.71,47.62" style="vector-effect: non-scaling-stroke; fill: none; stroke: rgb(255, 85, 85); stroke-opacity: 1; stroke-width: 2px; opacity: 1;"/></g><g class="points"/><g class="text"/></g><g class="trace scatter trace39f15a" style="stroke-miterlimit: 2; opacity: 1;"><g class="fills"/><g class="errorbars"/><g class="lines"><path class="js-line" d="M1.3,145L66.1,145L67.39,52.89L68.69,56.42L69.98,49.82L71.28,49.88L72.58,46.66L77.76,39.96L79.06,38.69L88.13,32.92L89.42,32.28L99.79,28.43L101.09,28.04L120.53,23.92L121.82,23.71L129.6,22.62" style="vector-effect: non-scaling-stroke; fill: none; stroke: rgb(118, 209, 244); stroke-opacity: 1; stroke-width: 2px; opacity: 1;"/></g><g class="points"/><g class="text"/></g></g></g><g class="overplot"/><path class="xlines-above crisp" d="M59,245.5H190.6M59,99.5H190.6" style="fill: none; stroke-width: 1px; stroke: rgb(0, 0, 0); stroke-opacity: 1;"/><path class="ylines-above crisp" d="M59.5,100V245M190.1,100V245" style="fill: none; stroke-width: 1px; stroke: rgb(0, 0, 0); stroke-opacity: 1;"/><g class="overlines-above"/><g class="xaxislayer-above"><path class="xtick ticks crisp" d="M0,246v5" transform="translate(60,0)" style="stroke: rgb(68, 68, 68); stroke-opacity: 1; stroke-width: 1px;"/><path class="xtick ticks crisp" d="M0,246v5" transform="translate(124.8,0)" style="stroke: rgb(68, 68, 68); stroke-opacity: 1; stroke-width: 1px;"/><path class="xtick ticks crisp" d="M0,246v5" transform="translate(189.6,0)" style="stroke: rgb(68, 68, 68); stroke-opacity: 1; stroke-width: 1px;"/><g class="xtick"><text text-anchor="middle" x="0" y="263" transform="translate(60,0)" style="font-family: 'Open Sans', verdana, arial, sans-serif; font-size: 10px; fill: rgb(0, 0, 0); fill-opacity: 1; white-space: pre;">0</text></g><g class="xtick"><text text-anchor="middle" x="0" y="263" transform="translate(124.8,0)" style="font-family: 'Open Sans', verdana, arial, sans-serif; font-size: 10px; fill: rgb(0, 0, 0); fill-opacity: 1; white-space: pre;">500</text></g><g class="xtick"><text text-anchor="middle" x="0" y="263" transform="translate(189.6,0)" style="font-family: 'Open Sans', verdana, arial, sans-serif; font-size: 10px; fill: rgb(0, 0, 0); fill-opacity: 1; white-space: pre;">1000</text></g></g><g class="yaxislayer-above"><path class="ytick ticks crisp" d="M59,0h-5" transform="translate(0,245)" style="stroke: rgb(68, 68, 68); stroke-opacity: 1; stroke-width: 1px;"/><path class="ytick ticks crisp" d="M59,0h-5" transform="translate(0,195.35)" style="stroke: rgb(68, 68, 68); stroke-opacity: 1; stroke-width: 1px;"/><path class="ytick ticks crisp" d="M59,0h-5" transform="translate(0,145.69)" style="stroke: rgb(68, 68, 68); stroke-opacity: 1; stroke-width: 1px;"/><g class="ytick"><text text-anchor="end" x="51.6" y="4.199999999999999" transform="translate(0,245)" style="font-family: 'Open Sans', verdana, arial, sans-serif; font-size: 12px; fill: rgb(0, 0, 0); fill-opacity: 1; white-space: pre;">0</text></g><g class="ytick"><text text-anchor="end" x="51.6" y="4.199999999999999" transform="translate(0,195.35)" style="font-family: 'Open Sans', verdana, arial, sans-serif; font-size: 12px; fill: rgb(0, 0, 0); fill-opacity: 1; white-space: pre;">0.5</text></g><g class="ytick"><text text-anchor="end" x="51.6" y="4.199999999999999" transform="translate(0,145.69)" style="font-family: 'Open Sans', verdana, arial, sans-serif; font-size: 12px; fill: rgb(0, 0, 0); fill-opacity: 1; white-space: pre;">1</text></g></g><g class="overaxes-above"/></g><g class="subplot x2y2"><g class="layer-subplot"><g class="shapelayer"/><g class="imagelayer"/></g><g class="gridlayer"><g class="x2"/><g class="y2"/></g><g class="zerolinelayer"/><path class="xlines-below"/><path class="ylines-below"/><g class="overlines-below"/><g class="xaxislayer-below"/><g class="yaxislayer-below"/><g class="overaxes-below"/><g class="plot" transform="translate(230.10000000000002, 100)" clip-path="url('#clip5375f0x2y2plot')"><g class="scatterlayer mlayer"><g class="trace scatter trace1b6509" style="stroke-miterlimit: 2; opacity: 1;"><g class="fills"/><g class="errorbars"/><g class="lines"><path class="js-line" d="M1.3,145L29.81,145L31.1,46.86L33.7,38.66L34.99,35.81L36.29,35.61L37.58,32.22L38.88,31.87L40.18,30.3L41.47,28.5L42.77,32.36L44.06,26.77L45.36,26.23L46.66,25.48L47.95,26.08L50.54,23.95L51.84,23.51L63.5,20.58L64.8,20.31L86.83,17.11L88.13,16.97L112.75,14.57L114.05,13.76L115.34,14.54L116.64,14.24L129.6,13.18" style="vector-effect: non-scaling-stroke; fill: none; stroke: rgb(141, 196, 71); stroke-opacity: 1; stroke-width: 2px; opacity: 1;"/></g><g class="points"/><g class="text"/></g><g class="trace scatter trace975f0b" style="stroke-miterlimit: 2; opacity: 1;"><g class="fills"/><g class="errorbars"/><g class="lines"><path class="js-line" d="M1.3,145L94.61,145L104.98,61.2L115.34,48.78L125.71,43.14" style="vector-effect: non-scaling-stroke; fill: none; stroke: rgb(255, 85, 85); stroke-opacity: 1; stroke-width: 2px; opacity: 1;"/></g><g class="points"/><g class="text"/></g><g class="trace scatter trace8b245e" style="stroke-miterlimit: 2; opacity: 1;"><g class="fills"/><g class="errorbars"/><g class="lines"><path class="js-line" d="M1.3,145L49.25,145L50.54,59.4L51.84,56.24L53.14,46.35L54.43,46.82L55.73,44.14L59.62,38.54L60.91,37.27L67.39,32.46L68.69,31.73L75.17,28.7L76.46,28.28L88.13,24.93L89.42,24.64L103.68,22.1L104.98,21.96L125.71,19.66L127.01,19.55L129.6,19.32" style="vector-effect: non-scaling-stroke; fill: none; stroke: rgb(118, 209, 244); stroke-opacity: 1; stroke-width: 2px; opacity: 1;"/></g><g class="points"/><g class="text"/></g></g></g><g class="overplot"/><path class="xlines-above crisp" d="M229.10000000000002,245.5H360.70000000000005M229.10000000000002,99.5H360.70000000000005" style="fill: none; stroke-width: 1px; stroke: rgb(0, 0, 0); stroke-opacity: 1;"/><path class="ylines-above crisp" d="M229.60000000000002,100V245M360.20000000000005,100V245" style="fill: none; stroke-width: 1px; stroke: rgb(0, 0, 0); stroke-opacity: 1;"/><g class="overlines-above"/><g class="xaxislayer-above"><path class="x2tick ticks crisp" d="M0,246v5" transform="translate(230.10000000000002,0)" style="stroke: rgb(68, 68, 68); stroke-opacity: 1; stroke-width: 1px;"/><path class="x2tick ticks crisp" d="M0,246v5" transform="translate(294.90000000000003,0)" style="stroke: rgb(68, 68, 68); stroke-opacity: 1; stroke-width: 1px;"/><path class="x2tick ticks crisp" d="M0,246v5" transform="translate(359.70000000000005,0)" style="stroke: rgb(68, 68, 68); stroke-opacity: 1; stroke-width: 1px;"/><g class="x2tick"><text text-anchor="middle" x="0" y="263" transform="translate(230.10000000000002,0)" style="font-family: 'Open Sans', verdana, arial, sans-serif; font-size: 10px; fill: rgb(0, 0, 0); fill-opacity: 1; white-space: pre;">0</text></g><g class="x2tick"><text text-anchor="middle" x="0" y="263" transform="translate(294.90000000000003,0)" style="font-family: 'Open Sans', verdana, arial, sans-serif; font-size: 10px; fill: rgb(0, 0, 0); fill-opacity: 1; white-space: pre;">500</text></g><g class="x2tick"><text text-anchor="middle" x="0" y="263" transform="translate(359.70000000000005,0)" style="font-family: 'Open Sans', verdana, arial, sans-serif; font-size: 10px; fill: rgb(0, 0, 0); fill-opacity: 1; white-space: pre;">1000</text></g></g><g class="yaxislayer-above"><path class="y2tick ticks crisp" d="M229.10000000000002,0h-5" transform="translate(0,245)" style="stroke: rgb(68, 68, 68); stroke-opacity: 1; stroke-width: 1px;"/><path class="y2tick ticks crisp" d="M229.10000000000002,0h-5" transform="translate(0,195.51)" style="stroke: rgb(68, 68, 68); stroke-opacity: 1; stroke-width: 1px;"/><path class="y2tick ticks crisp" d="M229.10000000000002,0h-5" transform="translate(0,146.01)" style="stroke: rgb(68, 68, 68); stroke-opacity: 1; stroke-width: 1px;"/><g class="y2tick"><text text-anchor="end" x="221.70000000000002" y="4.199999999999999" transform="translate(0,245)" style="font-family: 'Open Sans', verdana, arial, sans-serif; font-size: 12px; fill: rgb(0, 0, 0); fill-opacity: 1; white-space: pre;">0</text></g><g class="y2tick"><text text-anchor="end" x="221.70000000000002" y="4.199999999999999" transform="translate(0,195.51)" style="font-family: 'Open Sans', verdana, arial, sans-serif; font-size: 12px; fill: rgb(0, 0, 0); fill-opacity: 1; white-space: pre;">0.5</text></g><g class="y2tick"><text text-anchor="end" x="221.70000000000002" y="4.199999999999999" transform="translate(0,146.01)" style="font-family: 'Open Sans', verdana, arial, sans-serif; font-size: 12px; fill: rgb(0, 0, 0); fill-opacity: 1; white-space: pre;">1</text></g></g><g class="overaxes-above"/></g><g class="subplot x3y3"><g class="layer-subplot"><g class="shapelayer"/><g class="imagelayer"/></g><g class="gridlayer"><g class="x3"/><g class="y3"/></g><g class="zerolinelayer"/><path class="xlines-below"/><path class="ylines-below"/><g class="overlines-below"/><g class="xaxislayer-below"/><g class="yaxislayer-below"/><g class="overaxes-below"/><g class="plot" transform="translate(400.20000000000005, 100)" clip-path="url('#clip5375f0x3y3plot')"><g class="scatterlayer mlayer"><g class="trace scatter tracee95b2f" style="stroke-miterlimit: 2; opacity: 1;"><g class="fills"/><g class="errorbars"/><g class="lines"><path class="js-line" d="M1.3,145L23.33,145L24.62,49.18L29.81,35.72L31.1,33.6L36.29,29L37.58,28.12L47.95,23.6L49.25,23.36L55.73,21.48L57.02,22.7L58.32,21.09L59.62,20.77L60.91,21.03L62.21,20.4L63.5,20.12L64.8,25.97L67.39,25.24L68.69,19.23L77.76,17.99L79.06,22.59L82.94,21.95L84.24,17.23L85.54,17.1L86.83,21.37L88.13,21.1L89.42,16.69L90.72,20.8L92.02,20.61L93.31,16.29L94.61,16.16L97.2,15.92L98.5,19.83L99.79,15.67L101.09,15.57L102.38,15.44L103.68,19.31L104.98,15.2L106.27,15.08L120.53,13.9L121.82,17.83L123.12,13.69L124.42,13.6L125.71,13.49L127.01,17.46L128.3,14L129.6,13.18" style="vector-effect: non-scaling-stroke; fill: none; stroke: rgb(141, 196, 71); stroke-opacity: 1; stroke-width: 2px; opacity: 1;"/></g><g class="points"/><g class="text"/></g><g class="trace scatter tracec3577e" style="stroke-miterlimit: 2; opacity: 1;"><g class="fills"/><g class="errorbars"/><g class="lines"><path class="js-line" d="M1.3,145L84.24,145L94.61,69.22L104.98,54.26L115.34,45.22L125.71,39.74" style="vector-effect: non-scaling-stroke; fill: none; stroke: rgb(255, 85, 85); stroke-opacity: 1; stroke-width: 2px; opacity: 1;"/></g><g class="points"/><g class="text"/></g><g class="trace scatter tracef26d09" style="stroke-miterlimit: 2; opacity: 1;"><g class="fills"/><g class="errorbars"/><g class="lines"><path class="js-line" d="M1.3,145L37.58,145L38.88,59.3L40.18,45.64L41.47,45.71L45.36,38.44L46.66,36.97L50.54,33.06L51.84,32.22L57.02,29.07L58.32,28.49L66.1,25.59L67.39,25.21L79.06,22.53L80.35,22.33L102.38,19.44L103.68,19.31L129.6,17.28" style="vector-effect: non-scaling-stroke; fill: none; stroke: rgb(118, 209, 244); stroke-opacity: 1; stroke-width: 2px; opacity: 1;"/></g><g class="points"/><g class="text"/></g></g></g><g class="overplot"/><path class="xlines-above crisp" d="M399.20000000000005,245.5H530.8000000000001M399.20000000000005,99.5H530.8000000000001" style="fill: none; stroke-width: 1px; stroke: rgb(0, 0, 0); stroke-opacity: 1;"/><path class="ylines-above crisp" d="M399.70000000000005,100V245M530.3000000000001,100V245" style="fill: none; stroke-width: 1px; stroke: rgb(0, 0, 0); stroke-opacity: 1;"/><g class="overlines-above"/><g class="xaxislayer-above"><path class="x3tick ticks crisp" d="M0,246v5" transform="translate(400.20000000000005,0)" style="stroke: rgb(68, 68, 68); stroke-opacity: 1; stroke-width: 1px;"/><path class="x3tick ticks crisp" d="M0,246v5" transform="translate(465.00000000000006,0)" style="stroke: rgb(68, 68, 68); stroke-opacity: 1; stroke-width: 1px;"/><path class="x3tick ticks crisp" d="M0,246v5" transform="translate(529.8000000000001,0)" style="stroke: rgb(68, 68, 68); stroke-opacity: 1; stroke-width: 1px;"/><g class="x3tick"><text text-anchor="middle" x="0" y="263" transform="translate(400.20000000000005,0)" style="font-family: 'Open Sans', verdana, arial, sans-serif; font-size: 10px; fill: rgb(0, 0, 0); fill-opacity: 1; white-space: pre;">0</text></g><g class="x3tick"><text text-anchor="middle" x="0" y="263" transform="translate(465.00000000000006,0)" style="font-family: 'Open Sans', verdana, arial, sans-serif; font-size: 10px; fill: rgb(0, 0, 0); fill-opacity: 1; white-space: pre;">500</text></g><g class="x3tick"><text text-anchor="middle" x="0" y="263" transform="translate(529.8000000000001,0)" style="font-family: 'Open Sans', verdana, arial, sans-serif; font-size: 10px; fill: rgb(0, 0, 0); fill-opacity: 1; white-space: pre;">1000</text></g></g><g class="yaxislayer-above"><path class="y3tick ticks crisp" d="M399.20000000000005,0h-5" transform="translate(0,245)" style="stroke: rgb(68, 68, 68); stroke-opacity: 1; stroke-width: 1px;"/><path class="y3tick ticks crisp" d="M399.20000000000005,0h-5" transform="translate(0,195.64)" style="stroke: rgb(68, 68, 68); stroke-opacity: 1; stroke-width: 1px;"/><path class="y3tick ticks crisp" d="M399.20000000000005,0h-5" transform="translate(0,146.27)" style="stroke: rgb(68, 68, 68); stroke-opacity: 1; stroke-width: 1px;"/><g class="y3tick"><text text-anchor="end" x="391.80000000000007" y="4.199999999999999" transform="translate(0,245)" style="font-family: 'Open Sans', verdana, arial, sans-serif; font-size: 12px; fill: rgb(0, 0, 0); fill-opacity: 1; white-space: pre;">0</text></g><g class="y3tick"><text text-anchor="end" x="391.80000000000007" y="4.199999999999999" transform="translate(0,195.64)" style="font-family: 'Open Sans', verdana, arial, sans-serif; font-size: 12px; fill: rgb(0, 0, 0); fill-opacity: 1; white-space: pre;">0.5</text></g><g class="y3tick"><text text-anchor="end" x="391.80000000000007" y="4.199999999999999" transform="translate(0,146.27)" style="font-family: 'Open Sans', verdana, arial, sans-serif; font-size: 12px; fill: rgb(0, 0, 0); fill-opacity: 1; white-space: pre;">1</text></g></g><g class="overaxes-above"/></g><g class="subplot x4y4"><g class="layer-subplot"><g class="shapelayer"/><g class="imagelayer"/></g><g class="gridlayer"><g class="x4"/><g class="y4"/></g><g class="zerolinelayer"/><path class="xlines-below"/><path class="ylines-below"/><g class="overlines-below"/><g class="xaxislayer-below"/><g class="yaxislayer-below"/><g class="overaxes-below"/><g class="plot" transform="translate(570.3, 100)" clip-path="url('#clip5375f0x4y4plot')"><g class="scatterlayer mlayer"><g class="trace scatter trace4f0c5b" style="stroke-miterlimit: 2; opacity: 1;"><g class="fills"/><g class="errorbars"/><g class="lines"><path class="js-line" d="M1.3,145L20.74,145L22.03,54.26L24.62,41.65L25.92,39.72L28.51,34.45L29.81,33.27L31.1,33.69L32.4,31.38L34.99,28.65L36.29,27.73L37.58,28.55L38.88,26.39L47.95,22.72L49.25,22.91L51.84,21.55L53.14,21.79L54.43,21.63L55.73,26.31L57.02,20.94L58.32,25.39L63.5,23.9L64.8,19.61L66.1,19.39L67.39,23.04L69.98,22.45L71.28,18.66L72.58,21.95L73.87,21.71L76.46,21.31L77.76,17.86L79.06,20.93L80.35,17.54L81.65,17.4L82.94,20.34L84.24,17.13L85.54,16.99L86.83,19.88L88.13,16.71L89.42,19.6L90.72,19.48L99.79,18.58L101.09,16.72L102.38,18.31L103.68,18.2L106.27,18.01L107.57,14.93L108.86,14.82L110.16,17.69L111.46,17.61L112.75,14.49L115.34,14.29L116.64,17.25L117.94,14.08L119.23,13.99L120.53,13.88L121.82,16.89L123.12,13.67L124.42,16.73L125.71,13.48L127.01,16.55L128.3,13.29L129.6,13.18" style="vector-effect: non-scaling-stroke; fill: none; stroke: rgb(141, 196, 71); stroke-opacity: 1; stroke-width: 2px; opacity: 1;"/></g><g class="points"/><g class="text"/></g><g class="trace scatter traceb5e856" style="stroke-miterlimit: 2; opacity: 1;"><g class="fills"/><g class="errorbars"/><g class="lines"><path class="js-line" d="M1.3,145L84.24,145L94.61,65.65L104.98,54.06L115.34,44.16L125.71,39.19" style="vector-effect: non-scaling-stroke; fill: none; stroke: rgb(255, 85, 85); stroke-opacity: 1; stroke-width: 2px; opacity: 1;"/></g><g class="points"/><g class="text"/></g><g class="trace scatter trace46c8ca" style="stroke-miterlimit: 2; opacity: 1;"><g class="fills"/><g class="errorbars"/><g class="lines"><path class="js-line" d="M1.3,145L31.1,145L32.4,57.88L33.7,58.31L34.99,47.58L36.29,42.29L37.58,40.55L42.77,33.72L44.06,32.6L47.95,29.83L49.25,29.06L54.43,26.71L55.73,26.14L62.21,24.17L63.5,23.85L79.06,20.85L80.35,20.66L125.71,16.63L127.01,16.56L129.6,16.42" style="vector-effect: non-scaling-stroke; fill: none; stroke: rgb(118, 209, 244); stroke-opacity: 1; stroke-width: 2px; opacity: 1;"/></g><g class="points"/><g class="text"/></g></g></g><g class="overplot"/><path class="xlines-above crisp" d="M569.3,245.5H700.9M569.3,99.5H700.9" style="fill: none; stroke-width: 1px; stroke: rgb(0, 0, 0); stroke-opacity: 1;"/><path class="ylines-above crisp" d="M569.8,100V245M700.4,100V245" style="fill: none; stroke-width: 1px; stroke: rgb(0, 0, 0); stroke-opacity: 1;"/><g class="overlines-above"/><g class="xaxislayer-above"><path class="x4tick ticks crisp" d="M0,246v5" transform="translate(570.3,0)" style="stroke: rgb(68, 68, 68); stroke-opacity: 1; stroke-width: 1px;"/><path class="x4tick ticks crisp" d="M0,246v5" transform="translate(635.0999999999999,0)" style="stroke: rgb(68, 68, 68); stroke-opacity: 1; stroke-width: 1px;"/><path class="x4tick ticks crisp" d="M0,246v5" transform="translate(699.9,0)" style="stroke: rgb(68, 68, 68); stroke-opacity: 1; stroke-width: 1px;"/><g class="x4tick"><text text-anchor="middle" x="0" y="263" transform="translate(570.3,0)" style="font-family: 'Open Sans', verdana, arial, sans-serif; font-size: 10px; fill: rgb(0, 0, 0); fill-opacity: 1; white-space: pre;">0</text></g><g class="x4tick"><text text-anchor="middle" x="0" y="263" transform="translate(635.0999999999999,0)" style="font-family: 'Open Sans', verdana, arial, sans-serif; font-size: 10px; fill: rgb(0, 0, 0); fill-opacity: 1; white-space: pre;">500</text></g><g class="x4tick"><text text-anchor="middle" x="0" y="263" transform="translate(699.9,0)" style="font-family: 'Open Sans', verdana, arial, sans-serif; font-size: 10px; fill: rgb(0, 0, 0); fill-opacity: 1; white-space: pre;">1000</text></g></g><g class="yaxislayer-above"><path class="y4tick ticks crisp" d="M569.3,0h-5" transform="translate(0,245)" style="stroke: rgb(68, 68, 68); stroke-opacity: 1; stroke-width: 1px;"/><path class="y4tick ticks crisp" d="M569.3,0h-5" transform="translate(0,195.7)" style="stroke: rgb(68, 68, 68); stroke-opacity: 1; stroke-width: 1px;"/><path class="y4tick ticks crisp" d="M569.3,0h-5" transform="translate(0,146.41)" style="stroke: rgb(68, 68, 68); stroke-opacity: 1; stroke-width: 1px;"/><g class="y4tick"><text text-anchor="end" x="561.9" y="4.199999999999999" transform="translate(0,245)" style="font-family: 'Open Sans', verdana, arial, sans-serif; font-size: 12px; fill: rgb(0, 0, 0); fill-opacity: 1; white-space: pre;">0</text></g><g class="y4tick"><text text-anchor="end" x="561.9" y="4.199999999999999" transform="translate(0,195.7)" style="font-family: 'Open Sans', verdana, arial, sans-serif; font-size: 12px; fill: rgb(0, 0, 0); fill-opacity: 1; white-space: pre;">0.5</text></g><g class="y4tick"><text text-anchor="end" x="561.9" y="4.199999999999999" transform="translate(0,146.41)" style="font-family: 'Open Sans', verdana, arial, sans-serif; font-size: 12px; fill: rgb(0, 0, 0); fill-opacity: 1; white-space: pre;">1</text></g></g><g class="overaxes-above"/></g><g class="subplot x5y5"><g class="layer-subplot"><g class="shapelayer"/><g class="imagelayer"/></g><g class="gridlayer"><g class="x5"/><g class="y5"/></g><g class="zerolinelayer"/><path class="xlines-below"/><path class="ylines-below"/><g class="overlines-below"/><g class="xaxislayer-below"/><g class="yaxislayer-below"/><g class="overaxes-below"/><g class="plot" transform="translate(740.4000000000001, 100)" clip-path="url('#clip5375f0x5y5plot')"><g class="scatterlayer mlayer"><g class="trace scatter trace558f94" style="stroke-miterlimit: 2; opacity: 1;"><g class="fills"/><g class="errorbars"/><g class="lines"><path class="js-line" d="M1.3,145L10.37,145L11.66,50.93L14.26,39.35L15.55,36.99L16.85,31.19L18.14,32.25L19.44,30.84L20.74,27.69L22.03,28.22L23.33,27.34L32.4,22.39L33.7,22.92L40.18,21.38L41.47,21.14L50.54,19.64L51.84,19.51L66.1,17.87L67.39,17.76L82.94,16.46L84.24,15.26L85.54,16.22L86.83,16.19L127.01,13.37L128.3,13.77L129.6,13.18" style="vector-effect: non-scaling-stroke; fill: none; stroke: rgb(141, 196, 71); stroke-opacity: 1; stroke-width: 2px; opacity: 1;"/></g><g class="points"/><g class="text"/></g><g class="trace scatter trace87367b" style="stroke-miterlimit: 2; opacity: 1;"><g class="fills"/><g class="errorbars"/><g class="lines"><path class="js-line" d="M1.3,145L63.5,145L73.87,80.67L84.24,66.19L94.61,54.97L104.98,45.51L115.34,41.76L125.71,37.03" style="vector-effect: non-scaling-stroke; fill: none; stroke: rgb(255, 85, 85); stroke-opacity: 1; stroke-width: 2px; opacity: 1;"/></g><g class="points"/><g class="text"/></g><g class="trace scatter tracee2a41b" style="stroke-miterlimit: 2; opacity: 1;"><g class="fills"/><g class="errorbars"/><g class="lines"><path class="js-line" d="M1.3,145L11.66,145L12.96,55.01L14.26,40.16L15.55,35.03L23.33,27.29L24.62,26.54L31.1,23.71L32.4,23.21L47.95,20L49.25,19.8L71.28,17.37L72.58,17.29L98.5,15.42L99.79,15.34L129.6,13.72" style="vector-effect: non-scaling-stroke; fill: none; stroke: rgb(118, 209, 244); stroke-opacity: 1; stroke-width: 2px; opacity: 1;"/></g><g class="points"/><g class="text"/></g></g></g><g class="overplot"/><path class="xlines-above crisp" d="M739.4000000000001,245.5H871M739.4000000000001,99.5H871" style="fill: none; stroke-width: 1px; stroke: rgb(0, 0, 0); stroke-opacity: 1;"/><path class="ylines-above crisp" d="M739.9000000000001,100V245M870.5,100V245" style="fill: none; stroke-width: 1px; stroke: rgb(0, 0, 0); stroke-opacity: 1;"/><g class="overlines-above"/><g class="xaxislayer-above"><path class="x5tick ticks crisp" d="M0,246v5" transform="translate(740.4000000000001,0)" style="stroke: rgb(68, 68, 68); stroke-opacity: 1; stroke-width: 1px;"/><path class="x5tick ticks crisp" d="M0,246v5" transform="translate(805.2,0)" style="stroke: rgb(68, 68, 68); stroke-opacity: 1; stroke-width: 1px;"/><path class="x5tick ticks crisp" d="M0,246v5" transform="translate(870.0000000000001,0)" style="stroke: rgb(68, 68, 68); stroke-opacity: 1; stroke-width: 1px;"/><g class="x5tick"><text text-anchor="middle" x="0" y="263" transform="translate(740.4000000000001,0)" style="font-family: 'Open Sans', verdana, arial, sans-serif; font-size: 10px; fill: rgb(0, 0, 0); fill-opacity: 1; white-space: pre;">0</text></g><g class="x5tick"><text text-anchor="middle" x="0" y="263" transform="translate(805.2,0)" style="font-family: 'Open Sans', verdana, arial, sans-serif; font-size: 10px; fill: rgb(0, 0, 0); fill-opacity: 1; white-space: pre;">500</text></g><g class="x5tick"><text text-anchor="middle" x="0" y="263" transform="translate(870.0000000000001,0)" style="font-family: 'Open Sans', verdana, arial, sans-serif; font-size: 10px; fill: rgb(0, 0, 0); fill-opacity: 1; white-space: pre;">1000</text></g></g><g class="yaxislayer-above"><path class="y5tick ticks crisp" d="M739.4000000000001,0h-5" transform="translate(0,245)" style="stroke: rgb(68, 68, 68); stroke-opacity: 1; stroke-width: 1px;"/><path class="y5tick ticks crisp" d="M739.4000000000001,0h-5" transform="translate(0,196.32)" style="stroke: rgb(68, 68, 68); stroke-opacity: 1; stroke-width: 1px;"/><path class="y5tick ticks crisp" d="M739.4000000000001,0h-5" transform="translate(0,147.63)" style="stroke: rgb(68, 68, 68); stroke-opacity: 1; stroke-width: 1px;"/><g class="y5tick"><text text-anchor="end" x="732.0000000000001" y="4.199999999999999" transform="translate(0,245)" style="font-family: 'Open Sans', verdana, arial, sans-serif; font-size: 12px; fill: rgb(0, 0, 0); fill-opacity: 1; white-space: pre;">0</text></g><g class="y5tick"><text text-anchor="end" x="732.0000000000001" y="4.199999999999999" transform="translate(0,196.32)" style="font-family: 'Open Sans', verdana, arial, sans-serif; font-size: 12px; fill: rgb(0, 0, 0); fill-opacity: 1; white-space: pre;">0.5</text></g><g class="y5tick"><text text-anchor="end" x="732.0000000000001" y="4.199999999999999" transform="translate(0,147.63)" style="font-family: 'Open Sans', verdana, arial, sans-serif; font-size: 12px; fill: rgb(0, 0, 0); fill-opacity: 1; white-space: pre;">1</text></g></g><g class="overaxes-above"/></g></g><g class="polarlayer"/><g class="ternarylayer"/><g class="geolayer"/><g class="funnelarealayer"/><g class="pielayer"/><g class="treemaplayer"/><g class="sunburstlayer"/><g class="glimages"/><defs id="topdefs-5375f0"><g class="clips"/></defs><g class="layer-above"><g class="imagelayer"/><g class="shapelayer"/></g><g class="infolayer"><g class="g-gtitle"/><g class="g-xtitle"><text class="xtitle" x="124.8" y="288.90625" text-anchor="middle" style="font-family: 'Open Sans', verdana, arial, sans-serif; font-size: 12px; fill: rgb(0, 0, 0); opacity: 1; font-weight: normal; white-space: pre;"><tspan class="line" dy="0em" x="124.8" y="288.90625">Initial Substrate</tspan><tspan class="line" dy="1.3em" x="124.8" y="288.90625">Concentration (mmol/L)</tspan></text></g><g class="g-x2title"><text class="x2title" x="294.90000000000003" y="288.90625" text-anchor="middle" style="font-family: 'Open Sans', verdana, arial, sans-serif; font-size: 12px; fill: rgb(0, 0, 0); opacity: 1; font-weight: normal; white-space: pre;"><tspan class="line" dy="0em" x="294.90000000000003" y="288.90625">Initial Substrate</tspan><tspan class="line" dy="1.3em" x="294.90000000000003" y="288.90625">Concentration (mmol/L)</tspan></text></g><g class="g-x3title"><text class="x3title" x="465.00000000000006" y="288.90625" text-anchor="middle" style="font-family: 'Open Sans', verdana, arial, sans-serif; font-size: 12px; fill: rgb(0, 0, 0); opacity: 1; font-weight: normal; white-space: pre;"><tspan class="line" dy="0em" x="465.00000000000006" y="288.90625">Initial Substrate</tspan><tspan class="line" dy="1.3em" x="465.00000000000006" y="288.90625">Concentration (mmol/L)</tspan></text></g><g class="g-x4title"><text class="x4title" x="635.0999999999999" y="288.90625" text-anchor="middle" style="font-family: 'Open Sans', verdana, arial, sans-serif; font-size: 12px; fill: rgb(0, 0, 0); opacity: 1; font-weight: normal; white-space: pre;"><tspan class="line" dy="0em" x="635.0999999999999" y="288.90625">Initial Substrate</tspan><tspan class="line" dy="1.3em" x="635.0999999999999" y="288.90625">Concentration (mmol/L)</tspan></text></g><g class="g-x5title"><text class="x5title" x="805.2" y="288.90625" text-anchor="middle" style="font-family: 'Open Sans', verdana, arial, sans-serif; font-size: 12px; fill: rgb(0, 0, 0); opacity: 1; font-weight: normal; white-space: pre;"><tspan class="line" dy="0em" x="805.2" y="288.90625">Initial Substrate</tspan><tspan class="line" dy="1.3em" x="805.2" y="288.90625">Concentration (mmol/L)</tspan></text></g><g class="g-ytitle" transform="translate(4.03125,0)"><text class="ytitle" transform="rotate(-90,7.96875,172.5)" x="7.96875" y="172.5" text-anchor="middle" style="font-family: 'Open Sans', verdana, arial, sans-serif; font-size: 12px; fill: rgb(0, 0, 0); opacity: 1; font-weight: normal; white-space: pre;"><tspan class="line" dy="0em" x="7.96875" y="172.5">Yield</tspan><tspan class="line" dy="1.3em" x="7.96875" y="172.5">(mmol product/mmol substrate)</tspan></text></g><g class="g-y2title"/><g class="g-y3title"/><g class="g-y4title"/><g class="g-y5title"/><g class="annotation" data-index="0" style="opacity: 1;"><g class="annotation-text-g" transform="rotate(0,124.8,78)"><g class="cursor-pointer" transform="translate(57, 56)"><rect class="bg" x="0.5" y="0.5" width="134" height="43" style="stroke-width: 1px; stroke: rgb(0, 0, 0); stroke-opacity: 0; fill: rgb(0, 0, 0); fill-opacity: 0;"/><text class="annotation-text" text-anchor="middle" x="67.6875" y="18" style="font-family: 'Open Sans', verdana, arial, sans-serif; font-size: 16px; fill: rgb(68, 68, 68); fill-opacity: 1; white-space: pre;"><tspan class="line" dy="0em" x="67.6875" y="18">Initial Biomass: </tspan><tspan class="line" dy="1.3em" x="67.6875" y="18">0.001 (mM)</tspan></text></g></g></g><g class="annotation" data-index="1" style="opacity: 1;"><g class="annotation-text-g" transform="rotate(0,294.90000000000003,78)"><g class="cursor-pointer" transform="translate(227, 56)"><rect class="bg" x="0.5" y="0.5" width="134" height="43" style="stroke-width: 1px; stroke: rgb(0, 0, 0); stroke-opacity: 0; fill: rgb(0, 0, 0); fill-opacity: 0;"/><text class="annotation-text" text-anchor="middle" x="67.6875" y="18" style="font-family: 'Open Sans', verdana, arial, sans-serif; font-size: 16px; fill: rgb(68, 68, 68); fill-opacity: 1; white-space: pre;"><tspan class="line" dy="0em" x="67.6875" y="18">Initial Biomass: </tspan><tspan class="line" dy="1.3em" x="67.6875" y="18">0.01 (mM)</tspan></text></g></g></g><g class="annotation" data-index="2" style="opacity: 1;"><g class="annotation-text-g" transform="rotate(0,465,78)"><g class="cursor-pointer" transform="translate(398, 56)"><rect class="bg" x="0.5" y="0.5" width="134" height="43" style="stroke-width: 1px; stroke: rgb(0, 0, 0); stroke-opacity: 0; fill: rgb(0, 0, 0); fill-opacity: 0;"/><text class="annotation-text" text-anchor="middle" x="67.6875" y="18" style="font-family: 'Open Sans', verdana, arial, sans-serif; font-size: 16px; fill: rgb(68, 68, 68); fill-opacity: 1; white-space: pre;"><tspan class="line" dy="0em" x="67.6875" y="18">Initial Biomass: </tspan><tspan class="line" dy="1.3em" x="67.6875" y="18">0.05 (mM)</tspan></text></g></g></g><g class="annotation" data-index="3" style="opacity: 1;"><g class="annotation-text-g" transform="rotate(0,635.1,78)"><g class="cursor-pointer" transform="translate(568, 56)"><rect class="bg" x="0.5" y="0.5" width="134" height="43" style="stroke-width: 1px; stroke: rgb(0, 0, 0); stroke-opacity: 0; fill: rgb(0, 0, 0); fill-opacity: 0;"/><text class="annotation-text" text-anchor="middle" x="67.6875" y="18" style="font-family: 'Open Sans', verdana, arial, sans-serif; font-size: 16px; fill: rgb(68, 68, 68); fill-opacity: 1; white-space: pre;"><tspan class="line" dy="0em" x="67.6875" y="18">Initial Biomass: </tspan><tspan class="line" dy="1.3em" x="67.6875" y="18">0.1 (mM)</tspan></text></g></g></g><g class="annotation" data-index="4" style="opacity: 1;"><g class="annotation-text-g" transform="rotate(0,805.2,78)"><g class="cursor-pointer" transform="translate(738, 56)"><rect class="bg" x="0.5" y="0.5" width="134" height="43" style="stroke-width: 1px; stroke: rgb(0, 0, 0); stroke-opacity: 0; fill: rgb(0, 0, 0); fill-opacity: 0;"/><text class="annotation-text" text-anchor="middle" x="67.6875" y="18" style="font-family: 'Open Sans', verdana, arial, sans-serif; font-size: 16px; fill: rgb(68, 68, 68); fill-opacity: 1; white-space: pre;"><tspan class="line" dy="0em" x="67.6875" y="18">Initial Biomass: </tspan><tspan class="line" dy="1.3em" x="67.6875" y="18">1 (mM)</tspan></text></g></g></g></g></svg>