<svg class="main-svg" xmlns="http://www.w3.org/2000/svg" xmlns:xlink="http://www.w3.org/1999/xlink" width="950" height="325" viewBox="0 0 950 325"><rect x="0" y="0" width="950" height="325" style="fill: rgb(255, 255, 255); fill-opacity: 1;"/><defs id="defs-4cd02a"><g class="clips"><clipPath id="clip4cd02axyplot" class="plotclip"><rect width="130.24" height="145"/></clipPath><clipPath id="clip4cd02ax2y2plot" class="plotclip"><rect width="130.23999999999998" height="145"/></clipPath><clipPath id="clip4cd02ax3y3plot" class="plotclip"><rect width="130.24000000000004" height="145"/></clipPath><clipPath id="clip4cd02ax4y4plot" class="plotclip"><rect width="130.24000000000004" height="145"/></clipPath><clipPath id="clip4cd02ax5y5plot" class="plotclip"><rect width="130.23999999999992" height="145"/></clipPath><clipPath class="axesclip" id="clip4cd02ax"><rect x="56" y="0" width="130.24" height="325"/></clipPath><clipPath class="axesclip" id="clip4cd02ay"><rect x="0" y="100" width="950" height="145"/></clipPath><clipPath class="axesclip" id="clip4cd02axy"><rect x="56" y="100" width="130.24" height="145"/></clipPath><clipPath class="axesclip" id="clip4cd02ay2"><rect x="0" y="100" width="950" height="145"/></clipPath><clipPath class="axesclip" id="clip4cd02axy2"><rect x="56" y="100" width="130.24" height="145"/></clipPath><clipPath class="axesclip" id="clip4cd02ay3"><rect x="0" y="100" width="950" height="145"/></clipPath><clipPath class="axesclip" id="clip4cd02axy3"><rect x="56" y="100" width="130.24" height="145"/></clipPath><clipPath class="axesclip" id="clip4cd02ay4"><rect x="0" y="100" width="950" height="145"/></clipPath><clipPath class="axesclip" id="clip4cd02axy4"><rect x="56" y="100" width="130.24" height="145"/></clipPath><clipPath class="axesclip" id="clip4cd02ay5"><rect x="0" y="100" width="950" height="145"/></clipPath><clipPath class="axesclip" id="clip4cd02axy5"><rect x="56" y="100" width="130.24" height="145"/></clipPath><clipPath class="axesclip" id="clip4cd02ax2"><rect x="226.94000000000003" y="0" width="130.23999999999998" height="325"/></clipPath><clipPath class="axesclip" id="clip4cd02ax2y"><rect x="226.94000000000003" y="100" width="130.23999999999998" height="145"/></clipPath><clipPath class="axesclip" id="clip4cd02ax2y2"><rect x="226.94000000000003" y="100" width="130.23999999999998" height="145"/></clipPath><clipPath class="axesclip" id="clip4cd02ax2y3"><rect x="226.94000000000003" y="100" width="130.23999999999998" height="145"/></clipPath><clipPath class="axesclip" id="clip4cd02ax2y4"><rect x="226.94000000000003" y="100" width="130.23999999999998" height="145"/></clipPath><clipPath class="axesclip" id="clip4cd02ax2y5"><rect x="226.94000000000003" y="100" width="130.23999999999998" height="145"/></clipPath><clipPath class="axesclip" id="clip4cd02ax3"><rect x="397.88000000000005" y="0" width="130.24000000000004" height="325"/></clipPath><clipPath class="axesclip" id="clip4cd02ax3y"><rect x="397.88000000000005" y="100" width="130.24000000000004" height="145"/></clipPath><clipPath class="axesclip" id="clip4cd02ax3y2"><rect x="397.88000000000005" y="100" width="130.24000000000004" height="145"/></clipPath><clipPath class="axesclip" id="clip4cd02ax3y3"><rect x="397.88000000000005" y="100" width="130.24000000000004" height="145"/></clipPath><clipPath class="axesclip" id="clip4cd02ax3y4"><rect x="397.88000000000005" y="100" width="130.24000000000004" height="145"/></clipPath><clipPath class="axesclip" id="clip4cd02ax3y5"><rect x="397.88000000000005" y="100" width="130.24000000000004" height="145"/></clipPath><clipPath class="axesclip" id="clip4cd02ax4"><rect x="568.82" y="0" width="130.24000000000004" height="325"/></clipPath><clipPath class="axesclip" id="clip4cd02ax4y"><rect x="568.82" y="100" width="130.24000000000004" height="145"/></clipPath><clipPath class="axesclip" id="clip4cd02ax4y2"><rect x="568.82" y="100" width="130.24000000000004" height="145"/></clipPath><clipPath class="axesclip" id="clip4cd02ax4y3"><rect x="568.82" y="100" width="130.24000000000004" height="145"/></clipPath><clipPath class="axesclip" id="clip4cd02ax4y4"><rect x="568.82" y="100" width="130.24000000000004" height="145"/></clipPath><clipPath class="axesclip" id="clip4cd02ax4y5"><rect x="568.82" y="100" width="130.24000000000004" height="145"/></clipPath><clipPath class="axesclip" id="clip4cd02ax5"><rect x="739.7600000000001" y="0" width="130.23999999999992" height="325"/></clipPath><clipPath class="axesclip" id="clip4cd02ax5y"><rect x="739.7600000000001" y="100" width="130.23999999999992" height="145"/></clipPath><clipPath class="axesclip" id="clip4cd02ax5y2"><rect x="739.7600000000001" y="100" width="130.23999999999992" height="145"/></clipPath><clipPath class="axesclip" id="clip4cd02ax5y3"><rect x="739.7600000000001" y="100" width="130.23999999999992" height="145"/></clipPath><clipPath class="axesclip" id="clip4cd02ax5y4"><rect x="739.7600000000001" y="100" width="130.23999999999992" height="145"/></clipPath><clipPath class="axesclip" id="clip4cd02ax5y5"><rect x="739.7600000000001" y="100" width="130.23999999999992" height="145"/></clipPath></g><g class="gradients"/></defs><g class="bglayer"/><g class="layer-below"><g class="imagelayer"/><g class="shapelayer"/></g><g class="cartesianlayer"><g class="subplot xy"><g class="layer-subplot"><g class="shapelayer"/><g class="imagelayer"/></g><g class="gridlayer"><g class="x"/><g class="y"/></g><g class="zerolinelayer"/><path class="xlines-below"/><path class="ylines-below"/><g class="overlines-below"/><g class="xaxislayer-below"/><g class="yaxislayer-below"/><g class="overaxes-below"/><g class="plot" transform="translate(56, 100)" clip-path="url('#clip4cd02axyplot')"><g class="scatterlayer mlayer"><g class="trace scatter trace7f0fe9" style="stroke-miterlimit: 2; opacity: 1;"><g class="fills"/><g class="errorbars"/><g class="lines"><path class="js-line" d="M1.3,143.3L15.63,127.57L16.93,126.87L19.54,123.17L20.84,122.15L24.75,117.72L26.05,116.36L27.35,115.72L28.65,113.63L36.47,105.6L37.77,104.1L40.37,101.54L41.68,101.21L44.28,97.53L45.58,97.1L48.19,93.52L49.49,92.27L54.7,87.07L56,86.8L58.61,83.08L59.91,83.11L62.52,80.02L63.82,77.76L80.75,60.61L82.05,60.57L84.66,56.68L85.96,55.77L88.56,52.84L89.87,56.92L92.47,49.01L93.77,48.06L97.68,44.12L98.98,42.51L101.59,40.25L102.89,41.49L104.19,37.51L105.49,36.43L110.7,31.4L112.01,29.94L113.31,34.49L114.61,27.53L121.12,21.12L122.43,22.27L123.73,18.16L125.03,21.15L126.33,15.71L127.64,14.4L128.94,13.18L130.24,16.79" style="vector-effect: non-scaling-stroke; fill: none; stroke: rgb(141, 196, 71); stroke-opacity: 1; stroke-width: 2px; opacity: 1;"/></g><g class="points"/><g class="text"/></g><g class="trace scatter tracebb9a68" style="stroke-miterlimit: 2; opacity: 1;"><g class="fills"/><g class="errorbars"/><g class="lines"><path class="js-line" d="M1.3,144.56L31.26,134.68L32.56,134.8L36.47,132.71L37.77,133.14L39.07,131.79L40.37,131.62L49.49,128.83L50.79,128.4L66.42,122.83L67.72,123.46L78.14,119.59L79.45,118.6L82.05,118.69L83.35,118.42L93.77,114.18L95.08,114.06L97.68,113.28L98.98,113.29L100.28,113.78L101.59,112.43L104.19,110.31L105.49,111L106.8,109.63L108.1,110.06L110.7,108.63L112.01,109.16L114.61,107.4L115.91,107.71L119.82,106.2L121.12,106.79L123.73,104.12L125.03,103.74L127.64,103.93L128.94,103.28L130.24,102.91" style="vector-effect: non-scaling-stroke; fill: none; stroke: rgb(255, 85, 85); stroke-opacity: 1; stroke-width: 2px; opacity: 1;"/></g><g class="points"/><g class="text"/></g><g class="trace scatter trace0e46d0" style="stroke-miterlimit: 2; opacity: 1;"><g class="fills"/><g class="errorbars"/><g class="lines"><path class="js-line" d="M1.3,143.88L11.72,137.61L13.02,136.87L56,115.26L57.31,114.63L130.24,81.34" style="vector-effect: non-scaling-stroke; fill: none; stroke: rgb(118, 209, 244); stroke-opacity: 1; stroke-width: 2px; opacity: 1;"/></g><g class="points"/><g class="text"/></g></g></g><g class="overplot"/><path class="xlines-above crisp" d="M55,245.5H187.24M55,99.5H187.24" style="fill: none; stroke-width: 1px; stroke: rgb(0, 0, 0); stroke-opacity: 1;"/><path class="ylines-above crisp" d="M55.5,100V245M186.74,100V245" style="fill: none; stroke-width: 1px; stroke: rgb(0, 0, 0); stroke-opacity: 1;"/><g class="overlines-above"/><g class="xaxislayer-above"><path class="xtick ticks crisp" d="M0,246v5" transform="translate(56,0)" style="stroke: rgb(68, 68, 68); stroke-opacity: 1; stroke-width: 1px;"/><path class="xtick ticks crisp" d="M0,246v5" transform="translate(121.12,0)" style="stroke: rgb(68, 68, 68); stroke-opacity: 1; stroke-width: 1px;"/><path class="xtick ticks crisp" d="M0,246v5" transform="translate(186.24,0)" style="stroke: rgb(68, 68, 68); stroke-opacity: 1; stroke-width: 1px;"/><g class="xtick"><text text-anchor="middle" x="0" y="263" transform="translate(56,0)" style="font-family: 'Open Sans', verdana, arial, sans-serif; font-size: 10px; fill: rgb(0, 0, 0); fill-opacity: 1; white-space: pre;">0</text></g><g class="xtick"><text text-anchor="middle" x="0" y="263" transform="translate(121.12,0)" style="font-family: 'Open Sans', verdana, arial, sans-serif; font-size: 10px; fill: rgb(0, 0, 0); fill-opacity: 1; white-space: pre;">500</text></g><g class="xtick"><text text-anchor="middle" x="0" y="263" transform="translate(186.24,0)" style="font-family: 'Open Sans', verdana, arial, sans-serif; font-size: 10px; fill: rgb(0, 0, 0); fill-opacity: 1; white-space: pre;">1000</text></g></g><g class="yaxislayer-above"><path class="ytick ticks crisp" d="M55,0h-5" transform="translate(0,245)" style="stroke: rgb(68, 68, 68); stroke-opacity: 1; stroke-width: 1px;"/><path class="ytick ticks crisp" d="M55,0h-5" transform="translate(0,196.01)" style="stroke: rgb(68, 68, 68); stroke-opacity: 1; stroke-width: 1px;"/><path class="ytick ticks crisp" d="M55,0h-5" transform="translate(0,147.01)" style="stroke: rgb(68, 68, 68); stroke-opacity: 1; stroke-width: 1px;"/><g class="ytick"><text text-anchor="end" x="47.6" y="4.199999999999999" transform="translate(0,245)" style="font-family: 'Open Sans', verdana, arial, sans-serif; font-size: 12px; fill: rgb(0, 0, 0); fill-opacity: 1; white-space: pre;">0</text></g><g class="ytick"><text text-anchor="end" x="47.6" y="4.199999999999999" transform="translate(0,196.01)" style="font-family: 'Open Sans', verdana, arial, sans-serif; font-size: 12px; fill: rgb(0, 0, 0); fill-opacity: 1; white-space: pre;">20</text></g><g class="ytick"><text text-anchor="end" x="47.6" y="4.199999999999999" transform="translate(0,147.01)" style="font-family: 'Open Sans', verdana, arial, sans-serif; font-size: 12px; fill: rgb(0, 0, 0); fill-opacity: 1; white-space: pre;">40</text></g></g><g class="overaxes-above"/></g><g class="subplot x2y2"><g class="layer-subplot"><g class="shapelayer"/><g class="imagelayer"/></g><g class="gridlayer"><g class="x2"/><g class="y2"/></g><g class="zerolinelayer"/><path class="xlines-below"/><path class="ylines-below"/><g class="overlines-below"/><g class="xaxislayer-below"/><g class="yaxislayer-below"/><g class="overaxes-below"/><g class="plot" transform="translate(226.94000000000003, 100)" clip-path="url('#clip4cd02ax2y2plot')"><g class="scatterlayer mlayer"><g class="trace scatter trace67205a" style="stroke-miterlimit: 2; opacity: 1;"><g class="fills"/><g class="errorbars"/><g class="lines"><path class="js-line" d="M1.3,143.1L16.93,125.76L18.23,124.52L20.84,121.63L22.14,120.32L23.44,118.74L24.75,118.43L27.35,114.8L28.65,113.45L29.96,114.28L31.26,110.75L32.56,110.01L33.86,108.07L42.98,98.99L44.28,98.4L45.58,97.74L46.89,94.65L48.19,94.37L49.49,92.45L52.1,89.7L53.4,88.99L54.7,87.41L56,87.37L58.61,83.52L59.91,81.49L67.72,73.87L69.03,72.46L76.84,64.86L78.14,63.31L83.35,58.47L84.66,57.21L88.56,53.36L89.87,52.26L92.47,49.45L93.77,51.34L96.38,45.4L97.68,44.04L100.28,43.32L101.59,40.54L102.89,42.39L104.19,38.14L110.7,31.45L112.01,31.16L113.31,31.76L114.61,28.43L117.22,25.55L118.52,24.27L121.12,21.27L122.43,21.32L123.73,18.79L125.03,21.89L128.94,16.96L130.24,13.18" style="vector-effect: non-scaling-stroke; fill: none; stroke: rgb(141, 196, 71); stroke-opacity: 1; stroke-width: 2px; opacity: 1;"/></g><g class="points"/><g class="text"/></g><g class="trace scatter trace004c26" style="stroke-miterlimit: 2; opacity: 1;"><g class="fills"/><g class="errorbars"/><g class="lines"><path class="js-line" d="M1.3,144.55L56,128.36L57.31,127.99L59.91,126.58L61.21,126.72L62.52,126.6L63.82,125.48L70.33,123.98L71.63,124.19L75.54,121.94L76.84,122.51L80.75,120.45L82.05,119.97L83.35,119.42L84.66,119.71L87.26,118.44L88.56,118.25L92.47,116.73L93.77,117.71L97.68,115.14L98.98,115.9L110.7,112.91L112.01,112.07L113.31,112.12L114.61,111.31L115.91,110.22L117.22,110.59L121.12,109.38L122.43,110.16L125.03,107.84L126.33,107.72L127.64,107.26L128.94,105.55L130.24,105.44" style="vector-effect: non-scaling-stroke; fill: none; stroke: rgb(255, 85, 85); stroke-opacity: 1; stroke-width: 2px; opacity: 1;"/></g><g class="points"/><g class="text"/></g><g class="trace scatter tracef332a5" style="stroke-miterlimit: 2; opacity: 1;"><g class="fills"/><g class="errorbars"/><g class="lines"><path class="js-line" d="M1.3,143.41L9.12,137.61L10.42,136.73L28.65,125.59L29.96,124.86L85.96,94.87L87.26,94.29L105.49,84.98L106.8,84.47L117.22,79.2L118.52,78.56L130.24,72.85" style="vector-effect: non-scaling-stroke; fill: none; stroke: rgb(118, 209, 244); stroke-opacity: 1; stroke-width: 2px; opacity: 1;"/></g><g class="points"/><g class="text"/></g></g></g><g class="overplot"/><path class="xlines-above crisp" d="M225.94000000000003,245.5H358.18M225.94000000000003,99.5H358.18" style="fill: none; stroke-width: 1px; stroke: rgb(0, 0, 0); stroke-opacity: 1;"/><path class="ylines-above crisp" d="M226.44000000000003,100V245M357.68,100V245" style="fill: none; stroke-width: 1px; stroke: rgb(0, 0, 0); stroke-opacity: 1;"/><g class="overlines-above"/><g class="xaxislayer-above"><path class="x2tick ticks crisp" d="M0,246v5" transform="translate(226.94000000000003,0)" style="stroke: rgb(68, 68, 68); stroke-opacity: 1; stroke-width: 1px;"/><path class="x2tick ticks crisp" d="M0,246v5" transform="translate(292.06000000000006,0)" style="stroke: rgb(68, 68, 68); stroke-opacity: 1; stroke-width: 1px;"/><path class="x2tick ticks crisp" d="M0,246v5" transform="translate(357.18000000000006,0)" style="stroke: rgb(68, 68, 68); stroke-opacity: 1; stroke-width: 1px;"/><g class="x2tick"><text text-anchor="middle" x="0" y="263" transform="translate(226.94000000000003,0)" style="font-family: 'Open Sans', verdana, arial, sans-serif; font-size: 10px; fill: rgb(0, 0, 0); fill-opacity: 1; white-space: pre;">0</text></g><g class="x2tick"><text text-anchor="middle" x="0" y="263" transform="translate(292.06000000000006,0)" style="font-family: 'Open Sans', verdana, arial, sans-serif; font-size: 10px; fill: rgb(0, 0, 0); fill-opacity: 1; white-space: pre;">500</text></g><g class="x2tick"><text text-anchor="middle" x="0" y="263" transform="translate(357.18000000000006,0)" style="font-family: 'Open Sans', verdana, arial, sans-serif; font-size: 10px; fill: rgb(0, 0, 0); fill-opacity: 1; white-space: pre;">1000</text></g></g><g class="yaxislayer-above"><path class="y2tick ticks crisp" d="M225.94000000000003,0h-5" transform="translate(0,245)" style="stroke: rgb(68, 68, 68); stroke-opacity: 1; stroke-width: 1px;"/><path class="y2tick ticks crisp" d="M225.94000000000003,0h-5" transform="translate(0,201.45)" style="stroke: rgb(68, 68, 68); stroke-opacity: 1; stroke-width: 1px;"/><path class="y2tick ticks crisp" d="M225.94000000000003,0h-5" transform="translate(0,157.9)" style="stroke: rgb(68, 68, 68); stroke-opacity: 1; stroke-width: 1px;"/><path class="y2tick ticks crisp" d="M225.94000000000003,0h-5" transform="translate(0,114.35)" style="stroke: rgb(68, 68, 68); stroke-opacity: 1; stroke-width: 1px;"/><g class="y2tick"><text text-anchor="end" x="218.54000000000002" y="4.199999999999999" transform="translate(0,245)" style="font-family: 'Open Sans', verdana, arial, sans-serif; font-size: 12px; fill: rgb(0, 0, 0); fill-opacity: 1; white-space: pre;">0</text></g><g class="y2tick"><text text-anchor="end" x="218.54000000000002" y="4.199999999999999" transform="translate(0,201.45)" style="font-family: 'Open Sans', verdana, arial, sans-serif; font-size: 12px; fill: rgb(0, 0, 0); fill-opacity: 1; white-space: pre;">20</text></g><g class="y2tick"><text text-anchor="end" x="218.54000000000002" y="4.199999999999999" transform="translate(0,157.9)" style="font-family: 'Open Sans', verdana, arial, sans-serif; font-size: 12px; fill: rgb(0, 0, 0); fill-opacity: 1; white-space: pre;">40</text></g><g class="y2tick"><text text-anchor="end" x="218.54000000000002" y="4.199999999999999" transform="translate(0,114.35)" style="font-family: 'Open Sans', verdana, arial, sans-serif; font-size: 12px; fill: rgb(0, 0, 0); fill-opacity: 1; white-space: pre;">60</text></g></g><g class="overaxes-above"/></g><g class="subplot x3y3"><g class="layer-subplot"><g class="shapelayer"/><g class="imagelayer"/></g><g class="gridlayer"><g class="x3"/><g class="y3"/></g><g class="zerolinelayer"/><path class="xlines-below"/><path class="ylines-below"/><g class="overlines-below"/><g class="xaxislayer-below"/><g class="yaxislayer-below"/><g class="overaxes-below"/><g class="plot" transform="translate(397.88000000000005, 100)" clip-path="url('#clip4cd02ax3y3plot')"><g class="scatterlayer mlayer"><g class="trace scatter trace454419" style="stroke-miterlimit: 2; opacity: 1;"><g class="fills"/><g class="errorbars"/><g class="lines"><path class="js-line" d="M1.3,142.38L9.12,133.64L10.42,132.15L22.14,119.67L23.44,118.44L26.05,115.62L27.35,115.05L29.96,111.79L31.26,110.58L32.56,108.64L33.86,108.53L35.16,107.39L36.47,105L40.37,100.52L41.68,99.43L45.58,95.34L46.89,95.38L50.79,90.15L52.1,88.44L53.4,89.13L54.7,86.01L56,87.49L57.31,83.89L59.91,80.96L61.21,79.74L66.42,74.22L67.72,73.44L69.03,73.3L70.33,70.12L71.63,70.6L72.93,67.74L76.84,63.72L78.14,64.41L80.75,60.3L82.05,62.94L83.35,57.7L84.66,56.24L85.96,56.63L87.26,54.1L89.87,51.97L91.17,49.68L92.47,48.96L93.77,47.08L95.08,45.91L96.38,47.55L97.68,44.66L98.98,44.06L100.28,40.66L101.59,39.97L104.19,38.37L105.49,39.13L108.1,33.23L109.4,34.1L112.01,29.47L113.31,30L114.61,31.05L115.91,25.65L117.22,28.55L118.52,26.05L119.82,21.84L121.12,20.55L122.43,20.52L123.73,18.98L125.03,18.58L126.33,16.42L130.24,13.18" style="vector-effect: non-scaling-stroke; fill: none; stroke: rgb(141, 196, 71); stroke-opacity: 1; stroke-width: 2px; opacity: 1;"/></g><g class="points"/><g class="text"/></g><g class="trace scatter tracedf95d9" style="stroke-miterlimit: 2; opacity: 1;"><g class="fills"/><g class="errorbars"/><g class="lines"><path class="js-line" d="M1.3,144.54L24.75,137.68L26.05,137.38L62.52,126.74L63.82,127.29L70.33,125.48L71.63,124.52L72.93,124.73L74.24,123.76L75.54,123.96L76.84,122.59L78.14,123.17L79.45,122.83L83.35,121.39L84.66,121.35L87.26,120.1L88.56,120.09L89.87,118.74L91.17,118.69L97.68,118.46L98.98,117.04L101.59,116.64L102.89,115.3L108.1,115.08L109.4,113.76L110.7,113.85L112.01,112.57L115.91,112.92L117.22,111.75L119.82,112.28L121.12,110.55L130.24,108.4" style="vector-effect: non-scaling-stroke; fill: none; stroke: rgb(255, 85, 85); stroke-opacity: 1; stroke-width: 2px; opacity: 1;"/></g><g class="points"/><g class="text"/></g><g class="trace scatter trace2c34b0" style="stroke-miterlimit: 2; opacity: 1;"><g class="fills"/><g class="errorbars"/><g class="lines"><path class="js-line" d="M1.3,142.54L7.81,136.61L9.12,135.53L28.65,121.68L29.96,120.9L42.98,112.55L44.28,111.8L75.54,93.1L76.84,92.38L89.87,84.95L91.17,84.22L110.7,73.29L112.01,72.76L118.52,69.02L119.82,68.52L130.24,62.76" style="vector-effect: non-scaling-stroke; fill: none; stroke: rgb(118, 209, 244); stroke-opacity: 1; stroke-width: 2px; opacity: 1;"/></g><g class="points"/><g class="text"/></g></g></g><g class="overplot"/><path class="xlines-above crisp" d="M396.88000000000005,245.5H529.1200000000001M396.88000000000005,99.5H529.1200000000001" style="fill: none; stroke-width: 1px; stroke: rgb(0, 0, 0); stroke-opacity: 1;"/><path class="ylines-above crisp" d="M397.38000000000005,100V245M528.6200000000001,100V245" style="fill: none; stroke-width: 1px; stroke: rgb(0, 0, 0); stroke-opacity: 1;"/><g class="overlines-above"/><g class="xaxislayer-above"><path class="x3tick ticks crisp" d="M0,246v5" transform="translate(397.88000000000005,0)" style="stroke: rgb(68, 68, 68); stroke-opacity: 1; stroke-width: 1px;"/><path class="x3tick ticks crisp" d="M0,246v5" transform="translate(463.00000000000006,0)" style="stroke: rgb(68, 68, 68); stroke-opacity: 1; stroke-width: 1px;"/><path class="x3tick ticks crisp" d="M0,246v5" transform="translate(528.1200000000001,0)" style="stroke: rgb(68, 68, 68); stroke-opacity: 1; stroke-width: 1px;"/><g class="x3tick"><text text-anchor="middle" x="0" y="263" transform="translate(397.88000000000005,0)" style="font-family: 'Open Sans', verdana, arial, sans-serif; font-size: 10px; fill: rgb(0, 0, 0); fill-opacity: 1; white-space: pre;">0</text></g><g class="x3tick"><text text-anchor="middle" x="0" y="263" transform="translate(463.00000000000006,0)" style="font-family: 'Open Sans', verdana, arial, sans-serif; font-size: 10px; fill: rgb(0, 0, 0); fill-opacity: 1; white-space: pre;">500</text></g><g class="x3tick"><text text-anchor="middle" x="0" y="263" transform="translate(528.1200000000001,0)" style="font-family: 'Open Sans', verdana, arial, sans-serif; font-size: 10px; fill: rgb(0, 0, 0); fill-opacity: 1; white-space: pre;">1000</text></g></g><g class="yaxislayer-above"><path class="y3tick ticks crisp" d="M396.88000000000005,0h-5" transform="translate(0,245)" style="stroke: rgb(68, 68, 68); stroke-opacity: 1; stroke-width: 1px;"/><path class="y3tick ticks crisp" d="M396.88000000000005,0h-5" transform="translate(0,204.91)" style="stroke: rgb(68, 68, 68); stroke-opacity: 1; stroke-width: 1px;"/><path class="y3tick ticks crisp" d="M396.88000000000005,0h-5" transform="translate(0,164.82)" style="stroke: rgb(68, 68, 68); stroke-opacity: 1; stroke-width: 1px;"/><path class="y3tick ticks crisp" d="M396.88000000000005,0h-5" transform="translate(0,124.73)" style="stroke: rgb(68, 68, 68); stroke-opacity: 1; stroke-width: 1px;"/><g class="y3tick"><text text-anchor="end" x="389.4800000000001" y="4.199999999999999" transform="translate(0,245)" style="font-family: 'Open Sans', verdana, arial, sans-serif; font-size: 12px; fill: rgb(0, 0, 0); fill-opacity: 1; white-space: pre;">0</text></g><g class="y3tick"><text text-anchor="end" x="389.4800000000001" y="4.199999999999999" transform="translate(0,204.91)" style="font-family: 'Open Sans', verdana, arial, sans-serif; font-size: 12px; fill: rgb(0, 0, 0); fill-opacity: 1; white-space: pre;">20</text></g><g class="y3tick"><text text-anchor="end" x="389.4800000000001" y="4.199999999999999" transform="translate(0,164.82)" style="font-family: 'Open Sans', verdana, arial, sans-serif; font-size: 12px; fill: rgb(0, 0, 0); fill-opacity: 1; white-space: pre;">40</text></g><g class="y3tick"><text text-anchor="end" x="389.4800000000001" y="4.199999999999999" transform="translate(0,124.73)" style="font-family: 'Open Sans', verdana, arial, sans-serif; font-size: 12px; fill: rgb(0, 0, 0); fill-opacity: 1; white-space: pre;">60</text></g></g><g class="overaxes-above"/></g><g class="subplot x4y4"><g class="layer-subplot"><g class="shapelayer"/><g class="imagelayer"/></g><g class="gridlayer"><g class="x4"/><g class="y4"/></g><g class="zerolinelayer"/><path class="xlines-below"/><path class="ylines-below"/><g class="overlines-below"/><g class="xaxislayer-below"/><g class="yaxislayer-below"/><g class="overaxes-below"/><g class="plot" transform="translate(568.82, 100)" clip-path="url('#clip4cd02ax4y4plot')"><g class="scatterlayer mlayer"><g class="trace scatter trace240873" style="stroke-miterlimit: 2; opacity: 1;"><g class="fills"/><g class="errorbars"/><g class="lines"><path class="js-line" d="M1.3,141.79L7.81,133.93L9.12,132.58L22.14,119.27L23.44,119L26.05,115.06L27.35,113.91L36.47,104.65L37.77,104.66L39.07,101.94L40.37,101.22L42.98,98.51L44.28,97.19L45.58,95.28L46.89,94.72L52.1,89.2L53.4,88.17L57.31,84.84L58.61,82.39L59.91,81.92L61.21,80.03L62.52,80.55L63.82,79.69L65.12,75.99L66.42,76.81L67.72,75.53L69.03,72.88L71.63,69.6L72.93,69.1L76.84,64.78L78.14,63.52L83.35,58.24L84.66,58.21L85.96,59.24L87.26,54.39L88.56,53.79L89.87,51.56L91.17,51.04L92.47,51.47L93.77,48.03L95.08,46.92L101.59,40.88L102.89,42.55L104.19,38.58L105.49,37.55L108.1,34.29L109.4,33.48L110.7,32.59L112.01,30.59L113.31,35.78L114.61,28.18L115.91,30.66L117.22,26.08L118.52,26.43L119.82,23.65L121.12,24.71L122.43,21.29L123.73,19.25L125.03,19.22L126.33,18.07L127.64,20.39L128.94,14.8L130.24,13.18" style="vector-effect: non-scaling-stroke; fill: none; stroke: rgb(141, 196, 71); stroke-opacity: 1; stroke-width: 2px; opacity: 1;"/></g><g class="points"/><g class="text"/></g><g class="trace scatter tracec019fe" style="stroke-miterlimit: 2; opacity: 1;"><g class="fills"/><g class="errorbars"/><g class="lines"><path class="js-line" d="M1.3,144.48L62.52,128.14L63.82,128.12L67.72,126.08L69.03,126.02L72.93,125.91L74.24,124.72L76.84,123.63L78.14,123.31L79.45,122.87L80.75,123.28L82.05,123.4L83.35,122.44L95.08,119.36L96.38,118.45L98.98,118.29L100.28,118.26L102.89,116.91L104.19,116.56L123.73,110.92L125.03,110.42L127.64,109.81L128.94,109.29L130.24,110.58" style="vector-effect: non-scaling-stroke; fill: none; stroke: rgb(255, 85, 85); stroke-opacity: 1; stroke-width: 2px; opacity: 1;"/></g><g class="points"/><g class="text"/></g><g class="trace scatter traced11ce9" style="stroke-miterlimit: 2; opacity: 1;"><g class="fills"/><g class="errorbars"/><g class="lines"><path class="js-line" d="M1.3,141.84L7.81,135.45L9.12,134.26L23.44,123.27L24.75,122.47L41.68,110.84L42.98,110.19L50.79,104.95L52.1,104.18L79.45,87.37L80.75,86.8L88.56,81.98L89.87,81.3L100.28,75.19L101.59,74.81L106.8,71.52L108.1,70.71L112.01,68.62L113.31,67.74L117.22,65.53L118.52,64.86L125.03,61.39L126.33,60.42L130.24,58.29" style="vector-effect: non-scaling-stroke; fill: none; stroke: rgb(118, 209, 244); stroke-opacity: 1; stroke-width: 2px; opacity: 1;"/></g><g class="points"/><g class="text"/></g></g></g><g class="overplot"/><path class="xlines-above crisp" d="M567.82,245.5H700.0600000000001M567.82,99.5H700.0600000000001" style="fill: none; stroke-width: 1px; stroke: rgb(0, 0, 0); stroke-opacity: 1;"/><path class="ylines-above crisp" d="M568.32,100V245M699.5600000000001,100V245" style="fill: none; stroke-width: 1px; stroke: rgb(0, 0, 0); stroke-opacity: 1;"/><g class="overlines-above"/><g class="xaxislayer-above"><path class="x4tick ticks crisp" d="M0,246v5" transform="translate(568.82,0)" style="stroke: rgb(68, 68, 68); stroke-opacity: 1; stroke-width: 1px;"/><path class="x4tick ticks crisp" d="M0,246v5" transform="translate(633.94,0)" style="stroke: rgb(68, 68, 68); stroke-opacity: 1; stroke-width: 1px;"/><path class="x4tick ticks crisp" d="M0,246v5" transform="translate(699.0600000000001,0)" style="stroke: rgb(68, 68, 68); stroke-opacity: 1; stroke-width: 1px;"/><g class="x4tick"><text text-anchor="middle" x="0" y="263" transform="translate(568.82,0)" style="font-family: 'Open Sans', verdana, arial, sans-serif; font-size: 10px; fill: rgb(0, 0, 0); fill-opacity: 1; white-space: pre;">0</text></g><g class="x4tick"><text text-anchor="middle" x="0" y="263" transform="translate(633.94,0)" style="font-family: 'Open Sans', verdana, arial, sans-serif; font-size: 10px; fill: rgb(0, 0, 0); fill-opacity: 1; white-space: pre;">500</text></g><g class="x4tick"><text text-anchor="middle" x="0" y="263" transform="translate(699.0600000000001,0)" style="font-family: 'Open Sans', verdana, arial, sans-serif; font-size: 10px; fill: rgb(0, 0, 0); fill-opacity: 1; white-space: pre;">1000</text></g></g><g class="yaxislayer-above"><path class="y4tick ticks crisp" d="M567.82,0h-5" transform="translate(0,245)" style="stroke: rgb(68, 68, 68); stroke-opacity: 1; stroke-width: 1px;"/><path class="y4tick ticks crisp" d="M567.82,0h-5" transform="translate(0,207.07)" style="stroke: rgb(68, 68, 68); stroke-opacity: 1; stroke-width: 1px;"/><path class="y4tick ticks crisp" d="M567.82,0h-5" transform="translate(0,169.14)" style="stroke: rgb(68, 68, 68); stroke-opacity: 1; stroke-width: 1px;"/><path class="y4tick ticks crisp" d="M567.82,0h-5" transform="translate(0,131.22)" style="stroke: rgb(68, 68, 68); stroke-opacity: 1; stroke-width: 1px;"/><g class="y4tick"><text text-anchor="end" x="560.4200000000001" y="4.199999999999999" transform="translate(0,245)" style="font-family: 'Open Sans', verdana, arial, sans-serif; font-size: 12px; fill: rgb(0, 0, 0); fill-opacity: 1; white-space: pre;">0</text></g><g class="y4tick"><text text-anchor="end" x="560.4200000000001" y="4.199999999999999" transform="translate(0,207.07)" style="font-family: 'Open Sans', verdana, arial, sans-serif; font-size: 12px; fill: rgb(0, 0, 0); fill-opacity: 1; white-space: pre;">20</text></g><g class="y4tick"><text text-anchor="end" x="560.4200000000001" y="4.199999999999999" transform="translate(0,169.14)" style="font-family: 'Open Sans', verdana, arial, sans-serif; font-size: 12px; fill: rgb(0, 0, 0); fill-opacity: 1; white-space: pre;">40</text></g><g class="y4tick"><text text-anchor="end" x="560.4200000000001" y="4.199999999999999" transform="translate(0,131.22)" style="font-family: 'Open Sans', verdana, arial, sans-serif; font-size: 12px; fill: rgb(0, 0, 0); fill-opacity: 1; white-space: pre;">60</text></g></g><g class="overaxes-above"/></g><g class="subplot x5y5"><g class="layer-subplot"><g class="shapelayer"/><g class="imagelayer"/></g><g class="gridlayer"><g class="x5"/><g class="y5"/></g><g class="zerolinelayer"/><path class="xlines-below"/><path class="ylines-below"/><g class="overlines-below"/><g class="xaxislayer-below"/><g class="yaxislayer-below"/><g class="overaxes-below"/><g class="plot" transform="translate(739.7600000000001, 100)" clip-path="url('#clip4cd02ax5y5plot')"><g class="scatterlayer mlayer"><g class="trace scatter traceeb8396" style="stroke-miterlimit: 2; opacity: 1;"><g class="fills"/><g class="errorbars"/><g class="lines"><path class="js-line" d="M1.3,133.43L14.33,118.01L15.63,117.5L20.84,112.48L22.14,109.71L24.75,107.04L26.05,105.76L36.47,95.16L37.77,94.34L42.98,89.39L44.28,88.21L71.63,63.05L72.93,61.95L74.24,61.25L75.54,59.51L78.14,56.91L79.45,55.86L82.05,54.03L83.35,56.89L84.66,51.44L85.96,50.19L87.26,53.47L88.56,52.48L89.87,47.03L91.17,46.24L105.49,34.12L106.8,36.54L108.1,35.74L109.4,30.7L110.7,29.41L112.01,32.6L113.31,27.21L114.61,30.09L115.91,24.79L117.22,23.6L122.43,19.77L123.73,22.67L125.03,17.01L126.33,16.71L127.64,15.41L128.94,18.34L130.24,13.18" style="vector-effect: non-scaling-stroke; fill: none; stroke: rgb(141, 196, 71); stroke-opacity: 1; stroke-width: 2px; opacity: 1;"/></g><g class="points"/><g class="text"/></g><g class="trace scatter traceb6c249" style="stroke-miterlimit: 2; opacity: 1;"><g class="fills"/><g class="errorbars"/><g class="lines"><path class="js-line" d="M1.3,143.79L13.02,140.87L14.33,140.63L22.14,138.82L23.44,138.69L40.37,134.78L41.68,134.81L44.28,133.87L45.58,133.67L48.19,133.46L49.49,132.83L57.31,130.78L58.61,130.75L63.82,129.11L65.12,129.76L66.42,129.47L67.72,128.38L69.03,128.89L70.33,128.58L74.24,127.69L75.54,127.31L76.84,126.18L78.14,126.11L79.45,126.46L80.75,125.26L82.05,125.89L83.35,125.61L84.66,125.2L85.96,125.81L87.26,124.51L88.56,124.29L89.87,124.37L91.17,123.23L93.77,123.18L95.08,122.42L97.68,123.15L98.98,123.11L100.28,121.84L101.59,121.66L113.31,118.77L114.61,117.91L118.52,118.36L119.82,118.17L121.12,117.97L122.43,116.44L128.94,115.49L130.24,114.12" style="vector-effect: non-scaling-stroke; fill: none; stroke: rgb(255, 85, 85); stroke-opacity: 1; stroke-width: 2px; opacity: 1;"/></g><g class="points"/><g class="text"/></g><g class="trace scatter trace6e9f67" style="stroke-miterlimit: 2; opacity: 1;"><g class="fills"/><g class="errorbars"/><g class="lines"><path class="js-line" d="M1.3,133.32L7.81,125.26L9.12,123.89L15.63,117.38L16.93,116.36L24.75,109.01L26.05,107.86L28.65,106.09L29.96,104.6L32.56,102.42L33.86,101.41L40.37,96.45L41.68,95.19L65.12,77.68L66.42,77.34L69.03,74.86L70.33,74.07L89.87,60.58L91.17,60.12L112.01,46.1L113.31,45.43L117.22,42.61L118.52,42.11L121.12,40.58L122.43,39.71L130.24,34.47" style="vector-effect: non-scaling-stroke; fill: none; stroke: rgb(118, 209, 244); stroke-opacity: 1; stroke-width: 2px; opacity: 1;"/></g><g class="points"/><g class="text"/></g></g></g><g class="overplot"/><path class="xlines-above crisp" d="M738.7600000000001,245.5H871M738.7600000000001,99.5H871" style="fill: none; stroke-width: 1px; stroke: rgb(0, 0, 0); stroke-opacity: 1;"/><path class="ylines-above crisp" d="M739.2600000000001,100V245M870.5,100V245" style="fill: none; stroke-width: 1px; stroke: rgb(0, 0, 0); stroke-opacity: 1;"/><g class="overlines-above"/><g class="xaxislayer-above"><path class="x5tick ticks crisp" d="M0,246v5" transform="translate(739.7600000000001,0)" style="stroke: rgb(68, 68, 68); stroke-opacity: 1; stroke-width: 1px;"/><path class="x5tick ticks crisp" d="M0,246v5" transform="translate(804.8800000000001,0)" style="stroke: rgb(68, 68, 68); stroke-opacity: 1; stroke-width: 1px;"/><path class="x5tick ticks crisp" d="M0,246v5" transform="translate(870.0000000000001,0)" style="stroke: rgb(68, 68, 68); stroke-opacity: 1; stroke-width: 1px;"/><g class="x5tick"><text text-anchor="middle" x="0" y="263" transform="translate(739.7600000000001,0)" style="font-family: 'Open Sans', verdana, arial, sans-serif; font-size: 10px; fill: rgb(0, 0, 0); fill-opacity: 1; white-space: pre;">0</text></g><g class="x5tick"><text text-anchor="middle" x="0" y="263" transform="translate(804.8800000000001,0)" style="font-family: 'Open Sans', verdana, arial, sans-serif; font-size: 10px; fill: rgb(0, 0, 0); fill-opacity: 1; white-space: pre;">500</text></g><g class="x5tick"><text text-anchor="middle" x="0" y="263" transform="translate(870.0000000000001,0)" style="font-family: 'Open Sans', verdana, arial, sans-serif; font-size: 10px; fill: rgb(0, 0, 0); fill-opacity: 1; white-space: pre;">1000</text></g></g><g class="yaxislayer-above"><path class="y5tick ticks crisp" d="M738.7600000000001,0h-5" transform="translate(0,245)" style="stroke: rgb(68, 68, 68); stroke-opacity: 1; stroke-width: 1px;"/><path class="y5tick ticks crisp" d="M738.7600000000001,0h-5" transform="translate(0,214.85)" style="stroke: rgb(68, 68, 68); stroke-opacity: 1; stroke-width: 1px;"/><path class="y5tick ticks crisp" d="M738.7600000000001,0h-5" transform="translate(0,184.7)" style="stroke: rgb(68, 68, 68); stroke-opacity: 1; stroke-width: 1px;"/><path class="y5tick ticks crisp" d="M738.7600000000001,0h-5" transform="translate(0,154.54)" style="stroke: rgb(68, 68, 68); stroke-opacity: 1; stroke-width: 1px;"/><path class="y5tick ticks crisp" d="M738.7600000000001,0h-5" transform="translate(0,124.39)" style="stroke: rgb(68, 68, 68); stroke-opacity: 1; stroke-width: 1px;"/><g class="y5tick"><text text-anchor="end" x="731.3600000000001" y="4.199999999999999" transform="translate(0,245)" style="font-family: 'Open Sans', verdana, arial, sans-serif; font-size: 12px; fill: rgb(0, 0, 0); fill-opacity: 1; white-space: pre;">0</text></g><g class="y5tick"><text text-anchor="end" x="731.3600000000001" y="4.199999999999999" transform="translate(0,214.85)" style="font-family: 'Open Sans', verdana, arial, sans-serif; font-size: 12px; fill: rgb(0, 0, 0); fill-opacity: 1; white-space: pre;">20</text></g><g class="y5tick"><text text-anchor="end" x="731.3600000000001" y="4.199999999999999" transform="translate(0,184.7)" style="font-family: 'Open Sans', verdana, arial, sans-serif; font-size: 12px; fill: rgb(0, 0, 0); fill-opacity: 1; white-space: pre;">40</text></g><g class="y5tick"><text text-anchor="end" x="731.3600000000001" y="4.199999999999999" transform="translate(0,154.54)" style="font-family: 'Open Sans', verdana, arial, sans-serif; font-size: 12px; fill: rgb(0, 0, 0); fill-opacity: 1; white-space: pre;">60</text></g><g class="y5tick"><text text-anchor="end" x="731.3600000000001" y="4.199999999999999" transform="translate(0,124.39)" style="font-family: 'Open Sans', verdana, arial, sans-serif; font-size: 12px; fill: rgb(0, 0, 0); fill-opacity: 1; white-space: pre;">80</text></g></g><g class="overaxes-above"/></g></g><g class="polarlayer"/><g class="ternarylayer"/><g class="geolayer"/><g class="funnelarealayer"/><g class="pielayer"/><g class="treemaplayer"/><g class="sunburstlayer"/><g class="glimages"/><defs id="topdefs-4cd02a"><g class="clips"/></defs><g class="layer-above"><g class="imagelayer"/><g class="shapelayer"/></g><g class="infolayer"><g class="g-gtitle"/><g class="g-xtitle"><text class="xtitle" x="121.12" y="288.90625" text-anchor="middle" style="font-family: 'Open Sans', verdana, arial, sans-serif; font-size: 12px; fill: rgb(0, 0, 0); opacity: 1; font-weight: normal; white-space: pre;"><tspan class="line" dy="0em" x="121.12" y="288.90625">Initial Substrate</tspan><tspan class="line" dy="1.3em" x="121.12" y="288.90625">Concentration (mmol/L)</tspan></text></g><g class="g-x2title"><text class="x2title" x="292.06" y="288.90625" text-anchor="middle" style="font-family: 'Open Sans', verdana, arial, sans-serif; font-size: 12px; fill: rgb(0, 0, 0); opacity: 1; font-weight: normal; white-space: pre;"><tspan class="line" dy="0em" x="292.06" y="288.90625">Initial Substrate</tspan><tspan class="line" dy="1.3em" x="292.06" y="288.90625">Concentration (mmol/L)</tspan></text></g><g class="g-x3title"><text class="x3title" x="463.00000000000006" y="288.90625" text-anchor="middle" style="font-family: 'Open Sans', verdana, arial, sans-serif; font-size: 12px; fill: rgb(0, 0, 0); opacity: 1; font-weight: normal; white-space: pre;"><tspan class="line" dy="0em" x="463.00000000000006" y="288.90625">Initial Substrate</tspan><tspan class="line" dy="1.3em" x="463.00000000000006" y="288.90625">Concentration (mmol/L)</tspan></text></g><g class="g-x4title"><text class="x4title" x="633.94" y="288.90625" text-anchor="middle" style="font-family: 'Open Sans', verdana, arial, sans-serif; font-size: 12px; fill: rgb(0, 0, 0); opacity: 1; font-weight: normal; white-space: pre;"><tspan class="line" dy="0em" x="633.94" y="288.90625">Initial Substrate</tspan><tspan class="line" dy="1.3em" x="633.94" y="288.90625">Concentration (mmol/L)</tspan></text></g><g class="g-x5title"><text class="x5title" x="804.8800000000001" y="288.90625" text-anchor="middle" style="font-family: 'Open Sans', verdana, arial, sans-serif; font-size: 12px; fill: rgb(0, 0, 0); opacity: 1; font-weight: normal; white-space: pre;"><tspan class="line" dy="0em" x="804.8800000000001" y="288.90625">Initial Substrate</tspan><tspan class="line" dy="1.3em" x="804.8800000000001" y="288.90625">Concentration (mmol/L)</tspan></text></g><g class="g-ytitle" transform="translate(3.671875,0)"><text class="ytitle" transform="rotate(-90,8.328125,172.5)" x="8.328125" y="172.5" text-anchor="middle" style="font-family: 'Open Sans', verdana, arial, sans-serif; font-size: 12px; fill: rgb(0, 0, 0); opacity: 1; font-weight: normal; white-space: pre;"><tspan class="line" dy="0em" x="8.328125" y="172.5">Productivity</tspan><tspan class="line" dy="1.3em" x="8.328125" y="172.5">(mmol/L.h)</tspan></text></g><g class="g-y2title"/><g class="g-y3title"/><g class="g-y4title"/><g class="g-y5title"/><g class="annotation" data-index="0" style="opacity: 1;"><g class="annotation-text-g" transform="rotate(0,121.12,78)"><g class="cursor-pointer" transform="translate(54, 56)"><rect class="bg" x="0.5" y="0.5" width="134" height="43" style="stroke-width: 1px; stroke: rgb(0, 0, 0); stroke-opacity: 0; fill: rgb(0, 0, 0); fill-opacity: 0;"/><text class="annotation-text" text-anchor="middle" x="67.6875" y="18" style="font-family: 'Open Sans', verdana, arial, sans-serif; font-size: 16px; fill: rgb(68, 68, 68); fill-opacity: 1; white-space: pre;"><tspan class="line" dy="0em" x="67.6875" y="18">Initial Biomass: </tspan><tspan class="line" dy="1.3em" x="67.6875" y="18">0.001 (mM)</tspan></text></g></g></g><g class="annotation" data-index="1" style="opacity: 1;"><g class="annotation-text-g" transform="rotate(0,292.06000000000006,78)"><g class="cursor-pointer" transform="translate(225, 56)"><rect class="bg" x="0.5" y="0.5" width="134" height="43" style="stroke-width: 1px; stroke: rgb(0, 0, 0); stroke-opacity: 0; fill: rgb(0, 0, 0); fill-opacity: 0;"/><text class="annotation-text" text-anchor="middle" x="67.6875" y="18" style="font-family: 'Open Sans', verdana, arial, sans-serif; font-size: 16px; fill: rgb(68, 68, 68); fill-opacity: 1; white-space: pre;"><tspan class="line" dy="0em" x="67.6875" y="18">Initial Biomass: </tspan><tspan class="line" dy="1.3em" x="67.6875" y="18">0.01 (mM)</tspan></text></g></g></g><g class="annotation" data-index="2" style="opacity: 1;"><g class="annotation-text-g" transform="rotate(0,463,78)"><g class="cursor-pointer" transform="translate(396, 56)"><rect class="bg" x="0.5" y="0.5" width="134" height="43" style="stroke-width: 1px; stroke: rgb(0, 0, 0); stroke-opacity: 0; fill: rgb(0, 0, 0); fill-opacity: 0;"/><text class="annotation-text" text-anchor="middle" x="67.6875" y="18" style="font-family: 'Open Sans', verdana, arial, sans-serif; font-size: 16px; fill: rgb(68, 68, 68); fill-opacity: 1; white-space: pre;"><tspan class="line" dy="0em" x="67.6875" y="18">Initial Biomass: </tspan><tspan class="line" dy="1.3em" x="67.6875" y="18">0.05 (mM)</tspan></text></g></g></g><g class="annotation" data-index="3" style="opacity: 1;"><g class="annotation-text-g" transform="rotate(0,633.9399999999999,78)"><g class="cursor-pointer" transform="translate(566, 56)"><rect class="bg" x="0.5" y="0.5" width="134" height="43" style="stroke-width: 1px; stroke: rgb(0, 0, 0); stroke-opacity: 0; fill: rgb(0, 0, 0); fill-opacity: 0;"/><text class="annotation-text" text-anchor="middle" x="67.6875" y="18" style="font-family: 'Open Sans', verdana, arial, sans-serif; font-size: 16px; fill: rgb(68, 68, 68); fill-opacity: 1; white-space: pre;"><tspan class="line" dy="0em" x="67.6875" y="18">Initial Biomass: </tspan><tspan class="line" dy="1.3em" x="67.6875" y="18">0.1 (mM)</tspan></text></g></g></g><g class="annotation" data-index="4" style="opacity: 1;"><g class="annotation-text-g" transform="rotate(0,804.88,78)"><g class="cursor-pointer" transform="translate(737, 56)"><rect class="bg" x="0.5" y="0.5" width="134" height="43" style="stroke-width: 1px; stroke: rgb(0, 0, 0); stroke-opacity: 0; fill: rgb(0, 0, 0); fill-opacity: 0;"/><text class="annotation-text" text-anchor="middle" x="67.6875" y="18" style="font-family: 'Open Sans', verdana, arial, sans-serif; font-size: 16px; fill: rgb(68, 68, 68); fill-opacity: 1; white-space: pre;"><tspan class="line" dy="0em" x="67.6875" y="18">Initial Biomass: </tspan><tspan class="line" dy="1.3em" x="67.6875" y="18">1 (mM)</tspan></text></g></g></g></g></svg>