<?xml version="1.0" encoding="utf-8"?>
<!-- Generator: Adobe Illustrator 23.0.6, SVG Export Plug-In . SVG Version: 6.00 Build 0)  -->
<svg version="1.1" id="Layer_1" xmlns="http://www.w3.org/2000/svg" xmlns:xlink="http://www.w3.org/1999/xlink" x="0px" y="0px"
	 viewBox="0 0 800 1000" style="enable-background:new 0 0 800 1000;" xml:space="preserve">
<style type="text/css">
	.st0{stroke:#EEEEEE;}
	.st1{clip-path:url(#SVGID_2_);}
	.st2{fill:none;stroke:#000000;stroke-width:0.9994;}
	.st3{fill:none;stroke:#000000;}
	.st4{enable-background:new    ;}
	.st5{font-family:'MyriadPro-Regular';}
	.st6{font-size:14px;}
	.st7{stroke:#000000;stroke-width:0.519;}
	.st8{font-size:13px;}
	.st9{fill-opacity:0;}
	.st10{fill:url(#SVGID_3_);}
	.st11{stroke:#444444;}
	.st12{font-family:'Verdana';}
	.st13{font-size:12px;}
	.st14{fill:none;stroke:#444444;}
	.st15{fill:none;stroke:#000000;stroke-width:0.5;}
	.st16{fill:none;stroke:#000000;stroke-width:0.3832;}
	.st17{fill:none;stroke:#000000;stroke-width:0.5485;}
</style>
<g>
	<g>
		<path class="st0" d="M285.5,20.3v820"/>
		<path class="st0" d="M286.7,20.3v820"/>
		<path class="st0" d="M288,20.3v820"/>
		<path class="st0" d="M289.2,20.3v820"/>
		<path class="st0" d="M290.5,20.3v820"/>
		<path class="st0" d="M291.7,20.3v820"/>
		<path class="st0" d="M293,20.3v820"/>
		<path class="st0" d="M294.2,20.3v820"/>
		<path class="st0" d="M295.5,20.3v820"/>
		<path class="st0" d="M296.7,20.3v820"/>
		<path class="st0" d="M298,20.3v820"/>
		<path class="st0" d="M299.3,20.3v820"/>
		<path class="st0" d="M300.5,20.3v820"/>
		<path class="st0" d="M301.8,20.3v820"/>
		<path class="st0" d="M303,20.3v820"/>
		<path class="st0" d="M304.3,20.3v820"/>
		<path class="st0" d="M305.5,20.3v820"/>
		<path class="st0" d="M306.8,20.3v820"/>
		<path class="st0" d="M308,20.3v820"/>
		<path class="st0" d="M309.3,20.3v820"/>
		<path class="st0" d="M310.5,20.3v820"/>
		<path class="st0" d="M311.8,20.3v820"/>
		<path class="st0" d="M313,20.3v820"/>
		<path class="st0" d="M314.3,20.3v820"/>
		<path class="st0" d="M315.6,20.3v820"/>
		<path class="st0" d="M316.8,20.3v820"/>
		<path class="st0" d="M318.1,20.3v820"/>
		<path class="st0" d="M319.3,20.3v820"/>
		<path class="st0" d="M320.6,20.3v820"/>
		<path class="st0" d="M321.8,20.3v820"/>
		<path class="st0" d="M323.1,20.3v820"/>
		<path class="st0" d="M324.3,20.3v820"/>
		<path class="st0" d="M325.6,20.3v820"/>
		<path class="st0" d="M326.8,20.3v820"/>
		<path class="st0" d="M328.1,20.3v820"/>
		<path class="st0" d="M329.4,20.3v820"/>
		<path class="st0" d="M330.6,20.3v820"/>
		<path class="st0" d="M331.9,20.3v820"/>
		<path class="st0" d="M333.1,20.3v820"/>
		<path class="st0" d="M334.4,20.3v820"/>
		<path class="st0" d="M335.6,20.3v820"/>
		<path class="st0" d="M336.9,20.3v820"/>
		<path class="st0" d="M338.1,20.3v820"/>
		<path class="st0" d="M339.4,20.3v820"/>
		<path class="st0" d="M340.6,20.3v820"/>
		<path class="st0" d="M341.9,20.3v820"/>
		<path class="st0" d="M343.1,20.3v820"/>
		<path class="st0" d="M344.4,20.3v820"/>
		<path class="st0" d="M345.7,20.3v820"/>
		<path class="st0" d="M346.9,20.3v820"/>
		<path class="st0" d="M348.2,20.3v820"/>
		<path class="st0" d="M349.4,20.3v820"/>
		<path class="st0" d="M350.7,20.3v820"/>
		<path class="st0" d="M351.9,20.3v820"/>
		<path class="st0" d="M353.2,20.3v820"/>
		<path class="st0" d="M354.4,20.3v820"/>
		<path class="st0" d="M355.7,20.3v820"/>
		<path class="st0" d="M356.9,20.3v820"/>
		<path class="st0" d="M358.2,20.3v820"/>
		<path class="st0" d="M359.5,20.3v820"/>
		<path class="st0" d="M360.7,20.3v820"/>
		<path class="st0" d="M362,20.3v820"/>
		<path class="st0" d="M363.2,20.3v820"/>
		<path class="st0" d="M364.5,20.3v820"/>
		<path class="st0" d="M365.7,20.3v820"/>
		<path class="st0" d="M367,20.3v820"/>
		<path class="st0" d="M368.2,20.3v820"/>
		<path class="st0" d="M369.5,20.3v820"/>
		<path class="st0" d="M370.7,20.3v820"/>
		<path class="st0" d="M372,20.3v820"/>
		<path class="st0" d="M373.2,20.3v820"/>
		<path class="st0" d="M374.5,20.3v820"/>
		<path class="st0" d="M375.8,20.3v820"/>
		<path class="st0" d="M377,20.3v820"/>
		<path class="st0" d="M378.3,20.3v820"/>
		<path class="st0" d="M379.5,20.3v820"/>
		<path class="st0" d="M380.8,20.3v820"/>
		<path class="st0" d="M382,20.3v820"/>
		<path class="st0" d="M383.3,20.3v820"/>
		<path class="st0" d="M384.5,20.3v820"/>
		<path class="st0" d="M385.8,20.3v820"/>
		<path class="st0" d="M387,20.3v820"/>
		<path class="st0" d="M388.3,20.3v820"/>
		<path class="st0" d="M389.6,20.3v820"/>
		<path class="st0" d="M390.8,20.3v820"/>
		<path class="st0" d="M392.1,20.3v820"/>
		<path class="st0" d="M393.3,20.3v820"/>
		<path class="st0" d="M394.6,20.3v820"/>
		<path class="st0" d="M395.8,20.3v820"/>
		<path class="st0" d="M397.1,20.3v820"/>
		<path class="st0" d="M398.3,20.3v820"/>
		<path class="st0" d="M399.6,20.3v820"/>
		<path class="st0" d="M400.8,20.3v820"/>
		<path class="st0" d="M402.1,20.3v820"/>
		<path class="st0" d="M403.3,20.3v820"/>
		<path class="st0" d="M404.6,20.3v820"/>
		<path class="st0" d="M405.9,20.3v820"/>
		<path class="st0" d="M407.1,20.3v820"/>
		<path class="st0" d="M408.4,20.3v820"/>
		<path class="st0" d="M409.6,20.3v820"/>
		<path class="st0" d="M410.9,20.3v820"/>
		<path class="st0" d="M412.1,20.3v820"/>
		<path class="st0" d="M413.4,20.3v820"/>
		<path class="st0" d="M414.6,20.3v820"/>
		<path class="st0" d="M415.9,20.3v820"/>
		<path class="st0" d="M417.1,20.3v820"/>
		<path class="st0" d="M418.4,20.3v820"/>
		<path class="st0" d="M419.7,20.3v820"/>
		<path class="st0" d="M420.9,20.3v820"/>
		<path class="st0" d="M422.2,20.3v820"/>
		<path class="st0" d="M423.4,20.3v820"/>
		<path class="st0" d="M424.7,20.3v820"/>
		<path class="st0" d="M425.9,20.3v820"/>
		<path class="st0" d="M427.2,20.3v820"/>
		<path class="st0" d="M428.4,20.3v820"/>
		<path class="st0" d="M429.7,20.3v820"/>
		<path class="st0" d="M430.9,20.3v820"/>
		<path class="st0" d="M432.2,20.3v820"/>
		<path class="st0" d="M433.4,20.3v820"/>
		<path class="st0" d="M434.7,20.3v820"/>
		<path class="st0" d="M436,20.3v820"/>
		<path class="st0" d="M437.2,20.3v820"/>
		<path class="st0" d="M438.5,20.3v820"/>
		<path class="st0" d="M439.7,20.3v820"/>
		<path class="st0" d="M441,20.3v820"/>
		<path class="st0" d="M442.2,20.3v820"/>
		<path class="st0" d="M443.5,20.3v820"/>
		<path class="st0" d="M444.7,20.3v820"/>
		<path class="st0" d="M446,20.3v820"/>
		<path class="st0" d="M447.2,20.3v820"/>
		<path class="st0" d="M448.5,20.3v820"/>
		<path class="st0" d="M449.8,20.3v820"/>
		<path class="st0" d="M451,20.3v820"/>
		<path class="st0" d="M452.3,20.3v820"/>
		<path class="st0" d="M453.5,20.3v820"/>
		<path class="st0" d="M454.8,20.3v820"/>
		<path class="st0" d="M456,20.3v820"/>
		<path class="st0" d="M457.3,20.3v820"/>
		<path class="st0" d="M458.5,20.3v820"/>
		<path class="st0" d="M459.8,20.3v820"/>
		<path class="st0" d="M461,20.3v820"/>
		<path class="st0" d="M462.3,20.3v820"/>
		<path class="st0" d="M463.5,20.3v820"/>
		<path class="st0" d="M464.8,20.3v820"/>
		<path class="st0" d="M466.1,20.3v820"/>
		<path class="st0" d="M467.3,20.3v820"/>
		<path class="st0" d="M468.6,20.3v820"/>
		<path class="st0" d="M469.8,20.3v820"/>
		<path class="st0" d="M471.1,20.3v820"/>
		<path class="st0" d="M472.3,20.3v820"/>
		<path class="st0" d="M473.6,20.3v820"/>
		<path class="st0" d="M474.8,20.3v820"/>
		<path class="st0" d="M476.1,20.3v820"/>
		<path class="st0" d="M477.3,20.3v820"/>
		<path class="st0" d="M478.6,20.3v820"/>
		<path class="st0" d="M479.9,20.3v820"/>
		<path class="st0" d="M481.1,20.3v820"/>
		<path class="st0" d="M482.4,20.3v820"/>
		<path class="st0" d="M483.6,20.3v820"/>
		<path class="st0" d="M484.9,20.3v820"/>
		<path class="st0" d="M486.1,20.3v820"/>
		<path class="st0" d="M487.4,20.3v820"/>
		<path class="st0" d="M488.6,20.3v820"/>
		<path class="st0" d="M489.9,20.3v820"/>
		<path class="st0" d="M491.1,20.3v820"/>
		<path class="st0" d="M492.4,20.3v820"/>
		<path class="st0" d="M493.6,20.3v820"/>
		<path class="st0" d="M494.9,20.3v820"/>
		<path class="st0" d="M496.2,20.3v820"/>
		<path class="st0" d="M497.4,20.3v820"/>
		<path class="st0" d="M498.7,20.3v820"/>
		<path class="st0" d="M499.9,20.3v820"/>
		<path class="st0" d="M501.2,20.3v820"/>
		<path class="st0" d="M502.4,20.3v820"/>
		<path class="st0" d="M503.7,20.3v820"/>
		<path class="st0" d="M504.9,20.3v820"/>
		<path class="st0" d="M506.2,20.3v820"/>
		<path class="st0" d="M507.4,20.3v820"/>
		<path class="st0" d="M508.7,20.3v820"/>
		<path class="st0" d="M510,20.3v820"/>
		<path class="st0" d="M511.2,20.3v820"/>
		<path class="st0" d="M512.5,20.3v820"/>
		<path class="st0" d="M513.7,20.3v820"/>
		<path class="st0" d="M515,20.3v820"/>
		<path class="st0" d="M516.2,20.3v820"/>
		<path class="st0" d="M517.5,20.3v820"/>
		<path class="st0" d="M518.7,20.3v820"/>
		<path class="st0" d="M520,20.3v820"/>
		<path class="st0" d="M521.2,20.3v820"/>
		<path class="st0" d="M522.5,20.3v820"/>
		<path class="st0" d="M523.7,20.3v820"/>
		<path class="st0" d="M525,20.3v820"/>
		<path class="st0" d="M526.3,20.3v820"/>
		<path class="st0" d="M527.5,20.3v820"/>
		<path class="st0" d="M528.8,20.3v820"/>
		<path class="st0" d="M530,20.3v820"/>
		<path class="st0" d="M531.3,20.3v820"/>
		<path class="st0" d="M532.5,20.3v820"/>
		<path class="st0" d="M533.8,20.3v820"/>
		<path class="st0" d="M535,20.3v820"/>
		<path class="st0" d="M536.3,20.3v820"/>
		<path class="st0" d="M537.5,20.3v820"/>
		<path class="st0" d="M538.8,20.3v820"/>
		<path class="st0" d="M540.1,20.3v820"/>
		<path class="st0" d="M541.3,20.3v820"/>
		<path class="st0" d="M542.6,20.3v820"/>
		<path class="st0" d="M543.8,20.3v820"/>
		<path class="st0" d="M545.1,20.3v820"/>
		<path class="st0" d="M546.3,20.3v820"/>
		<path class="st0" d="M547.6,20.3v820"/>
		<path class="st0" d="M548.8,20.3v820"/>
		<path class="st0" d="M550.1,20.3v820"/>
		<path class="st0" d="M551.3,20.3v820"/>
		<path class="st0" d="M552.6,20.3v820"/>
		<path class="st0" d="M553.8,20.3v820"/>
		<path class="st0" d="M555.1,20.3v820"/>
		<path class="st0" d="M556.4,20.3v820"/>
		<path class="st0" d="M557.6,20.3v820"/>
		<path class="st0" d="M558.9,20.3v820"/>
		<path class="st0" d="M560.1,20.3v820"/>
		<path class="st0" d="M561.4,20.3v820"/>
		<path class="st0" d="M562.6,20.3v820"/>
		<path class="st0" d="M563.9,20.3v820"/>
		<path class="st0" d="M565.1,20.3v820"/>
		<path class="st0" d="M566.4,20.3v820"/>
		<path class="st0" d="M567.6,20.3v820"/>
		<path class="st0" d="M568.9,20.3v820"/>
		<path class="st0" d="M570.2,20.3v820"/>
		<path class="st0" d="M571.4,20.3v820"/>
		<path class="st0" d="M572.7,20.3v820"/>
		<path class="st0" d="M573.9,20.3v820"/>
		<path class="st0" d="M575.2,20.3v820"/>
		<path class="st0" d="M576.4,20.3v820"/>
		<path class="st0" d="M577.7,20.3v820"/>
		<path class="st0" d="M578.9,20.3v820"/>
		<path class="st0" d="M580.2,20.3v820"/>
		<path class="st0" d="M581.4,20.3v820"/>
		<path class="st0" d="M582.7,20.3v820"/>
	</g>
	<g>
		<path class="st0" d="M283.6,834.5h301"/>
		<path class="st0" d="M283.6,822.8h301"/>
		<path class="st0" d="M283.6,811.1h301"/>
		<path class="st0" d="M283.6,799.3h301"/>
		<path class="st0" d="M283.6,787.6h301"/>
		<path class="st0" d="M283.6,775.9h301"/>
		<path class="st0" d="M283.6,764.2h301"/>
		<path class="st0" d="M283.6,752.5h301"/>
		<path class="st0" d="M283.6,740.8h301"/>
		<path class="st0" d="M283.6,729.1h301"/>
		<path class="st0" d="M283.6,717.3h301"/>
		<path class="st0" d="M283.6,705.6h301"/>
		<path class="st0" d="M283.6,693.9h301"/>
		<path class="st0" d="M283.6,682.2h301"/>
		<path class="st0" d="M283.6,670.5h301"/>
		<path class="st0" d="M283.6,658.8h301"/>
		<path class="st0" d="M283.6,647.1h301"/>
		<path class="st0" d="M283.6,635.3h301"/>
		<path class="st0" d="M283.6,623.6h301"/>
		<path class="st0" d="M283.6,611.9h301"/>
		<path class="st0" d="M283.6,600.2h301"/>
		<path class="st0" d="M283.6,588.5h301"/>
		<path class="st0" d="M283.6,576.8h301"/>
		<path class="st0" d="M283.6,565.1h301"/>
		<path class="st0" d="M283.6,553.3h301"/>
		<path class="st0" d="M283.6,541.6h301"/>
		<path class="st0" d="M283.6,529.9h301"/>
		<path class="st0" d="M283.6,518.2h301"/>
		<path class="st0" d="M283.6,506.5h301"/>
		<path class="st0" d="M283.6,494.8h301"/>
		<path class="st0" d="M283.6,483.1h301"/>
		<path class="st0" d="M283.6,471.3h301"/>
		<path class="st0" d="M283.6,459.6h301"/>
		<path class="st0" d="M283.6,447.9h301"/>
		<path class="st0" d="M283.6,436.2h301"/>
		<path class="st0" d="M283.6,424.5h301"/>
		<path class="st0" d="M283.6,412.8h301"/>
		<path class="st0" d="M283.6,401.1h301"/>
		<path class="st0" d="M283.6,389.3h301"/>
		<path class="st0" d="M283.6,377.6h301"/>
		<path class="st0" d="M283.6,365.9h301"/>
		<path class="st0" d="M283.6,354.2h301"/>
		<path class="st0" d="M283.6,342.5h301"/>
		<path class="st0" d="M283.6,330.8h301"/>
		<path class="st0" d="M283.6,319.1h301"/>
		<path class="st0" d="M283.6,307.3h301"/>
		<path class="st0" d="M283.6,295.6h301"/>
		<path class="st0" d="M283.6,283.9h301"/>
		<path class="st0" d="M283.6,272.2h301"/>
		<path class="st0" d="M283.6,260.5h301"/>
		<path class="st0" d="M283.6,248.8h301"/>
		<path class="st0" d="M283.6,237.1h301"/>
		<path class="st0" d="M283.6,225.3h301"/>
		<path class="st0" d="M283.6,213.6h301"/>
		<path class="st0" d="M283.6,201.9h301"/>
		<path class="st0" d="M283.6,190.2h301"/>
		<path class="st0" d="M283.6,178.5h301"/>
		<path class="st0" d="M283.6,166.8h301"/>
		<path class="st0" d="M283.6,155.1h301"/>
		<path class="st0" d="M283.6,143.3h301"/>
		<path class="st0" d="M283.6,131.6h301"/>
		<path class="st0" d="M283.6,119.9h301"/>
		<path class="st0" d="M283.6,108.2h301"/>
		<path class="st0" d="M283.6,96.5h301"/>
		<path class="st0" d="M283.6,84.8h301"/>
		<path class="st0" d="M283.6,73.1h301"/>
		<path class="st0" d="M283.6,61.3h301"/>
		<path class="st0" d="M283.6,49.6h301"/>
		<path class="st0" d="M283.6,37.9h301"/>
		<path class="st0" d="M283.6,26.2h301"/>
	</g>
</g>
<g>
	<defs>
		<rect id="SVGID_1_" x="283.6" y="20.3" width="301" height="820"/>
	</defs>
	<clipPath id="SVGID_2_">
		<use xlink:href="#SVGID_1_"  style="overflow:visible;"/>
	</clipPath>
	<g transform="translate(400, 100)" class="st1">
		<g>
			<g>
				
					<image style="overflow:visible;enable-background:new    ;" width="301" height="820" xlink:href="46FED58C.png"  transform="matrix(1 0 0 1 -116.4255 -79.6596)">
				</image>
			</g>
		</g>
	</g>
</g>
<path class="st2" d="M282.3,840.3h303 M282.8,20.3h302.4"/>
<path class="st3" d="M283.1,20.3v820 M585.1,20.3v820"/>
<g>
	<text transform="matrix(6.123234e-17 -1 1 6.123234e-17 334.8853 931.4424)" class="st4"><tspan x="0" y="0" class="st5 st6">Amino Acid </tspan><tspan x="-0.6" y="12" class="st5 st6">Metabolism</tspan></text>
</g>
<g>
	<text transform="matrix(6.123234e-17 -1 1 6.123234e-17 404.8221 937.0068)" class="st4"><tspan x="0" y="0" class="st5 st6">Cell Envelope </tspan><tspan x="3.4" y="12" class="st5 st6">Biosynthesis</tspan></text>
</g>
<g>
	<text transform="matrix(6.123234e-17 -1 1 6.123234e-17 431.7581 946.8809)" class="st5 st6">Citric Acid Cycle</text>
</g>
<g>
	<text transform="matrix(6.123234e-17 -1 1 6.123234e-17 444.2317 1105.0391)" class="st5 st6">Cofactor and Prosthetic Group Biosynthesis</text>
</g>
<g>
	<text transform="matrix(6.123234e-17 -1 1 6.123234e-17 454.799 1049.3066)" class="st5 st6">Glycerophospholipid Metabolism</text>
</g>
<g>
	<text transform="matrix(6.123234e-17 -1 1 6.123234e-17 464.5823 1018.3262)" class="st5 st6">Glycolysis/Gluconeogenesis</text>
</g>
<g>
	<text transform="matrix(6.123234e-17 -1 1 6.123234e-17 517.5911 1139.1348)" class="st5 st6">Lipopolysaccharide Biosynthesis / Recycling</text>
</g>
<g>
	<text transform="matrix(6.123234e-17 -1 1 6.123234e-17 546.5985 1045.1777)" class="st5 st6">Membrane Lipid Metabolism</text>
</g>
<g>
	<text transform="matrix(6.123234e-17 -1 1 6.123234e-17 573.5536 1014.6699)" class="st5 st6">Nucleotide Salvage Pathway</text>
</g>
<g>
	<text transform="matrix(6.123234e-17 -1 1 6.123234e-17 615.5225 1017.168)" class="st5 st6">Oxidative Phosphorylation</text>
</g>
<g>
	<text transform="matrix(6.123234e-17 -1 1 6.123234e-17 665.9362 1104.4063)" class="st5 st6">Pentose Phosphate Pathway</text>
</g>
<g>
	<text transform="matrix(6.123234e-17 -1 1 6.123234e-17 703.7794 1107.377)" class="st5 st6">Purine and Pyrimidine Biosynthesis</text>
</g>
<g>
	<path class="st7" d="M283.1,834.5h-3.2"/>
	<path class="st7" d="M283.1,822.8h-3.2"/>
	<path class="st7" d="M283.1,811.1h-3.2"/>
	<path class="st7" d="M283.1,799.3h-3.2"/>
	<path class="st7" d="M283.1,787.6h-3.2"/>
	<path class="st7" d="M283.1,775.9h-3.2"/>
	<path class="st7" d="M283.1,764.2h-3.2"/>
	<path class="st7" d="M283.1,752.5h-3.2"/>
	<path class="st7" d="M283.1,740.8h-3.2"/>
	<path class="st7" d="M283.1,729.1h-3.2"/>
	<path class="st7" d="M283.1,717.3h-3.2"/>
	<path class="st7" d="M283.1,705.6h-3.2"/>
	<path class="st7" d="M283.1,693.9h-3.2"/>
	<path class="st7" d="M283.1,682.2h-3.2"/>
	<path class="st7" d="M283.1,670.5h-3.2"/>
	<path class="st7" d="M283.1,658.8h-3.2"/>
	<path class="st7" d="M283.1,647.1h-3.2"/>
	<path class="st7" d="M283.1,635.3h-3.2"/>
	<path class="st7" d="M283.1,623.6h-3.2"/>
	<path class="st7" d="M283.1,611.9h-3.2"/>
	<path class="st7" d="M283.1,600.2h-3.2"/>
	<path class="st7" d="M283.1,588.5h-3.2"/>
	<path class="st7" d="M283.1,576.8h-3.2"/>
	<path class="st7" d="M283.1,565.1h-3.2"/>
	<path class="st7" d="M283.1,553.3h-3.2"/>
	<path class="st7" d="M283.1,541.6h-3.2"/>
	<path class="st7" d="M283.1,529.9h-3.2"/>
	<path class="st7" d="M283.1,518.2h-3.2"/>
	<path class="st7" d="M283.1,506.5h-3.2"/>
	<path class="st7" d="M283.1,494.8h-3.2"/>
	<path class="st7" d="M283.1,483.1h-3.2"/>
	<path class="st7" d="M283.1,471.3h-3.2"/>
	<path class="st7" d="M283.1,459.6h-3.2"/>
	<path class="st7" d="M283.1,447.9h-3.2"/>
	<path class="st7" d="M283.1,436.2h-3.2"/>
	<path class="st7" d="M283.1,424.5h-3.2"/>
	<path class="st7" d="M283.1,412.8h-3.2"/>
	<path class="st7" d="M283.1,401.1h-3.2"/>
	<path class="st7" d="M283.1,389.3h-3.2"/>
	<path class="st7" d="M283.1,377.6h-3.2"/>
	<path class="st7" d="M283.1,365.9h-3.2"/>
	<path class="st7" d="M283.1,354.2h-3.2"/>
	<path class="st7" d="M283.1,342.5h-3.2"/>
	<path class="st7" d="M283.1,330.8h-3.2"/>
	<path class="st7" d="M283.1,319.1h-3.2"/>
	<path class="st7" d="M283.1,307.3h-3.2"/>
	<path class="st7" d="M283.1,295.6h-3.2"/>
	<path class="st7" d="M283.1,283.9h-3.2"/>
	<path class="st7" d="M283.1,272.2h-3.2"/>
	<path class="st7" d="M283.1,260.5h-3.2"/>
	<path class="st7" d="M283.1,248.8h-3.2"/>
	<path class="st7" d="M283.1,237.1h-3.2"/>
	<path class="st7" d="M283.1,225.3h-3.2"/>
	<path class="st7" d="M283.1,213.6h-3.2"/>
	<path class="st7" d="M283.1,201.9h-3.2"/>
	<path class="st7" d="M283.1,190.2h-3.2"/>
	<path class="st7" d="M283.1,178.5h-3.2"/>
	<path class="st7" d="M283.1,166.8h-3.2"/>
	<path class="st7" d="M283.1,155.1h-3.2"/>
	<path class="st7" d="M283.1,143.3h-3.2"/>
	<path class="st7" d="M283.1,131.6h-3.2"/>
	<path class="st7" d="M283.1,119.9h-3.2"/>
	<path class="st7" d="M283.1,108.2h-3.2"/>
	<path class="st7" d="M283.1,96.5h-3.2"/>
	<path class="st7" d="M283.1,84.8h-3.2"/>
	<path class="st7" d="M283.1,73.1h-3.2"/>
	<path class="st7" d="M283.1,61.3h-3.2"/>
	<path class="st7" d="M283.1,49.6h-3.2"/>
	<path class="st7" d="M283.1,37.9h-3.2"/>
	<path class="st7" d="M283.1,26.2h-3.2"/>
</g>
<g>
	<text transform="matrix(1 0 0 1 152.0548 837.8054)" class="st5 st8">Xanthosine</text>
</g>
<g>
	<text transform="matrix(1 0 0 1 173.5434 826.0954)" class="st5 st8">Uridine</text>
</g>
<g>
	<text transform="matrix(1 0 0 1 155.8766 814.3754)" class="st5 st8">Thymidine</text>
</g>
<g>
	<text transform="matrix(1 0 0 1 150.7941 802.6654)" class="st5 st8">Spermidine</text>
</g>
<g>
	<text transform="matrix(1 0 0 1 170.0336 790.9554)" class="st5 st8">Quinate</text>
</g>
<g>
	<text transform="matrix(1 0 0 1 159.2306 779.2354)" class="st5 st8">L-Tyrosine</text>
</g>
<g>
	<text transform="matrix(1 0 0 1 141.0441 767.5254)" class="st5 st8">L-Tryptophan</text>
</g>
<g>
	<text transform="matrix(1 0 0 1 127.4198 755.8054)" class="st5 st8">L-Phenylalanine</text>
</g>
<g>
	<text transform="matrix(1 0 0 1 173.8947 744.0954)" class="st5 st8">Inosine</text>
</g>
<g>
	<text transform="matrix(1 0 0 1 178.8993 732.3754)" class="st5 st8">Indole</text>
</g>
<g>
	<text transform="matrix(1 0 0 1 148.8305 720.6654)" class="st5 st8">Glutathione</text>
</g>
<g>
	<text transform="matrix(1 0 0 1 168.5512 708.9554)" class="st5 st8">Cytidine</text>
</g>
<g>
	<text transform="matrix(1 0 0 1 155.4865 697.2354)" class="st5 st8">Adenosine</text>
</g>
<g>
	<text transform="matrix(1 0 0 1 170.0727 685.5254)" class="st5 st8">L-Lysine</text>
</g>
<g>
	<text transform="matrix(1 0 0 1 161.5966 673.8054)" class="st5 st8">L-Leucine</text>
</g>
<g>
	<text transform="matrix(1 0 0 1 149.0907 662.0954)" class="st5 st8">L-Isoleucine</text>
</g>
<g>
	<text transform="matrix(1 0 0 1 143.4096 650.3754)" class="st5 st8">L-Idonic Acid</text>
</g>
<g>
	<text transform="matrix(1 0 0 1 155.578 638.6654)" class="st5 st8">L-Histidine</text>
</g>
<g>
	<text transform="matrix(1 0 0 1 157.5924 626.9554)" class="st5 st8">L-Arginine</text>
</g>
<g>
	<text transform="matrix(1 0 0 1 154.8622 615.2355)" class="st5 st8">Hexanoate</text>
</g>
<g>
	<text transform="matrix(1 0 0 1 126.0422 603.5254)" class="st5 st8">D-Gluconic Acid</text>
</g>
<g>
	<text transform="matrix(1 0 0 1 158.6322 591.8054)" class="st5 st8">Citric Acid</text>
</g>
<g>
	<text transform="matrix(1 0 0 1 109.9223 580.0955)" class="st5 st8">5-Methylthioribose</text>
</g>
<g>
	<text transform="matrix(1 0 0 1 123.2731 568.3755)" class="st5 st8">5-Ketogluconate</text>
</g>
<g>
	<text transform="matrix(1 0 0 1 128.057 556.6654)" class="st5 st8">α-Ketoglutarate</text>
</g>
<g>
	<text transform="matrix(1 0 0 1 164.3395 544.9554)" class="st5 st8">Xanthine</text>
</g>
<g>
	<text transform="matrix(1 0 0 1 166.2502 533.2355)" class="st5 st8">Thymine</text>
</g>
<g>
	<text transform="matrix(1 0 0 1 161.5966 521.5254)" class="st5 st8">Ornithine</text>
</g>
<g>
	<text transform="matrix(1 0 0 1 120.3485 509.8055)" class="st5 st8">O-Acetyl-L-serine</text>
</g>
<g>
	<text transform="matrix(1 0 0 1 171.0343 498.0954)" class="st5 st8">L-Valine</text>
</g>
<g>
	<text transform="matrix(1 0 0 1 166.0168 486.3755)" class="st5 st8">L-Proline</text>
</g>
<g>
	<text transform="matrix(1 0 0 1 146.6471 474.6654)" class="st5 st8">L-Glutamate</text>
</g>
<g>
	<text transform="matrix(1 0 0 1 136.5981 462.9554)" class="st5 st8">Hypoxanthine</text>
</g>
<g>
	<text transform="matrix(1 0 0 1 167.5895 451.2354)" class="st5 st8">Guanine</text>
</g>
<g>
	<text transform="matrix(1 0 0 1 152.4836 439.5254)" class="st5 st8">Cadaverine</text>
</g>
<g>
	<text transform="matrix(1 0 0 1 160.2831 427.8055)" class="st5 st8">Agmatine</text>
</g>
<g>
	<text transform="matrix(1 0 0 1 167.7716 416.0954)" class="st5 st8">Adenine</text>
</g>
<g>
	<text transform="matrix(1 0 0 1 120.894 404.3754)" class="st5 st8">γ-Aminobutyrate</text>
</g>
<g>
	<text transform="matrix(1 0 0 1 182.6042 392.6654)" class="st5 st8">Uracil</text>
</g>
<g>
	<text transform="matrix(1 0 0 1 161.0502 380.9554)" class="st5 st8">Succinate</text>
</g>
<g>
	<text transform="matrix(1 0 0 1 156.8385 369.2355)" class="st5 st8">Putrescine</text>
</g>
<g>
	<text transform="matrix(1 0 0 1 149.1293 357.5255)" class="st5 st8">L-Threonine</text>
</g>
<g>
	<text transform="matrix(1 0 0 1 167.0048 345.8055)" class="st5 st8">L-Malate</text>
</g>
<g>
	<text transform="matrix(1 0 0 1 137.4948 334.0955)" class="st5 st8">L-Homoserine</text>
</g>
<g>
	<text transform="matrix(1 0 0 1 151.3656 322.3754)" class="st5 st8">L-Aspartate</text>
</g>
<g>
	<text transform="matrix(1 0 0 1 142.7724 310.6655)" class="st5 st8">L-Asparagine</text>
</g>
<g>
	<text transform="matrix(1 0 0 1 164.3004 298.9554)" class="st5 st8">Allantoin</text>
</g>
<g>
	<text transform="matrix(1 0 0 1 165.7438 287.2355)" class="st5 st8">Pyruvate</text>
</g>
<g>
	<text transform="matrix(1 0 0 1 169.7477 275.5255)" class="st5 st8">L-Serine</text>
</g>
<g>
	<text transform="matrix(1 0 0 1 164.1708 263.8055)" class="st5 st8">L-Lactate</text>
</g>
<g>
	<text transform="matrix(1 0 0 1 157.6579 252.0955)" class="st5 st8">L-Cysteine</text>
</g>
<g>
	<text transform="matrix(1 0 0 1 162.6369 240.3755)" class="st5 st8">L-Alanine</text>
</g>
<g>
	<text transform="matrix(1 0 0 1 100.2372 228.6655)" class="st5 st8">Glycerol3-phosphate</text>
</g>
<g>
	<text transform="matrix(1 0 0 1 169.3576 216.9554)" class="st5 st8">Glycerol</text>
</g>
<g>
	<text transform="matrix(1 0 0 1 129.4345 205.2355)" class="st5 st8">Glyceraldehyde</text>
</g>
<g>
	<text transform="matrix(1 0 0 1 114.3547 193.5255)" class="st5 st8">Dihydroxyacetone</text>
</g>
<g>
	<text transform="matrix(1 0 0 1 160.9208 181.8055)" class="st5 st8">D-Lactate</text>
</g>
<g>
	<text transform="matrix(1 0 0 1 159.3869 170.0955)" class="st5 st8">D-Alanine</text>
</g>
<g>
	<text transform="matrix(1 0 0 1 93.7895 158.3755)" class="st5 st8">3-Hydroxypropanoate</text>
</g>
<g>
	<text transform="matrix(1 0 0 1 129.6815 146.6655)" class="st5 st8">(S)-Propanediol</text>
</g>
<g>
	<text transform="matrix(1 0 0 1 129.0966 134.9554)" class="st5 st8">(R)-Propanediol</text>
</g>
<g>
	<text transform="matrix(1 0 0 1 143.9948 123.2355)" class="st5 st8">(R)-Glycerate</text>
</g>
<g>
	<text transform="matrix(1 0 0 1 163.0395 111.5255)" class="st5 st8">Glycolate</text>
</g>
<g>
	<text transform="matrix(1 0 0 1 173.3481 99.8055)" class="st5 st8">Glycine</text>
</g>
<g>
	<text transform="matrix(1 0 0 1 137.9628 88.0955)" class="st5 st8">Ethanolamine</text>
</g>
<g>
	<text transform="matrix(1 0 0 1 171.8402 76.3755)" class="st5 st8">Ethanol</text>
</g>
<g>
	<text transform="matrix(1 0 0 1 172.0873 64.6655)" class="st5 st8">Acetate</text>
</g>
<g>
	<text transform="matrix(1 0 0 1 138.9767 52.9554)" class="st5 st8">Acetaldehyde</text>
</g>
<g>
	<text transform="matrix(1 0 0 1 188.0902 41.2355)" class="st5 st8">Urea</text>
</g>
<g>
	<text transform="matrix(1 0 0 1 168.2392 29.5255)" class="st5 st8">Formate</text>
</g>
<g>
	<g transform="translate(400,100)">
		<rect x="190.1" y="124.8" class="st9" width="81.1" height="411"/>
		<g transform="translate(0,215)">
			
				<linearGradient id="SVGID_3_" gradientUnits="userSpaceOnUse" x1="-316.0213" y1="580.4709" x2="-316.0213" y2="581.4709" gradientTransform="matrix(20 0 0 -390 6531 226694)">
				<stop  offset="0" style="stop-color:#2166AC"/>
				<stop  offset="0.125" style="stop-color:#4393C3"/>
				<stop  offset="0.25" style="stop-color:#92C5DE"/>
				<stop  offset="0.375" style="stop-color:#D1E5F0"/>
				<stop  offset="0.5" style="stop-color:#F7F7F7"/>
				<stop  offset="0.625" style="stop-color:#FDDBC7"/>
				<stop  offset="0.75" style="stop-color:#F4A582"/>
				<stop  offset="0.875" style="stop-color:#D6604D"/>
				<stop  offset="1" style="stop-color:#B2182B"/>
			</linearGradient>
			<rect x="200.6" y="-79.7" class="st10" width="20" height="390"/>
		</g>
		<g transform="translate(0,215)">
		</g>
		<g transform="translate(0,-100)">
			<path class="st11" d="M220.6,625.3h5"/>
			<path class="st11" d="M220.6,586.3h5"/>
			<path class="st11" d="M220.6,547.3h5"/>
			<path class="st11" d="M220.6,508.3h5"/>
			<path class="st11" d="M220.6,469.3h5"/>
			<path class="st11" d="M220.6,430.3h5"/>
			<path class="st11" d="M220.6,391.3h5"/>
			<path class="st11" d="M220.6,352.3h5"/>
			<path class="st11" d="M220.6,313.3h5"/>
			<path class="st11" d="M220.6,274.3h5"/>
			<path class="st11" d="M220.6,235.3h5"/>
			<g>
				<text transform="matrix(1 0 0 1 227.9745 629.5404)" class="st12 st13">−100</text>
			</g>
			<g>
				<text transform="matrix(1 0 0 1 227.9745 590.5404)" class="st12 st13">−80</text>
			</g>
			<g>
				<text transform="matrix(1 0 0 1 227.9745 551.5404)" class="st12 st13">−60</text>
			</g>
			<g>
				<text transform="matrix(1 0 0 1 227.9745 512.5404)" class="st12 st13">−40</text>
			</g>
			<g>
				<text transform="matrix(1 0 0 1 227.9745 473.5404)" class="st12 st13">−20</text>
			</g>
			<g>
				<text transform="matrix(1 0 0 1 227.9745 434.5404)" class="st12 st13">0</text>
			</g>
			<g>
				<text transform="matrix(1 0 0 1 227.9745 395.5404)" class="st12 st13">20</text>
			</g>
			<g>
				<text transform="matrix(1 0 0 1 227.9745 356.5405)" class="st12 st13">40</text>
			</g>
			<g>
				<text transform="matrix(1 0 0 1 227.9745 317.5405)" class="st12 st13">60</text>
			</g>
			<g>
				<text transform="matrix(1 0 0 1 227.9745 278.5405)" class="st12 st13">80</text>
			</g>
			<g>
				<text transform="matrix(1 0 0 1 227.9745 239.5405)" class="st12 st13">100</text>
			</g>
		</g>
		<g transform="translate(-400,-100)">
		</g>
		<rect x="200.6" y="135.3" class="st14" width="20" height="390"/>
	</g>
</g>
<g>
	<polyline class="st15" points="389.5,840.1 389.5,845.5 284,845.5 284,840.1 	"/>
	<line class="st15" x1="336.8" y1="851.9" x2="336.8" y2="845.4"/>
</g>
<g>
	<polyline class="st15" points="422,840.1 422,845.5 391.4,845.5 391.4,840.1 	"/>
	<line class="st15" x1="406.7" y1="851.9" x2="406.7" y2="845.4"/>
</g>
<g>
	<polyline class="st15" points="432.3,840.1 432.3,845.5 423,845.5 423,840.1 	"/>
	<line class="st15" x1="427.6" y1="851.9" x2="427.6" y2="845.4"/>
</g>
<g>
	<polyline class="st16" points="438.6,840.1 438.6,845.5 433.2,845.5 433.2,840.1 	"/>
	<line class="st16" x1="435.9" y1="851.9" x2="435.9" y2="845.4"/>
</g>
<g>
	<polyline class="st17" points="466,840.1 466,845.5 454.9,845.5 454.9,840.1 	"/>
	<line class="st17" x1="460.5" y1="851.9" x2="460.5" y2="845.4"/>
</g>
</svg>
